<svg xmlns="http://www.w3.org/2000/svg" xmlns:xlink="http://www.w3.org/1999/xlink" contentStyleType="text/css" data-diagram-type="DESCRIPTION" height="1300px" preserveAspectRatio="none" style="width:1195px;height:1300px;background:#FFFFFF;" version="1.1" viewBox="0 0 1195 1300" width="1195px" zoomAndPan="magnify"><title>TicketPlus - Use Case Diagram</title><defs/><g><g class="title" data-source-line="2"><text fill="#000000" font-family="sans-serif" font-size="14" font-weight="bold" lengthAdjust="spacing" textLength="209.8172" x="489.0914" y="24.9659">TicketPlus - Use Case Diagram</text></g><!--cluster TicketPlus Platform--><g class="cluster" data-entity="TicketPlus Platform" data-source-line="13" data-uid="ent0007" id="cluster_TicketPlus Platform"><rect fill="none" height="1138" rx="2.5" ry="2.5" style="stroke:#181818;stroke-width:1;" width="1050" x="139" y="52.0679"/><text fill="#000000" font-family="sans-serif" font-size="14" font-weight="bold" lengthAdjust="spacing" textLength="137.2415" x="595.3793" y="69.0339">TicketPlus Platform</text></g><!--cluster Event Discovery--><g class="cluster" data-entity="Event Discovery" data-source-line="15" data-uid="ent0008" id="cluster_Event Discovery"><rect fill="none" height="212" rx="2.5" ry="2.5" style="stroke:#181818;stroke-width:1;" width="232" x="194.5" y="82.0679"/><text fill="#000000" font-family="sans-serif" font-size="14" font-weight="bold" lengthAdjust="spacing" textLength="111.0056" x="254.9972" y="99.0339">Event Discovery</text></g><!--cluster Booking Workflow--><g class="cluster" data-entity="Booking Workflow" data-source-line="21" data-uid="ent0012" id="cluster_Booking Workflow"><rect fill="none" height="200" rx="2.5" ry="2.5" style="stroke:#181818;stroke-width:1;" width="953" x="197.5" y="302.0679"/><text fill="#000000" font-family="sans-serif" font-size="14" font-weight="bold" lengthAdjust="spacing" textLength="128.9675" x="609.5162" y="319.0339">Booking Workflow</text></g><!--cluster Checkout & Issuance--><g class="cluster" data-entity="Checkout . Issuance" data-source-line="29" data-uid="ent0018" id="cluster_Checkout . Issuance"><rect fill="none" height="154" rx="2.5" ry="2.5" style="stroke:#181818;stroke-width:1;" width="992" x="189" y="510.0679"/><text fill="#000000" font-family="sans-serif" font-size="14" font-weight="bold" lengthAdjust="spacing" textLength="145.6694" x="612.1653" y="527.0339">Checkout &amp; Issuance</text></g><!--cluster Administrative Management--><g class="cluster" data-entity="Administrative Management" data-source-line="37" data-uid="ent0024" id="cluster_Administrative Management"><rect fill="none" height="360" rx="2.5" ry="2.5" style="stroke:#181818;stroke-width:1;" width="327" x="147" y="672.0679"/><text fill="#000000" font-family="sans-serif" font-size="14" font-weight="bold" lengthAdjust="spacing" textLength="201.8232" x="209.5884" y="689.0339">Administrative Management</text></g><!--cluster Identity & Access--><g class="cluster" data-entity="Identity . Access" data-source-line="45" data-uid="ent0030" id="cluster_Identity . Access"><rect fill="none" height="142" rx="2.5" ry="2.5" style="stroke:#181818;stroke-width:1;" width="253" x="184" y="1040.0679"/><text fill="#000000" font-family="sans-serif" font-size="14" font-weight="bold" lengthAdjust="spacing" textLength="120.1895" x="250.4052" y="1057.0339">Identity &amp; Access</text></g><!--entity Buyer--><g class="entity" data-entity="Buyer" data-source-line="7" data-uid="ent0002" id="entity_Buyer"><ellipse cx="58.7849" cy="388.0679" fill="#F1F1F1" rx="8" ry="8" style="stroke:#181818;stroke-width:0.5;"/><path d="M58.7849,396.0679 L58.7849,423.0679 M45.7849,404.0679 L71.7849,404.0679 M58.7849,423.0679 L45.7849,438.0679 M58.7849,423.0679 L71.7849,438.0679" fill="none" style="stroke:#181818;stroke-width:0.5;"/><text fill="#000000" font-family="sans-serif" font-size="14" lengthAdjust="spacing" textLength="38.5698" x="39.5" y="454.5339">Buyer</text></g><!--entity Organizer--><g class="entity" data-entity="Organizer" data-source-line="8" data-uid="ent0003" id="entity_Organizer"><ellipse cx="58.9198" cy="873.0679" fill="#F1F1F1" rx="8" ry="8" style="stroke:#181818;stroke-width:0.5;"/><path d="M58.9198,881.0679 L58.9198,908.0679 M45.9198,889.0679 L71.9198,889.0679 M58.9198,908.0679 L45.9198,923.0679 M58.9198,908.0679 L71.9198,923.0679" fill="none" style="stroke:#181818;stroke-width:0.5;"/><text fill="#000000" font-family="sans-serif" font-size="14" lengthAdjust="spacing" textLength="105.8396" x="6" y="939.5339">Event Organizer</text></g><!--entity Admin--><g class="entity" data-entity="Admin" data-source-line="9" data-uid="ent0004" id="entity_Admin"><ellipse cx="59.0608" cy="1056.0679" fill="#F1F1F1" rx="8" ry="8" style="stroke:#181818;stroke-width:0.5;"/><path d="M59.0608,1064.0679 L59.0608,1091.0679 M46.0608,1072.0679 L72.0608,1072.0679 M59.0608,1091.0679 L46.0608,1106.0679 M59.0608,1091.0679 L72.0608,1106.0679" fill="none" style="stroke:#181818;stroke-width:0.5;"/><text fill="#000000" font-family="sans-serif" font-size="14" lengthAdjust="spacing" textLength="94.1216" x="12" y="1122.5339">System Admin</text></g><!--entity PG--><g class="entity" data-entity="PG" data-source-line="10" data-uid="ent0005" id="entity_PG"><ellipse cx="1057.3948" cy="1225.6358" fill="#F1F1F1" rx="8" ry="8" style="stroke:#181818;stroke-width:0.5;"/><path d="M1057.3948,1233.6358 L1057.3948,1260.6358 M1044.3948,1241.6358 L1070.3948,1241.6358 M1057.3948,1260.6358 L1044.3948,1275.6358 M1057.3948,1260.6358 L1070.3948,1275.6358" fill="none" style="stroke:#181818;stroke-width:0.5;"/><text fill="#000000" font-family="sans-serif" font-size="14" lengthAdjust="spacing" textLength="118.7895" x="998" y="1292.1018">Payment Gateway</text><text fill="#000000" font-family="sans-serif" font-size="14" font-style="italic" lengthAdjust="spacing" textLength="63.9798" x="1025.4049" y="1213.0339">&#171;external&#187;</text></g><!--entity NP--><g class="entity" data-entity="NP" data-source-line="11" data-uid="ent0006" id="entity_NP"><ellipse cx="672.9697" cy="1225.6358" fill="#F1F1F1" rx="8" ry="8" style="stroke:#181818;stroke-width:0.5;"/><path d="M672.9697,1233.6358 L672.9697,1260.6358 M659.9697,1241.6358 L685.9697,1241.6358 M672.9697,1260.6358 L659.9697,1275.6358 M672.9697,1260.6358 L685.9697,1275.6358" fill="none" style="stroke:#181818;stroke-width:0.5;"/><text fill="#000000" font-family="sans-serif" font-size="14" lengthAdjust="spacing" textLength="135.9395" x="605" y="1292.1018">Notification Provider</text><text fill="#000000" font-family="sans-serif" font-size="14" font-style="italic" lengthAdjust="spacing" textLength="63.9798" x="640.9799" y="1213.0339">&#171;external&#187;</text></g><!--entity UC1--><g class="entity" data-entity="UC1" data-source-line="16" data-uid="ent0009" id="entity_UC1"><ellipse cx="310.3707" cy="135.1421" fill="#F1F1F1" rx="100.8707" ry="22.5741" style="stroke:#181818;stroke-width:0.5;"/><text fill="#000000" font-family="sans-serif" font-size="14" lengthAdjust="spacing" textLength="170.9533" x="224.894" y="141.176">Search events by keyword</text></g><!--entity UC2--><g class="entity" data-entity="UC2" data-source-line="17" data-uid="ent0010" id="entity_UC2"><ellipse cx="310.6117" cy="200.0903" fill="#F1F1F1" rx="108.1117" ry="24.0223" style="stroke:#181818;stroke-width:0.5;"/><text fill="#000000" font-family="sans-serif" font-size="14" lengthAdjust="spacing" textLength="187.3613" x="216.9311" y="206.1242">Filter by genre/date/location</text></g><!--entity UC3--><g class="entity" data-entity="UC3" data-source-line="18" data-uid="ent0011" id="entity_UC3"><ellipse cx="310.6036" cy="264.2886" fill="#F1F1F1" rx="96.6036" ry="21.7207" style="stroke:#181818;stroke-width:0.5;"/><text fill="#000000" font-family="sans-serif" font-size="14" lengthAdjust="spacing" textLength="161.1114" x="230.0479" y="270.3226">View live seat availability</text></g><!--entity UC4--><g class="entity" data-entity="UC4" data-source-line="22" data-uid="ent0013" id="entity_UC4"><ellipse cx="310.3173" cy="355.2314" fill="#F1F1F1" rx="101.3173" ry="22.6635" style="stroke:#181818;stroke-width:0.5;"/><text fill="#000000" font-family="sans-serif" font-size="14" lengthAdjust="spacing" textLength="171.9753" x="224.3296" y="361.2653">Enter virtual waiting room</text></g><!--entity UC5--><g class="entity" data-entity="UC5" data-source-line="23" data-uid="ent0014" id="entity_UC5"><ellipse cx="310.7152" cy="419.0109" fill="#F1F1F1" rx="105.2152" ry="23.443" style="stroke:#181818;stroke-width:0.5;"/><text fill="#000000" font-family="sans-serif" font-size="14" lengthAdjust="spacing" textLength="180.8373" x="220.2965" y="425.0449">View interactive venue map</text></g><!--entity UC6--><g class="entity" data-entity="UC6" data-source-line="24" data-uid="ent0015" id="entity_UC6"><ellipse cx="310.6887" cy="477.051" fill="#F1F1F1" rx="63.1887" ry="16.4831" style="stroke:#181818;stroke-width:0.5;"/><text fill="#000000" font-family="sans-serif" font-size="14" lengthAdjust="spacing" textLength="85.1197" x="268.1289" y="483.0849">Select seat(s)</text></g><!--entity UC7--><g class="entity" data-entity="UC7" data-source-line="25" data-uid="ent0016" id="entity_UC7"><ellipse cx="673.069" cy="468.9817" fill="#F1F1F1" rx="110.069" ry="24.4138" style="stroke:#181818;stroke-width:0.5;"/><text fill="#000000" font-family="sans-serif" font-size="14" lengthAdjust="spacing" textLength="191.7433" x="577.1974" y="475.0157">Lock seat(s) temporarily (TTL)</text></g><!--entity UC8--><g class="entity" data-entity="UC8" data-source-line="26" data-uid="ent0017" id="entity_UC8"><ellipse cx="1057.7023" cy="469.0084" fill="#F1F1F1" rx="85.2023" ry="19.4405" style="stroke:#181818;stroke-width:0.5;"/><text fill="#000000" font-family="sans-serif" font-size="14" lengthAdjust="spacing" textLength="133.9375" x="990.7336" y="475.0423">Release expired lock</text></g><!--entity UC9--><g class="entity" data-entity="UC9" data-source-line="30" data-uid="ent0019" id="entity_UC9"><ellipse cx="310.3402" cy="565.136" fill="#F1F1F1" rx="113.3402" ry="25.068" style="stroke:#181818;stroke-width:0.5;"/><text fill="#000000" font-family="sans-serif" font-size="14" lengthAdjust="spacing" textLength="199.0232" x="210.8286" y="571.1699">Checkout / pay for reservation</text></g><!--entity UC10--><g class="entity" data-entity="UC10" data-source-line="31" data-uid="ent0020" id="entity_UC10"><ellipse cx="672.8032" cy="612.8286" fill="#F1F1F1" rx="76.8032" ry="17.7606" style="stroke:#181818;stroke-width:0.5;"/><text fill="#000000" font-family="sans-serif" font-size="14" lengthAdjust="spacing" textLength="112.6856" x="616.4605" y="618.8625">Process payment</text></g><!--entity UC11--><g class="entity" data-entity="UC11" data-source-line="32" data-uid="ent0021" id="entity_UC11"><ellipse cx="1057.6683" cy="633.1016" fill="#F1F1F1" rx="98.1683" ry="22.0337" style="stroke:#181818;stroke-width:0.5;"/><text fill="#000000" font-family="sans-serif" font-size="14" lengthAdjust="spacing" textLength="164.7374" x="975.2996" y="639.1355">Issue ticket with QR code</text></g><!--entity UC12--><g class="entity" data-entity="UC12" data-source-line="33" data-uid="ent0022" id="entity_UC12"><ellipse cx="1057.4914" cy="567.0662" fill="#F1F1F1" rx="115.4914" ry="25.4983" style="stroke:#181818;stroke-width:0.5;"/><text fill="#000000" font-family="sans-serif" font-size="14" lengthAdjust="spacing" textLength="203.7832" x="955.5998" y="573.1001">Roll back reservation on failure</text></g><!--entity UC13--><g class="entity" data-entity="UC13" data-source-line="34" data-uid="ent0023" id="entity_UC13"><ellipse cx="310.3264" cy="631.9332" fill="#F1F1F1" rx="107.3264" ry="23.8653" style="stroke:#181818;stroke-width:0.5;"/><text fill="#000000" font-family="sans-serif" font-size="14" lengthAdjust="spacing" textLength="185.5973" x="217.5278" y="637.9672">Receive booking notification</text></g><!--entity UC14--><g class="entity" data-entity="UC14" data-source-line="38" data-uid="ent0025" id="entity_UC14"><ellipse cx="310.433" cy="736.0545" fill="#F1F1F1" rx="155.433" ry="33.4866" style="stroke:#181818;stroke-width:0.5;"/><text fill="#000000" font-family="sans-serif" font-size="14" lengthAdjust="spacing" textLength="289.5749" x="165.6455" y="742.0885">Configure venue layout (sectors/rows/seats)</text></g><!--entity UC15--><g class="entity" data-entity="UC15" data-source-line="39" data-uid="ent0026" id="entity_UC15"><ellipse cx="310.4068" cy="809.2493" fill="#F1F1F1" rx="93.9068" ry="21.1814" style="stroke:#181818;stroke-width:0.5;"/><text fill="#000000" font-family="sans-serif" font-size="14" lengthAdjust="spacing" textLength="154.8114" x="233.0011" y="815.2832">Create / schedule event</text></g><!--entity UC16--><g class="entity" data-entity="UC16" data-source-line="40" data-uid="ent0027" id="entity_UC16"><ellipse cx="310.7205" cy="868.312" fill="#F1F1F1" rx="86.7205" ry="19.7441" style="stroke:#181818;stroke-width:0.5;"/><text fill="#000000" font-family="sans-serif" font-size="14" lengthAdjust="spacing" textLength="137.6474" x="241.8967" y="874.346">Define pricing model</text></g><!--entity UC17--><g class="entity" data-entity="UC17" data-source-line="41" data-uid="ent0028" id="entity_UC17"><ellipse cx="310.6963" cy="930.1072" fill="#F1F1F1" rx="110.6963" ry="24.5393" style="stroke:#181818;stroke-width:0.5;"/><text fill="#000000" font-family="sans-serif" font-size="14" lengthAdjust="spacing" textLength="193.1432" x="214.1247" y="936.1411">Manage event lifecycle status</text></g><!--entity UC18--><g class="entity" data-entity="UC18" data-source-line="42" data-uid="ent0029" id="entity_UC18"><ellipse cx="310.6174" cy="997.9914" fill="#F1F1F1" rx="115.1174" ry="25.4235" style="stroke:#181818;stroke-width:0.5;"/><text fill="#000000" font-family="sans-serif" font-size="14" lengthAdjust="spacing" textLength="202.9572" x="209.1388" y="1004.0254">View sales analytics dashboard</text></g><!--entity UC19--><g class="entity" data-entity="UC19" data-source-line="46" data-uid="ent0031" id="entity_UC19"><ellipse cx="310.3344" cy="1087.1348" fill="#F1F1F1" rx="73.3344" ry="17.0669" style="stroke:#181818;stroke-width:0.5;"/><text fill="#000000" font-family="sans-serif" font-size="14" lengthAdjust="spacing" textLength="103.4316" x="258.6186" y="1093.1688">Register / Login</text></g><!--entity UC20--><g class="entity" data-entity="UC20" data-source-line="47" data-uid="ent0032" id="entity_UC20"><ellipse cx="310.6009" cy="1148.1881" fill="#F1F1F1" rx="118.6009" ry="26.1202" style="stroke:#181818;stroke-width:0.5;"/><text fill="#000000" font-family="sans-serif" font-size="14" lengthAdjust="spacing" textLength="210.6292" x="205.2863" y="1154.2221">Manage role-based permissions</text></g><g class="link" data-entity-1="Buyer" data-entity-2="UC1" data-uid="lnk33" id="link_Buyer_UC1"><polygon fill="#181818" points="209.4158,135.9052,199.8385,133.6084,204.4991,136.8143,201.2931,141.475,209.4158,135.9052" style="stroke:#181818;stroke-width:1;"/><path d="M60.488,379.1798 C63.464,323.0586 77.6393,221.5695 139,167.0679 C158.3652,149.8675 178.061,141.7032 203.5158,136.9962" fill="none" style="stroke:#181818;stroke-width:1;"/></g><g class="link" data-entity-1="Buyer" data-entity-2="UC2" data-uid="lnk34" id="link_Buyer_UC2"><polygon fill="#181818" points="202.4692,204.4921,192.8074,202.5819,197.5931,205.5981,194.5769,210.3837,202.4692,204.4921" style="stroke:#181818;stroke-width:1;"/><path d="M65.7135,379.4589 C74.0655,336.6241 93.8577,269.5854 139,233.0679 C157.0493,218.4671 173.8145,210.9913 196.6178,205.8192" fill="none" style="stroke:#181818;stroke-width:1;"/></g><g class="link" data-entity-1="Buyer" data-entity-2="UC3" data-uid="lnk35" id="link_Buyer_UC3"><polygon fill="#181818" points="213.574,269.6383,203.9798,267.4132,208.6643,270.5842,205.4933,275.2687,213.574,269.6383" style="stroke:#181818;stroke-width:1;"/><path d="M75.9016,379.4601 C88.857,352.332 109.8014,317.8136 139,298.0679 C160.8776,283.2731 181.8269,275.755 207.6823,270.7734" fill="none" style="stroke:#181818;stroke-width:1;"/></g><g class="link" data-entity-1="Buyer" data-entity-2="UC4" data-uid="lnk36" id="link_Buyer_UC4"><polygon fill="#181818" points="208.5771,369.6978,198.9901,367.4417,203.6643,370.6278,200.4782,375.3021,208.5771,369.6978" style="stroke:#181818;stroke-width:1;"/><path d="M78.7367,409.8863 C94.4857,402.5015 117.7637,392.3536 139,386.0679 C161.2136,379.493 179.5941,375.1848 202.6818,370.8139" fill="none" style="stroke:#181818;stroke-width:1;"/></g><g class="link" data-entity-1="Buyer" data-entity-2="UC5" data-uid="lnk37" id="link_Buyer_UC5"><polygon fill="#181818" points="205.4525,419.0679,196.4525,415.0679,200.4525,419.0679,196.4525,423.0679,205.4525,419.0679" style="stroke:#181818;stroke-width:1;"/><path d="M78.7531,419.0679 C105.7818,419.0679 151.699,419.0679 199.4525,419.0679" fill="none" style="stroke:#181818;stroke-width:1;"/></g><g class="link" data-entity-1="Buyer" data-entity-2="UC6" data-uid="lnk38" id="link_Buyer_UC6"><polygon fill="#181818" points="247.2141,471.1084,238.7688,466.0412,242.2514,470.4989,237.7936,473.9816,247.2141,471.1084" style="stroke:#181818;stroke-width:1;"/><path d="M78.7238,428.1047 C94.4651,435.3452 117.739,445.2273 139,451.0679 C174.2254,460.7446 208.6438,466.3718 241.2588,470.3771" fill="none" style="stroke:#181818;stroke-width:1;"/></g><g class="link" data-entity-1="Buyer" data-entity-2="UC9" data-uid="lnk39" id="link_Buyer_UC9"><polygon fill="#181818" points="209.9835,539.9579,202.8305,533.1877,205.2692,538.2919,200.165,540.7306,209.9835,539.9579" style="stroke:#181818;stroke-width:1;"/><path d="M78.6606,445.9662 C93.1583,465.0875 114.8202,490.1101 139,506.0679 C160.4371,520.2156 179.9772,529.3543 204.3263,537.9587" fill="none" style="stroke:#181818;stroke-width:1;"/></g><g class="link" data-entity-1="Buyer" data-entity-2="UC13" data-uid="lnk40" id="link_Buyer_UC13"><polygon fill="#181818" points="202.5965,627.4854,194.7021,621.5966,197.72,626.3812,192.9354,629.3991,202.5965,627.4854" style="stroke:#181818;stroke-width:1;"/><path d="M66.4157,458.9432 C75.2753,500.4731 95.4102,564.2346 139,599.0679 C157.1361,613.5608 173.9353,620.9957 196.7447,626.1604" fill="none" style="stroke:#181818;stroke-width:1;"/></g><g class="link" data-entity-1="Buyer" data-entity-2="UC19" data-uid="lnk41" id="link_Buyer_UC19"><polygon fill="#181818" points="236.5809,1083.1139,228.3662,1077.6808,231.6497,1082.2871,227.0434,1085.5707,236.5809,1083.1139" style="stroke:#181818;stroke-width:1;"/><path d="M64.781,458.6732 C81.162,594.0716 134.2777,1030.5038 139,1036.0679 C162.991,1064.3354 196.0364,1076.3161 230.6635,1082.1218" fill="none" style="stroke:#181818;stroke-width:1;"/></g><g class="link" data-entity-1="UC6" data-entity-2="UC7" data-uid="lnk42" id="link_UC6_UC7"><polygon fill="#181818" points="562.7158,471.4931,553.6293,467.6937,557.7171,471.604,553.8068,475.6918,562.7158,471.4931" style="stroke:#181818;stroke-width:1;"/><path d="M373.8827,475.6836 C425.7749,474.532 494.8776,472.9985 556.7173,471.6262" fill="none" style="stroke:#181818;stroke-width:1;stroke-dasharray:7,7;"/><text fill="#000000" font-family="sans-serif" font-size="13" lengthAdjust="spacing" textLength="57.5771" x="486" y="467.9649">&#171;include&#187;</text></g><g class="link" data-entity-1="UC7" data-entity-2="UC8" data-uid="lnk43" id="link_UC7_UC8"><polygon fill="#181818" points="972.4954,469.0679,963.4954,465.0679,967.4954,469.0679,963.4954,473.0679,972.4954,469.0679" style="stroke:#181818;stroke-width:1;"/><path d="M783.0973,469.0679 C843.269,469.0679 910.8362,469.0679 966.4954,469.0679" fill="none" style="stroke:#181818;stroke-width:1;stroke-dasharray:7,7;"/><text fill="#000000" font-family="sans-serif" font-size="13" lengthAdjust="spacing" textLength="55.497" x="835" y="463.9649">&#171;extend&#187;</text></g><g class="link" data-entity-1="UC9" data-entity-2="UC10" data-uid="lnk44" id="link_UC9_UC10"><polygon fill="#181818" points="595.86,602.93,587.4667,597.7771,590.9038,602.2701,586.4108,605.7072,595.86,602.93" style="stroke:#181818;stroke-width:1;"/><path d="M424.0816,580.058 C479.9646,587.4987 540.0514,595.4992 589.9125,602.1381" fill="none" style="stroke:#181818;stroke-width:1;stroke-dasharray:7,7;"/><text fill="#000000" font-family="sans-serif" font-size="13" lengthAdjust="spacing" textLength="57.5771" x="486" y="583.9649">&#171;include&#187;</text></g><g class="link" data-entity-1="UC10" data-entity-2="UC11" data-uid="lnk45" id="link_UC10_UC11"><polygon fill="#181818" points="959.3836,630.8162,950.5052,626.5532,954.3858,630.6691,950.2699,634.5497,959.3836,630.8162" style="stroke:#181818;stroke-width:1;"/><path d="M750.1761,620.3045 C766.9085,621.7156 784.5428,623.066 801,624.0679 C853.2777,627.2506 905.6489,629.2349 953.3862,630.6397" fill="none" style="stroke:#181818;stroke-width:1;stroke-dasharray:7,7;"/><text fill="#000000" font-family="sans-serif" font-size="13" lengthAdjust="spacing" textLength="57.5771" x="834" y="618.9649">&#171;include&#187;</text></g><g class="link" data-entity-1="UC10" data-entity-2="UC12" data-uid="lnk46" id="link_UC10_UC12"><polygon fill="#181818" points="941.7764,580.8647,932.3631,577.968,936.8121,581.4618,933.3184,585.9107,941.7764,580.8647" style="stroke:#181818;stroke-width:1;"/><path d="M750.027,603.9248 C804.8209,597.3352 873.7753,589.0427 935.8193,581.5812" fill="none" style="stroke:#181818;stroke-width:1;stroke-dasharray:7,7;"/><text fill="#000000" font-family="sans-serif" font-size="13" lengthAdjust="spacing" textLength="55.497" x="834.876" y="559.9649">&#171;extend&#187;</text><text fill="#000000" font-family="sans-serif" font-size="13" lengthAdjust="spacing" textLength="119.2491" x="803" y="577.6709">(on failure/timeout)</text></g><g class="link" data-entity-1="Organizer" data-entity-2="UC14" data-uid="lnk47" id="link_Organizer_UC14"><polygon fill="#181818" points="154.9698,768.9616,145.1585,769.8207,150.5953,771.3831,149.0329,776.8199,154.9698,768.9616" style="stroke:#181818;stroke-width:1;"/><path d="M75.4848,864.5071 C88.4039,836.5798 109.4819,800.4597 139,779.0679 C144.0674,775.3956 144.1671,774.9414 149.7204,771.8674" fill="none" style="stroke:#181818;stroke-width:1;"/></g><g class="link" data-entity-1="Organizer" data-entity-2="UC15" data-uid="lnk48" id="link_Organizer_UC15"><polygon fill="#181818" points="216.2345,817.4043,206.6739,815.039,211.3115,818.2782,208.0722,822.9158,216.2345,817.4043" style="stroke:#181818;stroke-width:1;"/><path d="M101.2304,864.2622 C112.7002,855.0566 125.6854,846.1802 139,840.0679 C162.9247,829.0849 184.5056,823.0369 210.3269,818.453" fill="none" style="stroke:#181818;stroke-width:1;"/></g><g class="link" data-entity-1="Organizer" data-entity-2="UC16" data-uid="lnk49" id="link_Organizer_UC16"><polygon fill="#181818" points="223.879,880.422,214.4,877.7483,218.9302,881.1361,215.5425,885.6663,223.879,880.422" style="stroke:#181818;stroke-width:1;"/><path d="M112.3034,896.5211 C144.5973,891.8615 180.8649,886.6285 217.9405,881.2789" fill="none" style="stroke:#181818;stroke-width:1;"/></g><g class="link" data-entity-1="Organizer" data-entity-2="UC17" data-uid="lnk50" id="link_Organizer_UC17"><polygon fill="#181818" points="199.9614,918.6531,191.4245,913.7418,194.9884,918.1348,190.5953,921.6987,199.9614,918.6531" style="stroke:#181818;stroke-width:1;"/><path d="M112.3034,909.5184 C137.8098,912.1764 163.5321,914.8568 193.9938,918.0312" fill="none" style="stroke:#181818;stroke-width:1;"/></g><g class="link" data-entity-1="Organizer" data-entity-2="UC18" data-uid="lnk51" id="link_Organizer_UC18"><polygon fill="#181818" points="195.3631,982.7676,187.5587,976.76,190.5038,981.5897,185.6741,984.5349,195.3631,982.7676" style="stroke:#181818;stroke-width:1;"/><path d="M104.9688,943.6807 C115.5654,951.417 127.2226,958.7633 139,964.0679 C156.6133,972.001 170.2451,976.6792 189.532,981.3541" fill="none" style="stroke:#181818;stroke-width:1;"/></g><g class="link" data-entity-1="Organizer" data-entity-2="UC19" data-uid="lnk52" id="link_Organizer_UC19"><polygon fill="#181818" points="236.8314,1077.5496,228.9015,1071.7086,231.9482,1076.4749,227.1819,1079.5216,236.8314,1077.5496" style="stroke:#181818;stroke-width:1;"/><path d="M74.4367,943.5868 C87.1478,973.1019 108.4325,1012.2918 139,1036.0679 C167.0459,1057.8826 198.441,1069.1002 230.9716,1076.26" fill="none" style="stroke:#181818;stroke-width:1;"/></g><g class="link" data-entity-1="Admin" data-entity-2="UC20" data-uid="lnk53" id="link_Admin_UC20"><polygon fill="#181818" points="191.6843,1125.7359,183.7522,1119.8978,186.8007,1124.6629,182.0356,1127.7114,191.6843,1125.7359" style="stroke:#181818;stroke-width:1;"/><path d="M106.1001,1103.2308 C116.8285,1106.7156 128.2563,1110.2075 139,1113.0679 C155.9364,1117.5771 168.0901,1120.5522 185.824,1124.4483" fill="none" style="stroke:#181818;stroke-width:1;"/></g><g class="link" data-entity-1="Admin" data-entity-2="UC19" data-uid="lnk54" id="link_Admin_UC19"><polygon fill="#181818" points="236.7658,1087.0679,227.7658,1083.0679,231.7658,1087.0679,227.7658,1091.0679,236.7658,1087.0679" style="stroke:#181818;stroke-width:1;"/><path d="M106.0529,1087.0679 C142.6619,1087.0679 188.5535,1087.0679 230.7658,1087.0679" fill="none" style="stroke:#181818;stroke-width:1;"/></g><g class="link" data-entity-1="Admin" data-entity-2="UC18" data-uid="lnk55" id="link_Admin_UC18"><polygon fill="#181818" points="195.4022,1017.6049,185.6888,1015.9773,190.5604,1018.8526,187.6851,1023.7242,195.4022,1017.6049" style="stroke:#181818;stroke-width:1;"/><path d="M106.1151,1053.4588 C116.5531,1046.9593 127.8557,1040.7308 139,1036.0679 C156.7653,1028.6348 170.3975,1024.0484 189.592,1019.1022" fill="none" style="stroke:#181818;stroke-width:1;"/></g><g class="link" data-entity-1="UC10" data-entity-2="PG" data-uid="lnk56" id="link_UC10_PG"><polygon fill="#181818" points="1026.7421,1197.7437,1025.5178,1187.9712,1024.1592,1193.4625,1018.6679,1192.1039,1026.7421,1197.7437" style="stroke:#181818;stroke-width:1;"/><path d="M685.035,631.3586 C735.8071,715.5142 944.7322,1061.811 1023.6426,1192.6063" fill="none" style="stroke:#181818;stroke-width:1;"/></g><g class="link" data-entity-1="UC13" data-entity-2="NP" data-uid="lnk57" id="link_UC13_NP"><polygon fill="#181818" points="670.5271,1197.6679,674.0284,1188.4624,670.2534,1192.6754,666.0404,1188.9004,670.5271,1197.6679" style="stroke:#181818;stroke-width:1;"/><path d="M418.2125,639.5154 C438.5801,645.1602 458.3842,654.1027 474,668.0679 C632.9713,810.2356 664.0477,1079.4912 670.1987,1191.6769" fill="none" style="stroke:#181818;stroke-width:1;"/></g><!--SRC=[VLLDRnCn4BtlhnXoGELGqgRV25M25YgaKa9RuC9bufrih7ZjoFOcNH3_dR6p3d6s8eeYpynxzlDyE2yM5giQGM5h6W-k9eyQ2o-z8dYKOav-h1e7-_3D4LmX_rnBh2pMHQ5ewi4RiBAQUIYb9U6bqOMRIxr0Xi02nHmhUl0jxnR2HO726mk3zqrBTW3e8AwI-yEIj8Slja8jVtM0ZPL03wtpLCExifOw8k8gHSVOrc6J6_IqmZO2nZVmzYqzUR8QrULbWjuPBwTIO50DOskMikpEl1ldX2A8HrtnDGPRMHahz5DZwm7yBWf8rqtNk9PEc2NPDeI1FuqZ4J8uU22qOWOKO0ucBSofNHbRnhE_NHtcw8zIiP00gqXR6fPyiw4oQzqTPPHJlajQWP9B0aVe0PSe5Kwaahxj24TC-9E9VcyC5ww27yREfygiUge_w21ZAQrlKC4AfGzmQqpTxNdyZ0WPI9ple8Mlsn3KkEZm9xjPKPpbg7ZFlUemfpdcreXvGW1tmS9Oj5AriFVuU9iuPpdddlSD2tfQS8-MmAcRTyZpNXQkPYJcOHHUmYVd6jI2UedOO8RCQu4xW9lRaLrkL-GYvt1x2N8k449xfaeVvAXm986F7GOhwMVmzHw4AIdXTrhZtYW54zQ-BG3uE-M2DtP36-rcH50eoAGhkTuQX4JfDqWSC-cynLZDp_nGLBI-p6w2Z9xAYi_lIjwzBdiSvy5pGsjMRXYgk2dpuKxlN5cE4YVOYHcL3SzT79Q4tkcSQvfAJR2mKeJhr9mmbQ0x3RHMlTwD9sHAeXMyk_Fe6vSuPyyqiaD53fYjMgwFWnBTR6Bmtz3sU-bJoOVmo74llHEX-hr4tLF52UMf6iAjgUGc-HVFYhP6qVw4FIKioDRIEQvN4ZqwYEUpWlYYmlx-PNnAjgrHPXrbrd5cdMJMQMPTv2Vasx3qWWdm-dMmpk0DFwHI2zMKnEzeyAmZvp4IdbXTni155pWyw77OrSKE_nCRPJl-r7l_nc3ePKtSWQ-AOlDlalGUzrqdVTTfttNMTvttNPoEE3Uf0WUPoU7CF2_MLmhc-2QiZ-BwRbpy1G00]--></g></svg>