<svg xmlns="http://www.w3.org/2000/svg" xmlns:xlink="http://www.w3.org/1999/xlink" version="1.1" data-diagram-type="CLASS" style="width:1047px;height:1161px;background:#FFFFFF;" width="1047px" height="1161px" viewBox="0 0 1047 1161" zoomAndPan="magnify" preserveAspectRatio="none" contentStyleType="text/css"><?plantuml 1.2026.7beta6?><defs/><g font-family="sans-serif" lengthAdjust="spacing"><g class="title" data-source-line="1"><text x="415.254" y="22.995" fill="#000" font-size="14" textLength="209.952" font-weight="700">TicketPlus - Class Diagram</text></g><!--class Role--><g class="entity" data-qualified-name="Role" id="ent0001" data-source-line="5"><rect x="39.18" y="76.887" width="95.938" height="96.891" fill="#F1F1F1" style="stroke:#181818;stroke-width:0.5;" rx="2.5" ry="2.5"/><ellipse cx="69.094" cy="92.887" rx="11" ry="11" fill="#EB937F" style="stroke:#181818;stroke-width:1;"/><path d="M73.204,98.887 L65.485,98.887 L65.485,86.496 L73.204,86.496 L73.204,88.652 L67.938,88.652 L67.938,91.324 L72.704,91.324 L72.704,93.481 L67.938,93.481 L67.938,96.731 L73.204,96.731 L73.204,98.887 Z " fill="#000"/><text x="86.408" y="97.734" fill="#000" font-size="14" textLength="30.796">Role</text><line x1="40.18" y1="108.887" x2="134.118" y2="108.887" style="stroke:#181818;stroke-width:0.5;"/><text x="45.18" y="125.882" fill="#000" font-size="14" textLength="46.977">BUYER</text><text x="45.18" y="142.179" fill="#000" font-size="14" textLength="83.938">ORGANIZER</text><text x="45.18" y="158.476" fill="#000" font-size="14" textLength="47.038">ADMIN</text><line x1="40.18" y1="165.777" x2="134.118" y2="165.777" style="stroke:#181818;stroke-width:0.5;"/></g><!--class SeatStatus--><g class="entity" data-qualified-name="SeatStatus" id="ent0002" data-source-line="11"><rect x="170.06" y="76.887" width="108.18" height="96.891" fill="#F1F1F1" style="stroke:#181818;stroke-width:0.5;" rx="2.5" ry="2.5"/><ellipse cx="185.06" cy="92.887" rx="11" ry="11" fill="#EB937F" style="stroke:#181818;stroke-width:1;"/><path d="M189.169,98.887 L181.451,98.887 L181.451,86.496 L189.169,86.496 L189.169,88.652 L183.904,88.652 L183.904,91.324 L188.669,91.324 L188.669,93.481 L183.904,93.481 L183.904,96.731 L189.169,96.731 L189.169,98.887 Z " fill="#000"/><text x="199.06" y="97.734" fill="#000" font-size="14" textLength="76.18">SeatStatus</text><line x1="171.06" y1="108.887" x2="277.24" y2="108.887" style="stroke:#181818;stroke-width:0.5;"/><text x="176.06" y="125.882" fill="#000" font-size="14" textLength="76.487">AVAILABLE</text><text x="176.06" y="142.179" fill="#000" font-size="14" textLength="57.401">LOCKED</text><text x="176.06" y="158.476" fill="#000" font-size="14" textLength="60.45">BOOKED</text><line x1="171.06" y1="165.777" x2="277.24" y2="165.777" style="stroke:#181818;stroke-width:0.5;"/></g><!--class EventStatus--><g class="entity" data-qualified-name="EventStatus" id="ent0003" data-source-line="17"><rect x="312.79" y="60.587" width="116.718" height="129.484" fill="#F1F1F1" style="stroke:#181818;stroke-width:0.5;" rx="2.5" ry="2.5"/><ellipse cx="327.79" cy="76.587" rx="11" ry="11" fill="#EB937F" style="stroke:#181818;stroke-width:1;"/><path d="M331.899,82.587 L324.181,82.587 L324.181,70.196 L331.899,70.196 L331.899,72.352 L326.634,72.352 L326.634,75.024 L331.399,75.024 L331.399,77.181 L326.634,77.181 L326.634,80.431 L331.899,80.431 L331.899,82.587 Z " fill="#000"/><text x="341.79" y="81.434" fill="#000" font-size="14" textLength="84.718">EventStatus</text><line x1="313.79" y1="92.587" x2="428.508" y2="92.587" style="stroke:#181818;stroke-width:0.5;"/><text x="318.79" y="109.582" fill="#000" font-size="14" textLength="66.391">PLANNED</text><text x="318.79" y="125.879" fill="#000" font-size="14" textLength="63.602">ON_SALE</text><text x="318.79" y="142.176" fill="#000" font-size="14" textLength="98.889">SALE_PAUSED</text><text x="318.79" y="158.473" fill="#000" font-size="14" textLength="75.305">SOLD_OUT</text><text x="318.79" y="174.769" fill="#000" font-size="14" textLength="83.672">CANCELLED</text><line x1="313.79" y1="182.071" x2="428.508" y2="182.071" style="stroke:#181818;stroke-width:0.5;"/></g><!--class ReservationStatus--><g class="entity" data-qualified-name="ReservationStatus" id="ent0004" data-source-line="25"><rect x="7" y="291.517" width="160.297" height="113.188" fill="#F1F1F1" style="stroke:#181818;stroke-width:0.5;" rx="2.5" ry="2.5"/><ellipse cx="22" cy="307.517" rx="11" ry="11" fill="#EB937F" style="stroke:#181818;stroke-width:1;"/><path d="M26.109,313.517 L18.391,313.517 L18.391,301.126 L26.109,301.126 L26.109,303.282 L20.844,303.282 L20.844,305.954 L25.609,305.954 L25.609,308.111 L20.844,308.111 L20.844,311.361 L26.109,311.361 L26.109,313.517 Z " fill="#000"/><text x="36" y="312.364" fill="#000" font-size="14" textLength="128.297">ReservationStatus</text><line x1="8" y1="323.517" x2="166.297" y2="323.517" style="stroke:#181818;stroke-width:0.5;"/><text x="13" y="340.512" fill="#000" font-size="14" textLength="63.991">PENDING</text><text x="13" y="356.809" fill="#000" font-size="14" textLength="84.882">CONFIRMED</text><text x="13" y="373.106" fill="#000" font-size="14" textLength="60.361">EXPIRED</text><text x="13" y="389.403" fill="#000" font-size="14" textLength="83.672">CANCELLED</text><line x1="8" y1="396.704" x2="166.297" y2="396.704" style="stroke:#181818;stroke-width:0.5;"/></g><!--class PaymentStatus--><g class="entity" data-qualified-name="PaymentStatus" id="ent0005" data-source-line="32"><rect x="201.88" y="291.517" width="138.531" height="113.188" fill="#F1F1F1" style="stroke:#181818;stroke-width:0.5;" rx="2.5" ry="2.5"/><ellipse cx="216.88" cy="307.517" rx="11" ry="11" fill="#EB937F" style="stroke:#181818;stroke-width:1;"/><path d="M220.989,313.517 L213.271,313.517 L213.271,301.126 L220.989,301.126 L220.989,303.282 L215.724,303.282 L215.724,305.954 L220.489,305.954 L220.489,308.111 L215.724,308.111 L215.724,311.361 L220.989,311.361 L220.989,313.517 Z " fill="#000"/><text x="230.88" y="312.364" fill="#000" font-size="14" textLength="106.531">PaymentStatus</text><line x1="202.88" y1="323.517" x2="339.411" y2="323.517" style="stroke:#181818;stroke-width:0.5;"/><text x="207.88" y="340.512" fill="#000" font-size="14" textLength="69.166">INITIATED</text><text x="207.88" y="356.809" fill="#000" font-size="14" textLength="86.782">SUCCEEDED</text><text x="207.88" y="373.106" fill="#000" font-size="14" textLength="49.185">FAILED</text><text x="207.88" y="389.403" fill="#000" font-size="14" textLength="77.752">REFUNDED</text><line x1="202.88" y1="396.704" x2="339.411" y2="396.704" style="stroke:#181818;stroke-width:0.5;"/></g><!--class User--><g class="entity" data-qualified-name="User" id="ent0006" data-source-line="39"><rect x="721.61" y="44.297" width="175.071" height="162.078" fill="#F1F1F1" style="stroke:#181818;stroke-width:0.5;" rx="2.5" ry="2.5"/><ellipse cx="788.941" cy="60.297" rx="11" ry="11" fill="#ADD1B2" style="stroke:#181818;stroke-width:1;"/><path d="M791.909,65.938 Q791.331,66.234 790.691,66.375 Q790.05,66.531 789.347,66.531 Q786.847,66.531 785.519,64.891 Q784.206,63.234 784.206,60.109 Q784.206,56.984 785.519,55.328 Q786.847,53.672 789.347,53.672 Q790.05,53.672 790.691,53.828 Q791.347,53.984 791.909,54.281 L791.909,57 Q791.284,56.422 790.691,56.156 Q790.097,55.875 789.472,55.875 Q788.128,55.875 787.441,56.953 Q786.753,58.016 786.753,60.109 Q786.753,62.203 787.441,63.281 Q788.128,64.344 789.472,64.344 Q790.097,64.344 790.691,64.078 Q791.284,63.797 791.909,63.219 L791.909,65.938 Z " fill="#000"/><text x="809.441" y="65.144" fill="#000" font-size="14" textLength="31.91">User</text><line x1="722.61" y1="76.297" x2="895.681" y2="76.297" style="stroke:#181818;stroke-width:0.5;"/><text x="727.61" y="93.292" fill="#000" font-size="14" textLength="69.077">+id: UUID</text><text x="727.61" y="109.589" fill="#000" font-size="14" textLength="123.97">+fullName: string</text><text x="727.61" y="125.886" fill="#000" font-size="14" textLength="99.695">+email: string</text><text x="727.61" y="142.183" fill="#000" font-size="14" textLength="104.897">+phone: string</text><text x="727.61" y="158.479" fill="#000" font-size="14" textLength="163.071">+passwordHash: string</text><text x="727.61" y="174.776" fill="#000" font-size="14" textLength="78.518">+role: Role</text><text x="727.61" y="191.073" fill="#000" font-size="14" textLength="157.753">+createdAt: DateTime</text><line x1="722.61" y1="198.375" x2="895.681" y2="198.375" style="stroke:#181818;stroke-width:0.5;"/></g><!--class Organizer--><g class="entity" data-qualified-name="Organizer" id="ent0007" data-source-line="49"><rect x="554.31" y="307.817" width="201.684" height="80.594" fill="#F1F1F1" style="stroke:#181818;stroke-width:0.5;" rx="2.5" ry="2.5"/><ellipse cx="616.541" cy="323.817" rx="11" ry="11" fill="#ADD1B2" style="stroke:#181818;stroke-width:1;"/><path d="M619.51,329.457 Q618.932,329.754 618.291,329.895 Q617.65,330.051 616.947,330.051 Q614.447,330.051 613.119,328.411 Q611.807,326.754 611.807,323.629 Q611.807,320.504 613.119,318.848 Q614.447,317.192 616.947,317.192 Q617.65,317.192 618.291,317.348 Q618.947,317.504 619.51,317.801 L619.51,320.52 Q618.885,319.942 618.291,319.676 Q617.697,319.395 617.072,319.395 Q615.728,319.395 615.041,320.473 Q614.353,321.536 614.353,323.629 Q614.353,325.723 615.041,326.801 Q615.728,327.864 617.072,327.864 Q617.697,327.864 618.291,327.598 Q618.885,327.317 619.51,326.739 L619.51,329.457 Z " fill="#000"/><text x="637.041" y="328.664" fill="#000" font-size="14" textLength="68.722">Organizer</text><line x1="555.31" y1="339.817" x2="754.994" y2="339.817" style="stroke:#181818;stroke-width:0.5;"/><text x="560.31" y="356.812" fill="#000" font-size="14" textLength="189.684">+organizationName: string</text><text x="560.31" y="373.109" fill="#000" font-size="14" textLength="129.732">+verified: boolean</text><line x1="555.31" y1="380.411" x2="754.994" y2="380.411" style="stroke:#181818;stroke-width:0.5;"/></g><!--class Venue--><g class="entity" data-qualified-name="Venue" id="ent0009" data-source-line="55"><rect x="374.98" y="291.517" width="144.344" height="113.188" fill="#F1F1F1" style="stroke:#181818;stroke-width:0.5;" rx="2.5" ry="2.5"/><ellipse cx="420.627" cy="307.517" rx="11" ry="11" fill="#ADD1B2" style="stroke:#181818;stroke-width:1;"/><path d="M423.596,313.157 Q423.018,313.454 422.377,313.595 Q421.736,313.751 421.033,313.751 Q418.533,313.751 417.205,312.111 Q415.893,310.454 415.893,307.329 Q415.893,304.204 417.205,302.548 Q418.533,300.892 421.033,300.892 Q421.736,300.892 422.377,301.048 Q423.033,301.204 423.596,301.501 L423.596,304.22 Q422.971,303.642 422.377,303.376 Q421.783,303.095 421.158,303.095 Q419.814,303.095 419.127,304.173 Q418.439,305.236 418.439,307.329 Q418.439,309.423 419.127,310.501 Q419.814,311.564 421.158,311.564 Q421.783,311.564 422.377,311.298 Q422.971,311.017 423.596,310.439 L423.596,313.157 Z " fill="#000"/><text x="441.127" y="312.364" fill="#000" font-size="14" textLength="44.55">Venue</text><line x1="375.98" y1="323.517" x2="518.324" y2="323.517" style="stroke:#181818;stroke-width:0.5;"/><text x="380.98" y="340.512" fill="#000" font-size="14" textLength="69.077">+id: UUID</text><text x="380.98" y="356.809" fill="#000" font-size="14" textLength="100.789">+name: string</text><text x="380.98" y="373.106" fill="#000" font-size="14" textLength="116.396">+address: string</text><text x="380.98" y="389.403" fill="#000" font-size="14" textLength="132.344">+totalCapacity: int</text><line x1="375.98" y1="396.704" x2="518.324" y2="396.704" style="stroke:#181818;stroke-width:0.5;"/></g><!--class Sector--><g class="entity" data-qualified-name="Sector" id="ent0010" data-source-line="62"><rect x="379.78" y="530.597" width="134.739" height="96.891" fill="#F1F1F1" style="stroke:#181818;stroke-width:0.5;" rx="2.5" ry="2.5"/><ellipse cx="420.759" cy="546.597" rx="11" ry="11" fill="#ADD1B2" style="stroke:#181818;stroke-width:1;"/><path d="M423.728,552.238 Q423.15,552.534 422.509,552.675 Q421.869,552.831 421.165,552.831 Q418.665,552.831 417.337,551.191 Q416.025,549.534 416.025,546.409 Q416.025,543.284 417.337,541.628 Q418.665,539.972 421.165,539.972 Q421.869,539.972 422.509,540.128 Q423.165,540.284 423.728,540.581 L423.728,543.3 Q423.103,542.722 422.509,542.456 Q421.915,542.175 421.29,542.175 Q419.947,542.175 419.259,543.253 Q418.572,544.316 418.572,546.409 Q418.572,548.503 419.259,549.581 Q419.947,550.644 421.29,550.644 Q421.915,550.644 422.509,550.378 Q423.103,550.097 423.728,549.519 L423.728,552.238 Z " fill="#000"/><text x="440.532" y="551.444" fill="#000" font-size="14" textLength="45.008">Sector</text><line x1="380.78" y1="562.597" x2="513.519" y2="562.597" style="stroke:#181818;stroke-width:0.5;"/><text x="385.78" y="579.592" fill="#000" font-size="14" textLength="69.077">+id: UUID</text><text x="385.78" y="595.889" fill="#000" font-size="14" textLength="100.789">+name: string</text><text x="385.78" y="612.186" fill="#000" font-size="14" textLength="122.739">+priceTier: string</text><line x1="380.78" y1="619.488" x2="513.519" y2="619.488" style="stroke:#181818;stroke-width:0.5;"/></g><!--class Row--><g class="entity" data-qualified-name="Row" id="ent0011" data-source-line="68"><rect x="288.68" y="785.977" width="106.944" height="80.594" fill="#F1F1F1" style="stroke:#181818;stroke-width:0.5;" rx="2.5" ry="2.5"/><ellipse cx="324.021" cy="801.977" rx="11" ry="11" fill="#ADD1B2" style="stroke:#181818;stroke-width:1;"/><path d="M326.989,807.617 Q326.411,807.914 325.771,808.055 Q325.13,808.211 324.427,808.211 Q321.927,808.211 320.599,806.571 Q319.286,804.914 319.286,801.789 Q319.286,798.664 320.599,797.008 Q321.927,795.352 324.427,795.352 Q325.13,795.352 325.771,795.508 Q326.427,795.664 326.989,795.961 L326.989,798.68 Q326.364,798.102 325.771,797.836 Q325.177,797.555 324.552,797.555 Q323.208,797.555 322.521,798.633 Q321.833,799.696 321.833,801.789 Q321.833,803.883 322.521,804.961 Q323.208,806.024 324.552,806.024 Q325.177,806.024 325.771,805.758 Q326.364,805.477 326.989,804.899 L326.989,807.617 Z " fill="#000"/><text x="342.541" y="806.824" fill="#000" font-size="14" textLength="29.743">Row</text><line x1="289.68" y1="817.977" x2="394.624" y2="817.977" style="stroke:#181818;stroke-width:0.5;"/><text x="294.68" y="834.972" fill="#000" font-size="14" textLength="69.077">+id: UUID</text><text x="294.68" y="851.269" fill="#000" font-size="14" textLength="94.944">+label: string</text><line x1="289.68" y1="858.571" x2="394.624" y2="858.571" style="stroke:#181818;stroke-width:0.5;"/></g><!--class Seat--><g class="entity" data-qualified-name="Seat" id="ent0012" data-source-line="73"><rect x="416.5" y="1000.607" width="159.301" height="129.484" fill="#F1F1F1" style="stroke:#181818;stroke-width:0.5;" rx="2.5" ry="2.5"/><ellipse cx="476.116" cy="1016.607" rx="11" ry="11" fill="#ADD1B2" style="stroke:#181818;stroke-width:1;"/><path d="M479.085,1022.248 Q478.507,1022.544 477.866,1022.685 Q477.226,1022.841 476.522,1022.841 Q474.022,1022.841 472.694,1021.201 Q471.382,1019.544 471.382,1016.419 Q471.382,1013.294 472.694,1011.638 Q474.022,1009.982 476.522,1009.982 Q477.226,1009.982 477.866,1010.138 Q478.522,1010.294 479.085,1010.591 L479.085,1013.31 Q478.46,1012.732 477.866,1012.466 Q477.272,1012.185 476.647,1012.185 Q475.304,1012.185 474.616,1013.263 Q473.929,1014.326 473.929,1016.419 Q473.929,1018.513 474.616,1019.591 Q475.304,1020.654 476.647,1020.654 Q477.272,1020.654 477.866,1020.388 Q478.46,1020.107 479.085,1019.529 L479.085,1022.248 Z " fill="#000"/><text x="496.616" y="1021.454" fill="#000" font-size="14" textLength="31.568">Seat</text><line x1="417.5" y1="1032.607" x2="574.801" y2="1032.607" style="stroke:#181818;stroke-width:0.5;"/><text x="422.5" y="1049.602" fill="#000" font-size="14" textLength="69.077">+id: UUID</text><text x="422.5" y="1065.899" fill="#000" font-size="14" textLength="147.301">+seatNumber: string</text><text x="422.5" y="1082.196" fill="#000" font-size="14" textLength="140.096">+status: SeatStatus</text><text x="422.5" y="1098.493" fill="#000" font-size="14" textLength="60.635">+x: float</text><text x="422.5" y="1114.789" fill="#000" font-size="14" textLength="60.635">+y: float</text><line x1="417.5" y1="1122.091" x2="574.801" y2="1122.091" style="stroke:#181818;stroke-width:0.5;"/></g><!--class Event--><g class="entity" data-qualified-name="Event" id="ent0013" data-source-line="81"><rect x="570.97" y="489.857" width="168.352" height="178.375" fill="#F1F1F1" style="stroke:#181818;stroke-width:0.5;" rx="2.5" ry="2.5"/><ellipse cx="630.843" cy="505.857" rx="11" ry="11" fill="#ADD1B2" style="stroke:#181818;stroke-width:1;"/><path d="M633.811,511.497 Q633.233,511.794 632.593,511.935 Q631.952,512.091 631.249,512.091 Q628.749,512.091 627.421,510.451 Q626.108,508.794 626.108,505.669 Q626.108,502.544 627.421,500.888 Q628.749,499.232 631.249,499.232 Q631.952,499.232 632.593,499.388 Q633.249,499.544 633.811,499.841 L633.811,502.56 Q633.186,501.982 632.593,501.716 Q631.999,501.435 631.374,501.435 Q630.03,501.435 629.343,502.513 Q628.655,503.576 628.655,505.669 Q628.655,507.763 629.343,508.841 Q630.03,509.904 631.374,509.904 Q631.999,509.904 632.593,509.638 Q633.186,509.357 633.811,508.779 L633.811,511.497 Z " fill="#000"/><text x="651.343" y="510.704" fill="#000" font-size="14" textLength="40.106">Event</text><line x1="571.97" y1="521.857" x2="738.322" y2="521.857" style="stroke:#181818;stroke-width:0.5;"/><text x="576.97" y="538.852" fill="#000" font-size="14" textLength="69.077">+id: UUID</text><text x="576.97" y="555.149" fill="#000" font-size="14" textLength="88.457">+title: string</text><text x="576.97" y="571.446" fill="#000" font-size="14" textLength="138.927">+description: string</text><text x="576.97" y="587.743" fill="#000" font-size="14" textLength="122.958">+category: string</text><text x="576.97" y="604.039" fill="#000" font-size="14" textLength="156.352">+startTime: DateTime</text><text x="576.97" y="620.336" fill="#000" font-size="14" textLength="150.117">+endTime: DateTime</text><text x="576.97" y="636.633" fill="#000" font-size="14" textLength="148.634">+status: EventStatus</text><text x="576.97" y="652.93" fill="#000" font-size="14" textLength="135.584">+organizerId: UUID</text><line x1="571.97" y1="660.232" x2="738.322" y2="660.232" style="stroke:#181818;stroke-width:0.5;"/></g><!--class PricingRule--><g class="entity" data-qualified-name="PricingRule" id="ent0014" data-source-line="92"><rect x="430.42" y="761.527" width="189.454" height="129.484" fill="#F1F1F1" style="stroke:#181818;stroke-width:0.5;" rx="2.5" ry="2.5"/><ellipse cx="481.628" cy="777.527" rx="11" ry="11" fill="#ADD1B2" style="stroke:#181818;stroke-width:1;"/><path d="M484.597,783.167 Q484.019,783.464 483.378,783.605 Q482.737,783.761 482.034,783.761 Q479.534,783.761 478.206,782.121 Q476.894,780.464 476.894,777.339 Q476.894,774.214 478.206,772.558 Q479.534,770.902 482.034,770.902 Q482.737,770.902 483.378,771.058 Q484.034,771.214 484.597,771.511 L484.597,774.23 Q483.972,773.652 483.378,773.386 Q482.784,773.105 482.159,773.105 Q480.816,773.105 480.128,774.183 Q479.441,775.246 479.441,777.339 Q479.441,779.433 480.128,780.511 Q480.816,781.574 482.159,781.574 Q482.784,781.574 483.378,781.308 Q483.972,781.027 484.597,780.449 L484.597,783.167 Z " fill="#000"/><text x="502.128" y="782.374" fill="#000" font-size="14" textLength="78.538">PricingRule</text><line x1="431.42" y1="793.527" x2="618.874" y2="793.527" style="stroke:#181818;stroke-width:0.5;"/><text x="436.42" y="810.522" fill="#000" font-size="14" textLength="69.077">+id: UUID</text><text x="436.42" y="826.819" fill="#000" font-size="14" textLength="143.862">+basePrice: decimal</text><text x="436.42" y="843.116" fill="#000" font-size="14" textLength="177.454">+dynamicMultiplier: float</text><text x="436.42" y="859.413" fill="#000" font-size="14" textLength="158.594">+validFrom: DateTime</text><text x="436.42" y="875.709" fill="#000" font-size="14" textLength="139.699">+validTo: DateTime</text><line x1="431.42" y1="883.011" x2="618.874" y2="883.011" style="stroke:#181818;stroke-width:0.5;"/></g><!--class Reservation--><g class="entity" data-qualified-name="Reservation" id="ent0015" data-source-line="100"><rect x="655.04" y="745.227" width="204.213" height="162.078" fill="#F1F1F1" style="stroke:#181818;stroke-width:0.5;" rx="2.5" ry="2.5"/><ellipse cx="711.054" cy="761.227" rx="11" ry="11" fill="#ADD1B2" style="stroke:#181818;stroke-width:1;"/><path d="M714.022,766.867 Q713.444,767.164 712.804,767.305 Q712.163,767.461 711.46,767.461 Q708.96,767.461 707.632,765.821 Q706.319,764.164 706.319,761.039 Q706.319,757.914 707.632,756.258 Q708.96,754.602 711.46,754.602 Q712.163,754.602 712.804,754.758 Q713.46,754.914 714.022,755.211 L714.022,757.93 Q713.397,757.352 712.804,757.086 Q712.21,756.805 711.585,756.805 Q710.241,756.805 709.554,757.883 Q708.866,758.946 708.866,761.039 Q708.866,763.133 709.554,764.211 Q710.241,765.274 711.585,765.274 Q712.21,765.274 712.804,765.008 Q713.397,764.727 714.022,764.149 L714.022,766.867 Z " fill="#000"/><text x="731.554" y="766.074" fill="#000" font-size="14" textLength="83.686">Reservation</text><line x1="656.04" y1="777.227" x2="858.253" y2="777.227" style="stroke:#181818;stroke-width:0.5;"/><text x="661.04" y="794.222" fill="#000" font-size="14" textLength="69.077">+id: UUID</text><text x="661.04" y="810.519" fill="#000" font-size="14" textLength="99.853">+userId: UUID</text><text x="661.04" y="826.816" fill="#000" font-size="14" textLength="109.19">+eventId: UUID</text><text x="661.04" y="843.113" fill="#000" font-size="14" textLength="192.213">+status: ReservationStatus</text><text x="661.04" y="859.409" fill="#000" font-size="14" textLength="149.878">+lockedAt: DateTime</text><text x="661.04" y="875.706" fill="#000" font-size="14" textLength="155.456">+expiresAt: DateTime</text><text x="661.04" y="892.003" fill="#000" font-size="14" textLength="178.603">+idempotencyKey: string</text><line x1="656.04" y1="899.305" x2="858.253" y2="899.305" style="stroke:#181818;stroke-width:0.5;"/></g><!--class Payment--><g class="entity" data-qualified-name="Payment" id="ent0016" data-source-line="110"><rect x="637.29" y="984.307" width="187.725" height="162.078" fill="#F1F1F1" style="stroke:#181818;stroke-width:0.5;" rx="2.5" ry="2.5"/><ellipse cx="695.942" cy="1000.307" rx="11" ry="11" fill="#ADD1B2" style="stroke:#181818;stroke-width:1;"/><path d="M698.911,1005.947 Q698.333,1006.244 697.692,1006.385 Q697.052,1006.541 696.349,1006.541 Q693.849,1006.541 692.52,1004.901 Q691.208,1003.244 691.208,1000.119 Q691.208,996.994 692.52,995.338 Q693.849,993.682 696.349,993.682 Q697.052,993.682 697.692,993.838 Q698.349,993.994 698.911,994.291 L698.911,997.01 Q698.286,996.432 697.692,996.166 Q697.099,995.885 696.474,995.885 Q695.13,995.885 694.442,996.963 Q693.755,998.026 693.755,1000.119 Q693.755,1002.213 694.442,1003.291 Q695.13,1004.354 696.474,1004.354 Q697.099,1004.354 697.692,1004.088 Q698.286,1003.807 698.911,1003.229 L698.911,1005.947 Z " fill="#000"/><text x="716.442" y="1005.154" fill="#000" font-size="14" textLength="61.92">Payment</text><line x1="638.29" y1="1016.307" x2="824.015" y2="1016.307" style="stroke:#181818;stroke-width:0.5;"/><text x="643.29" y="1033.302" fill="#000" font-size="14" textLength="69.077">+id: UUID</text><text x="643.29" y="1049.599" fill="#000" font-size="14" textLength="149.03">+reservationId: UUID</text><text x="643.29" y="1065.896" fill="#000" font-size="14" textLength="119.725">+provider: string</text><text x="643.29" y="1082.193" fill="#000" font-size="14" textLength="156.01">+providerRefId: string</text><text x="643.29" y="1098.489" fill="#000" font-size="14" textLength="130.108">+amount: decimal</text><text x="643.29" y="1114.786" fill="#000" font-size="14" textLength="170.447">+status: PaymentStatus</text><text x="643.29" y="1131.083" fill="#000" font-size="14" textLength="175.725">+processedAt: DateTime</text><line x1="638.29" y1="1138.385" x2="824.015" y2="1138.385" style="stroke:#181818;stroke-width:0.5;"/></g><!--class Ticket--><g class="entity" data-qualified-name="Ticket" id="ent0017" data-source-line="120"><rect x="859.63" y="1000.607" width="161.03" height="129.484" fill="#F1F1F1" style="stroke:#181818;stroke-width:0.5;" rx="2.5" ry="2.5"/><ellipse cx="914.721" cy="1016.607" rx="11" ry="11" fill="#ADD1B2" style="stroke:#181818;stroke-width:1;"/><path d="M917.69,1022.248 Q917.111,1022.544 916.471,1022.685 Q915.83,1022.841 915.127,1022.841 Q912.627,1022.841 911.299,1021.201 Q909.986,1019.544 909.986,1016.419 Q909.986,1013.294 911.299,1011.638 Q912.627,1009.982 915.127,1009.982 Q915.83,1009.982 916.471,1010.138 Q917.127,1010.294 917.69,1010.591 L917.69,1013.31 Q917.065,1012.732 916.471,1012.466 Q915.877,1012.185 915.252,1012.185 Q913.908,1012.185 913.221,1013.263 Q912.533,1014.326 912.533,1016.419 Q912.533,1018.513 913.221,1019.591 Q913.908,1020.654 915.252,1020.654 Q915.877,1020.654 916.471,1020.388 Q917.065,1020.107 917.69,1019.529 L917.69,1022.248 Z " fill="#000"/><text x="935.221" y="1021.454" fill="#000" font-size="14" textLength="42.349">Ticket</text><line x1="860.63" y1="1032.607" x2="1019.66" y2="1032.607" style="stroke:#181818;stroke-width:0.5;"/><text x="865.63" y="1049.602" fill="#000" font-size="14" textLength="69.077">+id: UUID</text><text x="865.63" y="1065.899" fill="#000" font-size="14" textLength="149.03">+reservationId: UUID</text><text x="865.63" y="1082.196" fill="#000" font-size="14" textLength="146.843">+qrCodeHash: string</text><text x="865.63" y="1098.493" fill="#000" font-size="14" textLength="148.969">+issuedAt: DateTime</text><text x="865.63" y="1114.789" fill="#000" font-size="14" textLength="148.36">+checkedIn: boolean</text><line x1="860.63" y1="1122.091" x2="1019.66" y2="1122.091" style="stroke:#181818;stroke-width:0.5;"/></g><!--class Notification--><g class="entity" data-qualified-name="Notification" id="ent0018" data-source-line="128"><rect x="861.84" y="283.367" width="170.621" height="129.484" fill="#F1F1F1" style="stroke:#181818;stroke-width:0.5;" rx="2.5" ry="2.5"/><ellipse cx="903.071" cy="299.367" rx="11" ry="11" fill="#ADD1B2" style="stroke:#181818;stroke-width:1;"/><path d="M906.04,305.007 Q905.462,305.304 904.821,305.445 Q904.181,305.601 903.478,305.601 Q900.978,305.601 899.65,303.961 Q898.337,302.304 898.337,299.179 Q898.337,296.054 899.65,294.398 Q900.978,292.742 903.478,292.742 Q904.181,292.742 904.821,292.898 Q905.478,293.054 906.04,293.351 L906.04,296.07 Q905.415,295.492 904.821,295.226 Q904.228,294.945 903.603,294.945 Q902.259,294.945 901.571,296.023 Q900.884,297.086 900.884,299.179 Q900.884,301.273 901.571,302.351 Q902.259,303.414 903.603,303.414 Q904.228,303.414 904.821,303.148 Q905.415,302.867 906.04,302.289 L906.04,305.007 Z " fill="#000"/><text x="922.901" y="304.214" fill="#000" font-size="14" textLength="80.329">Notification</text><line x1="862.84" y1="315.367" x2="1031.461" y2="315.367" style="stroke:#181818;stroke-width:0.5;"/><text x="867.84" y="332.362" fill="#000" font-size="14" textLength="69.077">+id: UUID</text><text x="867.84" y="348.659" fill="#000" font-size="14" textLength="99.853">+userId: UUID</text><text x="867.84" y="364.956" fill="#000" font-size="14" textLength="116.484">+channel: string</text><text x="867.84" y="381.253" fill="#000" font-size="14" textLength="158.621">+templateType: string</text><text x="867.84" y="397.549" fill="#000" font-size="14" textLength="134.388">+sentAt: DateTime</text><line x1="862.84" y1="404.851" x2="1031.461" y2="404.851" style="stroke:#181818;stroke-width:0.5;"/></g><!--reverse link User to Organizer--><g class="link" data-entity-1="ent0006" data-entity-2="ent0007" id="lnk8" data-source-line="53" data-link-type="extension"><path d="M742.821,221.429 C718.911,255.699 702.38,279.397 682.85,307.397" style="stroke:#181818;stroke-width:1;" fill="none" id="User-backto-Organizer" codeLine="53"/><polygon points="753.12,206.667,737.9,217.996,747.741,224.862,753.12,206.667" fill="none" style="stroke:#181818;stroke-width:1;stroke-linejoin:miter;stroke-miterlimit:10;"/></g><!--reverse link Venue to Sector--><g class="link" data-entity-1="ent0009" data-entity-2="ent0010" id="lnk19" data-source-line="136" data-link-type="composition"><path d="M447.15,417.117 C447.15,455.507 447.15,493.887 447.15,530.357" style="stroke:#181818;stroke-width:1;" fill="none" id="Venue-backto-Sector" codeLine="136"/><polygon points="447.15,405.117,443.15,411.117,447.15,417.117,451.15,411.117,447.15,405.117" fill="#181818" style="stroke:#181818;stroke-width:1;stroke-linejoin:miter;stroke-miterlimit:10;"/><text x="448.15" y="455.924" fill="#000" font-size="13" textLength="55.028">contains</text><text x="438.703" y="424.65" fill="#000" font-size="13">1</text><text x="408.658" y="519.532" fill="#000" font-size="13" textLength="36.563">many</text></g><!--reverse link Sector to Row--><g class="link" data-entity-1="ent0010" data-entity-2="ent0011" id="lnk20" data-source-line="137" data-link-type="composition"><path d="M421.928,638.939 C402.238,684.939 377.55,742.597 359.13,785.617" style="stroke:#181818;stroke-width:1;" fill="none" id="Sector-backto-Row" codeLine="137"/><polygon points="426.65,627.907,420.612,631.849,421.928,638.939,427.966,634.997,426.65,627.907" fill="#181818" style="stroke:#181818;stroke-width:1;stroke-linejoin:miter;stroke-miterlimit:10;"/><text x="396.15" y="711.294" fill="#000" font-size="13" textLength="55.028">contains</text><text x="415.376" y="647.557" fill="#000" font-size="13">1</text><text x="323.012" y="775.019" fill="#000" font-size="13" textLength="36.563">many</text></g><!--reverse link Row to Seat--><g class="link" data-entity-1="ent0011" data-entity-2="ent0012" id="lnk21" data-source-line="138" data-link-type="composition"><path d="M374.457,877.01 C398.097,913.4 426.97,957.847 454.6,1000.377" style="stroke:#181818;stroke-width:1;" fill="none" id="Row-backto-Seat" codeLine="138"/><polygon points="367.92,866.947,367.834,874.157,374.457,877.01,374.543,869.799,367.92,866.947" fill="#181818" style="stroke:#181818;stroke-width:1;stroke-linejoin:miter;stroke-miterlimit:10;"/><text x="425.15" y="950.374" fill="#000" font-size="13" textLength="55.028">contains</text><text x="363.411" y="886.702" fill="#000" font-size="13">1</text><text x="412.117" y="989.524" fill="#000" font-size="13" textLength="36.563">many</text></g><!--link Venue to Event--><g class="link" data-entity-1="ent0009" data-entity-2="ent0013" id="lnk22" data-source-line="139" data-link-type="association"><path d="M498.03,405.117 C521.12,430.527 548.99,461.207 574.8,489.617" style="stroke:#181818;stroke-width:1;" fill="none" id="Venue-Event" codeLine="139"/><text x="546.15" y="455.924" fill="#000" font-size="13" textLength="34.836">hosts</text><text x="495.466" y="424.65" fill="#000" font-size="13">1</text><text x="530.679" y="478.662" fill="#000" font-size="13" textLength="36.563">many</text></g><!--link Sector to PricingRule--><g class="link" data-entity-1="ent0010" data-entity-2="ent0014" id="lnk23" data-source-line="140" data-link-type="association"><path d="M462.37,627.907 C474.48,665.957 491.52,719.547 504.79,761.277" style="stroke:#181818;stroke-width:1;" fill="none" id="Sector-PricingRule" codeLine="140"/><text x="490.15" y="711.294" fill="#000" font-size="13" textLength="60.684">priced by</text><text x="455.896" y="647.557" fill="#000" font-size="13">1</text><text x="464.625" y="750.422" fill="#000" font-size="13" textLength="36.563">many</text></g><!--link Event to Reservation--><g class="link" data-entity-1="ent0013" data-entity-2="ent0015" id="lnk24" data-source-line="141" data-link-type="association"><path d="M691.97,668.577 C702.36,693.547 713.6,720.557 723.77,745.017" style="stroke:#181818;stroke-width:1;" fill="none" id="Event-Reservation" codeLine="141"/><text x="711.15" y="711.294" fill="#000" font-size="13" textLength="54.564">receives</text><text x="686.596" y="688.381" fill="#000" font-size="13">1</text><text x="683.219" y="734.185" fill="#000" font-size="13" textLength="36.563">many</text></g><!--link User to Reservation--><g class="link" data-entity-1="ent0006" data-entity-2="ent0015" id="lnk25" data-source-line="142" data-link-type="association"><path d="M806.77,206.537 C802.86,320.057 793.49,533.957 774.15,715.227 C773.12,724.837 771.85,734.897 770.46,744.857" style="stroke:#181818;stroke-width:1;" fill="none" id="User-Reservation" codeLine="142"/><text x="797.15" y="455.924" fill="#000" font-size="13" textLength="42.929">makes</text><text x="798.214" y="226.51" fill="#000" font-size="13">1</text><text x="734.081" y="734.289" fill="#000" font-size="13" textLength="36.563">many</text></g><!--link Reservation to Seat--><g class="link" data-entity-1="ent0015" data-entity-2="ent0012" id="lnk26" data-source-line="143" data-link-type="association"><path d="M668.79,907.537 C635.51,937.757 598.14,971.707 566.7,1000.257" style="stroke:#181818;stroke-width:1;" fill="none" id="Reservation-Seat" codeLine="143"/><text x="636.15" y="950.374" fill="#000" font-size="13" textLength="34.83">holds</text><text x="623.674" y="927.238" fill="#000" font-size="13" textLength="36.563">many</text><text x="536.478" y="989.391" fill="#000" font-size="13" textLength="36.563">many</text></g><!--link Reservation to Payment--><g class="link" data-entity-1="ent0015" data-entity-2="ent0016" id="lnk27" data-source-line="144" data-link-type="association"><path d="M748.35,907.537 C745.64,932.247 742.65,959.457 739.94,984.167" style="stroke:#181818;stroke-width:1;" fill="none" id="Reservation-Payment" codeLine="144"/><text x="746.15" y="950.374" fill="#000" font-size="13" textLength="64.905">settled by</text><text x="739.262" y="927.238" fill="#000" font-size="13">1</text><text x="715.69" y="973.342" fill="#000" font-size="13" textLength="24.807">0..1</text></g><!--link Reservation to Ticket--><g class="link" data-entity-1="ent0015" data-entity-2="ent0017" id="lnk28" data-source-line="145" data-link-type="association"><path d="M819.1,907.537 C842.43,937.757 868.64,971.707 890.68,1000.257" style="stroke:#181818;stroke-width:1;" fill="none" id="Reservation-Ticket" codeLine="145"/><text x="855.15" y="950.374" fill="#000" font-size="13" textLength="59.96">produces</text><text x="816.092" y="927.238" fill="#000" font-size="13">1</text><text x="860.001" y="989.391" fill="#000" font-size="13" textLength="24.807">0..1</text></g><!--link User to Notification--><g class="link" data-entity-1="ent0006" data-entity-2="ent0018" id="lnk29" data-source-line="146" data-link-type="association"><path d="M859.36,206.667 C875.08,231.817 892.21,259.217 907.13,283.097" style="stroke:#181818;stroke-width:1;" fill="none" id="User-Notification" codeLine="146"/><text x="888.15" y="249.434" fill="#000" font-size="13" textLength="54.564">receives</text><text x="855.343" y="226.373" fill="#000" font-size="13">1</text><text x="864.815" y="272.24" fill="#000" font-size="13" textLength="36.563">many</text></g><!--link Organizer to Event--><g class="link" data-entity-1="ent0007" data-entity-2="ent0013" id="lnk30" data-source-line="147" data-link-type="association"><path d="M655.15,388.727 C655.15,416.497 655.15,454.737 655.15,489.577" style="stroke:#181818;stroke-width:1;" fill="none" id="Organizer-Event" codeLine="147"/><text x="656.15" y="455.924" fill="#000" font-size="13" textLength="62.962">organizes</text><text x="646.534" y="408.472" fill="#000" font-size="13">1</text><text x="617.738" y="478.922" fill="#000" font-size="13" textLength="36.563">many</text></g><?plantuml-src ZLLDSvim4BtxLsXoR2QTzihqGctICd70W-rEsqj65fjO4o5HIRYb7_-zAm6sC4cR4ylozFJs4ykj0BBXx17iIZI6N96veCQG1QSFcbQpcNdaigPe4kO-nDPglciif4p9DVy9vCri1hAfIA6GwTUCaFVRBqc1pxpu46VfLs_7Yziqc_tfeMkWTcsfnVlSWVXJd2xZzyi4xMK-lqaMZYNFdJ4SIGuWmpEhPPnb7fXdT-lOdtMFkrMyNNl_EbykxlBj1irvdCsJvJAWAy20Fb3BCOY0DCaMQVR1dSYpwxIuzKJ9vrLQU6lAiw9jDHQMPkacZJUTXErydYGBRrzZZDueakjjjkWuV4h95hNuivUyZCXscphOvNqZH4OhY8Z1bCi7vuEASX4wwhsI8qIDXD-LBZzIim_z6giJ-HgvDwQn0b36DY8BD3QyWfESN3zGYPNjDQdkrUVgNCy1DB_dWAft2gcfH1OVpRlVLrSdee7v4-OCff7ACrPQbXgC2LrMMIhcjAQCspOYNDgJtZKmg_J_QMlD6OOA-kWyKXJg-_Iye3iGKwnhtYdOe3Thgbt0xho-BwAWuPttHqJkXQBMsUrW7_bzfqyli6vIG-uI3DEyTcK9tGph-Q1qUoP3MrVaeDokcsGvTGwIWu4BkW1qEcWw2bvXNl6YeX5Fr7P73JW0tb82unKLNdkBnU7ijX6MryANv9YH0nMylDQg6kloxerwgc63OPuAQ4oWsGNjuWeTGy2JbU1xGE5c7C-9u_XHS-pGSpSleQgL1SdQ6sYddTClYwb6VRewL5PhTK1EFMxYpbV0lOC6GrEfHjfHbeV8Hakg9s4uOCyjWEvty6APt_HSbN2-SBWnpJHpR0ykeQaCDqP_RQOiBXFsmZgoFPKIHilGOlg5kwojHvDYCFZpIBjLTF7sWhp2JNLHKTbU39ia8lXlivHBC-izPpYtBWAGUvqmuP888AVhJfXkq2EoLyQERZf1mj6AY5zW9Tcri-xe61jEGKGqCE07CDqw_XUoeey82tqzR1BDNedo3Ddplddz6gsXlp7tO75RUQdFm_isSt6fic5FQnqrHH3MwIVrT5A7VMN-0W00?></g></svg>