<svg xmlns="http://www.w3.org/2000/svg" xmlns:xlink="http://www.w3.org/1999/xlink" contentStyleType="text/css" data-diagram-type="SEQUENCE" height="1983px" preserveAspectRatio="none" style="width:1939px;height:1983px;background:#FFFFFF;" version="1.1" viewBox="0 0 1939 1983" width="1939px" zoomAndPan="magnify"><title>TicketPlus - End-to-End Booking Flow (Sequence)</title><defs/><g><text fill="#000000" font-family="sans-serif" font-size="14" font-weight="bold" lengthAdjust="spacing" textLength="336.9228" x="797.4637" y="29.9659">TicketPlus - End-to-End Booking Flow (Sequence)</text><rect fill="none" height="146.5301" style="stroke:#000000;stroke-width:1.5;" width="529.4281" x="10" y="273.0278"/><rect fill="none" height="258.63" style="stroke:#000000;stroke-width:1.5;" width="1423.899" x="10" y="528.6759"/><rect fill="none" height="797.6323" style="stroke:#000000;stroke-width:1.5;" width="1912.8502" x="10" y="928.13"/><g><title>Buyer</title><rect fill="#000000" fill-opacity="0.00000" height="1754.3827" width="8" x="38.2849" y="129.2038"/><line style="stroke:#181818;stroke-width:0.5;stroke-dasharray:5,5;" x1="42" x2="42" y1="129.2038" y2="1883.5864"/></g><g><title>API Gateway</title><rect fill="#000000" fill-opacity="0.00000" height="1754.3827" width="8" x="291.0071" y="129.2038"/><line style="stroke:#181818;stroke-width:0.5;stroke-dasharray:5,5;" x1="294.6093" x2="294.6093" y1="129.2038" y2="1883.5864"/></g><g><title>Waiting Room</title><rect fill="#000000" fill-opacity="0.00000" height="1754.3827" width="8" x="471.2413" y="129.2038"/><line style="stroke:#181818;stroke-width:0.5;stroke-dasharray:5,5;" x1="475.0545" x2="475.0545" y1="129.2038" y2="1883.5864"/></g><g><title>Event Catalog</title><rect fill="#000000" fill-opacity="0.00000" height="1754.3827" width="8" x="587.6479" y="129.2038"/><line style="stroke:#181818;stroke-width:0.5;stroke-dasharray:5,5;" x1="591.4281" x2="591.4281" y1="129.2038" y2="1883.5864"/></g><g><title>Reservation Engine</title><rect fill="#000000" fill-opacity="0.00000" height="1754.3827" width="8" x="720.1615" y="129.2038"/><line style="stroke:#181818;stroke-width:0.5;stroke-dasharray:5,5;" x1="723.8677" x2="723.8677" y1="129.2038" y2="1883.5864"/></g><g><title>Redis</title><rect fill="#000000" fill-opacity="0.00000" height="1754.3827" width="8" x="916.1257" y="129.2038"/><line style="stroke:#181818;stroke-width:0.5;stroke-dasharray:5,5;" x1="919.8588" x2="919.8588" y1="129.2038" y2="1883.5864"/></g><g><title>Billing . Checkout</title><rect fill="#000000" fill-opacity="0.00000" height="1754.3827" width="8" x="1029.9253" y="129.2038"/><line style="stroke:#181818;stroke-width:0.5;stroke-dasharray:5,5;" x1="1033.3925" x2="1033.3925" y1="129.2038" y2="1883.5864"/></g><g><title>Payment Gateway</title><rect fill="#000000" fill-opacity="0.00000" height="1754.3827" width="8" x="1260.5605" y="129.2038"/><line style="stroke:#181818;stroke-width:0.5;stroke-dasharray:5,5;" x1="1264.1657" x2="1264.1657" y1="129.2038" y2="1883.5864"/></g><g><title>PostgreSQL</title><rect fill="#000000" fill-opacity="0.00000" height="1754.3827" width="8" x="1378.4271" y="129.2038"/><line style="stroke:#181818;stroke-width:0.5;stroke-dasharray:5,5;" x1="1381.9553" x2="1381.9553" y1="129.2038" y2="1883.5864"/></g><g><title>Notification Service</title><rect fill="#000000" fill-opacity="0.00000" height="1754.3827" width="8" x="1500.3537" y="129.2038"/><line style="stroke:#181818;stroke-width:0.5;stroke-dasharray:5,5;" x1="1503.899" x2="1503.899" y1="129.2038" y2="1883.5864"/></g><g><title>Ticketing Service</title><rect fill="#000000" fill-opacity="0.00000" height="1754.3827" width="8" x="1642.6883" y="129.2038"/><line style="stroke:#181818;stroke-width:0.5;stroke-dasharray:5,5;" x1="1645.8085" x2="1645.8085" y1="129.2038" y2="1883.5864"/></g><g><title>Message Broker</title><rect fill="#000000" fill-opacity="0.00000" height="1754.3827" width="8" x="1845.5944" y="129.2038"/><line style="stroke:#181818;stroke-width:0.5;stroke-dasharray:5,5;" x1="1849.3386" x2="1849.3386" y1="129.2038" y2="1883.5864"/></g><g class="participant participant-head" data-participant="Buyer"><text fill="#000000" font-family="sans-serif" font-size="14" lengthAdjust="spacing" textLength="38.5698" x="20" y="125.1018">Buyer</text><ellipse cx="42.2849" cy="58.6358" fill="#E2E2F0" rx="8" ry="8" style="stroke:#181818;stroke-width:0.5;"/><path d="M42.2849,66.6358 L42.2849,93.6358 M29.2849,74.6358 L55.2849,74.6358 M42.2849,93.6358 L29.2849,108.6358 M42.2849,93.6358 L55.2849,108.6358" fill="none" style="stroke:#181818;stroke-width:0.5;"/></g><g class="participant participant-tail" data-participant="Buyer"><text fill="#000000" font-family="sans-serif" font-size="14" lengthAdjust="spacing" textLength="38.5698" x="20" y="1897.5523">Buyer</text><ellipse cx="42.2849" cy="1910.1543" fill="#E2E2F0" rx="8" ry="8" style="stroke:#181818;stroke-width:0.5;"/><path d="M42.2849,1918.1543 L42.2849,1945.1543 M29.2849,1926.1543 L55.2849,1926.1543 M42.2849,1945.1543 L29.2849,1960.1543 M42.2849,1945.1543 L55.2849,1960.1543" fill="none" style="stroke:#181818;stroke-width:0.5;"/></g><g class="participant participant-head" data-participant="GW"><rect fill="#E2E2F0" height="33.0679" rx="2.5" ry="2.5" style="stroke:#181818;stroke-width:0.5;" width="96.7957" x="246.6093" y="95.1358"/><text fill="#000000" font-family="sans-serif" font-size="14" lengthAdjust="spacing" textLength="82.7957" x="253.6093" y="117.1018">API Gateway</text></g><g class="participant participant-tail" data-participant="GW"><rect fill="#E2E2F0" height="33.0679" rx="2.5" ry="2.5" style="stroke:#181818;stroke-width:0.5;" width="96.7957" x="246.6093" y="1882.5864"/><text fill="#000000" font-family="sans-serif" font-size="14" lengthAdjust="spacing" textLength="82.7957" x="253.6093" y="1904.5523">API Gateway</text></g><g class="participant participant-head" data-participant="Queue"><rect fill="#E2E2F0" height="52.1358" rx="2.5" ry="2.5" style="stroke:#181818;stroke-width:0.5;" width="108.3736" x="421.0545" y="76.0679"/><text fill="#000000" font-family="sans-serif" font-size="14" lengthAdjust="spacing" textLength="92.7916" x="428.8455" y="98.0339">Waiting Room</text><text fill="#000000" font-family="sans-serif" font-size="14" lengthAdjust="spacing" textLength="94.3736" x="428.0545" y="117.1018">Queue Service</text></g><g class="participant participant-tail" data-participant="Queue"><rect fill="#E2E2F0" height="52.1358" rx="2.5" ry="2.5" style="stroke:#181818;stroke-width:0.5;" width="108.3736" x="421.0545" y="1882.5864"/><text fill="#000000" font-family="sans-serif" font-size="14" lengthAdjust="spacing" textLength="92.7916" x="428.8455" y="1904.5523">Waiting Room</text><text fill="#000000" font-family="sans-serif" font-size="14" lengthAdjust="spacing" textLength="94.3736" x="428.0545" y="1923.6203">Queue Service</text></g><g class="participant participant-head" data-participant="Catalog"><rect fill="#E2E2F0" height="52.1358" rx="2.5" ry="2.5" style="stroke:#181818;stroke-width:0.5;" width="104.4397" x="539.4281" y="76.0679"/><text fill="#000000" font-family="sans-serif" font-size="14" lengthAdjust="spacing" textLength="90.4397" x="546.4281" y="98.0339">Event Catalog</text><text fill="#000000" font-family="sans-serif" font-size="14" lengthAdjust="spacing" textLength="46.7038" x="568.296" y="117.1018">Service</text></g><g class="participant participant-tail" data-participant="Catalog"><rect fill="#E2E2F0" height="52.1358" rx="2.5" ry="2.5" style="stroke:#181818;stroke-width:0.5;" width="104.4397" x="539.4281" y="1882.5864"/><text fill="#000000" font-family="sans-serif" font-size="14" lengthAdjust="spacing" textLength="90.4397" x="546.4281" y="1904.5523">Event Catalog</text><text fill="#000000" font-family="sans-serif" font-size="14" lengthAdjust="spacing" textLength="46.7038" x="568.296" y="1923.6203">Service</text></g><g class="participant participant-head" data-participant="Res"><rect fill="#E2E2F0" height="33.0679" rx="2.5" ry="2.5" style="stroke:#181818;stroke-width:0.5;" width="140.5875" x="653.8677" y="95.1358"/><text fill="#000000" font-family="sans-serif" font-size="14" lengthAdjust="spacing" textLength="126.5875" x="660.8677" y="117.1018">Reservation Engine</text></g><g class="participant participant-tail" data-participant="Res"><rect fill="#E2E2F0" height="33.0679" rx="2.5" ry="2.5" style="stroke:#181818;stroke-width:0.5;" width="140.5875" x="653.8677" y="1882.5864"/><text fill="#000000" font-family="sans-serif" font-size="14" lengthAdjust="spacing" textLength="126.5875" x="660.8677" y="1904.5523">Reservation Engine</text></g><g class="participant participant-head" data-participant="Redis"><text fill="#000000" font-family="sans-serif" font-size="14" lengthAdjust="spacing" textLength="35.5319" x="899.3597" y="106.0339">Redis</text><text fill="#000000" font-family="sans-serif" font-size="14" lengthAdjust="spacing" textLength="72.5337" x="880.8588" y="125.1018">(seat locks)</text><path d="M902.1257,55.0679 C902.1257,45.0679 920.1257,45.0679 920.1257,45.0679 C920.1257,45.0679 938.1257,45.0679 938.1257,55.0679 L938.1257,81.0679 C938.1257,91.0679 920.1257,91.0679 920.1257,91.0679 C920.1257,91.0679 902.1257,91.0679 902.1257,81.0679 L902.1257,55.0679" fill="#E2E2F0" style="stroke:#181818;stroke-width:0.5;"/><path d="M902.1257,55.0679 C902.1257,65.0679 920.1257,65.0679 920.1257,65.0679 C920.1257,65.0679 938.1257,65.0679 938.1257,55.0679" fill="none" style="stroke:#181818;stroke-width:0.5;"/></g><g class="participant participant-tail" data-participant="Redis"><text fill="#000000" font-family="sans-serif" font-size="14" lengthAdjust="spacing" textLength="35.5319" x="899.3597" y="1897.5523">Redis</text><text fill="#000000" font-family="sans-serif" font-size="14" lengthAdjust="spacing" textLength="72.5337" x="880.8588" y="1916.6203">(seat locks)</text><path d="M902.1257,1930.7222 C902.1257,1920.7222 920.1257,1920.7222 920.1257,1920.7222 C920.1257,1920.7222 938.1257,1920.7222 938.1257,1930.7222 L938.1257,1956.7222 C938.1257,1966.7222 920.1257,1966.7222 920.1257,1966.7222 C920.1257,1966.7222 902.1257,1966.7222 902.1257,1956.7222 L902.1257,1930.7222" fill="#E2E2F0" style="stroke:#181818;stroke-width:0.5;"/><path d="M902.1257,1930.7222 C902.1257,1940.7222 920.1257,1940.7222 920.1257,1940.7222 C920.1257,1940.7222 938.1257,1940.7222 938.1257,1930.7222" fill="none" style="stroke:#181818;stroke-width:0.5;"/></g><g class="participant participant-head" data-participant="Billing"><rect fill="#E2E2F0" height="52.1358" rx="2.5" ry="2.5" style="stroke:#181818;stroke-width:0.5;" width="129.0655" x="969.3925" y="76.0679"/><text fill="#000000" font-family="sans-serif" font-size="14" lengthAdjust="spacing" textLength="115.0655" x="976.3925" y="98.0339">Billing / Checkout</text><text fill="#000000" font-family="sans-serif" font-size="14" lengthAdjust="spacing" textLength="46.7038" x="1010.5734" y="117.1018">Service</text></g><g class="participant participant-tail" data-participant="Billing"><rect fill="#E2E2F0" height="52.1358" rx="2.5" ry="2.5" style="stroke:#181818;stroke-width:0.5;" width="129.0655" x="969.3925" y="1882.5864"/><text fill="#000000" font-family="sans-serif" font-size="14" lengthAdjust="spacing" textLength="115.0655" x="976.3925" y="1904.5523">Billing / Checkout</text><text fill="#000000" font-family="sans-serif" font-size="14" lengthAdjust="spacing" textLength="46.7038" x="1010.5734" y="1923.6203">Service</text></g><g class="participant participant-head" data-participant="PG"><rect fill="#E2E2F0" height="33.0679" rx="2.5" ry="2.5" style="stroke:#181818;stroke-width:0.5;" width="132.7895" x="1198.1657" y="95.1358"/><text fill="#000000" font-family="sans-serif" font-size="14" lengthAdjust="spacing" textLength="118.7895" x="1205.1657" y="117.1018">Payment Gateway</text></g><g class="participant participant-tail" data-participant="PG"><rect fill="#E2E2F0" height="33.0679" rx="2.5" ry="2.5" style="stroke:#181818;stroke-width:0.5;" width="132.7895" x="1198.1657" y="1882.5864"/><text fill="#000000" font-family="sans-serif" font-size="14" lengthAdjust="spacing" textLength="118.7895" x="1205.1657" y="1904.5523">Payment Gateway</text></g><g class="participant participant-head" data-participant="DB"><text fill="#000000" font-family="sans-serif" font-size="14" lengthAdjust="spacing" textLength="76.9437" x="1340.9553" y="125.1018">PostgreSQL</text><path d="M1364.4271,74.1358 C1364.4271,64.1358 1382.4271,64.1358 1382.4271,64.1358 C1382.4271,64.1358 1400.4271,64.1358 1400.4271,74.1358 L1400.4271,100.1358 C1400.4271,110.1358 1382.4271,110.1358 1382.4271,110.1358 C1382.4271,110.1358 1364.4271,110.1358 1364.4271,100.1358 L1364.4271,74.1358" fill="#E2E2F0" style="stroke:#181818;stroke-width:0.5;"/><path d="M1364.4271,74.1358 C1364.4271,84.1358 1382.4271,84.1358 1382.4271,84.1358 C1382.4271,84.1358 1400.4271,84.1358 1400.4271,74.1358" fill="none" style="stroke:#181818;stroke-width:0.5;"/></g><g class="participant participant-tail" data-participant="DB"><text fill="#000000" font-family="sans-serif" font-size="14" lengthAdjust="spacing" textLength="76.9437" x="1340.9553" y="1897.5523">PostgreSQL</text><path d="M1364.4271,1911.6543 C1364.4271,1901.6543 1382.4271,1901.6543 1382.4271,1901.6543 C1382.4271,1901.6543 1400.4271,1901.6543 1400.4271,1911.6543 L1400.4271,1937.6543 C1400.4271,1947.6543 1382.4271,1947.6543 1382.4271,1947.6543 C1382.4271,1947.6543 1364.4271,1947.6543 1364.4271,1937.6543 L1364.4271,1911.6543" fill="#E2E2F0" style="stroke:#181818;stroke-width:0.5;"/><path d="M1364.4271,1911.6543 C1364.4271,1921.6543 1382.4271,1921.6543 1382.4271,1921.6543 C1382.4271,1921.6543 1400.4271,1921.6543 1400.4271,1911.6543" fill="none" style="stroke:#181818;stroke-width:0.5;"/></g><g class="participant participant-head" data-participant="Notif"><rect fill="#E2E2F0" height="33.0679" rx="2.5" ry="2.5" style="stroke:#181818;stroke-width:0.5;" width="140.9095" x="1433.899" y="95.1358"/><text fill="#000000" font-family="sans-serif" font-size="14" lengthAdjust="spacing" textLength="126.9095" x="1440.899" y="117.1018">Notification Service</text></g><g class="participant participant-tail" data-participant="Notif"><rect fill="#E2E2F0" height="33.0679" rx="2.5" ry="2.5" style="stroke:#181818;stroke-width:0.5;" width="140.9095" x="1433.899" y="1882.5864"/><text fill="#000000" font-family="sans-serif" font-size="14" lengthAdjust="spacing" textLength="126.9095" x="1440.899" y="1904.5523">Notification Service</text></g><g class="participant participant-head" data-participant="Ticketing"><rect fill="#E2E2F0" height="33.0679" rx="2.5" ry="2.5" style="stroke:#181818;stroke-width:0.5;" width="123.7596" x="1584.8085" y="95.1358"/><text fill="#000000" font-family="sans-serif" font-size="14" lengthAdjust="spacing" textLength="109.7596" x="1591.8085" y="117.1018">Ticketing Service</text></g><g class="participant participant-tail" data-participant="Ticketing"><rect fill="#E2E2F0" height="33.0679" rx="2.5" ry="2.5" style="stroke:#181818;stroke-width:0.5;" width="123.7596" x="1584.8085" y="1882.5864"/><text fill="#000000" font-family="sans-serif" font-size="14" lengthAdjust="spacing" textLength="109.7596" x="1591.8085" y="1904.5523">Ticketing Service</text></g><g class="participant participant-head" data-participant="Broker"><path d="M1791.3386,81.0679 L1907.8502,81.0679 C1912.8502,81.0679 1912.8502,105.1358 1912.8502,105.1358 C1912.8502,105.1358 1912.8502,129.2038 1907.8502,129.2038 L1791.3386,129.2038 C1786.3386,129.2038 1786.3386,105.1358 1786.3386,105.1358 C1786.3386,105.1358 1786.3386,81.0679 1791.3386,81.0679" fill="#E2E2F0" style="stroke:#181818;stroke-width:0.5;"/><path d="M1907.8502,81.0679 C1902.8502,81.0679 1902.8502,105.1358 1902.8502,105.1358 C1902.8502,129.2038 1907.8502,129.2038 1907.8502,129.2038" fill="none" style="stroke:#181818;stroke-width:0.5;"/><text fill="#000000" font-family="sans-serif" font-size="14" lengthAdjust="spacing" textLength="106.5116" x="1791.3386" y="101.0339">Message Broker</text><text fill="#000000" font-family="sans-serif" font-size="14" lengthAdjust="spacing" textLength="45.0658" x="1822.0615" y="120.1018">(Kafka)</text></g><g class="participant participant-tail" data-participant="Broker"><path d="M1791.3386,1882.5864 L1907.8502,1882.5864 C1912.8502,1882.5864 1912.8502,1906.6543 1912.8502,1906.6543 C1912.8502,1906.6543 1912.8502,1930.7222 1907.8502,1930.7222 L1791.3386,1930.7222 C1786.3386,1930.7222 1786.3386,1906.6543 1786.3386,1906.6543 C1786.3386,1906.6543 1786.3386,1882.5864 1791.3386,1882.5864" fill="#E2E2F0" style="stroke:#181818;stroke-width:0.5;"/><path d="M1907.8502,1882.5864 C1902.8502,1882.5864 1902.8502,1906.6543 1902.8502,1906.6543 C1902.8502,1930.7222 1907.8502,1930.7222 1907.8502,1930.7222" fill="none" style="stroke:#181818;stroke-width:0.5;"/><text fill="#000000" font-family="sans-serif" font-size="14" lengthAdjust="spacing" textLength="106.5116" x="1791.3386" y="1902.5523">Message Broker</text><text fill="#000000" font-family="sans-serif" font-size="14" lengthAdjust="spacing" textLength="45.0658" x="1822.0615" y="1921.6203">(Kafka)</text></g><g class="message" data-participant-1="Buyer" data-participant-2="GW"><polygon fill="#181818" points="283.0071,158.9098,293.0071,162.9098,283.0071,166.9098,287.0071,162.9098" style="stroke:#181818;stroke-width:1;"/><line style="stroke:#181818;stroke-width:1;" x1="42.2849" x2="289.0071" y1="162.9098" y2="162.9098"/><text fill="#000000" font-family="sans-serif" font-size="13" lengthAdjust="spacing" textLength="98.4231" x="49.2849" y="157.1008">GET /events/{id}</text></g><g class="message" data-participant-1="GW" data-participant-2="Catalog"><polygon fill="#181818" points="579.6479,190.6158,589.6479,194.6158,579.6479,198.6158,583.6479,194.6158" style="stroke:#181818;stroke-width:1;"/><line style="stroke:#181818;stroke-width:1;" x1="295.0071" x2="585.6479" y1="194.6158" y2="194.6158"/><text fill="#000000" font-family="sans-serif" font-size="13" lengthAdjust="spacing" textLength="138.7101" x="302.0071" y="188.8068">fetch event + seat map</text></g><g class="message" data-participant-1="Catalog" data-participant-2="GW"><polygon fill="#181818" points="306.0071,222.3218,296.0071,226.3218,306.0071,230.3218,302.0071,226.3218" style="stroke:#181818;stroke-width:1;"/><line style="stroke:#181818;stroke-width:1;stroke-dasharray:2,2;" x1="300.0071" x2="590.6479" y1="226.3218" y2="226.3218"/><text fill="#000000" font-family="sans-serif" font-size="13" lengthAdjust="spacing" textLength="77.6231" x="312.0071" y="220.5128">event details</text></g><g class="message" data-participant-1="GW" data-participant-2="Buyer"><polygon fill="#181818" points="53.2849,254.0278,43.2849,258.0278,53.2849,262.0278,49.2849,258.0278" style="stroke:#181818;stroke-width:1;"/><line style="stroke:#181818;stroke-width:1;stroke-dasharray:2,2;" x1="47.2849" x2="294.0071" y1="258.0278" y2="258.0278"/><text fill="#000000" font-family="sans-serif" font-size="13" lengthAdjust="spacing" textLength="112.9701" x="59.2849" y="252.2188">render venue map</text></g><path d="M10,273.0278 L72.459,273.0278 L72.459,282.7338 L62.459,292.7338 L10,292.7338 L10,273.0278" fill="#EEEEEE" style="stroke:#000000;stroke-width:1.5;"/><rect fill="none" height="146.5301" style="stroke:#000000;stroke-width:1.5;" width="529.4281" x="10" y="273.0278"/><text fill="#000000" font-family="sans-serif" font-size="13" font-weight="bold" lengthAdjust="spacing" textLength="17.459" x="25" y="287.9248">alt</text><text fill="#000000" font-family="sans-serif" font-size="11" font-weight="bold" lengthAdjust="spacing" textLength="114.8172" x="87.459" y="286.7867">[high-demand event]</text><g class="message" data-participant-1="Buyer" data-participant-2="GW"><polygon fill="#181818" points="283.0071,312.4398,293.0071,316.4398,283.0071,320.4398,287.0071,316.4398" style="stroke:#181818;stroke-width:1;"/><line style="stroke:#181818;stroke-width:1;" x1="42.2849" x2="289.0071" y1="316.4398" y2="316.4398"/><text fill="#000000" font-family="sans-serif" font-size="13" lengthAdjust="spacing" textLength="107.5621" x="49.2849" y="310.6308">join waiting room</text></g><g class="message" data-participant-1="GW" data-participant-2="Queue"><polygon fill="#181818" points="463.2413,344.1459,473.2413,348.1459,463.2413,352.1459,467.2413,348.1459" style="stroke:#181818;stroke-width:1;"/><line style="stroke:#181818;stroke-width:1;" x1="295.0071" x2="469.2413" y1="348.1459" y2="348.1459"/><text fill="#000000" font-family="sans-serif" font-size="13" lengthAdjust="spacing" textLength="154.5181" x="302.0071" y="342.3369">enqueue(userId, eventId)</text></g><g class="message" data-participant-1="Queue" data-participant-2="Buyer"><polygon fill="#181818" points="53.2849,375.8519,43.2849,379.8519,53.2849,383.8519,49.2849,379.8519" style="stroke:#181818;stroke-width:1;"/><line style="stroke:#181818;stroke-width:1;stroke-dasharray:2,2;" x1="47.2849" x2="474.2413" y1="379.8519" y2="379.8519"/><text fill="#000000" font-family="sans-serif" font-size="13" lengthAdjust="spacing" textLength="190.9312" x="59.2849" y="374.0429">queue position (via WebSocket)</text></g><g class="message" data-participant-1="Queue" data-participant-2="GW"><polygon fill="#181818" points="306.0071,407.5579,296.0071,411.5579,306.0071,415.5579,302.0071,411.5579" style="stroke:#181818;stroke-width:1;"/><line style="stroke:#181818;stroke-width:1;" x1="300.0071" x2="474.2413" y1="411.5579" y2="411.5579"/><text fill="#000000" font-family="sans-serif" font-size="13" lengthAdjust="spacing" textLength="156.2341" x="312.0071" y="405.7489">admit user when slot free</text></g><g class="message" data-participant-1="Buyer" data-participant-2="GW"><polygon fill="#181818" points="283.0071,446.2639,293.0071,450.2639,283.0071,454.2639,287.0071,450.2639" style="stroke:#181818;stroke-width:1;"/><line style="stroke:#181818;stroke-width:1;" x1="42.2849" x2="289.0071" y1="450.2639" y2="450.2639"/><text fill="#000000" font-family="sans-serif" font-size="13" lengthAdjust="spacing" textLength="78.1301" x="49.2849" y="444.4549">select seat(s)</text></g><g class="message" data-participant-1="GW" data-participant-2="Res"><polygon fill="#181818" points="712.1615,477.9699,722.1615,481.9699,712.1615,485.9699,716.1615,481.9699" style="stroke:#181818;stroke-width:1;"/><line style="stroke:#181818;stroke-width:1;" x1="295.0071" x2="718.1615" y1="481.9699" y2="481.9699"/><text fill="#000000" font-family="sans-serif" font-size="13" lengthAdjust="spacing" textLength="207.5582" x="302.0071" y="476.1609">POST /reservations {seats, userId}</text></g><g class="message" data-participant-1="Res" data-participant-2="Redis"><polygon fill="#181818" points="908.1257,509.6759,918.1257,513.6759,908.1257,517.6759,912.1257,513.6759" style="stroke:#181818;stroke-width:1;"/><line style="stroke:#181818;stroke-width:1;" x1="724.1615" x2="914.1257" y1="513.6759" y2="513.6759"/><text fill="#000000" font-family="sans-serif" font-size="13" lengthAdjust="spacing" textLength="171.9642" x="731.1615" y="507.8669">SET lock:seat:{id} NX EX=600</text></g><path d="M10,528.6759 L72.459,528.6759 L72.459,538.382 L62.459,548.382 L10,548.382 L10,528.6759" fill="#EEEEEE" style="stroke:#000000;stroke-width:1.5;"/><rect fill="none" height="258.63" style="stroke:#000000;stroke-width:1.5;" width="1423.899" x="10" y="528.6759"/><text fill="#000000" font-family="sans-serif" font-size="13" font-weight="bold" lengthAdjust="spacing" textLength="17.459" x="25" y="543.573">alt</text><text fill="#000000" font-family="sans-serif" font-size="11" font-weight="bold" lengthAdjust="spacing" textLength="81.0804" x="87.459" y="542.4349">[lock acquired]</text><g class="message" data-participant-1="Redis" data-participant-2="Res"><polygon fill="#181818" points="735.1615,568.088,725.1615,572.088,735.1615,576.088,731.1615,572.088" style="stroke:#181818;stroke-width:1;"/><line style="stroke:#181818;stroke-width:1;stroke-dasharray:2,2;" x1="729.1615" x2="919.1257" y1="572.088" y2="572.088"/><text fill="#000000" font-family="sans-serif" font-size="13" lengthAdjust="spacing" textLength="18.2" x="741.1615" y="566.279">OK</text></g><g class="message" data-participant-1="Res" data-participant-2="DB"><polygon fill="#181818" points="1370.4271,599.794,1380.4271,603.794,1370.4271,607.794,1374.4271,603.794" style="stroke:#181818;stroke-width:1;"/><line style="stroke:#181818;stroke-width:1;" x1="724.1615" x2="1376.4271" y1="603.794" y2="603.794"/><text fill="#000000" font-family="sans-serif" font-size="13" lengthAdjust="spacing" textLength="240.9422" x="731.1615" y="597.985">insert Reservation(PENDING, expiresAt)</text></g><g class="message" data-participant-1="Res" data-participant-2="GW"><polygon fill="#181818" points="306.0071,631.5,296.0071,635.5,306.0071,639.5,302.0071,635.5" style="stroke:#181818;stroke-width:1;"/><line style="stroke:#181818;stroke-width:1;stroke-dasharray:2,2;" x1="300.0071" x2="723.1615" y1="635.5" y2="635.5"/><text fill="#000000" font-family="sans-serif" font-size="13" lengthAdjust="spacing" textLength="119.1061" x="312.0071" y="629.691">reservation created</text></g><g class="message" data-participant-1="GW" data-participant-2="Buyer"><polygon fill="#181818" points="53.2849,663.206,43.2849,667.206,53.2849,671.206,49.2849,667.206" style="stroke:#181818;stroke-width:1;"/><line style="stroke:#181818;stroke-width:1;stroke-dasharray:2,2;" x1="47.2849" x2="294.0071" y1="667.206" y2="667.206"/><text fill="#000000" font-family="sans-serif" font-size="13" lengthAdjust="spacing" textLength="220.3892" x="59.2849" y="661.397">seats locked, checkout timer started</text></g><line style="stroke:#000000;stroke-width:1;stroke-dasharray:2,2;" x1="10" x2="1433.899" y1="676.206" y2="676.206"/><text fill="#000000" font-family="sans-serif" font-size="11" font-weight="bold" lengthAdjust="spacing" textLength="101.0453" x="15" y="687.9649">[lock already held]</text><g class="message" data-participant-1="Redis" data-participant-2="Res"><polygon fill="#181818" points="735.1615,711.8939,725.1615,715.8939,735.1615,719.8939,731.1615,715.8939" style="stroke:#181818;stroke-width:1;"/><line style="stroke:#181818;stroke-width:1;stroke-dasharray:2,2;" x1="729.1615" x2="919.1257" y1="715.8939" y2="715.8939"/><text fill="#000000" font-family="sans-serif" font-size="13" lengthAdjust="spacing" textLength="14.742" x="741.1615" y="710.0849">nil</text></g><g class="message" data-participant-1="Res" data-participant-2="GW"><polygon fill="#181818" points="306.0071,743.6,296.0071,747.6,306.0071,751.6,302.0071,747.6" style="stroke:#181818;stroke-width:1;"/><line style="stroke:#181818;stroke-width:1;stroke-dasharray:2,2;" x1="300.0071" x2="723.1615" y1="747.6" y2="747.6"/><text fill="#000000" font-family="sans-serif" font-size="13" lengthAdjust="spacing" textLength="71.9161" x="312.0071" y="741.7909">409 Conflict</text></g><g class="message" data-participant-1="GW" data-participant-2="Buyer"><polygon fill="#181818" points="53.2849,775.306,43.2849,779.306,53.2849,783.306,49.2849,779.306" style="stroke:#181818;stroke-width:1;"/><line style="stroke:#181818;stroke-width:1;stroke-dasharray:2,2;" x1="47.2849" x2="294.0071" y1="779.306" y2="779.306"/><text fill="#000000" font-family="sans-serif" font-size="13" lengthAdjust="spacing" textLength="182.2601" x="59.2849" y="773.497">seat unavailable, pick another</text></g><g class="message" data-participant-1="Buyer" data-participant-2="GW"><polygon fill="#181818" points="283.0071,814.012,293.0071,818.012,283.0071,822.012,287.0071,818.012" style="stroke:#181818;stroke-width:1;"/><line style="stroke:#181818;stroke-width:1;" x1="42.2849" x2="289.0071" y1="818.012" y2="818.012"/><text fill="#000000" font-family="sans-serif" font-size="13" lengthAdjust="spacing" textLength="143.5981" x="49.2849" y="812.203">submit payment details</text></g><g class="message" data-participant-1="GW" data-participant-2="Billing"><polygon fill="#181818" points="1021.9253,845.718,1031.9253,849.718,1021.9253,853.718,1025.9253,849.718" style="stroke:#181818;stroke-width:1;"/><line style="stroke:#181818;stroke-width:1;" x1="295.0071" x2="1027.9253" y1="849.718" y2="849.718"/><text fill="#000000" font-family="sans-serif" font-size="13" lengthAdjust="spacing" textLength="299.6112" x="302.0071" y="843.909">POST /checkout {reservationId, idempotencyKey}</text></g><g class="message" data-participant-1="Billing" data-participant-2="DB"><polygon fill="#181818" points="1370.4271,877.424,1380.4271,881.424,1370.4271,885.424,1374.4271,881.424" style="stroke:#181818;stroke-width:1;"/><line style="stroke:#181818;stroke-width:1;" x1="1033.9253" x2="1376.4271" y1="881.424" y2="881.424"/><text fill="#000000" font-family="sans-serif" font-size="13" lengthAdjust="spacing" textLength="284.1932" x="1040.9253" y="875.615">verify Reservation is PENDING and not expired</text></g><g class="message" data-participant-1="Billing" data-participant-2="PG"><polygon fill="#181818" points="1252.5605,909.13,1262.5605,913.13,1252.5605,917.13,1256.5605,913.13" style="stroke:#181818;stroke-width:1;"/><line style="stroke:#181818;stroke-width:1;" x1="1033.9253" x2="1258.5605" y1="913.13" y2="913.13"/><text fill="#000000" font-family="sans-serif" font-size="13" lengthAdjust="spacing" textLength="206.6352" x="1040.9253" y="907.321">charge(amount, idempotencyKey)</text></g><path d="M10,928.13 L72.459,928.13 L72.459,937.8361 L62.459,947.8361 L10,947.8361 L10,928.13" fill="#EEEEEE" style="stroke:#000000;stroke-width:1.5;"/><rect fill="none" height="797.6323" style="stroke:#000000;stroke-width:1.5;" width="1912.8502" x="10" y="928.13"/><text fill="#000000" font-family="sans-serif" font-size="13" font-weight="bold" lengthAdjust="spacing" textLength="17.459" x="25" y="943.027">alt</text><text fill="#000000" font-family="sans-serif" font-size="11" font-weight="bold" lengthAdjust="spacing" textLength="108.7452" x="87.459" y="941.8889">[payment succeeds]</text><g class="message" data-participant-1="PG" data-participant-2="Billing"><polygon fill="#181818" points="1044.9253,967.5421,1034.9253,971.5421,1044.9253,975.5421,1040.9253,971.5421" style="stroke:#181818;stroke-width:1;"/><line style="stroke:#181818;stroke-width:1;stroke-dasharray:2,2;" x1="1038.9253" x2="1263.5605" y1="971.5421" y2="971.5421"/><text fill="#000000" font-family="sans-serif" font-size="13" lengthAdjust="spacing" textLength="144.8981" x="1050.9253" y="965.7331">success + providerRefId</text></g><g class="message" data-participant-1="Billing" data-participant-2="DB"><polygon fill="#181818" points="1370.4271,999.2481,1380.4271,1003.2481,1370.4271,1007.2481,1374.4271,1003.2481" style="stroke:#181818;stroke-width:1;"/><line style="stroke:#181818;stroke-width:1;" x1="1033.9253" x2="1376.4271" y1="1003.2481" y2="1003.2481"/><text fill="#000000" font-family="sans-serif" font-size="13" lengthAdjust="spacing" textLength="173.9272" x="1040.9253" y="997.4391">insert Payment(SUCCEEDED)</text></g><g class="message" data-participant-1="Billing" data-participant-2="Res"><polygon fill="#181818" points="735.1615,1030.9541,725.1615,1034.9541,735.1615,1038.9541,731.1615,1034.9541" style="stroke:#181818;stroke-width:1;"/><line style="stroke:#181818;stroke-width:1;" x1="729.1615" x2="1032.9253" y1="1034.9541" y2="1034.9541"/><text fill="#000000" font-family="sans-serif" font-size="13" lengthAdjust="spacing" textLength="120.3411" x="741.1615" y="1029.1451">confirm reservation</text></g><g class="message" data-participant-1="Res" data-participant-2="DB"><polygon fill="#181818" points="1370.4271,1062.6601,1380.4271,1066.6601,1370.4271,1070.6601,1374.4271,1066.6601" style="stroke:#181818;stroke-width:1;"/><line style="stroke:#181818;stroke-width:1;" x1="724.1615" x2="1376.4271" y1="1066.6601" y2="1066.6601"/><text fill="#000000" font-family="sans-serif" font-size="13" lengthAdjust="spacing" textLength="202.7092" x="731.1615" y="1060.8511">update Reservation(CONFIRMED)</text></g><g class="message" data-participant-1="Res" data-participant-2="Redis"><polygon fill="#181818" points="908.1257,1094.3661,918.1257,1098.3661,908.1257,1102.3661,912.1257,1098.3661" style="stroke:#181818;stroke-width:1;"/><line style="stroke:#181818;stroke-width:1;" x1="724.1615" x2="914.1257" y1="1098.3661" y2="1098.3661"/><text fill="#000000" font-family="sans-serif" font-size="13" lengthAdjust="spacing" textLength="105.0531" x="731.1615" y="1092.5571">DEL lock:seat:{id}</text></g><g class="message" data-participant-1="Res" data-participant-2="DB"><polygon fill="#181818" points="1370.4271,1126.0722,1380.4271,1130.0722,1370.4271,1134.0722,1374.4271,1130.0722" style="stroke:#181818;stroke-width:1;"/><line style="stroke:#181818;stroke-width:1;" x1="724.1615" x2="1376.4271" y1="1130.0722" y2="1130.0722"/><text fill="#000000" font-family="sans-serif" font-size="13" lengthAdjust="spacing" textLength="181.5452" x="731.1615" y="1124.2631">update Seat.status = BOOKED</text></g><g class="message" data-participant-1="Billing" data-participant-2="Broker"><polygon fill="#181818" points="1837.5944,1157.7782,1847.5944,1161.7782,1837.5944,1165.7782,1841.5944,1161.7782" style="stroke:#181818;stroke-width:1;"/><line style="stroke:#181818;stroke-width:1;" x1="1033.9253" x2="1843.5944" y1="1161.7782" y2="1161.7782"/><text fill="#000000" font-family="sans-serif" font-size="13" lengthAdjust="spacing" textLength="205.3872" x="1040.9253" y="1155.9692">publish PaymentSucceeded event</text></g><g class="message" data-participant-1="Broker" data-participant-2="Ticketing"><polygon fill="#181818" points="1657.6883,1189.4842,1647.6883,1193.4842,1657.6883,1197.4842,1653.6883,1193.4842" style="stroke:#181818;stroke-width:1;"/><line style="stroke:#181818;stroke-width:1;" x1="1651.6883" x2="1848.5944" y1="1193.4842" y2="1193.4842"/><text fill="#000000" font-family="sans-serif" font-size="13" lengthAdjust="spacing" textLength="178.9062" x="1663.6883" y="1187.6752">consume PaymentSucceeded</text></g><g class="message" data-participant-1="Ticketing" data-participant-2="DB"><polygon fill="#181818" points="1393.4271,1221.1902,1383.4271,1225.1902,1393.4271,1229.1902,1389.4271,1225.1902" style="stroke:#181818;stroke-width:1;"/><line style="stroke:#181818;stroke-width:1;" x1="1387.4271" x2="1645.6883" y1="1225.1902" y2="1225.1902"/><text fill="#000000" font-family="sans-serif" font-size="13" lengthAdjust="spacing" textLength="157.9371" x="1399.4271" y="1219.3812">insert Ticket(qrCodeHash)</text></g><g class="message" data-participant-1="Ticketing" data-participant-2="Broker"><polygon fill="#181818" points="1837.5944,1252.8962,1847.5944,1256.8962,1837.5944,1260.8962,1841.5944,1256.8962" style="stroke:#181818;stroke-width:1;"/><line style="stroke:#181818;stroke-width:1;" x1="1646.6883" x2="1843.5944" y1="1256.8962" y2="1256.8962"/><text fill="#000000" font-family="sans-serif" font-size="13" lengthAdjust="spacing" textLength="161.7592" x="1653.6883" y="1251.0872">publish TicketIssued event</text></g><g class="message" data-participant-1="Broker" data-participant-2="Notif"><polygon fill="#181818" points="1515.3537,1284.6022,1505.3537,1288.6022,1515.3537,1292.6022,1511.3537,1288.6022" style="stroke:#181818;stroke-width:1;"/><line style="stroke:#181818;stroke-width:1;" x1="1509.3537" x2="1848.5944" y1="1288.6022" y2="1288.6022"/><text fill="#000000" font-family="sans-serif" font-size="13" lengthAdjust="spacing" textLength="135.2781" x="1521.3537" y="1282.7932">consume TicketIssued</text></g><g class="message" data-participant-1="Notif" data-participant-2="Buyer"><polygon fill="#181818" points="53.2849,1316.3083,43.2849,1320.3083,53.2849,1324.3083,49.2849,1320.3083" style="stroke:#181818;stroke-width:1;"/><line style="stroke:#181818;stroke-width:1;stroke-dasharray:2,2;" x1="47.2849" x2="1503.3537" y1="1320.3083" y2="1320.3083"/><text fill="#000000" font-family="sans-serif" font-size="13" lengthAdjust="spacing" textLength="163.1372" x="59.2849" y="1314.4992">email/SMS with ticket + QR</text></g><g class="message" data-participant-1="Billing" data-participant-2="GW"><polygon fill="#181818" points="306.0071,1348.0143,296.0071,1352.0143,306.0071,1356.0143,302.0071,1352.0143" style="stroke:#181818;stroke-width:1;"/><line style="stroke:#181818;stroke-width:1;stroke-dasharray:2,2;" x1="300.0071" x2="1032.9253" y1="1352.0143" y2="1352.0143"/><text fill="#000000" font-family="sans-serif" font-size="13" lengthAdjust="spacing" textLength="158.2101" x="312.0071" y="1346.2053">200 OK + confirmed order</text></g><g class="message" data-participant-1="GW" data-participant-2="Buyer"><polygon fill="#181818" points="53.2849,1379.7203,43.2849,1383.7203,53.2849,1387.7203,49.2849,1383.7203" style="stroke:#181818;stroke-width:1;"/><line style="stroke:#181818;stroke-width:1;stroke-dasharray:2,2;" x1="47.2849" x2="294.0071" y1="1383.7203" y2="1383.7203"/><text fill="#000000" font-family="sans-serif" font-size="13" lengthAdjust="spacing" textLength="228.7222" x="59.2849" y="1377.9113">booking confirmed (WebSocket push)</text></g><line style="stroke:#000000;stroke-width:1;stroke-dasharray:2,2;" x1="10" x2="1922.8502" y1="1392.7203" y2="1392.7203"/><text fill="#000000" font-family="sans-serif" font-size="11" font-weight="bold" lengthAdjust="spacing" textLength="202.5416" x="15" y="1404.4792">[payment fails or gateway times out]</text><g class="message" data-participant-1="PG" data-participant-2="Billing"><polygon fill="#181818" points="1044.9253,1428.4082,1034.9253,1432.4082,1044.9253,1436.4082,1040.9253,1432.4082" style="stroke:#181818;stroke-width:1;"/><line style="stroke:#181818;stroke-width:1;stroke-dasharray:2,2;" x1="1038.9253" x2="1263.5605" y1="1432.4082" y2="1432.4082"/><text fill="#000000" font-family="sans-serif" font-size="13" lengthAdjust="spacing" textLength="98.9301" x="1050.9253" y="1426.5992">failure / timeout</text></g><g class="message" data-participant-1="Billing" data-participant-2="Res"><polygon fill="#181818" points="735.1615,1460.1142,725.1615,1464.1142,735.1615,1468.1142,731.1615,1464.1142" style="stroke:#181818;stroke-width:1;"/><line style="stroke:#181818;stroke-width:1;" x1="729.1615" x2="1032.9253" y1="1464.1142" y2="1464.1142"/><text fill="#000000" font-family="sans-serif" font-size="13" lengthAdjust="spacing" textLength="225.2642" x="741.1615" y="1458.3052">trigger compensation (Saga rollback)</text></g><g class="message" data-participant-1="Res" data-participant-2="DB"><polygon fill="#181818" points="1370.4271,1491.8202,1380.4271,1495.8202,1370.4271,1499.8202,1374.4271,1495.8202" style="stroke:#181818;stroke-width:1;"/><line style="stroke:#181818;stroke-width:1;" x1="724.1615" x2="1376.4271" y1="1495.8202" y2="1495.8202"/><text fill="#000000" font-family="sans-serif" font-size="13" lengthAdjust="spacing" textLength="198.9002" x="731.1615" y="1490.0112">update Reservation(CANCELLED)</text></g><g class="message" data-participant-1="Res" data-participant-2="Redis"><polygon fill="#181818" points="908.1257,1523.5262,918.1257,1527.5262,908.1257,1531.5262,912.1257,1527.5262" style="stroke:#181818;stroke-width:1;"/><line style="stroke:#181818;stroke-width:1;" x1="724.1615" x2="914.1257" y1="1527.5262" y2="1527.5262"/><text fill="#000000" font-family="sans-serif" font-size="13" lengthAdjust="spacing" textLength="105.0531" x="731.1615" y="1521.7172">DEL lock:seat:{id}</text></g><g class="message" data-participant-1="Res" data-participant-2="DB"><polygon fill="#181818" points="1370.4271,1555.2323,1380.4271,1559.2323,1370.4271,1563.2323,1374.4271,1559.2323" style="stroke:#181818;stroke-width:1;"/><line style="stroke:#181818;stroke-width:1;" x1="724.1615" x2="1376.4271" y1="1559.2323" y2="1559.2323"/><text fill="#000000" font-family="sans-serif" font-size="13" lengthAdjust="spacing" textLength="194.4542" x="731.1615" y="1553.4233">update Seat.status = AVAILABLE</text></g><g class="message" data-participant-1="Billing" data-participant-2="Broker"><polygon fill="#181818" points="1837.5944,1586.9383,1847.5944,1590.9383,1837.5944,1594.9383,1841.5944,1590.9383" style="stroke:#181818;stroke-width:1;"/><line style="stroke:#181818;stroke-width:1;" x1="1033.9253" x2="1843.5944" y1="1590.9383" y2="1590.9383"/><text fill="#000000" font-family="sans-serif" font-size="13" lengthAdjust="spacing" textLength="175.8252" x="1040.9253" y="1585.1293">publish PaymentFailed event</text></g><g class="message" data-participant-1="Broker" data-participant-2="Notif"><polygon fill="#181818" points="1515.3537,1618.6443,1505.3537,1622.6443,1515.3537,1626.6443,1511.3537,1622.6443" style="stroke:#181818;stroke-width:1;"/><line style="stroke:#181818;stroke-width:1;" x1="1509.3537" x2="1848.5944" y1="1622.6443" y2="1622.6443"/><text fill="#000000" font-family="sans-serif" font-size="13" lengthAdjust="spacing" textLength="149.3441" x="1521.3537" y="1616.8353">consume PaymentFailed</text></g><g class="message" data-participant-1="Notif" data-participant-2="Buyer"><polygon fill="#181818" points="53.2849,1650.3503,43.2849,1654.3503,53.2849,1658.3503,49.2849,1654.3503" style="stroke:#181818;stroke-width:1;"/><line style="stroke:#181818;stroke-width:1;stroke-dasharray:2,2;" x1="47.2849" x2="1503.3537" y1="1654.3503" y2="1654.3503"/><text fill="#000000" font-family="sans-serif" font-size="13" lengthAdjust="spacing" textLength="163.9431" x="59.2849" y="1648.5413">payment failed notification</text></g><g class="message" data-participant-1="Billing" data-participant-2="GW"><polygon fill="#181818" points="306.0071,1682.0563,296.0071,1686.0563,306.0071,1690.0563,302.0071,1686.0563" style="stroke:#181818;stroke-width:1;"/><line style="stroke:#181818;stroke-width:1;stroke-dasharray:2,2;" x1="300.0071" x2="1032.9253" y1="1686.0563" y2="1686.0563"/><text fill="#000000" font-family="sans-serif" font-size="13" lengthAdjust="spacing" textLength="138.5671" x="312.0071" y="1680.2473">402 Payment Required</text></g><g class="message" data-participant-1="GW" data-participant-2="Buyer"><polygon fill="#181818" points="53.2849,1713.7623,43.2849,1717.7623,53.2849,1721.7623,49.2849,1717.7623" style="stroke:#181818;stroke-width:1;"/><line style="stroke:#181818;stroke-width:1;stroke-dasharray:2,2;" x1="47.2849" x2="294.0071" y1="1717.7623" y2="1717.7623"/><text fill="#000000" font-family="sans-serif" font-size="13" lengthAdjust="spacing" textLength="108.3031" x="59.2849" y="1711.9533">show retry option</text></g><rect fill="#EEEEEE" height="3" style="stroke:#EEEEEE;stroke-width:1;" width="1932.8502" x="0" y="1754.6153"/><line style="stroke:#000000;stroke-width:1;" x1="0" x2="1932.8502" y1="1754.6153" y2="1754.6153"/><line style="stroke:#000000;stroke-width:1;" x1="0" x2="1932.8502" y1="1757.6153" y2="1757.6153"/><rect fill="#EEEEEE" height="25.706" style="stroke:#000000;stroke-width:2;" width="244.6591" x="844.0955" y="1742.7623"/><text fill="#000000" font-family="sans-serif" font-size="13" font-weight="bold" lengthAdjust="spacing" textLength="227.2791" x="850.0955" y="1760.6593">TTL expiry (no payment submitted)</text><g class="message" data-participant-1="Res" data-participant-2="Redis"><polygon fill="#181818" points="908.1257,1798.1744,918.1257,1802.1744,908.1257,1806.1744,912.1257,1802.1744" style="stroke:#181818;stroke-width:1;"/><line style="stroke:#181818;stroke-width:1;" x1="724.1615" x2="914.1257" y1="1802.1744" y2="1802.1744"/><text fill="#000000" font-family="sans-serif" font-size="13" lengthAdjust="spacing" textLength="154.1931" x="731.1615" y="1796.3654">key expires (TTL reached)</text></g><g class="message" data-participant-1="Redis" data-participant-2="Res"><polygon fill="#181818" points="735.1615,1829.8804,725.1615,1833.8804,735.1615,1837.8804,731.1615,1833.8804" style="stroke:#181818;stroke-width:1;"/><line style="stroke:#181818;stroke-width:1;stroke-dasharray:2,2;" x1="729.1615" x2="919.1257" y1="1833.8804" y2="1833.8804"/><text fill="#000000" font-family="sans-serif" font-size="13" lengthAdjust="spacing" textLength="128.6221" x="741.1615" y="1828.0714">keyspace notification</text></g><g class="message" data-participant-1="Res" data-participant-2="DB"><polygon fill="#181818" points="1370.4271,1861.5864,1380.4271,1865.5864,1370.4271,1869.5864,1374.4271,1865.5864" style="stroke:#181818;stroke-width:1;"/><line style="stroke:#181818;stroke-width:1;" x1="724.1615" x2="1376.4271" y1="1865.5864" y2="1865.5864"/><text fill="#000000" font-family="sans-serif" font-size="13" lengthAdjust="spacing" textLength="333.2293" x="731.1615" y="1859.7774">update Reservation(EXPIRED), Seat.status = AVAILABLE</text></g><!--SRC=[hLPDR-Cs4BthLqnpaj6uCHQB0ZNW1VoXk4OSnx7I9eTSQ6aiiPP4XQISDOByzmv9sP6ytkqUUXB0UJESUVDcg5zAoPASGSRsejAWSjIiO9xcEaDuuD4MzJAh57GXAEAk5btwm4Y8BIyIkCx4A_WXlbHOHDZnF1Pf8M5KxL5w9PEQHxnaXOQBuN86KwRnbUqlW2cOFhRjZunh4t4bHFvSt5TO8OGeTpn2YxSdRPTWX_GPCyqoaJmNJNHzsCQlK164QIuAgYNXXSFIiHSJViqK6b3CrNFXAsGQCX5jLQT6qNaxteXdcKdv2iOfHbjYhvr4RMyxBTa-DsatkLXE6maiXTA9nF1-RcsJKTj_8JJVyCXLqRpD6jfOrpsJOXDuFFLUBCiNjwWKIn16KcnHKkqtRBDbhcntvdcsez3zGdthmpHuW2iqxAkhDnw_UzD7Owf9xyC6TPI21S2lO9dCMUdLTkZMOHmW9htnJDaOPB0NzK5Y4TE5XA0CZRF7CWqfJz9kZ3aZ2Lfl3w2LsJ-25_1QIqcIb0ZWahFweJiBMxHVaHHcyQMBCeixX7EQQ-JWw2c5ufPiVySPFE8w58Q_XeUxciKvrs3YmckA1QXCQDX8H8zAEI5GOOQHjipugbFJHphim_8k96xbXr8Ll1cOkWINyhj7E0SdGVOXf5uOcVODgc-w0Oid29u6l_TwbZDZ11QzL5nYJ4bRFrkclV3knfxPa9DH7tX1rsXep8g_31QJsM9AP7qjAOWQskAjJrrF8r-892LYRsftr5PXiq7YFQed1ZJFYHUbIRVaX1cDWCiuepZn7bBCpcHTyEmaXS-zFs0iYat68ttsRgWAjYEbiNM6br1oSqSXT4hgFjEWQcswMTR3sjJebyDS7vfrBEMjGOFH5YUbbaBJPjpVuFxTE-oBckaTIhxPDva6Ah4c6up4ARsQyxZfl9psYJyc4_HPBgf2drxLSTDoo5vLKOGOAw9bENMq72gm9gLeIaifTXH5hd0pCuIV95lBejvUVlZNU1m4as3IQKDjSo9g0vTvKnLjZLKbhJjiQMnyjxYUhMvTmBR29y7yHE5deuLa_OrqfEcj6i3exkuccBIJSxki3sMrphXA3yM4ZXvih1GBD2x7NMchKbMEttWH_cFFjjbov_wB78iO_sGgxPo2JrDonfbIrTbqx8x_IAM99forDcLFYv9dL-5j2AzSfpHg1awzlbyrYQab_wdNesL0rhfzb82G98XlXcbTl_qVEF-u5QaGKwKTuuFyDcPqA1Oaxicp8qy7bJuZI0Ek9DARQb0ESwelBNcI426Ho4iib1iTFsG9evMVPMiMRJl_BRZXOXpCv_-Ru8P_3sVpuMWU_9JchgdCd-bm2twknKsIqMwCuz_1cHv_xdqwXAI2Za_2oR9CwPzEefPx4AKDPFVZO00F3tEtZ_RW5wAnNyoofFNTWS7Wv7dQulxmR81l_6chqyAa1_TaenDGbIp2TWa_xc7mj9ojg8ENt-t5lm00]--></g></svg>