<svg xmlns="http://www.w3.org/2000/svg" xmlns:xlink="http://www.w3.org/1999/xlink" contentStyleType="text/css" data-diagram-type="SEQUENCE" height="1098px" preserveAspectRatio="none" style="width:1490px;height:1098px;background:#FFFFFF;" version="1.1" viewBox="0 0 1490 1098" width="1490px" zoomAndPan="magnify"><title>TicketPlus - Asynchronous Notification Flow (Sequence)</title><defs/><g><text fill="#000000" font-family="sans-serif" font-size="14" font-weight="bold" lengthAdjust="spacing" textLength="386.7766" x="547.8304" y="29.9659">TicketPlus - Asynchronous Notification Flow (Sequence)</text><rect fill="none" height="180.4939" style="stroke:#000000;stroke-width:1.5;" width="684.4031" x="749.4644" y="529.382"/><rect fill="none" height="208.218" style="stroke:#000000;stroke-width:1.5;" width="572.9594" x="749.4644" y="723.8758"/><g><title>Billing . Checkout</title><rect fill="#000000" fill-opacity="0.00000" height="869.3021" width="8" x="65.5328" y="129.2038"/><line style="stroke:#181818;stroke-width:0.5;stroke-dasharray:5,5;" x1="69" x2="69" y1="129.2038" y2="998.5058"/></g><g><title>Reservation Engine</title><rect fill="#000000" fill-opacity="0.00000" height="869.3021" width="8" x="210.3593" y="129.2038"/><line style="stroke:#181818;stroke-width:0.5;stroke-dasharray:5,5;" x1="214.0655" x2="214.0655" y1="129.2038" y2="998.5058"/></g><g><title>Ticketing Service</title><rect fill="#000000" fill-opacity="0.00000" height="869.3021" width="8" x="352.5328" y="129.2038"/><line style="stroke:#181818;stroke-width:0.5;stroke-dasharray:5,5;" x1="355.653" x2="355.653" y1="129.2038" y2="998.5058"/></g><g><title>Message Broker</title><rect fill="#000000" fill-opacity="0.00000" height="869.3021" width="8" x="568.751" y="129.2038"/><line style="stroke:#181818;stroke-width:0.5;stroke-dasharray:5,5;" x1="572.4952" x2="572.4952" y1="129.2038" y2="998.5058"/></g><g><title>Notification Service</title><rect fill="#000000" fill-opacity="0.00000" height="869.3021" width="8" x="825.9192" y="129.2038"/><line style="stroke:#181818;stroke-width:0.5;stroke-dasharray:5,5;" x1="829.4644" x2="829.4644" y1="129.2038" y2="998.5058"/></g><g><title>Notification Log</title><rect fill="#000000" fill-opacity="0.00000" height="869.3021" width="8" x="1133.7874" y="129.2038"/><line style="stroke:#181818;stroke-width:0.5;stroke-dasharray:5,5;" x1="1137.4766" x2="1137.4766" y1="129.2038" y2="998.5058"/></g><g><title>Email Provider</title><rect fill="#000000" fill-opacity="0.00000" height="869.3021" width="8" x="1253.761" y="129.2038"/><line style="stroke:#181818;stroke-width:0.5;stroke-dasharray:5,5;" x1="1257.0982" x2="1257.0982" y1="129.2038" y2="998.5058"/></g><g><title>SMS Provider</title><rect fill="#000000" fill-opacity="0.00000" height="869.3021" width="8" x="1369.1457" y="129.2038"/><line style="stroke:#181818;stroke-width:0.5;stroke-dasharray:5,5;" x1="1372.4239" x2="1372.4239" y1="129.2038" y2="998.5058"/></g><g><title>Buyer</title><rect fill="#000000" fill-opacity="0.00000" height="869.3021" width="8" x="1452.1525" y="129.2038"/><line style="stroke:#181818;stroke-width:0.5;stroke-dasharray:5,5;" x1="1455.8675" x2="1455.8675" y1="129.2038" y2="998.5058"/></g><g class="participant participant-head" data-participant="Billing"><rect fill="#E2E2F0" height="52.1358" rx="2.5" ry="2.5" style="stroke:#181818;stroke-width:0.5;" width="129.0655" x="5" y="76.0679"/><text fill="#000000" font-family="sans-serif" font-size="14" lengthAdjust="spacing" textLength="115.0655" x="12" y="98.0339">Billing / Checkout</text><text fill="#000000" font-family="sans-serif" font-size="14" lengthAdjust="spacing" textLength="46.7038" x="46.1809" y="117.1018">Service</text></g><g class="participant participant-tail" data-participant="Billing"><rect fill="#E2E2F0" height="52.1358" rx="2.5" ry="2.5" style="stroke:#181818;stroke-width:0.5;" width="129.0655" x="5" y="997.5058"/><text fill="#000000" font-family="sans-serif" font-size="14" lengthAdjust="spacing" textLength="115.0655" x="12" y="1019.4718">Billing / Checkout</text><text fill="#000000" font-family="sans-serif" font-size="14" lengthAdjust="spacing" textLength="46.7038" x="46.1809" y="1038.5397">Service</text></g><g class="participant participant-head" data-participant="Res"><rect fill="#E2E2F0" height="33.0679" rx="2.5" ry="2.5" style="stroke:#181818;stroke-width:0.5;" width="140.5875" x="144.0655" y="95.1358"/><text fill="#000000" font-family="sans-serif" font-size="14" lengthAdjust="spacing" textLength="126.5875" x="151.0655" y="117.1018">Reservation Engine</text></g><g class="participant participant-tail" data-participant="Res"><rect fill="#E2E2F0" height="33.0679" rx="2.5" ry="2.5" style="stroke:#181818;stroke-width:0.5;" width="140.5875" x="144.0655" y="997.5058"/><text fill="#000000" font-family="sans-serif" font-size="14" lengthAdjust="spacing" textLength="126.5875" x="151.0655" y="1019.4718">Reservation Engine</text></g><g class="participant participant-head" data-participant="Ticketing"><rect fill="#E2E2F0" height="33.0679" rx="2.5" ry="2.5" style="stroke:#181818;stroke-width:0.5;" width="123.7596" x="294.653" y="95.1358"/><text fill="#000000" font-family="sans-serif" font-size="14" lengthAdjust="spacing" textLength="109.7596" x="301.653" y="117.1018">Ticketing Service</text></g><g class="participant participant-tail" data-participant="Ticketing"><rect fill="#E2E2F0" height="33.0679" rx="2.5" ry="2.5" style="stroke:#181818;stroke-width:0.5;" width="123.7596" x="294.653" y="997.5058"/><text fill="#000000" font-family="sans-serif" font-size="14" lengthAdjust="spacing" textLength="109.7596" x="301.653" y="1019.4718">Ticketing Service</text></g><g class="participant participant-head" data-participant="Broker"><path d="M514.4952,81.0679 L631.0068,81.0679 C636.0068,81.0679 636.0068,105.1358 636.0068,105.1358 C636.0068,105.1358 636.0068,129.2038 631.0068,129.2038 L514.4952,129.2038 C509.4952,129.2038 509.4952,105.1358 509.4952,105.1358 C509.4952,105.1358 509.4952,81.0679 514.4952,81.0679" fill="#E2E2F0" style="stroke:#181818;stroke-width:0.5;"/><path d="M631.0068,81.0679 C626.0068,81.0679 626.0068,105.1358 626.0068,105.1358 C626.0068,129.2038 631.0068,129.2038 631.0068,129.2038" fill="none" style="stroke:#181818;stroke-width:0.5;"/><text fill="#000000" font-family="sans-serif" font-size="14" lengthAdjust="spacing" textLength="106.5116" x="514.4952" y="101.0339">Message Broker</text><text fill="#000000" font-family="sans-serif" font-size="14" lengthAdjust="spacing" textLength="45.0658" x="545.218" y="120.1018">(Kafka)</text></g><g class="participant participant-tail" data-participant="Broker"><path d="M514.4952,997.5058 L631.0068,997.5058 C636.0068,997.5058 636.0068,1021.5738 636.0068,1021.5738 C636.0068,1021.5738 636.0068,1045.6417 631.0068,1045.6417 L514.4952,1045.6417 C509.4952,1045.6417 509.4952,1021.5738 509.4952,1021.5738 C509.4952,1021.5738 509.4952,997.5058 514.4952,997.5058" fill="#E2E2F0" style="stroke:#181818;stroke-width:0.5;"/><path d="M631.0068,997.5058 C626.0068,997.5058 626.0068,1021.5738 626.0068,1021.5738 C626.0068,1045.6417 631.0068,1045.6417 631.0068,1045.6417" fill="none" style="stroke:#181818;stroke-width:0.5;"/><text fill="#000000" font-family="sans-serif" font-size="14" lengthAdjust="spacing" textLength="106.5116" x="514.4952" y="1017.4718">Message Broker</text><text fill="#000000" font-family="sans-serif" font-size="14" lengthAdjust="spacing" textLength="45.0658" x="545.218" y="1036.5397">(Kafka)</text></g><g class="participant participant-head" data-participant="Notif"><rect fill="#E2E2F0" height="33.0679" rx="2.5" ry="2.5" style="stroke:#181818;stroke-width:0.5;" width="140.9095" x="759.4644" y="95.1358"/><text fill="#000000" font-family="sans-serif" font-size="14" lengthAdjust="spacing" textLength="126.9095" x="766.4644" y="117.1018">Notification Service</text></g><g class="participant participant-tail" data-participant="Notif"><rect fill="#E2E2F0" height="33.0679" rx="2.5" ry="2.5" style="stroke:#181818;stroke-width:0.5;" width="140.9095" x="759.4644" y="997.5058"/><text fill="#000000" font-family="sans-serif" font-size="14" lengthAdjust="spacing" textLength="126.9095" x="766.4644" y="1019.4718">Notification Service</text></g><g class="participant participant-head" data-participant="Log"><text fill="#000000" font-family="sans-serif" font-size="14" lengthAdjust="spacing" textLength="104.6216" x="1082.4766" y="106.0339">Notification Log</text><text fill="#000000" font-family="sans-serif" font-size="14" lengthAdjust="spacing" textLength="85.3437" x="1092.1156" y="125.1018">(PostgreSQL)</text><path d="M1119.7874,55.0679 C1119.7874,45.0679 1137.7874,45.0679 1137.7874,45.0679 C1137.7874,45.0679 1155.7874,45.0679 1155.7874,55.0679 L1155.7874,81.0679 C1155.7874,91.0679 1137.7874,91.0679 1137.7874,91.0679 C1137.7874,91.0679 1119.7874,91.0679 1119.7874,81.0679 L1119.7874,55.0679" fill="#E2E2F0" style="stroke:#181818;stroke-width:0.5;"/><path d="M1119.7874,55.0679 C1119.7874,65.0679 1137.7874,65.0679 1137.7874,65.0679 C1137.7874,65.0679 1155.7874,65.0679 1155.7874,55.0679" fill="none" style="stroke:#181818;stroke-width:0.5;"/></g><g class="participant participant-tail" data-participant="Log"><text fill="#000000" font-family="sans-serif" font-size="14" lengthAdjust="spacing" textLength="104.6216" x="1082.4766" y="1012.4718">Notification Log</text><text fill="#000000" font-family="sans-serif" font-size="14" lengthAdjust="spacing" textLength="85.3437" x="1092.1156" y="1031.5397">(PostgreSQL)</text><path d="M1119.7874,1045.6417 C1119.7874,1035.6417 1137.7874,1035.6417 1137.7874,1035.6417 C1137.7874,1035.6417 1155.7874,1035.6417 1155.7874,1045.6417 L1155.7874,1071.6417 C1155.7874,1081.6417 1137.7874,1081.6417 1137.7874,1081.6417 C1137.7874,1081.6417 1119.7874,1081.6417 1119.7874,1071.6417 L1119.7874,1045.6417" fill="#E2E2F0" style="stroke:#181818;stroke-width:0.5;"/><path d="M1119.7874,1045.6417 C1119.7874,1055.6417 1137.7874,1055.6417 1137.7874,1055.6417 C1137.7874,1055.6417 1155.7874,1055.6417 1155.7874,1045.6417" fill="none" style="stroke:#181818;stroke-width:0.5;"/></g><g class="participant participant-head" data-participant="Email"><rect fill="#E2E2F0" height="33.0679" rx="2.5" ry="2.5" style="stroke:#181818;stroke-width:0.5;" width="109.3256" x="1203.0982" y="95.1358"/><text fill="#000000" font-family="sans-serif" font-size="14" lengthAdjust="spacing" textLength="95.3256" x="1210.0982" y="117.1018">Email Provider</text></g><g class="participant participant-tail" data-participant="Email"><rect fill="#E2E2F0" height="33.0679" rx="2.5" ry="2.5" style="stroke:#181818;stroke-width:0.5;" width="109.3256" x="1203.0982" y="997.5058"/><text fill="#000000" font-family="sans-serif" font-size="14" lengthAdjust="spacing" textLength="95.3256" x="1210.0982" y="1019.4718">Email Provider</text></g><g class="participant participant-head" data-participant="SMS"><rect fill="#E2E2F0" height="33.0679" rx="2.5" ry="2.5" style="stroke:#181818;stroke-width:0.5;" width="101.4437" x="1322.4239" y="95.1358"/><text fill="#000000" font-family="sans-serif" font-size="14" lengthAdjust="spacing" textLength="87.4437" x="1329.4239" y="117.1018">SMS Provider</text></g><g class="participant participant-tail" data-participant="SMS"><rect fill="#E2E2F0" height="33.0679" rx="2.5" ry="2.5" style="stroke:#181818;stroke-width:0.5;" width="101.4437" x="1322.4239" y="997.5058"/><text fill="#000000" font-family="sans-serif" font-size="14" lengthAdjust="spacing" textLength="87.4437" x="1329.4239" y="1019.4718">SMS Provider</text></g><g class="participant participant-head" data-participant="Buyer"><text fill="#000000" font-family="sans-serif" font-size="14" lengthAdjust="spacing" textLength="38.5698" x="1433.8675" y="125.1018">Buyer</text><ellipse cx="1456.1525" cy="58.6358" fill="#E2E2F0" rx="8" ry="8" style="stroke:#181818;stroke-width:0.5;"/><path d="M1456.1525,66.6358 L1456.1525,93.6358 M1443.1525,74.6358 L1469.1525,74.6358 M1456.1525,93.6358 L1443.1525,108.6358 M1456.1525,93.6358 L1469.1525,108.6358" fill="none" style="stroke:#181818;stroke-width:0.5;"/></g><g class="participant participant-tail" data-participant="Buyer"><text fill="#000000" font-family="sans-serif" font-size="14" lengthAdjust="spacing" textLength="38.5698" x="1433.8675" y="1012.4718">Buyer</text><ellipse cx="1456.1525" cy="1025.0738" fill="#E2E2F0" rx="8" ry="8" style="stroke:#181818;stroke-width:0.5;"/><path d="M1456.1525,1033.0738 L1456.1525,1060.0738 M1443.1525,1041.0738 L1469.1525,1041.0738 M1456.1525,1060.0738 L1443.1525,1075.0738 M1456.1525,1060.0738 L1469.1525,1075.0738" fill="none" style="stroke:#181818;stroke-width:0.5;"/></g><rect fill="#EEEEEE" height="3" style="stroke:#EEEEEE;stroke-width:1;" width="1483.4374" x="0" y="161.0568"/><line style="stroke:#000000;stroke-width:1;" x1="0" x2="1483.4374" y1="161.0568" y2="161.0568"/><line style="stroke:#000000;stroke-width:1;" x1="0" x2="1483.4374" y1="164.0568" y2="164.0568"/><rect fill="#EEEEEE" height="25.706" style="stroke:#000000;stroke-width:2;" width="252.5112" x="615.4631" y="149.2038"/><text fill="#000000" font-family="sans-serif" font-size="13" font-weight="bold" lengthAdjust="spacing" textLength="235.1311" x="621.4631" y="167.1008">Order status changes trigger events</text><g class="message" data-participant-1="Billing" data-participant-2="Broker"><polygon fill="#181818" points="560.751,222.3218,570.751,226.3218,560.751,230.3218,564.751,226.3218" style="stroke:#181818;stroke-width:1;"/><line style="stroke:#181818;stroke-width:1;" x1="69.5328" x2="566.751" y1="226.3218" y2="226.3218"/><text fill="#000000" font-family="sans-serif" font-size="13" lengthAdjust="spacing" textLength="181.3242" x="76.5328" y="202.8068">publish "payment.succeeded"</text><text fill="#000000" font-family="sans-serif" font-size="13" lengthAdjust="spacing" textLength="191.1781" x="76.5328" y="220.5128">{reservationId, userId, orderId}</text></g><g class="message" data-participant-1="Broker" data-participant-2="Ticketing"><polygon fill="#181818" points="367.5328,254.0278,357.5328,258.0278,367.5328,262.0278,363.5328,258.0278" style="stroke:#181818;stroke-width:1;"/><line style="stroke:#181818;stroke-width:1;" x1="361.5328" x2="571.751" y1="258.0278" y2="258.0278"/><text fill="#000000" font-family="sans-serif" font-size="13" lengthAdjust="spacing" textLength="192.2182" x="373.5328" y="252.2188">consume "payment.succeeded"</text></g><g class="message" data-participant-1="Ticketing" data-participant-2="Broker"><polygon fill="#181818" points="560.751,303.4398,570.751,307.4398,560.751,311.4398,564.751,307.4398" style="stroke:#181818;stroke-width:1;"/><line style="stroke:#181818;stroke-width:1;" x1="356.5328" x2="566.751" y1="307.4398" y2="307.4398"/><text fill="#000000" font-family="sans-serif" font-size="13" lengthAdjust="spacing" textLength="134.8881" x="363.5328" y="283.9248">publish "ticket.issued"</text><text fill="#000000" font-family="sans-serif" font-size="13" lengthAdjust="spacing" textLength="190.5022" x="363.5328" y="301.6308">{reservationId, userId, ticketId}</text></g><g class="message" data-participant-1="Res" data-participant-2="Broker"><polygon fill="#181818" points="560.751,352.8519,570.751,356.8519,560.751,360.8519,564.751,356.8519" style="stroke:#181818;stroke-width:1;"/><line style="stroke:#181818;stroke-width:1;" x1="214.3593" x2="566.751" y1="356.8519" y2="356.8519"/><text fill="#000000" font-family="sans-serif" font-size="13" lengthAdjust="spacing" textLength="178.1911" x="221.3593" y="333.3369">publish "reservation.expired"</text><text fill="#000000" font-family="sans-serif" font-size="13" lengthAdjust="spacing" textLength="137.9821" x="221.3593" y="351.0429">{reservationId, userId}</text></g><g class="message" data-participant-1="Billing" data-participant-2="Broker"><polygon fill="#181818" points="560.751,402.2639,570.751,406.2639,560.751,410.2639,564.751,406.2639" style="stroke:#181818;stroke-width:1;"/><line style="stroke:#181818;stroke-width:1;" x1="69.5328" x2="566.751" y1="406.2639" y2="406.2639"/><text fill="#000000" font-family="sans-serif" font-size="13" lengthAdjust="spacing" textLength="150.3971" x="76.5328" y="382.7489">publish "payment.failed"</text><text fill="#000000" font-family="sans-serif" font-size="13" lengthAdjust="spacing" textLength="186.9661" x="76.5328" y="400.4549">{reservationId, userId, reason}</text></g><g class="message" data-participant-1="Broker" data-participant-2="Notif"><polygon fill="#181818" points="817.9192,433.9699,827.9192,437.9699,817.9192,441.9699,821.9192,437.9699" style="stroke:#181818;stroke-width:1;"/><line style="stroke:#181818;stroke-width:1;" x1="572.751" x2="823.9192" y1="437.9699" y2="437.9699"/><text fill="#000000" font-family="sans-serif" font-size="13" lengthAdjust="spacing" textLength="233.1682" x="579.751" y="432.1609">consume event (partitioned by userId)</text></g><g class="message" data-participant-1="Notif" data-participant-2="Notif"><line style="stroke:#181818;stroke-width:1;" x1="829.9192" x2="871.9192" y1="469.6759" y2="469.6759"/><line style="stroke:#181818;stroke-width:1;" x1="871.9192" x2="871.9192" y1="469.6759" y2="482.6759"/><line style="stroke:#181818;stroke-width:1;" x1="830.9192" x2="871.9192" y1="482.6759" y2="482.6759"/><polygon fill="#181818" points="840.9192,478.6759,830.9192,482.6759,840.9192,486.6759,836.9192,482.6759" style="stroke:#181818;stroke-width:1;"/><text fill="#000000" font-family="sans-serif" font-size="13" lengthAdjust="spacing" textLength="178.8152" x="836.9192" y="463.8669">select template by event type</text></g><g class="message" data-participant-1="Notif" data-participant-2="Log"><polygon fill="#181818" points="1125.7874,510.382,1135.7874,514.382,1125.7874,518.382,1129.7874,514.382" style="stroke:#181818;stroke-width:1;"/><line style="stroke:#181818;stroke-width:1;" x1="829.9192" x2="1131.7874" y1="514.382" y2="514.382"/><text fill="#000000" font-family="sans-serif" font-size="13" lengthAdjust="spacing" textLength="226.7722" x="836.9192" y="508.573">persist notification record (PENDING)</text></g><path d="M749.4644,529.382 L811.9234,529.382 L811.9234,539.088 L801.9234,549.088 L749.4644,549.088 L749.4644,529.382" fill="#EEEEEE" style="stroke:#000000;stroke-width:1.5;"/><rect fill="none" height="180.4939" style="stroke:#000000;stroke-width:1.5;" width="684.4031" x="749.4644" y="529.382"/><text fill="#000000" font-family="sans-serif" font-size="13" font-weight="bold" lengthAdjust="spacing" textLength="17.459" x="764.4644" y="544.279">alt</text><text fill="#000000" font-family="sans-serif" font-size="11" font-weight="bold" lengthAdjust="spacing" textLength="147.905" x="826.9234" y="543.1409">[event type = ticket.issued]</text><g class="message" data-participant-1="Notif" data-participant-2="Email"><polygon fill="#181818" points="1245.761,568.794,1255.761,572.794,1245.761,576.794,1249.761,572.794" style="stroke:#181818;stroke-width:1;"/><line style="stroke:#181818;stroke-width:1;" x1="829.9192" x2="1251.761" y1="572.794" y2="572.794"/><text fill="#000000" font-family="sans-serif" font-size="13" lengthAdjust="spacing" textLength="189.4622" x="836.9192" y="566.985">send ticket email (QR attached)</text></g><g class="message" data-participant-1="Notif" data-participant-2="SMS"><polygon fill="#181818" points="1361.1457,600.5,1371.1457,604.5,1361.1457,608.5,1365.1457,604.5" style="stroke:#181818;stroke-width:1;"/><line style="stroke:#181818;stroke-width:1;" x1="829.9192" x2="1367.1457" y1="604.5" y2="604.5"/><text fill="#000000" font-family="sans-serif" font-size="13" lengthAdjust="spacing" textLength="194.5712" x="836.9192" y="598.691">send booking confirmation SMS</text></g><line style="stroke:#000000;stroke-width:1;stroke-dasharray:2,2;" x1="749.4644" x2="1433.8675" y1="613.5" y2="613.5"/><text fill="#000000" font-family="sans-serif" font-size="11" font-weight="bold" lengthAdjust="spacing" textLength="161.2919" x="754.4644" y="625.2589">[event type = payment.failed]</text><g class="message" data-participant-1="Notif" data-participant-2="Email"><polygon fill="#181818" points="1245.761,649.1879,1255.761,653.1879,1245.761,657.1879,1249.761,653.1879" style="stroke:#181818;stroke-width:1;"/><line style="stroke:#181818;stroke-width:1;" x1="829.9192" x2="1251.761" y1="653.1879" y2="653.1879"/><text fill="#000000" font-family="sans-serif" font-size="13" lengthAdjust="spacing" textLength="166.5561" x="836.9192" y="647.3789">send payment failure email</text></g><line style="stroke:#000000;stroke-width:1;stroke-dasharray:2,2;" x1="749.4644" x2="1433.8675" y1="662.1879" y2="662.1879"/><text fill="#000000" font-family="sans-serif" font-size="11" font-weight="bold" lengthAdjust="spacing" textLength="186.2066" x="754.4644" y="673.9468">[event type = reservation.expired]</text><g class="message" data-participant-1="Notif" data-participant-2="SMS"><polygon fill="#181818" points="1361.1457,697.8758,1371.1457,701.8758,1361.1457,705.8758,1365.1457,701.8758" style="stroke:#181818;stroke-width:1;"/><line style="stroke:#181818;stroke-width:1;" x1="829.9192" x2="1367.1457" y1="701.8758" y2="701.8758"/><text fill="#000000" font-family="sans-serif" font-size="13" lengthAdjust="spacing" textLength="144.3781" x="836.9192" y="696.0668">send seat-released SMS</text></g><path d="M749.4644,723.8758 L811.9234,723.8758 L811.9234,733.5818 L801.9234,743.5818 L749.4644,743.5818 L749.4644,723.8758" fill="#EEEEEE" style="stroke:#000000;stroke-width:1.5;"/><rect fill="none" height="208.218" style="stroke:#000000;stroke-width:1.5;" width="572.9594" x="749.4644" y="723.8758"/><text fill="#000000" font-family="sans-serif" font-size="13" font-weight="bold" lengthAdjust="spacing" textLength="17.459" x="764.4644" y="738.7728">alt</text><text fill="#000000" font-family="sans-serif" font-size="11" font-weight="bold" lengthAdjust="spacing" textLength="103.7623" x="826.9234" y="737.6347">[delivery succeeds]</text><g class="message" data-participant-1="Email" data-participant-2="Notif"><polygon fill="#181818" points="840.9192,763.2879,830.9192,767.2879,840.9192,771.2879,836.9192,767.2879" style="stroke:#181818;stroke-width:1;"/><line style="stroke:#181818;stroke-width:1;stroke-dasharray:2,2;" x1="834.9192" x2="1256.761" y1="767.2879" y2="767.2879"/><text fill="#000000" font-family="sans-serif" font-size="13" lengthAdjust="spacing" textLength="43.888" x="846.9192" y="761.4789">200 OK</text></g><g class="message" data-participant-1="Notif" data-participant-2="Log"><polygon fill="#181818" points="1125.7874,794.9939,1135.7874,798.9939,1125.7874,802.9939,1129.7874,798.9939" style="stroke:#181818;stroke-width:1;"/><line style="stroke:#181818;stroke-width:1;" x1="829.9192" x2="1131.7874" y1="798.9939" y2="798.9939"/><text fill="#000000" font-family="sans-serif" font-size="13" lengthAdjust="spacing" textLength="129.5581" x="836.9192" y="793.1849">update status = SENT</text></g><line style="stroke:#000000;stroke-width:1;stroke-dasharray:2,2;" x1="749.4644" x2="1322.4239" y1="807.9939" y2="807.9939"/><text fill="#000000" font-family="sans-serif" font-size="11" font-weight="bold" lengthAdjust="spacing" textLength="77.4065" x="754.4644" y="819.7528">[delivery fails]</text><g class="message" data-participant-1="Email" data-participant-2="Notif"><polygon fill="#181818" points="840.9192,843.6818,830.9192,847.6818,840.9192,851.6818,836.9192,847.6818" style="stroke:#181818;stroke-width:1;"/><line style="stroke:#181818;stroke-width:1;stroke-dasharray:2,2;" x1="834.9192" x2="1256.761" y1="847.6818" y2="847.6818"/><text fill="#000000" font-family="sans-serif" font-size="13" lengthAdjust="spacing" textLength="31.304" x="846.9192" y="841.8728">error</text></g><g class="message" data-participant-1="Notif" data-participant-2="Notif"><line style="stroke:#181818;stroke-width:1;" x1="829.9192" x2="871.9192" y1="879.3878" y2="879.3878"/><line style="stroke:#181818;stroke-width:1;" x1="871.9192" x2="871.9192" y1="879.3878" y2="892.3878"/><line style="stroke:#181818;stroke-width:1;" x1="830.9192" x2="871.9192" y1="892.3878" y2="892.3878"/><polygon fill="#181818" points="840.9192,888.3878,830.9192,892.3878,840.9192,896.3878,836.9192,892.3878" style="stroke:#181818;stroke-width:1;"/><text fill="#000000" font-family="sans-serif" font-size="13" lengthAdjust="spacing" textLength="234.0392" x="836.9192" y="873.5788">retry with exponential backoff (max N)</text></g><g class="message" data-participant-1="Notif" data-participant-2="Log"><polygon fill="#181818" points="1125.7874,920.0938,1135.7874,924.0938,1125.7874,928.0938,1129.7874,924.0938" style="stroke:#181818;stroke-width:1;"/><line style="stroke:#181818;stroke-width:1;" x1="829.9192" x2="1131.7874" y1="924.0938" y2="924.0938"/><text fill="#000000" font-family="sans-serif" font-size="13" lengthAdjust="spacing" textLength="283.8682" x="836.9192" y="918.2848">update status = FAILED after retries exhausted</text></g><g class="message" data-participant-1="Notif" data-participant-2="Buyer"><polygon fill="#181818" points="1444.1525,976.5058,1454.1525,980.5058,1444.1525,984.5058,1448.1525,980.5058" style="stroke:#181818;stroke-width:1;"/><line style="stroke:#181818;stroke-width:1;" x1="829.9192" x2="1450.1525" y1="980.5058" y2="980.5058"/><text fill="#000000" font-family="sans-serif" font-size="13" lengthAdjust="spacing" textLength="220.9222" x="836.9192" y="956.9908">push real-time status via WebSocket</text><text fill="#000000" font-family="sans-serif" font-size="13" lengthAdjust="spacing" textLength="283.2443" x="836.9192" y="974.6968">(order status: CONFIRMED / FAILED / EXPIRED)</text></g><!--SRC=[ZLHDRzim3BthLt0v9S3I5ZiMo81-f4FGDasJ0jkX5qPc726ov4bqsc3eVn_zqSGUicudmzJZunFvg4zvm3H3iBZp1KFCYD6XOiEMuCde3V7C5X66S15tJg-3Trv-fvxDocXauntSMFy2_GNzBCXf6YYLOs2ZJOwEeNTfh3KkXLEuMfFUI9Ldjw2mDPfwW16QysxIdA90QlgnIushiHBkucg59NsRSXzL8gaWwDrJZ9WIN0Q_eV3i-hUusk2Whb_5khITwxMPgmEL8ECI8_q1lFEfKCzyv3JGul6kvfTebtoSeR4m2tvh4WeLfWfrKOlxHHSZ0OMQVO3BOYU2rMW43q5E8JAop4IlqQKKWOD9KmdJbXn768sKUf_1y6jptNF8YwKrSGsz77UP04zYeJLHGadlsVqAX_vFaizGo5_vzMMzIVAcQfQIRz_hSz3UnIAZOvJgCAXZ6hWwFJ4n5X_Mht6b0772KQPMuWczvYPymFVsNtrPoMW-51K8etTlgjMKoXQ7XbIJW7urtpAR4bZkclo1gi2jh4YMD0DJbbjaAg4r0UzoEg35LwAMGZIHmRLz64ZBeA0_6q-l9zDlif1ekSK18-WqN07iMIidbXfSqe20Ah_s7-U0pAZN99fR6UBB1h_qVbDsKwwzCY5hjaTiIpPIjtwtkNyJqA2WH1M1QYL7s8uC_RZ2ICZ38FsLvKrgQIwfsvEGDLiAEsXC6uMXtjJXOJHVpixWuRRDNKsXo9DoKCqUZc0ndZxLClUivHMEKb88FhGPctWWbhGNmskGAubd71kqi4HvGbShw6Vu2jF1FwNSN4pknjU0AnPdbfn65eTUrrX4bYvLrzypL0zBkGBYVt6r7RB9zbnRW_2TbWjVcaBUETzwUyxXwc5wCvdVIwdJzvgdCFuncyp7rmFr6m00]--></g></svg>