<svg xmlns="http://www.w3.org/2000/svg" xmlns:xlink="http://www.w3.org/1999/xlink" version="1.1" data-diagram-type="SEQUENCE" style="width:1421px;height:1011px;background:#FFFFFF;" width="1421px" height="1011px" viewBox="0 0 1421 1011" zoomAndPan="magnify" preserveAspectRatio="none" contentStyleType="text/css"><?plantuml 1.2026.7beta6?><defs/><g font-family="sans-serif" lengthAdjust="spacing"><g class="title" data-source-line="1"><text x="488.722" y="27.995" fill="#000" font-size="14" textLength="441.69" font-weight="700">TicketPlus - Asynchronous Notification Flow (Sequence)</text></g><g><title>Billing . Checkout</title><rect x="74.767" y="125.891" width="8" height="796.469" fill="#000" fill-opacity="0"/><line x1="78.267" y1="125.891" x2="78.267" y2="922.359" style="stroke:#181818;stroke-width:0.5;stroke-dasharray:5,5;"/></g><g><title>Reservation Engine</title><rect x="228.093" y="125.891" width="8" height="796.469" fill="#000" fill-opacity="0"/><line x1="231.593" y1="125.891" x2="231.593" y2="922.359" style="stroke:#181818;stroke-width:0.5;stroke-dasharray:5,5;"/></g><g><title>Message Broker</title><rect x="442.465" y="125.891" width="8" height="796.469" fill="#000" fill-opacity="0"/><line x1="445.965" y1="125.891" x2="445.965" y2="922.359" style="stroke:#181818;stroke-width:0.5;stroke-dasharray:5,5;"/></g><g><title>Notification Service</title><rect x="716.988" y="125.891" width="8" height="796.469" fill="#000" fill-opacity="0"/><line x1="720.488" y1="125.891" x2="720.488" y2="922.359" style="stroke:#181818;stroke-width:0.5;stroke-dasharray:5,5;"/></g><g><title>Notification Log</title><rect x="1049.503" y="125.891" width="8" height="796.469" fill="#000" fill-opacity="0"/><line x1="1053.003" y1="125.891" x2="1053.003" y2="922.359" style="stroke:#181818;stroke-width:0.5;stroke-dasharray:5,5;"/></g><g><title>Email Provider</title><rect x="1175.262" y="125.891" width="8" height="796.469" fill="#000" fill-opacity="0"/><line x1="1178.762" y1="125.891" x2="1178.762" y2="922.359" style="stroke:#181818;stroke-width:0.5;stroke-dasharray:5,5;"/></g><g><title>SMS Provider</title><rect x="1296.254" y="125.891" width="8" height="796.469" fill="#000" fill-opacity="0"/><line x1="1299.754" y1="125.891" x2="1299.754" y2="922.359" style="stroke:#181818;stroke-width:0.5;stroke-dasharray:5,5;"/></g><g><title>Buyer</title><rect x="1383.068" y="125.891" width="8" height="796.469" fill="#000" fill-opacity="0"/><line x1="1386.568" y1="125.891" x2="1386.568" y2="922.359" style="stroke:#181818;stroke-width:0.5;stroke-dasharray:5,5;"/></g><rect x="10" y="78.297" width="136.534" height="46.594" fill="#E2E2F0" style="stroke:#181818;stroke-width:0.5;" rx="2.5" ry="2.5"/><text x="17" y="98.292" fill="#000" font-size="14" textLength="122.534">Billing / Checkout</text><text x="52.396" y="114.589" fill="#000" font-size="14" textLength="51.741">Service</text><rect x="156.534" y="94.594" width="150.117" height="30.297" fill="#E2E2F0" style="stroke:#181818;stroke-width:0.5;" rx="2.5" ry="2.5"/><text x="163.534" y="114.589" fill="#000" font-size="14" textLength="136.117">Reservation Engine</text><path d="M384.859,83.297 L507.071,83.297 C512.071,83.297 512.071,104.594 512.071,104.594 C512.071,104.594 512.071,125.891 507.071,125.891 L384.859,125.891 C379.859,125.891 379.859,104.594 379.859,104.594 C379.859,104.594 379.859,83.297 384.859,83.297" style="stroke:#181818;stroke-width:0.5;" fill="#E2E2F0"/><path d="M507.071,83.297 C502.071,83.297 502.071,104.594 502.071,104.594 C502.071,125.891 507.071,125.891 507.071,125.891" style="stroke:#181818;stroke-width:0.5;" fill="none"/><text x="384.859" y="101.292" fill="#000" font-size="14" textLength="112.212">Message Broker</text><text x="415.816" y="117.589" fill="#000" font-size="14" textLength="50.299">(Kafka)</text><rect x="645.228" y="94.594" width="150.521" height="30.297" fill="#E2E2F0" style="stroke:#181818;stroke-width:0.5;" rx="2.5" ry="2.5"/><text x="652.228" y="114.589" fill="#000" font-size="14" textLength="136.521">Notification Service</text><text x="994.988" y="106.292" fill="#000" font-size="14" textLength="110.031">Notification Log</text><text x="1004.165" y="122.589" fill="#000" font-size="14" textLength="91.677">(PostgreSQL)</text><path d="M1035.003,57.297 C1035.003,47.297 1053.003,47.297 1053.003,47.297 C1053.003,47.297 1071.003,47.297 1071.003,57.297 L1071.003,83.297 C1071.003,93.297 1053.003,93.297 1053.003,93.297 C1053.003,93.297 1035.003,93.297 1035.003,83.297 L1035.003,57.297" style="stroke:#181818;stroke-width:0.5;" fill="#E2E2F0"/><path d="M1035.003,57.297 C1035.003,67.297 1053.003,67.297 1053.003,67.297 C1053.003,67.297 1071.003,67.297 1071.003,57.297" style="stroke:#181818;stroke-width:0.5;" fill="none"/><rect x="1121.019" y="94.594" width="115.486" height="30.297" fill="#E2E2F0" style="stroke:#181818;stroke-width:0.5;" rx="2.5" ry="2.5"/><text x="1128.019" y="114.589" fill="#000" font-size="14" textLength="101.486">Email Provider</text><rect x="1246.505" y="94.594" width="106.497" height="30.297" fill="#E2E2F0" style="stroke:#181818;stroke-width:0.5;" rx="2.5" ry="2.5"/><text x="1253.505" y="114.589" fill="#000" font-size="14" textLength="92.497">SMS Provider</text><text x="1363.002" y="122.589" fill="#000" font-size="14" textLength="41.132">Buyer</text><ellipse cx="1386.568" cy="58.094" rx="8" ry="8" fill="#E2E2F0" style="stroke:#181818;stroke-width:0.5;"/><path d="M1386.568,66.094 L1386.568,93.094 M1373.568,74.094 L1399.568,74.094 M1386.568,93.094 L1373.568,108.094 M1386.568,93.094 L1399.568,108.094" style="stroke:#181818;stroke-width:0.5;" fill="none"/><rect x="10" y="922.359" width="136.534" height="46.594" fill="#E2E2F0" style="stroke:#181818;stroke-width:0.5;" rx="2.5" ry="2.5"/><text x="17" y="942.354" fill="#000" font-size="14" textLength="122.534">Billing / Checkout</text><text x="52.396" y="958.651" fill="#000" font-size="14" textLength="51.741">Service</text><rect x="156.534" y="922.359" width="150.117" height="30.297" fill="#E2E2F0" style="stroke:#181818;stroke-width:0.5;" rx="2.5" ry="2.5"/><text x="163.534" y="942.354" fill="#000" font-size="14" textLength="136.117">Reservation Engine</text><path d="M384.859,922.359 L507.071,922.359 C512.071,922.359 512.071,943.656 512.071,943.656 C512.071,943.656 512.071,964.953 507.071,964.953 L384.859,964.953 C379.859,964.953 379.859,943.656 379.859,943.656 C379.859,943.656 379.859,922.359 384.859,922.359" style="stroke:#181818;stroke-width:0.5;" fill="#E2E2F0"/><path d="M507.071,922.359 C502.071,922.359 502.071,943.656 502.071,943.656 C502.071,964.953 507.071,964.953 507.071,964.953" style="stroke:#181818;stroke-width:0.5;" fill="none"/><text x="384.859" y="940.354" fill="#000" font-size="14" textLength="112.212">Message Broker</text><text x="415.816" y="956.651" fill="#000" font-size="14" textLength="50.299">(Kafka)</text><rect x="645.228" y="922.359" width="150.521" height="30.297" fill="#E2E2F0" style="stroke:#181818;stroke-width:0.5;" rx="2.5" ry="2.5"/><text x="652.228" y="942.354" fill="#000" font-size="14" textLength="136.521">Notification Service</text><text x="994.988" y="935.354" fill="#000" font-size="14" textLength="110.031">Notification Log</text><text x="1004.165" y="951.651" fill="#000" font-size="14" textLength="91.677">(PostgreSQL)</text><path d="M1035.003,964.953 C1035.003,954.953 1053.003,954.953 1053.003,954.953 C1053.003,954.953 1071.003,954.953 1071.003,964.953 L1071.003,990.953 C1071.003,1000.953 1053.003,1000.953 1053.003,1000.953 C1053.003,1000.953 1035.003,1000.953 1035.003,990.953 L1035.003,964.953" style="stroke:#181818;stroke-width:0.5;" fill="#E2E2F0"/><path d="M1035.003,964.953 C1035.003,974.953 1053.003,974.953 1053.003,974.953 C1053.003,974.953 1071.003,974.953 1071.003,964.953" style="stroke:#181818;stroke-width:0.5;" fill="none"/><rect x="1121.019" y="922.359" width="115.486" height="30.297" fill="#E2E2F0" style="stroke:#181818;stroke-width:0.5;" rx="2.5" ry="2.5"/><text x="1128.019" y="942.354" fill="#000" font-size="14" textLength="101.486">Email Provider</text><rect x="1246.505" y="922.359" width="106.497" height="30.297" fill="#E2E2F0" style="stroke:#181818;stroke-width:0.5;" rx="2.5" ry="2.5"/><text x="1253.505" y="942.354" fill="#000" font-size="14" textLength="92.497">SMS Provider</text><text x="1363.002" y="935.354" fill="#000" font-size="14" textLength="41.132">Buyer</text><ellipse cx="1386.568" cy="947.156" rx="8" ry="8" fill="#E2E2F0" style="stroke:#181818;stroke-width:0.5;"/><path d="M1386.568,955.156 L1386.568,982.156 M1373.568,963.156 L1399.568,963.156 M1386.568,982.156 L1373.568,997.156 M1386.568,982.156 L1399.568,997.156" style="stroke:#181818;stroke-width:0.5;" fill="none"/><rect x="10" y="154.457" width="1400.134" height="3" fill="#EEE" style="stroke:#EEE;stroke-width:1;"/><line x1="10" y1="154.457" x2="1410.134" y2="154.457" style="stroke:#000;stroke-width:1;"/><line x1="10" y1="157.457" x2="1410.134" y2="157.457" style="stroke:#000;stroke-width:1;"/><rect x="567.246" y="143.891" width="285.642" height="23.133" fill="#EEE" style="stroke:#000;stroke-width:2;"/><text x="573.246" y="159.958" fill="#000" font-size="13" textLength="267.116" font-weight="700">Order status changes trigger events</text><polygon points="433.965,209.289,443.965,213.289,433.965,217.289,437.965,213.289" fill="#181818" style="stroke:#181818;stroke-width:1;stroke-linejoin:miter;stroke-miterlimit:10;"/><line x1="78.267" y1="213.289" x2="439.965" y2="213.289" style="stroke:#181818;stroke-width:1;"/><text x="85.267" y="193.09" fill="#000" font-size="13" textLength="167.883">publish "order.confirmed"</text><text x="85.267" y="208.223" fill="#000" font-size="13" textLength="208.184">{reservationId, userId, ticketId}</text><polygon points="433.965,253.555,443.965,257.555,433.965,261.555,437.965,257.555" fill="#181818" style="stroke:#181818;stroke-width:1;stroke-linejoin:miter;stroke-miterlimit:10;"/><line x1="231.593" y1="257.555" x2="439.965" y2="257.555" style="stroke:#181818;stroke-width:1;"/><text x="238.593" y="237.356" fill="#000" font-size="13" textLength="190.373">publish "reservation.expired"</text><text x="238.593" y="252.489" fill="#000" font-size="13" textLength="151.354">{reservationId, userId}</text><polygon points="433.965,297.82,443.965,301.82,433.965,305.82,437.965,301.82" fill="#181818" style="stroke:#181818;stroke-width:1;stroke-linejoin:miter;stroke-miterlimit:10;"/><line x1="78.267" y1="301.82" x2="439.965" y2="301.82" style="stroke:#181818;stroke-width:1;"/><text x="85.267" y="281.622" fill="#000" font-size="13" textLength="161.129">publish "payment.failed"</text><text x="85.267" y="296.754" fill="#000" font-size="13" textLength="203.893">{reservationId, userId, reason}</text><polygon points="708.488,326.953,718.488,330.953,708.488,334.953,712.488,330.953" fill="#181818" style="stroke:#181818;stroke-width:1;stroke-linejoin:miter;stroke-miterlimit:10;"/><line x1="445.965" y1="330.953" x2="714.488" y2="330.953" style="stroke:#181818;stroke-width:1;"/><text x="452.965" y="325.887" fill="#000" font-size="13" textLength="250.523">consume event (partitioned by userId)</text><line x1="720.488" y1="360.086" x2="762.488" y2="360.086" style="stroke:#181818;stroke-width:1;"/><line x1="762.488" y1="360.086" x2="762.488" y2="373.086" style="stroke:#181818;stroke-width:1;"/><line x1="721.488" y1="373.086" x2="762.488" y2="373.086" style="stroke:#181818;stroke-width:1;"/><polygon points="731.488,369.086,721.488,373.086,731.488,377.086,727.488,373.086" fill="#181818" style="stroke:#181818;stroke-width:1;stroke-linejoin:miter;stroke-miterlimit:10;"/><text x="727.488" y="355.02" fill="#000" font-size="13" textLength="195.851">select template by event type</text><polygon points="1041.003,398.219,1051.003,402.219,1041.003,406.219,1045.003,402.219" fill="#181818" style="stroke:#181818;stroke-width:1;stroke-linejoin:miter;stroke-miterlimit:10;"/><line x1="720.488" y1="402.219" x2="1047.003" y2="402.219" style="stroke:#181818;stroke-width:1;"/><text x="727.488" y="397.153" fill="#000" font-size="13" textLength="240.957">persist notification record (PENDING)</text><path d="M704.488,414.219 L768.931,414.219 L768.931,421.352 L758.931,431.352 L704.488,431.352 L704.488,414.219" style="stroke:#000;stroke-width:1.5;" fill="#EEE"/><rect x="704.488" y="414.219" width="611.266" height="205.273" fill="none" style="stroke:#000;stroke-width:1.5;"/><text x="719.488" y="427.286" fill="#000" font-size="13" textLength="19.443" font-weight="700">alt</text><text x="783.931" y="426.429" fill="#000" font-size="11" textLength="194.31" font-weight="700">[event type = order.confirmed]</text><line x1="704.488" y1="510.617" x2="1315.754" y2="510.617" style="stroke:#000;stroke-width:1;stroke-dasharray:2,2;"/><text x="709.488" y="522.828" fill="#000" font-size="11" textLength="187.446" font-weight="700">[event type = payment.failed]</text><line x1="704.488" y1="570.555" x2="1315.754" y2="570.555" style="stroke:#000;stroke-width:1;stroke-dasharray:2,2;"/><text x="709.488" y="582.765" fill="#000" font-size="11" textLength="216.17" font-weight="700">[event type = reservation.expired]</text><polygon points="1166.762,458.484,1176.762,462.484,1166.762,466.484,1170.762,462.484" fill="#181818" style="stroke:#181818;stroke-width:1;stroke-linejoin:miter;stroke-miterlimit:10;"/><line x1="720.488" y1="462.484" x2="1172.762" y2="462.484" style="stroke:#181818;stroke-width:1;"/><text x="727.488" y="457.418" fill="#000" font-size="13" textLength="207.295">send ticket email (QR attached)</text><polygon points="1287.754,487.617,1297.754,491.617,1287.754,495.617,1291.754,491.617" fill="#181818" style="stroke:#181818;stroke-width:1;stroke-linejoin:miter;stroke-miterlimit:10;"/><line x1="720.488" y1="491.617" x2="1293.754" y2="491.617" style="stroke:#181818;stroke-width:1;"/><text x="727.488" y="486.551" fill="#000" font-size="13" textLength="205.575">send booking confirmation SMS</text><polygon points="1166.762,547.555,1176.762,551.555,1166.762,555.555,1170.762,551.555" fill="#181818" style="stroke:#181818;stroke-width:1;stroke-linejoin:miter;stroke-miterlimit:10;"/><line x1="720.488" y1="551.555" x2="1172.762" y2="551.555" style="stroke:#181818;stroke-width:1;"/><text x="727.488" y="546.489" fill="#000" font-size="13" textLength="178.769">send payment failure email</text><polygon points="1287.754,607.492,1297.754,611.492,1287.754,615.492,1291.754,611.492" fill="#181818" style="stroke:#181818;stroke-width:1;stroke-linejoin:miter;stroke-miterlimit:10;"/><line x1="720.488" y1="611.492" x2="1293.754" y2="611.492" style="stroke:#181818;stroke-width:1;"/><text x="727.488" y="606.426" fill="#000" font-size="13" textLength="155.714">send seat-released SMS</text><path d="M704.488,637.492 L768.931,637.492 L768.931,644.625 L758.931,654.625 L704.488,654.625 L704.488,637.492" style="stroke:#000;stroke-width:1.5;" fill="#EEE"/><rect x="704.488" y="637.492" width="490.274" height="216.602" fill="none" style="stroke:#000;stroke-width:1.5;"/><text x="719.488" y="650.559" fill="#000" font-size="13" textLength="19.443" font-weight="700">alt</text><text x="783.931" y="649.703" fill="#000" font-size="11" textLength="120.748" font-weight="700">[delivery succeeds]</text><line x1="704.488" y1="733.891" x2="1194.762" y2="733.891" style="stroke:#000;stroke-width:1;stroke-dasharray:2,2;"/><text x="709.488" y="746.101" fill="#000" font-size="11" textLength="90.283" font-weight="700">[delivery fails]</text><polygon points="731.488,681.758,721.488,685.758,731.488,689.758,727.488,685.758" fill="#181818" style="stroke:#181818;stroke-width:1;stroke-linejoin:miter;stroke-miterlimit:10;"/><line x1="725.488" y1="685.758" x2="1177.762" y2="685.758" style="stroke:#181818;stroke-width:1;stroke-dasharray:2,2;"/><text x="737.488" y="680.692" fill="#000" font-size="13" textLength="47.703">200 OK</text><polygon points="1041.003,710.891,1051.003,714.891,1041.003,718.891,1045.003,714.891" fill="#181818" style="stroke:#181818;stroke-width:1;stroke-linejoin:miter;stroke-miterlimit:10;"/><line x1="720.488" y1="714.891" x2="1047.003" y2="714.891" style="stroke:#181818;stroke-width:1;"/><text x="727.488" y="709.825" fill="#000" font-size="13" textLength="143.171">update status = SENT</text><polygon points="731.488,770.828,721.488,774.828,731.488,778.828,727.488,774.828" fill="#181818" style="stroke:#181818;stroke-width:1;stroke-linejoin:miter;stroke-miterlimit:10;"/><line x1="725.488" y1="774.828" x2="1177.762" y2="774.828" style="stroke:#181818;stroke-width:1;stroke-dasharray:2,2;"/><text x="737.488" y="769.762" fill="#000" font-size="13" textLength="31.986">error</text><line x1="720.488" y1="803.961" x2="762.488" y2="803.961" style="stroke:#181818;stroke-width:1;"/><line x1="762.488" y1="803.961" x2="762.488" y2="816.961" style="stroke:#181818;stroke-width:1;"/><line x1="721.488" y1="816.961" x2="762.488" y2="816.961" style="stroke:#181818;stroke-width:1;"/><polygon points="731.488,812.961,721.488,816.961,731.488,820.961,727.488,816.961" fill="#181818" style="stroke:#181818;stroke-width:1;stroke-linejoin:miter;stroke-miterlimit:10;"/><text x="727.488" y="798.895" fill="#000" font-size="13" textLength="252.573">retry with exponential backoff (max N)</text><polygon points="1041.003,842.094,1051.003,846.094,1041.003,850.094,1045.003,846.094" fill="#181818" style="stroke:#181818;stroke-width:1;stroke-linejoin:miter;stroke-miterlimit:10;"/><line x1="720.488" y1="846.094" x2="1047.003" y2="846.094" style="stroke:#181818;stroke-width:1;"/><text x="727.488" y="841.028" fill="#000" font-size="13" textLength="308.515">update status = FAILED after retries exhausted</text><polygon points="1374.568,900.359,1384.568,904.359,1374.568,908.359,1378.568,904.359" fill="#181818" style="stroke:#181818;stroke-width:1;stroke-linejoin:miter;stroke-miterlimit:10;"/><line x1="720.488" y1="904.359" x2="1380.568" y2="904.359" style="stroke:#181818;stroke-width:1;"/><text x="727.488" y="884.161" fill="#000" font-size="13" textLength="239.313">push real-time status via WebSocket</text><text x="727.488" y="899.293" fill="#000" font-size="13" textLength="303.456">(order status: CONFIRMED / FAILED / EXPIRED)</text><?plantuml-src XPJ1JkCm48RlUOfHJwsq1RH7fAv48Qmge9G6YJrmSPr9OjMni_QaKAruzvqueIIeovwYJ6O-__vd9gH88pmgkKLQwTh352xytiZ2MMFvTMb9PKeAKjR0jROlC4xmTur6uYIAAk58ILK9Gp2QAwsLoU4KBWkKMrlJiqdGxPJ44GWFtVTXqHezfxJusEJAjBaSZlYK6c5qXzwB767kx1RTindVY6mh9Yqon8R4WUB--U53b0eI6-7nK-AjpHczifvoXyd3RSldw10Ubq9fM3cxKocwa1D2mwpaBXdcS20Iago3URrdmT5i1lUElu8dGMopB8J9qGCvbUSSnXqQyZ2RHT6xhTCVtNNFeQetMla2HhPXd4XhCkLAJ4VFve_xC7IHVeEQtvedXGulqhU8hJtAwXMUu6kbt1UyjozLLM9ViloJZ8tvKfH3uQrvupi6H0CBJJa7lfAlIsnzW75mjwd653RxhduIXUHUbKUDae2mhBGWR59R0Eqh_CZchh9QT5vv0jEV0eUIBONnAbvUBPO_USA5fXu3Pl39yWZWm0sJqAWmQUStO9YNySCQ196G1RBgNWNFHPU_iNRR-Dc1k-dbiK7jSQXWQE-_17HPq6JL3bibHsX7sdvSeKT1KySEy_AahJIJjWQbgDKEtHvyBILYwfdGRihqepdVpyxW_gRF3dsegxHfLRS7CqZYvMChyq1jhd0KYSvProTsSOV4PI-A2k0hyTGOKaB3Hl1VASjWN8fNM4x-A-NwOd4RNu78Y6UpOIfU7NmjHEs9NGhNFn32OZTBm1l0SwsdfCe3QwS4FE4ciSrGy7_6zdR_72xlbzUBzHqVTVf-vYd4lrQBTNmr-Gi0?></g></svg>