<svg xmlns="http://www.w3.org/2000/svg" xmlns:xlink="http://www.w3.org/1999/xlink" version="1.1" data-diagram-type="ACTIVITY" style="width:1050px;height:1349px;background:#FFFFFF;" width="1050px" height="1349px" viewBox="0 0 1050 1349" zoomAndPan="magnify" preserveAspectRatio="none" contentStyleType="text/css"><?plantuml 1.2026.7beta6?><defs/><g font-family="sans-serif" lengthAdjust="spacing"><g class="title" data-source-line="1"><text x="347.464" y="32.995" fill="#000" font-size="14" textLength="353.91" font-weight="700">TicketPlus - User Purchase Journey (Activity)</text></g><ellipse cx="374.069" cy="62.297" rx="10" ry="10" fill="#222" style="stroke:#222;stroke-width:1;"/><rect x="294.07" y="92.297" width="159.998" height="33.969" fill="#F1F1F1" style="stroke:#181818;stroke-width:0.5;" rx="12.5" ry="12.5"/><text x="304.07" y="113.436" fill="#000" font-size="12" textLength="139.998">Browse / search events</text><rect x="326.563" y="146.266" width="95.012" height="33.969" fill="#F1F1F1" style="stroke:#181818;stroke-width:0.5;" rx="12.5" ry="12.5"/><text x="336.563" y="167.404" fill="#000" font-size="12" textLength="75.012">Select event</text><rect x="285.524" y="248.637" width="177.09" height="33.969" fill="#F1F1F1" style="stroke:#181818;stroke-width:0.5;" rx="12.5" ry="12.5"/><text x="295.524" y="269.775" fill="#000" font-size="12" textLength="157.09">Enter virtual waiting room</text><rect x="306.855" y="302.605" width="134.428" height="33.969" fill="#F1F1F1" style="stroke:#181818;stroke-width:0.5;" rx="12.5" ry="12.5"/><text x="316.855" y="323.744" fill="#000" font-size="12" textLength="114.428">Wait for queue slot</text><rect x="286.344" y="356.574" width="175.449" height="33.969" fill="#F1F1F1" style="stroke:#181818;stroke-width:0.5;" rx="12.5" ry="12.5"/><text x="296.344" y="377.713" fill="#000" font-size="12" textLength="155.449">Get admitted to seat map</text><polygon points="316.531,200.234,431.607,200.234,443.607,212.234,431.607,224.234,316.531,224.234,304.531,212.234,316.531,200.234" fill="#F1F1F1" style="stroke:#181818;stroke-width:0.5;stroke-linejoin:miter;stroke-miterlimit:10;"/><text x="378.069" y="234.445" fill="#000" font-size="11" textLength="19.008">yes</text><text x="316.531" y="216.042" fill="#000" font-size="11" textLength="115.076">High-demand event?</text><text x="443.607" y="209.64" fill="#000" font-size="11" textLength="13.702">no</text><polygon points="374.069,410.543,386.069,422.543,374.069,434.543,362.069,422.543,374.069,410.543" fill="#F1F1F1" style="stroke:#181818;stroke-width:0.5;stroke-linejoin:miter;stroke-miterlimit:10;"/><rect x="307.224" y="454.543" width="133.689" height="33.969" fill="#F1F1F1" style="stroke:#181818;stroke-width:0.5;" rx="12.5" ry="12.5"/><text x="317.224" y="475.682" fill="#000" font-size="12" textLength="113.689">View live seat map</text><rect x="322.998" y="564.222" width="102.143" height="33.969" fill="#F1F1F1" style="stroke:#181818;stroke-width:0.5;" rx="12.5" ry="12.5"/><text x="332.998" y="585.361" fill="#000" font-size="12" textLength="82.143">Select seat(s)</text><polygon points="332.174,618.191,415.964,618.191,427.964,630.191,415.964,642.191,332.174,642.191,320.174,630.191,332.174,618.191" fill="#F1F1F1" style="stroke:#181818;stroke-width:0.5;stroke-linejoin:miter;stroke-miterlimit:10;"/><text x="332.174" y="633.999" fill="#000" font-size="11" textLength="83.789">Seat available?</text><text x="306.473" y="627.597" fill="#000" font-size="11" textLength="13.702">no</text><text x="427.964" y="627.597" fill="#000" font-size="11" textLength="19.008">yes</text><rect x="49" y="652.191" width="223.859" height="33.969" fill="#F1F1F1" style="stroke:#181818;stroke-width:0.5;" rx="12.5" ry="12.5"/><text x="59" y="673.33" fill="#000" font-size="12" textLength="203.859">Show "seat unavailable" message</text><rect x="487.85" y="652.191" width="198.717" height="33.969" fill="#F1F1F1" style="stroke:#181818;stroke-width:0.5;" rx="12.5" ry="12.5"/><text x="497.85" y="673.33" fill="#000" font-size="12" textLength="178.717">Request temporary lock (TTL)</text><rect x="467.149" y="706.16" width="240.119" height="33.969" fill="#F1F1F1" style="stroke:#181818;stroke-width:0.5;" rx="12.5" ry="12.5"/><text x="477.149" y="727.298" fill="#000" font-size="12" textLength="220.119">Lock acquired, checkout timer starts</text><rect x="518.225" y="760.128" width="137.967" height="33.969" fill="#F1F1F1" style="stroke:#181818;stroke-width:0.5;" rx="12.5" ry="12.5"/><text x="528.225" y="781.267" fill="#000" font-size="12" textLength="117.967">Fill payment details</text><polygon points="500.82,814.097,673.597,814.097,685.597,826.097,673.597,838.097,500.82,838.097,488.82,826.097,500.82,814.097" fill="#F1F1F1" style="stroke:#181818;stroke-width:0.5;stroke-linejoin:miter;stroke-miterlimit:10;"/><text x="500.82" y="829.905" fill="#000" font-size="11" textLength="172.777">Submitted before timer expiry?</text><text x="475.118" y="823.503" fill="#000" font-size="11" textLength="13.702">no</text><text x="685.597" y="823.503" fill="#000" font-size="11" textLength="19.008">yes</text><rect x="302.859" y="848.097" width="215.504" height="33.969" fill="#F1F1F1" style="stroke:#181818;stroke-width:0.5;" rx="12.5" ry="12.5"/><text x="312.859" y="869.236" fill="#000" font-size="12" textLength="195.504">Lock expires, seat auto-released</text><rect x="311.678" y="915.097" width="197.867" height="33.969" fill="#F1F1F1" style="stroke:#181818;stroke-width:0.5;" rx="12.5" ry="12.5"/><text x="321.678" y="936.236" fill="#000" font-size="12" textLength="177.867">Notify user seat was released</text><rect x="678.375" y="848.097" width="170.861" height="33.969" fill="#F1F1F1" style="stroke:#181818;stroke-width:0.5;" rx="12.5" ry="12.5"/><text x="688.375" y="869.236" fill="#000" font-size="12" textLength="150.861">Submit checkout request</text><polygon points="705.397,915.097,822.213,915.097,834.213,927.097,822.213,939.097,705.397,939.097,693.397,927.097,705.397,915.097" fill="#F1F1F1" style="stroke:#181818;stroke-width:0.5;stroke-linejoin:miter;stroke-miterlimit:10;"/><text x="705.397" y="930.905" fill="#000" font-size="11" textLength="116.816">Payment authorized?</text><text x="674.389" y="924.503" fill="#000" font-size="11" textLength="19.008">yes</text><text x="834.213" y="924.503" fill="#000" font-size="11" textLength="13.702">no</text><rect x="567.301" y="949.097" width="156.271" height="33.969" fill="#F1F1F1" style="stroke:#181818;stroke-width:0.5;" rx="12.5" ry="12.5"/><text x="577.301" y="970.236" fill="#000" font-size="12" textLength="136.271">Reservation confirmed</text><rect x="550.279" y="1003.066" width="190.314" height="33.969" fill="#F1F1F1" style="stroke:#181818;stroke-width:0.5;" rx="12.5" ry="12.5"/><text x="560.279" y="1024.205" fill="#000" font-size="12" textLength="170.314">Ticket + QR code generated</text><rect x="548.363" y="1057.035" width="194.146" height="33.969" fill="#F1F1F1" style="stroke:#181818;stroke-width:0.5;" rx="12.5" ry="12.5"/><text x="558.363" y="1078.173" fill="#000" font-size="12" textLength="174.146">Confirmation email/SMS sent</text><rect x="571.886" y="1126.003" width="147.102" height="33.969" fill="#F1F1F1" style="stroke:#181818;stroke-width:0.5;" rx="12.5" ry="12.5"/><text x="581.886" y="1147.142" fill="#000" font-size="12" textLength="127.102">Show success screen</text><rect x="819.688" y="949.097" width="124.971" height="33.969" fill="#F1F1F1" style="stroke:#181818;stroke-width:0.5;" rx="12.5" ry="12.5"/><text x="829.688" y="970.236" fill="#000" font-size="12" textLength="104.971">Release seat lock</text><rect x="762.51" y="1003.066" width="239.328" height="33.969" fill="#F1F1F1" style="stroke:#181818;stroke-width:0.5;" rx="12.5" ry="12.5"/><text x="772.51" y="1024.205" fill="#000" font-size="12" textLength="219.328">Show retry / choose new seat option</text><rect x="819.688" y="1105.437" width="124.971" height="33.969" fill="#F1F1F1" style="stroke:#181818;stroke-width:0.5;" rx="12.5" ry="12.5"/><text x="829.688" y="1126.576" fill="#000" font-size="12" textLength="104.971">Abandon booking</text><polygon points="826.258,1057.035,938.09,1057.035,950.09,1069.035,938.09,1081.035,826.258,1081.035,814.258,1069.035,826.258,1057.035" fill="#F1F1F1" style="stroke:#181818;stroke-width:0.5;stroke-linejoin:miter;stroke-miterlimit:10;"/><text x="886.174" y="1091.245" fill="#000" font-size="11" textLength="13.702">no</text><text x="826.258" y="1072.843" fill="#000" font-size="11" textLength="111.832">User wants to retry?</text><polygon points="587.208,1211.808,599.208,1223.808,587.208,1235.808,575.208,1223.808,587.208,1211.808" fill="#F1F1F1" style="stroke:#181818;stroke-width:0.5;stroke-linejoin:miter;stroke-miterlimit:10;"/><polygon points="374.069,1241.808,386.069,1253.808,374.069,1265.808,362.069,1253.808,374.069,1241.808" fill="#F1F1F1" style="stroke:#181818;stroke-width:0.5;stroke-linejoin:miter;stroke-miterlimit:10;"/><polygon points="251.737,508.512,496.401,508.512,508.401,520.512,496.401,532.512,251.737,532.512,239.737,520.512,251.737,508.512" fill="#F1F1F1" style="stroke:#181818;stroke-width:0.5;stroke-linejoin:miter;stroke-miterlimit:10;"/><text x="378.069" y="542.722" fill="#000" font-size="11" textLength="26.635">retry</text><text x="251.737" y="524.32" fill="#000" font-size="11" textLength="244.664">Booking not completed and not abandoned?</text><text x="212.285" y="517.917" fill="#000" font-size="11" textLength="27.452">done</text><ellipse cx="374.069" cy="1318.808" rx="11" ry="11" fill="none" style="stroke:#222;stroke-width:1;"/><ellipse cx="374.069" cy="1318.808" rx="6" ry="6" fill="#222" style="stroke:#222;stroke-width:1;"/><line x1="374.069" y1="72.297" x2="374.069" y2="92.297" style="stroke:#181818;stroke-width:1;"/><polygon points="370.069,82.297,374.069,92.297,378.069,82.297,374.069,86.297" fill="#181818" style="stroke:#181818;stroke-width:1;stroke-linejoin:miter;stroke-miterlimit:10;"/><line x1="374.069" y1="126.266" x2="374.069" y2="146.266" style="stroke:#181818;stroke-width:1;"/><polygon points="370.069,136.266,374.069,146.266,378.069,136.266,374.069,140.266" fill="#181818" style="stroke:#181818;stroke-width:1;stroke-linejoin:miter;stroke-miterlimit:10;"/><line x1="374.069" y1="282.605" x2="374.069" y2="302.605" style="stroke:#181818;stroke-width:1;"/><polygon points="370.069,292.605,374.069,302.605,378.069,292.605,374.069,296.605" fill="#181818" style="stroke:#181818;stroke-width:1;stroke-linejoin:miter;stroke-miterlimit:10;"/><line x1="374.069" y1="336.574" x2="374.069" y2="356.574" style="stroke:#181818;stroke-width:1;"/><polygon points="370.069,346.574,374.069,356.574,378.069,346.574,374.069,350.574" fill="#181818" style="stroke:#181818;stroke-width:1;stroke-linejoin:miter;stroke-miterlimit:10;"/><line x1="374.069" y1="224.234" x2="374.069" y2="248.637" style="stroke:#181818;stroke-width:1;"/><polygon points="370.069,238.637,374.069,248.637,378.069,238.637,374.069,242.637" fill="#181818" style="stroke:#181818;stroke-width:1;stroke-linejoin:miter;stroke-miterlimit:10;"/><line x1="443.607" y1="212.234" x2="472.614" y2="212.234" style="stroke:#181818;stroke-width:1;"/><polygon points="468.614,309.59,472.614,319.59,476.614,309.59,472.614,313.59" fill="#181818" style="stroke:#181818;stroke-width:1;stroke-linejoin:miter;stroke-miterlimit:10;"/><line x1="472.614" y1="212.234" x2="472.614" y2="422.543" style="stroke:#181818;stroke-width:1;"/><line x1="472.614" y1="422.543" x2="386.069" y2="422.543" style="stroke:#181818;stroke-width:1;"/><polygon points="396.069,418.543,386.069,422.543,396.069,426.543,392.069,422.543" fill="#181818" style="stroke:#181818;stroke-width:1;stroke-linejoin:miter;stroke-miterlimit:10;"/><line x1="374.069" y1="390.543" x2="374.069" y2="410.543" style="stroke:#181818;stroke-width:1;"/><polygon points="370.069,400.543,374.069,410.543,378.069,400.543,374.069,404.543" fill="#181818" style="stroke:#181818;stroke-width:1;stroke-linejoin:miter;stroke-miterlimit:10;"/><line x1="374.069" y1="180.234" x2="374.069" y2="200.234" style="stroke:#181818;stroke-width:1;"/><polygon points="370.069,190.234,374.069,200.234,378.069,190.234,374.069,194.234" fill="#181818" style="stroke:#181818;stroke-width:1;stroke-linejoin:miter;stroke-miterlimit:10;"/><line x1="374.069" y1="434.543" x2="374.069" y2="454.543" style="stroke:#181818;stroke-width:1;"/><polygon points="370.069,444.543,374.069,454.543,378.069,444.543,374.069,448.543" fill="#181818" style="stroke:#181818;stroke-width:1;stroke-linejoin:miter;stroke-miterlimit:10;"/><line x1="587.208" y1="686.16" x2="587.208" y2="706.16" style="stroke:#181818;stroke-width:1;"/><polygon points="583.208,696.16,587.208,706.16,591.208,696.16,587.208,700.16" fill="#181818" style="stroke:#181818;stroke-width:1;stroke-linejoin:miter;stroke-miterlimit:10;"/><line x1="587.208" y1="740.128" x2="587.208" y2="760.128" style="stroke:#181818;stroke-width:1;"/><polygon points="583.208,750.128,587.208,760.128,591.208,750.128,587.208,754.128" fill="#181818" style="stroke:#181818;stroke-width:1;stroke-linejoin:miter;stroke-miterlimit:10;"/><line x1="410.611" y1="882.066" x2="410.611" y2="915.097" style="stroke:#181818;stroke-width:1;"/><polygon points="406.611,905.097,410.611,915.097,414.611,905.097,410.611,909.097" fill="#181818" style="stroke:#181818;stroke-width:1;stroke-linejoin:miter;stroke-miterlimit:10;"/><line x1="645.437" y1="983.066" x2="645.437" y2="1003.066" style="stroke:#181818;stroke-width:1;"/><polygon points="641.437,993.066,645.437,1003.066,649.437,993.066,645.437,997.066" fill="#181818" style="stroke:#181818;stroke-width:1;stroke-linejoin:miter;stroke-miterlimit:10;"/><line x1="645.437" y1="1037.035" x2="645.437" y2="1057.035" style="stroke:#181818;stroke-width:1;"/><polygon points="641.437,1047.035,645.437,1057.035,649.437,1047.035,645.437,1051.035" fill="#181818" style="stroke:#181818;stroke-width:1;stroke-linejoin:miter;stroke-miterlimit:10;"/><line x1="645.437" y1="1091.003" x2="645.437" y2="1126.003" style="stroke:#181818;stroke-width:1;"/><polygon points="641.437,1116.003,645.437,1126.003,649.437,1116.003,645.437,1120.003" fill="#181818" style="stroke:#181818;stroke-width:1;stroke-linejoin:miter;stroke-miterlimit:10;"/><line x1="645.437" y1="1159.972" x2="645.437" y2="1191.972" style="stroke:#181818;stroke-width:1;"/><line x1="645.437" y1="1191.972" x2="29" y2="1191.972" style="stroke:#181818;stroke-width:1;"/><polygon points="39,1187.972,29,1191.972,39,1195.972,35,1191.972" fill="#181818" style="stroke:#181818;stroke-width:1;stroke-linejoin:miter;stroke-miterlimit:10;"/><line x1="882.174" y1="983.066" x2="882.174" y2="1003.066" style="stroke:#181818;stroke-width:1;"/><polygon points="878.174,993.066,882.174,1003.066,886.174,993.066,882.174,997.066" fill="#181818" style="stroke:#181818;stroke-width:1;stroke-linejoin:miter;stroke-miterlimit:10;"/><line x1="882.174" y1="1139.406" x2="882.174" y2="1173.972" style="stroke:#181818;stroke-width:1;"/><line x1="882.174" y1="1173.972" x2="29" y2="1173.972" style="stroke:#181818;stroke-width:1;"/><polygon points="39,1169.972,29,1173.972,39,1177.972,35,1173.972" fill="#181818" style="stroke:#181818;stroke-width:1;stroke-linejoin:miter;stroke-miterlimit:10;"/><line x1="882.174" y1="1081.035" x2="882.174" y2="1105.437" style="stroke:#181818;stroke-width:1;"/><polygon points="878.174,1095.437,882.174,1105.437,886.174,1095.437,882.174,1099.437" fill="#181818" style="stroke:#181818;stroke-width:1;stroke-linejoin:miter;stroke-miterlimit:10;"/><line x1="950.09" y1="1069.035" x2="962.09" y2="1069.035" style="stroke:#181818;stroke-width:1;"/><polygon points="958.09,1138.921,962.09,1148.921,966.09,1138.921,962.09,1142.921" fill="#181818" style="stroke:#181818;stroke-width:1;stroke-linejoin:miter;stroke-miterlimit:10;"/><line x1="962.09" y1="1069.035" x2="962.09" y2="1223.808" style="stroke:#181818;stroke-width:1;"/><line x1="962.09" y1="1223.808" x2="599.208" y2="1223.808" style="stroke:#181818;stroke-width:1;"/><polygon points="609.208,1219.808,599.208,1223.808,609.208,1227.808,605.208,1223.808" fill="#181818" style="stroke:#181818;stroke-width:1;stroke-linejoin:miter;stroke-miterlimit:10;"/><line x1="882.174" y1="1037.035" x2="882.174" y2="1057.035" style="stroke:#181818;stroke-width:1;"/><polygon points="878.174,1047.035,882.174,1057.035,886.174,1047.035,882.174,1051.035" fill="#181818" style="stroke:#181818;stroke-width:1;stroke-linejoin:miter;stroke-miterlimit:10;"/><line x1="693.397" y1="927.097" x2="645.437" y2="927.097" style="stroke:#181818;stroke-width:1;"/><line x1="645.437" y1="927.097" x2="645.437" y2="949.097" style="stroke:#181818;stroke-width:1;"/><polygon points="641.437,939.097,645.437,949.097,649.437,939.097,645.437,943.097" fill="#181818" style="stroke:#181818;stroke-width:1;stroke-linejoin:miter;stroke-miterlimit:10;"/><line x1="834.213" y1="927.097" x2="882.174" y2="927.097" style="stroke:#181818;stroke-width:1;"/><line x1="882.174" y1="927.097" x2="882.174" y2="949.097" style="stroke:#181818;stroke-width:1;"/><polygon points="878.174,939.097,882.174,949.097,886.174,939.097,882.174,943.097" fill="#181818" style="stroke:#181818;stroke-width:1;stroke-linejoin:miter;stroke-miterlimit:10;"/><line x1="763.805" y1="882.066" x2="763.805" y2="915.097" style="stroke:#181818;stroke-width:1;"/><polygon points="759.805,905.097,763.805,915.097,767.805,905.097,763.805,909.097" fill="#181818" style="stroke:#181818;stroke-width:1;stroke-linejoin:miter;stroke-miterlimit:10;"/><line x1="488.82" y1="826.097" x2="410.611" y2="826.097" style="stroke:#181818;stroke-width:1;"/><line x1="410.611" y1="826.097" x2="410.611" y2="848.097" style="stroke:#181818;stroke-width:1;"/><polygon points="406.611,838.097,410.611,848.097,414.611,838.097,410.611,842.097" fill="#181818" style="stroke:#181818;stroke-width:1;stroke-linejoin:miter;stroke-miterlimit:10;"/><line x1="685.597" y1="826.097" x2="763.805" y2="826.097" style="stroke:#181818;stroke-width:1;"/><line x1="763.805" y1="826.097" x2="763.805" y2="848.097" style="stroke:#181818;stroke-width:1;"/><polygon points="759.805,838.097,763.805,848.097,767.805,838.097,763.805,842.097" fill="#181818" style="stroke:#181818;stroke-width:1;stroke-linejoin:miter;stroke-miterlimit:10;"/><line x1="410.611" y1="949.066" x2="410.611" y2="1223.808" style="stroke:#181818;stroke-width:1;"/><line x1="410.611" y1="1223.808" x2="575.208" y2="1223.808" style="stroke:#181818;stroke-width:1;"/><polygon points="565.208,1219.808,575.208,1223.808,565.208,1227.808,569.208,1223.808" fill="#181818" style="stroke:#181818;stroke-width:1;stroke-linejoin:miter;stroke-miterlimit:10;"/><line x1="587.208" y1="794.097" x2="587.208" y2="814.097" style="stroke:#181818;stroke-width:1;"/><polygon points="583.208,804.097,587.208,814.097,591.208,804.097,587.208,808.097" fill="#181818" style="stroke:#181818;stroke-width:1;stroke-linejoin:miter;stroke-miterlimit:10;"/><line x1="320.174" y1="630.191" x2="160.93" y2="630.191" style="stroke:#181818;stroke-width:1;"/><line x1="160.93" y1="630.191" x2="160.93" y2="652.191" style="stroke:#181818;stroke-width:1;"/><polygon points="156.93,642.191,160.93,652.191,164.93,642.191,160.93,646.191" fill="#181818" style="stroke:#181818;stroke-width:1;stroke-linejoin:miter;stroke-miterlimit:10;"/><line x1="427.964" y1="630.191" x2="587.208" y2="630.191" style="stroke:#181818;stroke-width:1;"/><line x1="587.208" y1="630.191" x2="587.208" y2="652.191" style="stroke:#181818;stroke-width:1;"/><polygon points="583.208,642.191,587.208,652.191,591.208,642.191,587.208,646.191" fill="#181818" style="stroke:#181818;stroke-width:1;stroke-linejoin:miter;stroke-miterlimit:10;"/><line x1="160.93" y1="686.16" x2="160.93" y2="1253.808" style="stroke:#181818;stroke-width:1;"/><line x1="160.93" y1="1253.808" x2="362.069" y2="1253.808" style="stroke:#181818;stroke-width:1;"/><polygon points="352.069,1249.808,362.069,1253.808,352.069,1257.808,356.069,1253.808" fill="#181818" style="stroke:#181818;stroke-width:1;stroke-linejoin:miter;stroke-miterlimit:10;"/><line x1="587.208" y1="1235.808" x2="587.208" y2="1253.808" style="stroke:#181818;stroke-width:1;"/><line x1="587.208" y1="1253.808" x2="386.069" y2="1253.808" style="stroke:#181818;stroke-width:1;"/><polygon points="396.069,1249.808,386.069,1253.808,396.069,1257.808,392.069,1253.808" fill="#181818" style="stroke:#181818;stroke-width:1;stroke-linejoin:miter;stroke-miterlimit:10;"/><line x1="374.069" y1="598.191" x2="374.069" y2="618.191" style="stroke:#181818;stroke-width:1;"/><polygon points="370.069,608.191,374.069,618.191,378.069,608.191,374.069,612.191" fill="#181818" style="stroke:#181818;stroke-width:1;stroke-linejoin:miter;stroke-miterlimit:10;"/><line x1="374.069" y1="532.512" x2="374.069" y2="564.222" style="stroke:#181818;stroke-width:1;"/><polygon points="370.069,554.222,374.069,564.222,378.069,554.222,374.069,558.222" fill="#181818" style="stroke:#181818;stroke-width:1;stroke-linejoin:miter;stroke-miterlimit:10;"/><line x1="374.069" y1="1265.808" x2="374.069" y2="1275.808" style="stroke:#181818;stroke-width:1;"/><line x1="374.069" y1="1275.808" x2="1015.838" y2="1275.808" style="stroke:#181818;stroke-width:1;"/><polygon points="1011.838,895.097,1015.838,885.097,1019.838,895.097,1015.838,891.097" fill="#181818" style="stroke:#181818;stroke-width:1;stroke-linejoin:miter;stroke-miterlimit:10;"/><line x1="1015.838" y1="520.512" x2="1015.838" y2="1275.808" style="stroke:#181818;stroke-width:1;"/><line x1="1015.838" y1="520.512" x2="508.401" y2="520.512" style="stroke:#181818;stroke-width:1;"/><polygon points="518.401,516.512,508.401,520.512,518.401,524.512,514.401,520.512" fill="#181818" style="stroke:#181818;stroke-width:1;stroke-linejoin:miter;stroke-miterlimit:10;"/><line x1="239.737" y1="520.512" x2="29" y2="520.512" style="stroke:#181818;stroke-width:1;"/><polygon points="25,881.097,29,891.097,33,881.097,29,885.097" fill="#181818" style="stroke:#181818;stroke-width:1;stroke-linejoin:miter;stroke-miterlimit:10;"/><line x1="29" y1="520.512" x2="29" y2="1287.808" style="stroke:#181818;stroke-width:1;"/><line x1="29" y1="1287.808" x2="374.069" y2="1287.808" style="stroke:#181818;stroke-width:1;"/><line x1="374.069" y1="1287.808" x2="374.069" y2="1307.808" style="stroke:#181818;stroke-width:1;"/><polygon points="370.069,1297.808,374.069,1307.808,378.069,1297.808,374.069,1301.808" fill="#181818" style="stroke:#181818;stroke-width:1;stroke-linejoin:miter;stroke-miterlimit:10;"/><line x1="374.069" y1="488.512" x2="374.069" y2="508.512" style="stroke:#181818;stroke-width:1;"/><polygon points="370.069,498.512,374.069,508.512,378.069,498.512,374.069,502.512" fill="#181818" style="stroke:#181818;stroke-width:1;stroke-linejoin:miter;stroke-miterlimit:10;"/><?plantuml-src RLJ1Rjim3BtxAuYU7An5x_5XQ8Tkmz0DMT9jPqLcOYAov4fKFE_hHqbEatQxsBBuI3u-acPYW_14-e2yCZ703Vm8w64LlUvKGFZYehSuGNsdcOx4qwAg0YlFrVBUkr4Gjn1G2HhmY9P3KoqtQ51p-MwgYdPGVwPzTzDYhsnRxjylW3kqK4yO5XN0yi6ov3sIvwWCZ8gOx1wyStsJpB_a0dREmtF4Y12Cutp_2HbKsnCpji0kSM7erT1KQ8HSRTsYGjlIhggMFmb7C7J42rGrTYGArFVE7L92wnYqwmU3AM2YcsxKLaxEOYkqAK3jaVsKQS-rfe1rM4WyW5Jl9YLGHqL6RGs-59lO02ItpermbMb4-uAxWXv3K7jCfHN-ippYiaOfFJ0mzeFpoazWd3v0_VJqk6WAv35TAFqSoMDx3Rf3VN1HNAWNRNFRmWpzICR0eAPUUW4jiZ08cVtCFsvdJRSegkCS0dyFvAT_oZcbpcOCrqLV5TdTUD57vgXjJi1lZcatGKnJbc6Z2l0QzQRo95UcSox85orEGHFZrLoBPEsSfp-vLwz6R8wrHabzL4pEIgVjZdn_fYVsiWpm3hwlnTuYxD6YL_mAzA4ubYWorcHkDrytKf3b2rJkSeXQIrSXQ8zepzQjHtMOlywpUa4pIr8qIfr-6pVFe6oVxfmJd9NPpbWt959dT18dx_IeP3tJZcJF_pGnnxuhemxRiX3DXUsIiN3EM_NsV3gLjppd_KhRatyTRlWB?></g></svg>