<svg xmlns="http://www.w3.org/2000/svg" xmlns:xlink="http://www.w3.org/1999/xlink" contentStyleType="text/css" data-diagram-type="ACTIVITY" height="1373px" preserveAspectRatio="none" style="width:982px;height:1373px;background:#FFFFFF;" version="1.1" viewBox="0 0 982 1373" width="982px" zoomAndPan="magnify"><title>TicketPlus - User Purchase Journey (Activity)</title><defs/><g><g class="title" data-source-line="2"><text fill="#000000" font-family="sans-serif" font-size="14" font-weight="bold" lengthAdjust="spacing" textLength="308.3909" x="335.6612" y="34.9659">TicketPlus - User Purchase Journey (Activity)</text></g><ellipse cx="349.2038" cy="60.0679" fill="#222222" rx="10" ry="10" style="stroke:#222222;stroke-width:1;"/><rect fill="#F1F1F1" height="36.3441" rx="12.5" ry="12.5" style="stroke:#181818;stroke-width:0.5;" width="150.297" x="274.0553" y="90.0679"/><text fill="#000000" font-family="sans-serif" font-size="12" lengthAdjust="spacing" textLength="130.297" x="284.0553" y="112.896">Browse / search events</text><rect fill="#F1F1F1" height="36.3441" rx="12.5" ry="12.5" style="stroke:#181818;stroke-width:0.5;" width="87.8125" x="305.2976" y="146.412"/><text fill="#000000" font-family="sans-serif" font-size="12" lengthAdjust="spacing" textLength="67.8125" x="315.2976" y="169.2401">Select event</text><rect fill="#F1F1F1" height="36.3441" rx="12.5" ry="12.5" style="stroke:#181818;stroke-width:0.5;" width="167.409" x="265.4993" y="252.2471"/><text fill="#000000" font-family="sans-serif" font-size="12" lengthAdjust="spacing" textLength="147.409" x="275.4993" y="275.0752">Enter virtual waiting room</text><rect fill="#F1F1F1" height="36.3441" rx="12.5" ry="12.5" style="stroke:#181818;stroke-width:0.5;" width="127.2088" x="285.5994" y="308.5912"/><text fill="#000000" font-family="sans-serif" font-size="12" lengthAdjust="spacing" textLength="107.2088" x="295.5994" y="331.4193">Wait for queue slot</text><rect fill="#F1F1F1" height="36.3441" rx="12.5" ry="12.5" style="stroke:#181818;stroke-width:0.5;" width="164.061" x="267.1733" y="364.9353"/><text fill="#000000" font-family="sans-serif" font-size="12" lengthAdjust="spacing" textLength="144.061" x="277.1733" y="387.7634">Get admitted to seat map</text><polygon fill="#F1F1F1" points="295.4637,202.7561,402.9439,202.7561,414.9439,214.7561,402.9439,226.7561,295.4637,226.7561,283.4637,214.7561,295.4637,202.7561" style="stroke:#181818;stroke-width:0.5;"/><text fill="#000000" font-family="sans-serif" font-size="11" lengthAdjust="spacing" textLength="17.0829" x="353.2038" y="238.5151">yes</text><text fill="#000000" font-family="sans-serif" font-size="11" lengthAdjust="spacing" textLength="107.4802" x="295.4637" y="219.0241">High-demand event?</text><text fill="#000000" font-family="sans-serif" font-size="11" lengthAdjust="spacing" textLength="13.4529" x="414.9439" y="211.5332">no</text><polygon fill="#F1F1F1" points="349.2038,421.2794,361.2038,433.2794,349.2038,445.2794,337.2038,433.2794,349.2038,421.2794" style="stroke:#181818;stroke-width:0.5;"/><rect fill="#F1F1F1" height="36.3441" rx="12.5" ry="12.5" style="stroke:#181818;stroke-width:0.5;" width="123.8248" x="287.2914" y="465.2794"/><text fill="#000000" font-family="sans-serif" font-size="12" lengthAdjust="spacing" textLength="103.8248" x="297.2914" y="488.1075">View live seat map</text><rect fill="#F1F1F1" height="36.3441" rx="12.5" ry="12.5" style="stroke:#181818;stroke-width:0.5;" width="92.9605" x="302.7235" y="578.8825"/><text fill="#000000" font-family="sans-serif" font-size="12" lengthAdjust="spacing" textLength="72.9605" x="312.7235" y="601.7105">Select seat(s)</text><polygon fill="#F1F1F1" points="311.4026,635.2266,387.005,635.2266,399.005,647.2266,387.005,659.2266,311.4026,659.2266,299.4026,647.2266,311.4026,635.2266" style="stroke:#181818;stroke-width:0.5;"/><text fill="#000000" font-family="sans-serif" font-size="11" lengthAdjust="spacing" textLength="75.6025" x="311.4026" y="651.4945">Seat available?</text><text fill="#000000" font-family="sans-serif" font-size="11" lengthAdjust="spacing" textLength="13.4529" x="285.9497" y="644.0036">no</text><text fill="#000000" font-family="sans-serif" font-size="11" lengthAdjust="spacing" textLength="17.0829" x="399.005" y="644.0036">yes</text><rect fill="#F1F1F1" height="36.3441" rx="12.5" ry="12.5" style="stroke:#181818;stroke-width:0.5;" width="208.3533" x="44" y="669.2266"/><text fill="#000000" font-family="sans-serif" font-size="12" lengthAdjust="spacing" textLength="188.3533" x="54" y="692.0547">Show "seat unavailable" message</text><rect fill="#F1F1F1" height="36.3441" rx="12.5" ry="12.5" style="stroke:#181818;stroke-width:0.5;" width="184.3172" x="458.0724" y="669.2266"/><text fill="#000000" font-family="sans-serif" font-size="12" lengthAdjust="spacing" textLength="164.3172" x="468.0724" y="692.0547">Request temporary lock (TTL)</text><rect fill="#F1F1F1" height="36.3441" rx="12.5" ry="12.5" style="stroke:#181818;stroke-width:0.5;" width="224.2415" x="438.1102" y="725.5707"/><text fill="#000000" font-family="sans-serif" font-size="12" lengthAdjust="spacing" textLength="204.2415" x="448.1102" y="748.3988">Lock acquired, checkout timer starts</text><rect fill="#F1F1F1" height="36.3441" rx="12.5" ry="12.5" style="stroke:#181818;stroke-width:0.5;" width="128.8768" x="485.7926" y="781.9148"/><text fill="#000000" font-family="sans-serif" font-size="12" lengthAdjust="spacing" textLength="108.8768" x="495.7926" y="804.7429">Fill payment details</text><polygon fill="#F1F1F1" points="469.849,838.2589,630.6129,838.2589,642.6129,850.2589,630.6129,862.2589,469.849,862.2589,457.849,850.2589,469.849,838.2589" style="stroke:#181818;stroke-width:0.5;"/><text fill="#000000" font-family="sans-serif" font-size="11" lengthAdjust="spacing" textLength="160.7639" x="469.849" y="854.5269">Submitted before timer expiry?</text><text fill="#000000" font-family="sans-serif" font-size="11" lengthAdjust="spacing" textLength="13.4529" x="444.3961" y="847.0359">no</text><text fill="#000000" font-family="sans-serif" font-size="11" lengthAdjust="spacing" textLength="17.0829" x="642.6129" y="847.0359">yes</text><rect fill="#F1F1F1" height="36.3441" rx="12.5" ry="12.5" style="stroke:#181818;stroke-width:0.5;" width="200.7573" x="282.3533" y="872.2589"/><text fill="#000000" font-family="sans-serif" font-size="12" lengthAdjust="spacing" textLength="180.7573" x="292.3533" y="895.087">Lock expires, seat auto-released</text><rect fill="#F1F1F1" height="36.3441" rx="12.5" ry="12.5" style="stroke:#181818;stroke-width:0.5;" width="185.1332" x="290.1654" y="939.2589"/><text fill="#000000" font-family="sans-serif" font-size="12" lengthAdjust="spacing" textLength="165.1332" x="300.1654" y="962.087">Notify user seat was released</text><rect fill="#F1F1F1" height="36.3441" rx="12.5" ry="12.5" style="stroke:#181818;stroke-width:0.5;" width="160.761" x="637.3494" y="872.2589"/><text fill="#000000" font-family="sans-serif" font-size="12" lengthAdjust="spacing" textLength="140.761" x="647.3494" y="895.087">Submit checkout request</text><polygon fill="#F1F1F1" points="663.1098,939.2589,772.35,939.2589,784.35,951.2589,772.35,963.2589,663.1098,963.2589,651.1098,951.2589,663.1098,939.2589" style="stroke:#181818;stroke-width:0.5;"/><text fill="#000000" font-family="sans-serif" font-size="11" lengthAdjust="spacing" textLength="109.2402" x="663.1098" y="955.5269">Payment authorized?</text><text fill="#000000" font-family="sans-serif" font-size="11" lengthAdjust="spacing" textLength="17.0829" x="634.0269" y="948.0359">yes</text><text fill="#000000" font-family="sans-serif" font-size="11" lengthAdjust="spacing" textLength="13.4529" x="784.35" y="948.0359">no</text><rect fill="#F1F1F1" height="36.3441" rx="12.5" ry="12.5" style="stroke:#181818;stroke-width:0.5;" width="147.7409" x="531.4588" y="973.2589"/><text fill="#000000" font-family="sans-serif" font-size="12" lengthAdjust="spacing" textLength="127.7409" x="541.4588" y="996.087">Reservation confirmed</text><rect fill="#F1F1F1" height="36.3441" rx="12.5" ry="12.5" style="stroke:#181818;stroke-width:0.5;" width="174.8851" x="517.8867" y="1029.603"/><text fill="#000000" font-family="sans-serif" font-size="12" lengthAdjust="spacing" textLength="154.8851" x="527.8867" y="1052.4311">Ticket + QR code generated</text><rect fill="#F1F1F1" height="36.3441" rx="12.5" ry="12.5" style="stroke:#181818;stroke-width:0.5;" width="184.4372" x="513.1106" y="1085.9471"/><text fill="#000000" font-family="sans-serif" font-size="12" lengthAdjust="spacing" textLength="164.4372" x="523.1106" y="1108.7752">Confirmation email/SMS sent</text><rect fill="#F1F1F1" height="36.3441" rx="12.5" ry="12.5" style="stroke:#181818;stroke-width:0.5;" width="137.3009" x="536.6788" y="1157.2913"/><text fill="#000000" font-family="sans-serif" font-size="12" lengthAdjust="spacing" textLength="117.3009" x="546.6788" y="1180.1193">Show success screen</text><rect fill="#F1F1F1" height="36.3441" rx="12.5" ry="12.5" style="stroke:#181818;stroke-width:0.5;" width="115.6887" x="772.2862" y="973.2589"/><text fill="#000000" font-family="sans-serif" font-size="12" lengthAdjust="spacing" textLength="95.6887" x="782.2862" y="996.087">Release seat lock</text><rect fill="#F1F1F1" height="36.3441" rx="12.5" ry="12.5" style="stroke:#181818;stroke-width:0.5;" width="225.1655" x="717.5478" y="1029.603"/><text fill="#000000" font-family="sans-serif" font-size="12" lengthAdjust="spacing" textLength="205.1655" x="727.5478" y="1052.4311">Show retry / choose new seat option</text><rect fill="#F1F1F1" height="36.3441" rx="12.5" ry="12.5" style="stroke:#181818;stroke-width:0.5;" width="120.5727" x="769.8442" y="1135.4381"/><text fill="#000000" font-family="sans-serif" font-size="12" lengthAdjust="spacing" textLength="100.5727" x="779.8442" y="1158.2662">Abandon booking</text><polygon fill="#F1F1F1" points="778.2494,1085.9471,882.0117,1085.9471,894.0117,1097.9471,882.0117,1109.9471,778.2494,1109.9471,766.2494,1097.9471,778.2494,1085.9471" style="stroke:#181818;stroke-width:0.5;"/><text fill="#000000" font-family="sans-serif" font-size="11" lengthAdjust="spacing" textLength="13.4529" x="834.1306" y="1121.7061">no</text><text fill="#000000" font-family="sans-serif" font-size="11" lengthAdjust="spacing" textLength="103.7623" x="778.2494" y="1102.2151">User wants to retry?</text><polygon fill="#F1F1F1" points="550.2309,1244.42,562.2309,1256.42,550.2309,1268.42,538.2309,1256.42,550.2309,1244.42" style="stroke:#181818;stroke-width:0.5;"/><polygon fill="#F1F1F1" points="349.2038,1274.42,361.2038,1286.42,349.2038,1298.42,337.2038,1286.42,349.2038,1274.42" style="stroke:#181818;stroke-width:0.5;"/><polygon fill="#F1F1F1" points="233.9796,521.6235,464.428,521.6235,476.428,533.6235,464.428,545.6235,233.9796,545.6235,221.9796,533.6235,233.9796,521.6235" style="stroke:#181818;stroke-width:0.5;"/><text fill="#000000" font-family="sans-serif" font-size="11" lengthAdjust="spacing" textLength="24.8708" x="353.2038" y="557.3825">retry</text><text fill="#000000" font-family="sans-serif" font-size="11" lengthAdjust="spacing" textLength="230.4484" x="233.9796" y="537.8915">Booking not completed and not abandoned?</text><text fill="#000000" font-family="sans-serif" font-size="11" lengthAdjust="spacing" textLength="26.4218" x="195.5578" y="530.4006">done</text><ellipse cx="349.2038" cy="1351.42" fill="none" rx="11" ry="11" style="stroke:#222222;stroke-width:1;"/><ellipse cx="349.2038" cy="1351.42" fill="#222222" rx="6" ry="6" style="stroke:#222222;stroke-width:1;"/><line style="stroke:#181818;stroke-width:1;" x1="349.2038" x2="349.2038" y1="70.0679" y2="90.0679"/><polygon fill="#181818" points="345.2038,80.0679,349.2038,90.0679,353.2038,80.0679,349.2038,84.0679" style="stroke:#181818;stroke-width:1;"/><line style="stroke:#181818;stroke-width:1;" x1="349.2038" x2="349.2038" y1="126.412" y2="146.412"/><polygon fill="#181818" points="345.2038,136.412,349.2038,146.412,353.2038,136.412,349.2038,140.412" style="stroke:#181818;stroke-width:1;"/><line style="stroke:#181818;stroke-width:1;" x1="349.2038" x2="349.2038" y1="288.5912" y2="308.5912"/><polygon fill="#181818" points="345.2038,298.5912,349.2038,308.5912,353.2038,298.5912,349.2038,302.5912" style="stroke:#181818;stroke-width:1;"/><line style="stroke:#181818;stroke-width:1;" x1="349.2038" x2="349.2038" y1="344.9353" y2="364.9353"/><polygon fill="#181818" points="345.2038,354.9353,349.2038,364.9353,353.2038,354.9353,349.2038,358.9353" style="stroke:#181818;stroke-width:1;"/><line style="stroke:#181818;stroke-width:1;" x1="349.2038" x2="349.2038" y1="226.7561" y2="252.2471"/><polygon fill="#181818" points="345.2038,242.2471,349.2038,252.2471,353.2038,242.2471,349.2038,246.2471" style="stroke:#181818;stroke-width:1;"/><line style="stroke:#181818;stroke-width:1;" x1="414.9439" x2="442.9083" y1="214.7561" y2="214.7561"/><polygon fill="#181818" points="438.9083,316.7633,442.9083,326.7633,446.9083,316.7633,442.9083,320.7633" style="stroke:#181818;stroke-width:1;"/><line style="stroke:#181818;stroke-width:1;" x1="442.9083" x2="442.9083" y1="214.7561" y2="433.2794"/><line style="stroke:#181818;stroke-width:1;" x1="442.9083" x2="361.2038" y1="433.2794" y2="433.2794"/><polygon fill="#181818" points="371.2038,429.2794,361.2038,433.2794,371.2038,437.2794,367.2038,433.2794" style="stroke:#181818;stroke-width:1;"/><line style="stroke:#181818;stroke-width:1;" x1="349.2038" x2="349.2038" y1="401.2794" y2="421.2794"/><polygon fill="#181818" points="345.2038,411.2794,349.2038,421.2794,353.2038,411.2794,349.2038,415.2794" style="stroke:#181818;stroke-width:1;"/><line style="stroke:#181818;stroke-width:1;" x1="349.2038" x2="349.2038" y1="182.7561" y2="202.7561"/><polygon fill="#181818" points="345.2038,192.7561,349.2038,202.7561,353.2038,192.7561,349.2038,196.7561" style="stroke:#181818;stroke-width:1;"/><line style="stroke:#181818;stroke-width:1;" x1="349.2038" x2="349.2038" y1="445.2794" y2="465.2794"/><polygon fill="#181818" points="345.2038,455.2794,349.2038,465.2794,353.2038,455.2794,349.2038,459.2794" style="stroke:#181818;stroke-width:1;"/><line style="stroke:#181818;stroke-width:1;" x1="550.2309" x2="550.2309" y1="705.5707" y2="725.5707"/><polygon fill="#181818" points="546.2309,715.5707,550.2309,725.5707,554.2309,715.5707,550.2309,719.5707" style="stroke:#181818;stroke-width:1;"/><line style="stroke:#181818;stroke-width:1;" x1="550.2309" x2="550.2309" y1="761.9148" y2="781.9148"/><polygon fill="#181818" points="546.2309,771.9148,550.2309,781.9148,554.2309,771.9148,550.2309,775.9148" style="stroke:#181818;stroke-width:1;"/><line style="stroke:#181818;stroke-width:1;" x1="382.732" x2="382.732" y1="908.603" y2="939.2589"/><polygon fill="#181818" points="378.732,929.2589,382.732,939.2589,386.732,929.2589,382.732,933.2589" style="stroke:#181818;stroke-width:1;"/><line style="stroke:#181818;stroke-width:1;" x1="605.3292" x2="605.3292" y1="1009.603" y2="1029.603"/><polygon fill="#181818" points="601.3292,1019.603,605.3292,1029.603,609.3292,1019.603,605.3292,1023.603" style="stroke:#181818;stroke-width:1;"/><line style="stroke:#181818;stroke-width:1;" x1="605.3292" x2="605.3292" y1="1065.9471" y2="1085.9471"/><polygon fill="#181818" points="601.3292,1075.9471,605.3292,1085.9471,609.3292,1075.9471,605.3292,1079.9471" style="stroke:#181818;stroke-width:1;"/><line style="stroke:#181818;stroke-width:1;" x1="605.3292" x2="605.3292" y1="1122.2913" y2="1157.2913"/><polygon fill="#181818" points="601.3292,1147.2913,605.3292,1157.2913,609.3292,1147.2913,605.3292,1151.2913" style="stroke:#181818;stroke-width:1;"/><line style="stroke:#181818;stroke-width:1;" x1="605.3292" x2="605.3292" y1="1193.6354" y2="1224.7822"/><line style="stroke:#181818;stroke-width:1;" x1="605.3292" x2="24" y1="1224.7822" y2="1224.7822"/><polygon fill="#181818" points="34,1220.7822,24,1224.7822,34,1228.7822,30,1224.7822" style="stroke:#181818;stroke-width:1;"/><line style="stroke:#181818;stroke-width:1;" x1="830.1306" x2="830.1306" y1="1009.603" y2="1029.603"/><polygon fill="#181818" points="826.1306,1019.603,830.1306,1029.603,834.1306,1019.603,830.1306,1023.603" style="stroke:#181818;stroke-width:1;"/><line style="stroke:#181818;stroke-width:1;" x1="830.1306" x2="830.1306" y1="1171.7822" y2="1206.7822"/><line style="stroke:#181818;stroke-width:1;" x1="830.1306" x2="24" y1="1206.7822" y2="1206.7822"/><polygon fill="#181818" points="34,1202.7822,24,1206.7822,34,1210.7822,30,1206.7822" style="stroke:#181818;stroke-width:1;"/><line style="stroke:#181818;stroke-width:1;" x1="830.1306" x2="830.1306" y1="1109.9471" y2="1135.4381"/><polygon fill="#181818" points="826.1306,1125.4381,830.1306,1135.4381,834.1306,1125.4381,830.1306,1129.4381" style="stroke:#181818;stroke-width:1;"/><line style="stroke:#181818;stroke-width:1;" x1="894.0117" x2="906.0117" y1="1097.9471" y2="1097.9471"/><polygon fill="#181818" points="902.0117,1170.1101,906.0117,1180.1101,910.0117,1170.1101,906.0117,1174.1101" style="stroke:#181818;stroke-width:1;"/><line style="stroke:#181818;stroke-width:1;" x1="906.0117" x2="906.0117" y1="1097.9471" y2="1256.42"/><line style="stroke:#181818;stroke-width:1;" x1="906.0117" x2="562.2309" y1="1256.42" y2="1256.42"/><polygon fill="#181818" points="572.2309,1252.42,562.2309,1256.42,572.2309,1260.42,568.2309,1256.42" style="stroke:#181818;stroke-width:1;"/><line style="stroke:#181818;stroke-width:1;" x1="830.1306" x2="830.1306" y1="1065.9471" y2="1085.9471"/><polygon fill="#181818" points="826.1306,1075.9471,830.1306,1085.9471,834.1306,1075.9471,830.1306,1079.9471" style="stroke:#181818;stroke-width:1;"/><line style="stroke:#181818;stroke-width:1;" x1="651.1098" x2="605.3292" y1="951.2589" y2="951.2589"/><line style="stroke:#181818;stroke-width:1;" x1="605.3292" x2="605.3292" y1="951.2589" y2="973.2589"/><polygon fill="#181818" points="601.3292,963.2589,605.3292,973.2589,609.3292,963.2589,605.3292,967.2589" style="stroke:#181818;stroke-width:1;"/><line style="stroke:#181818;stroke-width:1;" x1="784.35" x2="830.1306" y1="951.2589" y2="951.2589"/><line style="stroke:#181818;stroke-width:1;" x1="830.1306" x2="830.1306" y1="951.2589" y2="973.2589"/><polygon fill="#181818" points="826.1306,963.2589,830.1306,973.2589,834.1306,963.2589,830.1306,967.2589" style="stroke:#181818;stroke-width:1;"/><line style="stroke:#181818;stroke-width:1;" x1="717.7299" x2="717.7299" y1="908.603" y2="939.2589"/><polygon fill="#181818" points="713.7299,929.2589,717.7299,939.2589,721.7299,929.2589,717.7299,933.2589" style="stroke:#181818;stroke-width:1;"/><line style="stroke:#181818;stroke-width:1;" x1="457.849" x2="382.732" y1="850.2589" y2="850.2589"/><line style="stroke:#181818;stroke-width:1;" x1="382.732" x2="382.732" y1="850.2589" y2="872.2589"/><polygon fill="#181818" points="378.732,862.2589,382.732,872.2589,386.732,862.2589,382.732,866.2589" style="stroke:#181818;stroke-width:1;"/><line style="stroke:#181818;stroke-width:1;" x1="642.6129" x2="717.7299" y1="850.2589" y2="850.2589"/><line style="stroke:#181818;stroke-width:1;" x1="717.7299" x2="717.7299" y1="850.2589" y2="872.2589"/><polygon fill="#181818" points="713.7299,862.2589,717.7299,872.2589,721.7299,862.2589,717.7299,866.2589" style="stroke:#181818;stroke-width:1;"/><line style="stroke:#181818;stroke-width:1;" x1="382.732" x2="382.732" y1="975.603" y2="1256.42"/><line style="stroke:#181818;stroke-width:1;" x1="382.732" x2="538.2309" y1="1256.42" y2="1256.42"/><polygon fill="#181818" points="528.2309,1252.42,538.2309,1256.42,528.2309,1260.42,532.2309,1256.42" style="stroke:#181818;stroke-width:1;"/><line style="stroke:#181818;stroke-width:1;" x1="550.2309" x2="550.2309" y1="818.2589" y2="838.2589"/><polygon fill="#181818" points="546.2309,828.2589,550.2309,838.2589,554.2309,828.2589,550.2309,832.2589" style="stroke:#181818;stroke-width:1;"/><line style="stroke:#181818;stroke-width:1;" x1="299.4026" x2="148.1767" y1="647.2266" y2="647.2266"/><line style="stroke:#181818;stroke-width:1;" x1="148.1767" x2="148.1767" y1="647.2266" y2="669.2266"/><polygon fill="#181818" points="144.1767,659.2266,148.1767,669.2266,152.1767,659.2266,148.1767,663.2266" style="stroke:#181818;stroke-width:1;"/><line style="stroke:#181818;stroke-width:1;" x1="399.005" x2="550.2309" y1="647.2266" y2="647.2266"/><line style="stroke:#181818;stroke-width:1;" x1="550.2309" x2="550.2309" y1="647.2266" y2="669.2266"/><polygon fill="#181818" points="546.2309,659.2266,550.2309,669.2266,554.2309,659.2266,550.2309,663.2266" style="stroke:#181818;stroke-width:1;"/><line style="stroke:#181818;stroke-width:1;" x1="148.1767" x2="148.1767" y1="705.5707" y2="1286.42"/><line style="stroke:#181818;stroke-width:1;" x1="148.1767" x2="337.2038" y1="1286.42" y2="1286.42"/><polygon fill="#181818" points="327.2038,1282.42,337.2038,1286.42,327.2038,1290.42,331.2038,1286.42" style="stroke:#181818;stroke-width:1;"/><line style="stroke:#181818;stroke-width:1;" x1="550.2309" x2="550.2309" y1="1268.42" y2="1286.42"/><line style="stroke:#181818;stroke-width:1;" x1="550.2309" x2="361.2038" y1="1286.42" y2="1286.42"/><polygon fill="#181818" points="371.2038,1282.42,361.2038,1286.42,371.2038,1290.42,367.2038,1286.42" style="stroke:#181818;stroke-width:1;"/><line style="stroke:#181818;stroke-width:1;" x1="349.2038" x2="349.2038" y1="615.2266" y2="635.2266"/><polygon fill="#181818" points="345.2038,625.2266,349.2038,635.2266,353.2038,625.2266,349.2038,629.2266" style="stroke:#181818;stroke-width:1;"/><line style="stroke:#181818;stroke-width:1;" x1="349.2038" x2="349.2038" y1="545.6235" y2="578.8825"/><polygon fill="#181818" points="345.2038,568.8825,349.2038,578.8825,353.2038,568.8825,349.2038,572.8825" style="stroke:#181818;stroke-width:1;"/><line style="stroke:#181818;stroke-width:1;" x1="349.2038" x2="349.2038" y1="1298.42" y2="1308.42"/><line style="stroke:#181818;stroke-width:1;" x1="349.2038" x2="956.7133" y1="1308.42" y2="1308.42"/><polygon fill="#181818" points="952.7133,919.2589,956.7133,909.2589,960.7133,919.2589,956.7133,915.2589" style="stroke:#181818;stroke-width:1;"/><line style="stroke:#181818;stroke-width:1;" x1="956.7133" x2="956.7133" y1="533.6235" y2="1308.42"/><line style="stroke:#181818;stroke-width:1;" x1="956.7133" x2="476.428" y1="533.6235" y2="533.6235"/><polygon fill="#181818" points="486.428,529.6235,476.428,533.6235,486.428,537.6235,482.428,533.6235" style="stroke:#181818;stroke-width:1;"/><line style="stroke:#181818;stroke-width:1;" x1="221.9796" x2="24" y1="533.6235" y2="533.6235"/><polygon fill="#181818" points="20,905.2589,24,915.2589,28,905.2589,24,909.2589" style="stroke:#181818;stroke-width:1;"/><line style="stroke:#181818;stroke-width:1;" x1="24" x2="24" y1="533.6235" y2="1320.42"/><line style="stroke:#181818;stroke-width:1;" x1="24" x2="349.2038" y1="1320.42" y2="1320.42"/><line style="stroke:#181818;stroke-width:1;" x1="349.2038" x2="349.2038" y1="1320.42" y2="1340.42"/><polygon fill="#181818" points="345.2038,1330.42,349.2038,1340.42,353.2038,1330.42,349.2038,1334.42" style="stroke:#181818;stroke-width:1;"/><line style="stroke:#181818;stroke-width:1;" x1="349.2038" x2="349.2038" y1="501.6235" y2="521.6235"/><polygon fill="#181818" points="345.2038,511.6235,349.2038,521.6235,353.2038,511.6235,349.2038,515.6235" style="stroke:#181818;stroke-width:1;"/><!--SRC=[RLHDRzim3BthLt0zELYBtkF3q0xxmD0DMTDjPyPcOY6ov4fKFE_NZvAS9kbsiMNoYNny9FrcyBZh4GnEBZA4dXWjAjPi29vqioTUcHZW1du4yh2Alkam47nnqLkQeBfhM1yqJmkb0gDdjRptRXJ4BGH2GGCTo7AerN9DXXektxLIUWlLPxthRbhgqRR5_cu1t965QgAmK03B3vObxq5xZcXWHCtQxi0xrzV9_KiCi7KUdYD5Wc0SP_idOi2srypK0hl4XQ77eLPaX5nbtKAHRVLMgULFJICOVQ0pb1exBGfKzyxjKqBh61hN3uPIm4GtMN0Z9sUf5TewGEM9_PHfpxMcW5LOI3o0LEyw9S03QeCRGo_59ZO0wLhdHhZADA9zmLr1Jo7WZb9fXVyiZrnv92azC33rW_Fe9p2ksKFrzFImg0la8HcmUOxQKtiDJKVDFdMRTI_QvhQ56VfH6mC3Jhtq0beP1cr2PZ_pZvjPqms9wZI7eD-3zjC_vHnJPpU5ww8lHdOtNlIHEMhh8_2ROxsT8AOfox0H0roYNbMUvCfqJWNveiKnQ6AycckHh9tp-a_krSM8pR4UIL8VaBMpqccxrRu_qHD_MGPu2zyVnTyIxCYIHxu0lIyNInGPQsrkrr_NKf3bCrJkSeXD8rs5q7WYU_9kFE5-_ZhDwXdDB4dHA7NwTTmyWx9zJUUSuApCTiQw8P4wePCuUQT7bFLCEv9l_gU9EVPT6NNOb8MeptpdZ8LptghNv-EflEKvxrVQdlphS8Fw2m00]--></g></svg>