<svg xmlns="http://www.w3.org/2000/svg" xmlns:xlink="http://www.w3.org/1999/xlink" version="1.1" data-diagram-type="ACTIVITY" style="width:551px;height:2029px;background:#FFFFFF;" width="551px" height="2029px" viewBox="0 0 551 2029" zoomAndPan="magnify" preserveAspectRatio="none" contentStyleType="text/css"><?plantuml 1.2026.7beta6?><defs/><g font-family="sans-serif" lengthAdjust="spacing"><g class="title" data-source-line="1"><text x="20" y="32.995" fill="#000" font-size="14" textLength="509.394" font-weight="700">TicketPlus - Admin/Organizer Event Creation Workflow (Activity)</text></g><ellipse cx="288.104" cy="62.297" rx="10" ry="10" fill="#222" style="stroke:#222;stroke-width:1;"/><rect x="219.835" y="92.297" width="136.537" height="33.969" fill="#F1F1F1" style="stroke:#181818;stroke-width:0.5;" rx="12.5" ry="12.5"/><text x="229.835" y="113.436" fill="#000" font-size="12" textLength="116.537">Log in as Organizer</text><polygon points="227.472,146.266,348.735,146.266,360.735,158.266,348.735,170.266,227.472,170.266,215.472,158.266,227.472,146.266" fill="#F1F1F1" style="stroke:#181818;stroke-width:0.5;stroke-linejoin:miter;stroke-miterlimit:10;"/><text x="227.472" y="162.074" fill="#000" font-size="11" textLength="121.263">Venue already exists?</text><text x="201.771" y="155.671" fill="#000" font-size="11" textLength="13.702">no</text><text x="360.735" y="155.671" fill="#000" font-size="11" textLength="19.008">yes</text><rect x="102.108" y="180.266" width="143.012" height="33.969" fill="#F1F1F1" style="stroke:#181818;stroke-width:0.5;" rx="12.5" ry="12.5"/><text x="112.108" y="201.404" fill="#000" font-size="12" textLength="123.012">Create venue profile</text><rect x="42.088" y="234.234" width="263.053" height="33.969" fill="#F1F1F1" style="stroke:#181818;stroke-width:0.5;" rx="12.5" ry="12.5"/><text x="52.088" y="255.373" fill="#000" font-size="12" textLength="243.053">Define sectors (VIP, regular, balcony, ...)</text><rect x="39.164" y="288.203" width="268.9" height="33.969" fill="#F1F1F1" style="stroke:#181818;stroke-width:0.5;" rx="12.5" ry="12.5"/><text x="49.164" y="309.342" fill="#000" font-size="12" textLength="248.9">Define rows and seat numbers per sector</text><rect x="107.812" y="342.172" width="131.604" height="33.969" fill="#F1F1F1" style="stroke:#181818;stroke-width:0.5;" rx="12.5" ry="12.5"/><text x="117.812" y="363.311" fill="#000" font-size="12" textLength="111.604">Save venue layout</text><rect x="328.064" y="180.266" width="149.059" height="33.969" fill="#F1F1F1" style="stroke:#181818;stroke-width:0.5;" rx="12.5" ry="12.5"/><text x="338.064" y="201.404" fill="#000" font-size="12" textLength="129.059">Select existing venue</text><polygon points="288.104,382.141,300.104,394.141,288.104,406.141,276.104,394.141,288.104,382.141" fill="#F1F1F1" style="stroke:#181818;stroke-width:0.5;stroke-linejoin:miter;stroke-miterlimit:10;"/><rect x="224.731" y="426.141" width="126.746" height="33.969" fill="#F1F1F1" style="stroke:#181818;stroke-width:0.5;" rx="12.5" ry="12.5"/><text x="234.731" y="447.279" fill="#000" font-size="12" textLength="106.746">Create new event</text><rect x="174.73" y="480.109" width="226.748" height="47.938" fill="#F1F1F1" style="stroke:#181818;stroke-width:0.5;" rx="12.5" ry="12.5"/><text x="184.73" y="501.248" fill="#000" font-size="12" textLength="119.672">Set event metadata</text><text x="184.73" y="515.217" fill="#000" font-size="12" textLength="206.748">(title, description, category, artist)</text><rect x="182.948" y="548.047" width="210.313" height="33.969" fill="#F1F1F1" style="stroke:#181818;stroke-width:0.5;" rx="12.5" ry="12.5"/><text x="192.948" y="569.186" fill="#000" font-size="12" textLength="190.313">Map event to venue + time slot</text><rect x="215.502" y="602.016" width="145.203" height="33.969" fill="#F1F1F1" style="stroke:#181818;stroke-width:0.5;" rx="12.5" ry="12.5"/><text x="225.502" y="623.154" fill="#000" font-size="12" textLength="125.203">Define pricing model</text><rect x="65.978" y="655.984" width="442.252" height="6" fill="#555" style="stroke:#555;stroke-width:1;" rx="2.5" ry="2.5"/><rect x="79.978" y="688.969" width="170.58" height="33.969" fill="#F1F1F1" style="stroke:#181818;stroke-width:0.5;" rx="12.5" ry="12.5"/><text x="89.978" y="710.107" fill="#000" font-size="12" textLength="150.58">Set base price per sector</text><rect x="278.558" y="681.984" width="217.672" height="47.938" fill="#F1F1F1" style="stroke:#181818;stroke-width:0.5;" rx="12.5" ry="12.5"/><text x="288.558" y="703.123" fill="#000" font-size="12" textLength="191.713">Configure dynamic pricing rules</text><text x="288.558" y="717.092" fill="#000" font-size="12" textLength="197.672">(demand/time-based multipliers)</text><rect x="65.978" y="749.922" width="442.252" height="6" fill="#555" style="stroke:#555;stroke-width:1;" rx="2.5" ry="2.5"/><rect x="191.616" y="775.922" width="192.975" height="33.969" fill="#F1F1F1" style="stroke:#181818;stroke-width:0.5;" rx="12.5" ry="12.5"/><text x="201.616" y="797.061" fill="#000" font-size="12" textLength="172.975">Set event status = PLANNED</text><rect x="238.342" y="878.293" width="99.523" height="33.969" fill="#F1F1F1" style="stroke:#181818;stroke-width:0.5;" rx="12.5" ry="12.5"/><text x="248.342" y="899.432" fill="#000" font-size="12" textLength="79.523">Save as draft</text><ellipse cx="288.104" cy="951.777" rx="11" ry="11" fill="none" style="stroke:#222;stroke-width:1;"/><ellipse cx="288.104" cy="951.777" rx="6" ry="6" fill="#222" style="stroke:#222;stroke-width:1;"/><polygon points="238.969,829.891,337.239,829.891,349.239,841.891,337.239,853.891,238.969,853.891,226.969,841.891,238.969,829.891" fill="#F1F1F1" style="stroke:#181818;stroke-width:0.5;stroke-linejoin:miter;stroke-miterlimit:10;"/><text x="292.104" y="864.101" fill="#000" font-size="11" textLength="13.702">no</text><text x="238.969" y="845.699" fill="#000" font-size="11" textLength="98.27">Ready to publish?</text><text x="349.239" y="839.296" fill="#000" font-size="11" textLength="19.008">yes</text><rect x="150.059" y="1004.777" width="276.09" height="47.938" fill="#F1F1F1" style="stroke:#181818;stroke-width:0.5;" rx="12.5" ry="12.5"/><text x="160.059" y="1025.916" fill="#000" font-size="12" textLength="157.887">Run pre-publish validation</text><text x="160.059" y="1039.885" fill="#000" font-size="12" textLength="256.09">(pricing completeness, seat map integrity)</text><rect x="210.671" y="1121.117" width="154.865" height="33.969" fill="#F1F1F1" style="stroke:#181818;stroke-width:0.5;" rx="12.5" ry="12.5"/><text x="220.671" y="1142.256" fill="#000" font-size="12" textLength="134.865">Show validation errors</text><ellipse cx="288.104" cy="1194.602" rx="11" ry="11" fill="none" style="stroke:#222;stroke-width:1;"/><ellipse cx="288.104" cy="1194.602" rx="6" ry="6" fill="#222" style="stroke:#222;stroke-width:1;"/><polygon points="236.383,1072.715,339.825,1072.715,351.825,1084.715,339.825,1096.715,236.383,1096.715,224.383,1084.715,236.383,1072.715" fill="#F1F1F1" style="stroke:#181818;stroke-width:0.5;stroke-linejoin:miter;stroke-miterlimit:10;"/><text x="292.104" y="1106.925" fill="#000" font-size="11" textLength="13.702">no</text><text x="236.383" y="1088.523" fill="#000" font-size="11" textLength="103.442">Validation passed?</text><text x="351.825" y="1082.121" fill="#000" font-size="11" textLength="19.008">yes</text><rect x="192.812" y="1247.602" width="190.584" height="33.969" fill="#F1F1F1" style="stroke:#181818;stroke-width:0.5;" rx="12.5" ry="12.5"/><text x="202.812" y="1268.74" fill="#000" font-size="12" textLength="170.584">Set event status = ON_SALE</text><rect x="185.64" y="1301.57" width="204.928" height="33.969" fill="#F1F1F1" style="stroke:#181818;stroke-width:0.5;" rx="12.5" ry="12.5"/><text x="195.64" y="1322.709" fill="#000" font-size="12" textLength="184.928">Publish event to Event Catalog</text><rect x="167.573" y="1355.539" width="241.063" height="33.969" fill="#F1F1F1" style="stroke:#181818;stroke-width:0.5;" rx="12.5" ry="12.5"/><text x="177.573" y="1376.678" fill="#000" font-size="12" textLength="221.063">Event becomes searchable/bookable</text><rect x="153.217" y="1457.91" width="269.773" height="33.969" fill="#F1F1F1" style="stroke:#181818;stroke-width:0.5;" rx="12.5" ry="12.5"/><text x="163.217" y="1479.049" fill="#000" font-size="12" textLength="249.773">Enable virtual waiting room for this event</text><polygon points="220.898,1409.508,355.31,1409.508,367.31,1421.508,355.31,1433.508,220.898,1433.508,208.898,1421.508,220.898,1409.508" fill="#F1F1F1" style="stroke:#181818;stroke-width:0.5;stroke-linejoin:miter;stroke-miterlimit:10;"/><text x="292.104" y="1443.718" fill="#000" font-size="11" textLength="19.008">yes</text><text x="220.898" y="1425.316" fill="#000" font-size="11" textLength="134.412">High demand expected?</text><text x="367.31" y="1418.914" fill="#000" font-size="11" textLength="13.702">no</text><polygon points="288.104,1511.879,300.104,1523.879,288.104,1535.879,276.104,1523.879,288.104,1511.879" fill="#F1F1F1" style="stroke:#181818;stroke-width:0.5;stroke-linejoin:miter;stroke-miterlimit:10;"/><rect x="191.865" y="1555.879" width="192.477" height="33.969" fill="#F1F1F1" style="stroke:#181818;stroke-width:0.5;" rx="12.5" ry="12.5"/><text x="201.865" y="1577.018" fill="#000" font-size="12" textLength="172.477">Monitor live sales dashboard</text><rect x="168.144" y="1653.848" width="239.92" height="47.938" fill="#F1F1F1" style="stroke:#181818;stroke-width:0.5;" rx="12.5" ry="12.5"/><text x="178.144" y="1674.986" fill="#000" font-size="12" textLength="215.889">Organizer reviews real-time metrics</text><text x="178.144" y="1688.955" fill="#000" font-size="12" textLength="219.92">(sales, revenue, remaining capacity)</text><rect x="184.207" y="1770.188" width="207.793" height="33.969" fill="#F1F1F1" style="stroke:#181818;stroke-width:0.5;" rx="12.5" ry="12.5"/><text x="194.207" y="1791.326" fill="#000" font-size="12" textLength="187.793">Update pricing / seat allocation</text><polygon points="214.995,1721.785,361.212,1721.785,373.212,1733.785,361.212,1745.785,214.995,1745.785,202.995,1733.785,214.995,1721.785" fill="#F1F1F1" style="stroke:#181818;stroke-width:0.5;stroke-linejoin:miter;stroke-miterlimit:10;"/><text x="292.104" y="1755.996" fill="#000" font-size="11" textLength="19.008">yes</text><text x="214.995" y="1737.593" fill="#000" font-size="11" textLength="146.217">Adjust pricing or capacity?</text><polygon points="288.104,1824.156,300.104,1836.156,288.104,1848.156,276.104,1836.156,288.104,1824.156" fill="#F1F1F1" style="stroke:#181818;stroke-width:0.5;stroke-linejoin:miter;stroke-miterlimit:10;"/><polygon points="288.104,1609.848,300.104,1621.848,288.104,1633.848,276.104,1621.848,288.104,1609.848" fill="#F1F1F1" style="stroke:#181818;stroke-width:0.5;stroke-linejoin:miter;stroke-miterlimit:10;"/><polygon points="236.579,1868.156,339.629,1868.156,351.629,1880.156,339.629,1892.156,236.579,1892.156,224.579,1880.156,236.579,1868.156" fill="#F1F1F1" style="stroke:#181818;stroke-width:0.5;stroke-linejoin:miter;stroke-miterlimit:10;"/><text x="236.579" y="1883.964" fill="#000" font-size="11" textLength="103.05">Event still on sale?</text><text x="351.629" y="1877.562" fill="#000" font-size="11" textLength="19.008">yes</text><rect x="146.01" y="1933.555" width="284.188" height="33.969" fill="#F1F1F1" style="stroke:#181818;stroke-width:0.5;" rx="12.5" ry="12.5"/><text x="156.01" y="1954.694" fill="#000" font-size="12" textLength="264.188">Set event status = SOLD_OUT or completed</text><ellipse cx="288.104" cy="1998.524" rx="11" ry="11" fill="none" style="stroke:#222;stroke-width:1;"/><ellipse cx="288.104" cy="1998.524" rx="6" ry="6" fill="#222" style="stroke:#222;stroke-width:1;"/><line x1="288.104" y1="72.297" x2="288.104" y2="92.297" style="stroke:#181818;stroke-width:1;"/><polygon points="284.104,82.297,288.104,92.297,292.104,82.297,288.104,86.297" fill="#181818" style="stroke:#181818;stroke-width:1;stroke-linejoin:miter;stroke-miterlimit:10;"/><line x1="173.614" y1="214.234" x2="173.614" y2="234.234" style="stroke:#181818;stroke-width:1;"/><polygon points="169.614,224.234,173.614,234.234,177.614,224.234,173.614,228.234" fill="#181818" style="stroke:#181818;stroke-width:1;stroke-linejoin:miter;stroke-miterlimit:10;"/><line x1="173.614" y1="268.203" x2="173.614" y2="288.203" style="stroke:#181818;stroke-width:1;"/><polygon points="169.614,278.203,173.614,288.203,177.614,278.203,173.614,282.203" fill="#181818" style="stroke:#181818;stroke-width:1;stroke-linejoin:miter;stroke-miterlimit:10;"/><line x1="173.614" y1="322.172" x2="173.614" y2="342.172" style="stroke:#181818;stroke-width:1;"/><polygon points="169.614,332.172,173.614,342.172,177.614,332.172,173.614,336.172" fill="#181818" style="stroke:#181818;stroke-width:1;stroke-linejoin:miter;stroke-miterlimit:10;"/><line x1="215.472" y1="158.266" x2="173.614" y2="158.266" style="stroke:#181818;stroke-width:1;"/><line x1="173.614" y1="158.266" x2="173.614" y2="180.266" style="stroke:#181818;stroke-width:1;"/><polygon points="169.614,170.266,173.614,180.266,177.614,170.266,173.614,174.266" fill="#181818" style="stroke:#181818;stroke-width:1;stroke-linejoin:miter;stroke-miterlimit:10;"/><line x1="360.735" y1="158.266" x2="402.594" y2="158.266" style="stroke:#181818;stroke-width:1;"/><line x1="402.594" y1="158.266" x2="402.594" y2="180.266" style="stroke:#181818;stroke-width:1;"/><polygon points="398.594,170.266,402.594,180.266,406.594,170.266,402.594,174.266" fill="#181818" style="stroke:#181818;stroke-width:1;stroke-linejoin:miter;stroke-miterlimit:10;"/><line x1="173.614" y1="376.141" x2="173.614" y2="394.141" style="stroke:#181818;stroke-width:1;"/><line x1="173.614" y1="394.141" x2="276.104" y2="394.141" style="stroke:#181818;stroke-width:1;"/><polygon points="266.104,390.141,276.104,394.141,266.104,398.141,270.104,394.141" fill="#181818" style="stroke:#181818;stroke-width:1;stroke-linejoin:miter;stroke-miterlimit:10;"/><line x1="402.594" y1="214.234" x2="402.594" y2="394.141" style="stroke:#181818;stroke-width:1;"/><line x1="402.594" y1="394.141" x2="300.104" y2="394.141" style="stroke:#181818;stroke-width:1;"/><polygon points="310.104,390.141,300.104,394.141,310.104,398.141,306.104,394.141" fill="#181818" style="stroke:#181818;stroke-width:1;stroke-linejoin:miter;stroke-miterlimit:10;"/><line x1="288.104" y1="126.266" x2="288.104" y2="146.266" style="stroke:#181818;stroke-width:1;"/><polygon points="284.104,136.266,288.104,146.266,292.104,136.266,288.104,140.266" fill="#181818" style="stroke:#181818;stroke-width:1;stroke-linejoin:miter;stroke-miterlimit:10;"/><line x1="288.104" y1="406.141" x2="288.104" y2="426.141" style="stroke:#181818;stroke-width:1;"/><polygon points="284.104,416.141,288.104,426.141,292.104,416.141,288.104,420.141" fill="#181818" style="stroke:#181818;stroke-width:1;stroke-linejoin:miter;stroke-miterlimit:10;"/><line x1="288.104" y1="460.109" x2="288.104" y2="480.109" style="stroke:#181818;stroke-width:1;"/><polygon points="284.104,470.109,288.104,480.109,292.104,470.109,288.104,474.109" fill="#181818" style="stroke:#181818;stroke-width:1;stroke-linejoin:miter;stroke-miterlimit:10;"/><line x1="288.104" y1="528.047" x2="288.104" y2="548.047" style="stroke:#181818;stroke-width:1;"/><polygon points="284.104,538.047,288.104,548.047,292.104,538.047,288.104,542.047" fill="#181818" style="stroke:#181818;stroke-width:1;stroke-linejoin:miter;stroke-miterlimit:10;"/><line x1="288.104" y1="582.016" x2="288.104" y2="602.016" style="stroke:#181818;stroke-width:1;"/><polygon points="284.104,592.016,288.104,602.016,292.104,592.016,288.104,596.016" fill="#181818" style="stroke:#181818;stroke-width:1;stroke-linejoin:miter;stroke-miterlimit:10;"/><line x1="165.268" y1="661.984" x2="165.268" y2="688.969" style="stroke:#181818;stroke-width:1;"/><polygon points="161.268,678.969,165.268,688.969,169.268,678.969,165.268,682.969" fill="#181818" style="stroke:#181818;stroke-width:1;stroke-linejoin:miter;stroke-miterlimit:10;"/><line x1="387.394" y1="661.984" x2="387.394" y2="681.984" style="stroke:#181818;stroke-width:1;"/><polygon points="383.394,671.984,387.394,681.984,391.394,671.984,387.394,675.984" fill="#181818" style="stroke:#181818;stroke-width:1;stroke-linejoin:miter;stroke-miterlimit:10;"/><line x1="165.268" y1="722.938" x2="165.268" y2="749.922" style="stroke:#181818;stroke-width:1;"/><polygon points="161.268,739.922,165.268,749.922,169.268,739.922,165.268,743.922" fill="#181818" style="stroke:#181818;stroke-width:1;stroke-linejoin:miter;stroke-miterlimit:10;"/><line x1="387.394" y1="729.922" x2="387.394" y2="749.922" style="stroke:#181818;stroke-width:1;"/><polygon points="383.394,739.922,387.394,749.922,391.394,739.922,387.394,743.922" fill="#181818" style="stroke:#181818;stroke-width:1;stroke-linejoin:miter;stroke-miterlimit:10;"/><line x1="288.104" y1="635.984" x2="288.104" y2="655.984" style="stroke:#181818;stroke-width:1;"/><polygon points="284.104,645.984,288.104,655.984,292.104,645.984,288.104,649.984" fill="#181818" style="stroke:#181818;stroke-width:1;stroke-linejoin:miter;stroke-miterlimit:10;"/><line x1="288.104" y1="755.922" x2="288.104" y2="775.922" style="stroke:#181818;stroke-width:1;"/><polygon points="284.104,765.922,288.104,775.922,292.104,765.922,288.104,769.922" fill="#181818" style="stroke:#181818;stroke-width:1;stroke-linejoin:miter;stroke-miterlimit:10;"/><line x1="288.104" y1="912.262" x2="288.104" y2="940.777" style="stroke:#181818;stroke-width:1;"/><polygon points="284.104,930.777,288.104,940.777,292.104,930.777,288.104,934.777" fill="#181818" style="stroke:#181818;stroke-width:1;stroke-linejoin:miter;stroke-miterlimit:10;"/><line x1="288.104" y1="853.891" x2="288.104" y2="878.293" style="stroke:#181818;stroke-width:1;"/><polygon points="284.104,868.293,288.104,878.293,292.104,868.293,288.104,872.293" fill="#181818" style="stroke:#181818;stroke-width:1;stroke-linejoin:miter;stroke-miterlimit:10;"/><line x1="349.239" y1="841.891" x2="361.239" y2="841.891" style="stroke:#181818;stroke-width:1;"/><polygon points="357.239,910.777,361.239,920.777,365.239,910.777,361.239,914.777" fill="#181818" style="stroke:#181818;stroke-width:1;stroke-linejoin:miter;stroke-miterlimit:10;"/><line x1="361.239" y1="841.891" x2="361.239" y2="984.777" style="stroke:#181818;stroke-width:1;"/><line x1="361.239" y1="984.777" x2="288.104" y2="984.777" style="stroke:#181818;stroke-width:1;"/><line x1="288.104" y1="984.777" x2="288.104" y2="1004.777" style="stroke:#181818;stroke-width:1;"/><polygon points="284.104,994.777,288.104,1004.777,292.104,994.777,288.104,998.777" fill="#181818" style="stroke:#181818;stroke-width:1;stroke-linejoin:miter;stroke-miterlimit:10;"/><line x1="288.104" y1="809.891" x2="288.104" y2="829.891" style="stroke:#181818;stroke-width:1;"/><polygon points="284.104,819.891,288.104,829.891,292.104,819.891,288.104,823.891" fill="#181818" style="stroke:#181818;stroke-width:1;stroke-linejoin:miter;stroke-miterlimit:10;"/><line x1="288.104" y1="1155.086" x2="288.104" y2="1183.602" style="stroke:#181818;stroke-width:1;"/><polygon points="284.104,1173.602,288.104,1183.602,292.104,1173.602,288.104,1177.602" fill="#181818" style="stroke:#181818;stroke-width:1;stroke-linejoin:miter;stroke-miterlimit:10;"/><line x1="288.104" y1="1096.715" x2="288.104" y2="1121.117" style="stroke:#181818;stroke-width:1;"/><polygon points="284.104,1111.117,288.104,1121.117,292.104,1111.117,288.104,1115.117" fill="#181818" style="stroke:#181818;stroke-width:1;stroke-linejoin:miter;stroke-miterlimit:10;"/><line x1="351.825" y1="1084.715" x2="375.536" y2="1084.715" style="stroke:#181818;stroke-width:1;"/><polygon points="371.536,1153.602,375.536,1163.602,379.536,1153.602,375.536,1157.602" fill="#181818" style="stroke:#181818;stroke-width:1;stroke-linejoin:miter;stroke-miterlimit:10;"/><line x1="375.536" y1="1084.715" x2="375.536" y2="1227.602" style="stroke:#181818;stroke-width:1;"/><line x1="375.536" y1="1227.602" x2="288.104" y2="1227.602" style="stroke:#181818;stroke-width:1;"/><line x1="288.104" y1="1227.602" x2="288.104" y2="1247.602" style="stroke:#181818;stroke-width:1;"/><polygon points="284.104,1237.602,288.104,1247.602,292.104,1237.602,288.104,1241.602" fill="#181818" style="stroke:#181818;stroke-width:1;stroke-linejoin:miter;stroke-miterlimit:10;"/><line x1="288.104" y1="1052.715" x2="288.104" y2="1072.715" style="stroke:#181818;stroke-width:1;"/><polygon points="284.104,1062.715,288.104,1072.715,292.104,1062.715,288.104,1066.715" fill="#181818" style="stroke:#181818;stroke-width:1;stroke-linejoin:miter;stroke-miterlimit:10;"/><line x1="288.104" y1="1281.57" x2="288.104" y2="1301.57" style="stroke:#181818;stroke-width:1;"/><polygon points="284.104,1291.57,288.104,1301.57,292.104,1291.57,288.104,1295.57" fill="#181818" style="stroke:#181818;stroke-width:1;stroke-linejoin:miter;stroke-miterlimit:10;"/><line x1="288.104" y1="1335.539" x2="288.104" y2="1355.539" style="stroke:#181818;stroke-width:1;"/><polygon points="284.104,1345.539,288.104,1355.539,292.104,1345.539,288.104,1349.539" fill="#181818" style="stroke:#181818;stroke-width:1;stroke-linejoin:miter;stroke-miterlimit:10;"/><line x1="288.104" y1="1433.508" x2="288.104" y2="1457.91" style="stroke:#181818;stroke-width:1;"/><polygon points="284.104,1447.91,288.104,1457.91,292.104,1447.91,288.104,1451.91" fill="#181818" style="stroke:#181818;stroke-width:1;stroke-linejoin:miter;stroke-miterlimit:10;"/><line x1="367.31" y1="1421.508" x2="432.99" y2="1421.508" style="stroke:#181818;stroke-width:1;"/><polygon points="428.99,1464.895,432.99,1474.895,436.99,1464.895,432.99,1468.895" fill="#181818" style="stroke:#181818;stroke-width:1;stroke-linejoin:miter;stroke-miterlimit:10;"/><line x1="432.99" y1="1421.508" x2="432.99" y2="1523.879" style="stroke:#181818;stroke-width:1;"/><line x1="432.99" y1="1523.879" x2="300.104" y2="1523.879" style="stroke:#181818;stroke-width:1;"/><polygon points="310.104,1519.879,300.104,1523.879,310.104,1527.879,306.104,1523.879" fill="#181818" style="stroke:#181818;stroke-width:1;stroke-linejoin:miter;stroke-miterlimit:10;"/><line x1="288.104" y1="1491.879" x2="288.104" y2="1511.879" style="stroke:#181818;stroke-width:1;"/><polygon points="284.104,1501.879,288.104,1511.879,292.104,1501.879,288.104,1505.879" fill="#181818" style="stroke:#181818;stroke-width:1;stroke-linejoin:miter;stroke-miterlimit:10;"/><line x1="288.104" y1="1389.508" x2="288.104" y2="1409.508" style="stroke:#181818;stroke-width:1;"/><polygon points="284.104,1399.508,288.104,1409.508,292.104,1399.508,288.104,1403.508" fill="#181818" style="stroke:#181818;stroke-width:1;stroke-linejoin:miter;stroke-miterlimit:10;"/><line x1="288.104" y1="1535.879" x2="288.104" y2="1555.879" style="stroke:#181818;stroke-width:1;"/><polygon points="284.104,1545.879,288.104,1555.879,292.104,1545.879,288.104,1549.879" fill="#181818" style="stroke:#181818;stroke-width:1;stroke-linejoin:miter;stroke-miterlimit:10;"/><line x1="288.104" y1="1745.785" x2="288.104" y2="1770.188" style="stroke:#181818;stroke-width:1;"/><polygon points="284.104,1760.188,288.104,1770.188,292.104,1760.188,288.104,1764.188" fill="#181818" style="stroke:#181818;stroke-width:1;stroke-linejoin:miter;stroke-miterlimit:10;"/><line x1="373.212" y1="1733.785" x2="402" y2="1733.785" style="stroke:#181818;stroke-width:1;"/><polygon points="398,1777.172,402,1787.172,406,1777.172,402,1781.172" fill="#181818" style="stroke:#181818;stroke-width:1;stroke-linejoin:miter;stroke-miterlimit:10;"/><line x1="402" y1="1733.785" x2="402" y2="1836.156" style="stroke:#181818;stroke-width:1;"/><line x1="402" y1="1836.156" x2="300.104" y2="1836.156" style="stroke:#181818;stroke-width:1;"/><polygon points="310.104,1832.156,300.104,1836.156,310.104,1840.156,306.104,1836.156" fill="#181818" style="stroke:#181818;stroke-width:1;stroke-linejoin:miter;stroke-miterlimit:10;"/><line x1="288.104" y1="1804.156" x2="288.104" y2="1824.156" style="stroke:#181818;stroke-width:1;"/><polygon points="284.104,1814.156,288.104,1824.156,292.104,1814.156,288.104,1818.156" fill="#181818" style="stroke:#181818;stroke-width:1;stroke-linejoin:miter;stroke-miterlimit:10;"/><line x1="288.104" y1="1701.785" x2="288.104" y2="1721.785" style="stroke:#181818;stroke-width:1;"/><polygon points="284.104,1711.785,288.104,1721.785,292.104,1711.785,288.104,1715.785" fill="#181818" style="stroke:#181818;stroke-width:1;stroke-linejoin:miter;stroke-miterlimit:10;"/><line x1="288.104" y1="1633.848" x2="288.104" y2="1653.848" style="stroke:#181818;stroke-width:1;"/><polygon points="284.104,1643.848,288.104,1653.848,292.104,1643.848,288.104,1647.848" fill="#181818" style="stroke:#181818;stroke-width:1;stroke-linejoin:miter;stroke-miterlimit:10;"/><line x1="351.629" y1="1880.156" x2="426" y2="1880.156" style="stroke:#181818;stroke-width:1;"/><polygon points="422,1755.703,426,1745.703,430,1755.703,426,1751.703" fill="#181818" style="stroke:#181818;stroke-width:1;stroke-linejoin:miter;stroke-miterlimit:10;"/><line x1="426" y1="1621.848" x2="426" y2="1880.156" style="stroke:#181818;stroke-width:1;"/><line x1="426" y1="1621.848" x2="300.104" y2="1621.848" style="stroke:#181818;stroke-width:1;"/><polygon points="310.104,1617.848,300.104,1621.848,310.104,1625.848,306.104,1621.848" fill="#181818" style="stroke:#181818;stroke-width:1;stroke-linejoin:miter;stroke-miterlimit:10;"/><line x1="288.104" y1="1848.156" x2="288.104" y2="1868.156" style="stroke:#181818;stroke-width:1;"/><polygon points="284.104,1858.156,288.104,1868.156,292.104,1858.156,288.104,1862.156" fill="#181818" style="stroke:#181818;stroke-width:1;stroke-linejoin:miter;stroke-miterlimit:10;"/><line x1="288.104" y1="1589.848" x2="288.104" y2="1609.848" style="stroke:#181818;stroke-width:1;"/><polygon points="284.104,1599.848,288.104,1609.848,292.104,1599.848,288.104,1603.848" fill="#181818" style="stroke:#181818;stroke-width:1;stroke-linejoin:miter;stroke-miterlimit:10;"/><line x1="288.104" y1="1892.156" x2="288.104" y2="1933.555" style="stroke:#181818;stroke-width:1;"/><polygon points="284.104,1923.555,288.104,1933.555,292.104,1923.555,288.104,1927.555" fill="#181818" style="stroke:#181818;stroke-width:1;stroke-linejoin:miter;stroke-miterlimit:10;"/><text x="292.104" y="1913.461" fill="#000" font-size="11" textLength="13.702">no</text><line x1="288.104" y1="1967.524" x2="288.104" y2="1987.524" style="stroke:#181818;stroke-width:1;"/><polygon points="284.104,1977.524,288.104,1987.524,292.104,1977.524,288.104,1981.524" fill="#181818" style="stroke:#181818;stroke-width:1;stroke-linejoin:miter;stroke-miterlimit:10;"/><?plantuml-src VLHBRzf04BxxLymHL0ZteBP23L8haO12qbuYHODtRAPPxrgxQoZzzPtTjGbDezviUHxVQnmuQ887BbyeR7JdOGeBrR2PhLsDXd-JW-M1J80lZZ2mDV33kfTAsoEC5cNW0uVJk2XyG1UAwvMjWGsWXtFxl2YuWj5tCXq1QfcYJa2_s0V_UGnXJmP6neuBWEkqWk2GIbjdAzOqZnzkg693uAaCrdaPzcqp0KTrfz5DO8UwjEOqWQkhg_5blRD73sYKD680qpKxakvMAEL9gNQBXs6bnfFjmhmWxGb69_89rPQqL6V8REfSAqL6SLKK0sX3Hw0erBoGZf2VeQ602WC-cL68Gaz0aIyTjr792PJIMLidq4Kz6I_ehs-nxPk3xN5zWC2DqDTMfXS3kzPn6V4qLf6U5vNOak46KSJdx_GNsrW2M2ERfBOr5TUT8r0dWmsNvuckq-G5ig96r9l5vTCuKa7JwS2jPj5nd2I0jFQIiYGXI8m-mcQrkBjRtlJ-toVVXLBRxJJx_LllamsI6-Mm2j4O7snxwSIWztrd12XD-pbmGCqg9LCG3mnAsxIQ0XdoVfBjRqHNDgAtYuaTKdbkXXQzCFm7rbw2_he2o3b9uF_mlQF4-kvvkrWjnTnD3_fiS7zR4X5jQod8xpiI0kGZS5VkSQTfjhFs9JxqmBzolOViZoIp5OCli0_9NPhO0GTseKCDH-GKO6Tj4tsJQlP3Q3EJo7eWSciDIsn0ipZZKI812lr-Pz4fGU6e5LdZcjS_XQC3azoSd8IUfipA0OWbCKnfGhpQbEduq4WGardOOfbD0OZa5kfdvyCvZe9XA7bBKRO_jYhUtr0yoswZrhPCbiMXcL963CUz_5PWjEmzOgr1Z8tmPBe8acTFFnaxVz_ExNfryxn-V4Z0-g298Z4GVm00?></g></svg>