<svg xmlns="http://www.w3.org/2000/svg" xmlns:xlink="http://www.w3.org/1999/xlink" contentStyleType="text/css" data-diagram-type="DESCRIPTION" height="853px" preserveAspectRatio="none" style="width:1715px;height:853px;background:#FFFFFF;" version="1.1" viewBox="0 0 1715 853" width="1715px" zoomAndPan="magnify"><title>TicketPlus - Component Diagram (Bounded Contexts)</title><defs/><g><g class="title" data-source-line="2"><text fill="#000000" font-family="sans-serif" font-size="14" font-weight="bold" lengthAdjust="spacing" textLength="370.8586" x="668.3207" y="24.9659">TicketPlus - Component Diagram (Bounded Contexts)</text></g><!--cluster API Gateway Layer--><g class="cluster" data-entity="API Gateway Layer" data-source-line="9" data-uid="ent0004" id="cluster_API Gateway Layer"><path d="M1023,152.0679 L1155.4875,152.0679 A3.75,3.75 0 0 1 1157.9875,154.5679 L1164.9875,177.1358 L1246,177.1358 A2.5,2.5 0 0 1 1248.5,179.6358 L1248.5,267.5679 A2.5,2.5 0 0 1 1246,270.0679 L1023,270.0679 A2.5,2.5 0 0 1 1020.5,267.5679 L1020.5,154.5679 A2.5,2.5 0 0 1 1023,152.0679" fill="none" style="stroke:#000000;stroke-width:1.5;"/><line style="stroke:#000000;stroke-width:1.5;" x1="1020.5" x2="1164.9875" y1="177.1358" y2="177.1358"/><text fill="#000000" font-family="sans-serif" font-size="14" font-weight="bold" lengthAdjust="spacing" textLength="131.4875" x="1024.5" y="169.0339">API Gateway Layer</text></g><!--cluster Identity & Access Domain--><g class="cluster" data-entity="Identity . Access Domain" data-source-line="13" data-uid="ent0006" id="cluster_Identity . Access Domain"><path d="M1253,309.0679 L1432.5273,309.0679 A3.75,3.75 0 0 1 1435.0273,311.5679 L1442.0273,334.1358 L1442,334.1358 A2.5,2.5 0 0 1 1444.5,336.6358 L1444.5,545.0679 A2.5,2.5 0 0 1 1442,547.5679 L1253,547.5679 A2.5,2.5 0 0 1 1250.5,545.0679 L1250.5,311.5679 A2.5,2.5 0 0 1 1253,309.0679" fill="none" style="stroke:#000000;stroke-width:1.5;"/><line style="stroke:#000000;stroke-width:1.5;" x1="1250.5" x2="1442.0273" y1="334.1358" y2="334.1358"/><text fill="#000000" font-family="sans-serif" font-size="14" font-weight="bold" lengthAdjust="spacing" textLength="178.5273" x="1254.5" y="326.0339">Identity &amp; Access Domain</text></g><!--cluster Event Catalog & Discovery Domain--><g class="cluster" data-entity="Event Catalog . Discovery Domain" data-source-line="18" data-uid="ent0009" id="cluster_Event Catalog . Discovery Domain"><path d="M1455,309.0679 L1696.8271,309.0679 A3.75,3.75 0 0 1 1699.3271,311.5679 L1706.3271,334.1358 L1706,334.1358 A2.5,2.5 0 0 1 1708.5,336.6358 L1708.5,545.0679 A2.5,2.5 0 0 1 1706,547.5679 L1455,547.5679 A2.5,2.5 0 0 1 1452.5,545.0679 L1452.5,311.5679 A2.5,2.5 0 0 1 1455,309.0679" fill="none" style="stroke:#000000;stroke-width:1.5;"/><line style="stroke:#000000;stroke-width:1.5;" x1="1452.5" x2="1706.3271" y1="334.1358" y2="334.1358"/><text fill="#000000" font-family="sans-serif" font-size="14" font-weight="bold" lengthAdjust="spacing" textLength="240.8271" x="1456.5" y="326.0339">Event Catalog &amp; Discovery Domain</text></g><!--cluster Reservation Engine & Inventory Domain--><g class="cluster" data-entity="Reservation Engine . Inventory Domain" data-source-line="24" data-uid="ent0013" id="cluster_Reservation Engine . Inventory Domain"><path d="M949,318.5679 L1230.279,318.5679 A3.75,3.75 0 0 1 1232.779,321.0679 L1239.779,343.6358 L1240,343.6358 A2.5,2.5 0 0 1 1242.5,346.1358 L1242.5,722.0679 A2.5,2.5 0 0 1 1240,724.5679 L949,724.5679 A2.5,2.5 0 0 1 946.5,722.0679 L946.5,321.0679 A2.5,2.5 0 0 1 949,318.5679" fill="none" style="stroke:#000000;stroke-width:1.5;"/><line style="stroke:#000000;stroke-width:1.5;" x1="946.5" x2="1239.779" y1="343.6358" y2="343.6358"/><text fill="#000000" font-family="sans-serif" font-size="14" font-weight="bold" lengthAdjust="spacing" textLength="280.279" x="950.5" y="335.5339">Reservation Engine &amp; Inventory Domain</text></g><!--cluster Billing & Checkout Domain--><g class="cluster" data-entity="Billing . Checkout Domain" data-source-line="31" data-uid="ent0018" id="cluster_Billing . Checkout Domain"><path d="M496,309.0679 L683.8713,309.0679 A3.75,3.75 0 0 1 686.3713,311.5679 L693.3713,334.1358 L693,334.1358 A2.5,2.5 0 0 1 695.5,336.6358 L695.5,545.0679 A2.5,2.5 0 0 1 693,547.5679 L496,547.5679 A2.5,2.5 0 0 1 493.5,545.0679 L493.5,311.5679 A2.5,2.5 0 0 1 496,309.0679" fill="none" style="stroke:#000000;stroke-width:1.5;"/><line style="stroke:#000000;stroke-width:1.5;" x1="493.5" x2="693.3713" y1="334.1358" y2="334.1358"/><text fill="#000000" font-family="sans-serif" font-size="14" font-weight="bold" lengthAdjust="spacing" textLength="186.8713" x="497.5" y="326.0339">Billing &amp; Checkout Domain</text></g><!--cluster Ticketing Domain--><g class="cluster" data-entity="Ticketing Domain" data-source-line="36" data-uid="ent0021" id="cluster_Ticketing Domain"><path d="M464,602.0679 L588.2695,602.0679 A3.75,3.75 0 0 1 590.7695,604.5679 L597.7695,627.1358 L681,627.1358 A2.5,2.5 0 0 1 683.5,629.6358 L683.5,837.0679 A2.5,2.5 0 0 1 681,839.5679 L464,839.5679 A2.5,2.5 0 0 1 461.5,837.0679 L461.5,604.5679 A2.5,2.5 0 0 1 464,602.0679" fill="none" style="stroke:#000000;stroke-width:1.5;"/><line style="stroke:#000000;stroke-width:1.5;" x1="461.5" x2="597.7695" y1="627.1358" y2="627.1358"/><text fill="#000000" font-family="sans-serif" font-size="14" font-weight="bold" lengthAdjust="spacing" textLength="123.2695" x="465.5" y="619.0339">Ticketing Domain</text></g><!--cluster Notification & Messaging Domain--><g class="cluster" data-entity="Notification . Messaging Domain" data-source-line="41" data-uid="ent0024" id="cluster_Notification . Messaging Domain"><path d="M176,611.5679 L412.1011,611.5679 A3.75,3.75 0 0 1 414.6011,614.0679 L421.6011,636.6358 L422,636.6358 A2.5,2.5 0 0 1 424.5,639.1358 L424.5,837.0679 A2.5,2.5 0 0 1 422,839.5679 L176,839.5679 A2.5,2.5 0 0 1 173.5,837.0679 L173.5,614.0679 A2.5,2.5 0 0 1 176,611.5679" fill="none" style="stroke:#000000;stroke-width:1.5;"/><line style="stroke:#000000;stroke-width:1.5;" x1="173.5" x2="421.6011" y1="636.6358" y2="636.6358"/><text fill="#000000" font-family="sans-serif" font-size="14" font-weight="bold" lengthAdjust="spacing" textLength="235.1011" x="177.5" y="628.5339">Notification &amp; Messaging Domain</text></g><!--entity Buyer--><g class="entity" data-entity="Buyer" data-source-line="6" data-uid="ent0002" id="entity_Buyer"><ellipse cx="310.2849" cy="484.5679" fill="#F1F1F1" rx="8" ry="8" style="stroke:#181818;stroke-width:0.5;"/><path d="M310.2849,492.5679 L310.2849,519.5679 M297.2849,500.5679 L323.2849,500.5679 M310.2849,519.5679 L297.2849,534.5679 M310.2849,519.5679 L323.2849,534.5679" fill="none" style="stroke:#181818;stroke-width:0.5;"/><text fill="#000000" font-family="sans-serif" font-size="14" lengthAdjust="spacing" textLength="38.5698" x="291" y="551.0339">Buyer</text></g><!--entity Organizer--><g class="entity" data-entity="Organizer" data-source-line="7" data-uid="ent0003" id="entity_Organizer"><ellipse cx="1134.3509" cy="54.5679" fill="#F1F1F1" rx="8" ry="8" style="stroke:#181818;stroke-width:0.5;"/><path d="M1134.3509,62.5679 L1134.3509,89.5679 M1121.3509,70.5679 L1147.3509,70.5679 M1134.3509,89.5679 L1121.3509,104.5679 M1134.3509,89.5679 L1147.3509,104.5679" fill="none" style="stroke:#181818;stroke-width:0.5;"/><text fill="#000000" font-family="sans-serif" font-size="14" lengthAdjust="spacing" textLength="65.7018" x="1101.5" y="121.0339">Organizer</text></g><!--entity Broker--><g class="entity" data-entity="Broker" data-source-line="46" data-uid="ent0027" id="entity_Broker"><path d="M356.5238,491.7288 C359.514,483.6357 364.0068,483.4063 369.8682,488.9112 C373.1754,483.1804 377.7728,483.1834 382.0388,487.7815 C384.6307,481.7539 389.3265,481.8755 392.6844,487.0538 C395.6226,480.4124 402.0563,481.2871 405.6628,486.3104 C408.6756,481.5589 412.3566,480.0331 416.3618,485.2448 C420.3994,478.9812 426.119,480.1088 429.3104,486.1363 C434.0179,480.349 438.0966,479.6178 442.1399,486.7937 C446.3867,481.4644 450.8305,483.126 452.9359,488.8796 C456.7655,482.7279 462.6051,484.3732 465.0292,490.2881 C468.6271,483.9778 475.3466,483.7625 478.7094,490.534 C486.3093,492.5579 488.2514,498.1484 482.1708,503.7542 C489.4882,505.1828 491.9956,512.019 486.7358,517.5956 C491.1173,524.2191 489.1514,527.8824 481.5659,529.1526 C486.4338,535.8076 484.1497,541.3829 476.5395,543.7375 C473.6691,549.7945 467.8709,550.4981 464.6048,544.1172 C462.0774,548.8682 456.9108,549.43 453.8355,544.7423 C450.5661,551.1715 446.1262,551.2414 441.8203,545.7905 C439.2476,551.9126 433.6072,551.2729 430.1449,546.7678 C427.0334,552.3892 420.8214,553.7131 417.1302,547.3998 C413.1084,552.6339 408.1948,552.7735 405.5603,546.0567 C401.0483,552.7663 396.9489,551.7298 392.4981,545.9924 C388.5206,550.6295 384.363,550.7514 381.815,544.5796 C377.3285,551.4007 372.114,550.0395 368.1267,544.0464 C363.9923,548.1745 359.9301,548.6473 357.4371,542.3615 C350.5295,539.4793 348.5879,535.3061 353.7302,529.0647 C348.3596,526.3918 346.1915,520.3839 352.5113,516.5705 C346.6862,511.6574 348.3973,506.3464 354.6434,503.3852 C349.0851,499.2724 350.7232,494.0093 356.5238,491.7288" fill="#F1F1F1" style="stroke:#181818;stroke-width:0.5;"/><text fill="#000000" font-family="sans-serif" font-size="14" lengthAdjust="spacing" textLength="106.5116" x="363" y="511.5339">Message Broker</text><text fill="#000000" font-family="sans-serif" font-size="14" lengthAdjust="spacing" textLength="45.0658" x="363" y="530.6018">(Kafka)</text></g><!--entity PG--><g class="entity" data-entity="PG" data-source-line="47" data-uid="ent0028" id="entity_PG"><path d="M798.8638,490.8358 C801.8133,485.9243 805.0974,485.6689 808.4625,490.423 C811.8342,485.2431 815.6216,484.7447 820.0605,489.1289 C822.761,484.0882 825.8442,482.8515 830.5072,486.8644 C834.395,480.3633 838.2697,479.9059 842.9047,486.1369 C846.7864,480.681 850.1677,480.4856 853.8156,486.362 C855.511,479.5737 861.1886,479.8068 865.1354,484.0524 C868.563,479.3906 873.5456,479.6269 875.9762,485.1171 C879.3144,480.7163 884.8089,480.5675 886.8626,486.4738 C890.7551,481.1587 896.5877,482.178 898.7691,488.2612 C902.7594,484.2094 906.0017,483.4169 908.9366,489.3372 C912.7526,484.4093 917.5942,484.0938 920.1306,490.591 C923.2616,486.6339 928.3297,487.0974 930.5107,491.738 C936.4714,493.9584 937.8607,499.9408 933.0328,504.3233 C940.2329,507.3549 940.3145,511.5845 936.1163,517.3203 C940.3298,522.412 938.8651,528.2755 932.3435,530.2299 C937.2659,534.285 938.6477,539.0038 931.8357,542.5763 C928.041,547.5762 924.5689,548.3716 920.3177,543.0876 C916.8682,549.0456 912.9701,548.8157 909.1331,543.471 C905.7056,549.8956 901.7044,550.2564 896.7005,545.1743 C893.4051,549.7824 890.1557,549.9698 886.4711,545.6186 C883.0147,550.4652 878.2798,550.807 874.7749,545.6753 C871.9375,551.1321 867.637,550.588 864.6593,545.8139 C861.3998,552.2761 855.7521,551.8655 852.6663,545.6496 C850.3993,550.182 845.8487,550.73 843.0317,546.2367 C838.7069,551.8577 835.289,551.2146 831.7802,545.4316 C828.1445,551.3122 822.3396,550.0135 819.7381,544.3525 C816.2999,548.997 811.7803,549.583 808.2916,544.4115 C804.209,549.0764 800.1696,547.1142 798.1809,542.2011 C790.9249,540.8577 788.9967,535.0982 794.0645,529.6975 C787.681,527.304 785.0168,523.7545 789.8097,517.4714 C784.3246,512.2315 785.2979,506.2536 793.245,504.5981 C787.5748,497.0495 791.3802,493.014 798.8638,490.8358" fill="#F1F1F1" style="stroke:#181818;stroke-width:0.5;"/><text fill="#000000" font-family="sans-serif" font-size="14" lengthAdjust="spacing" textLength="118.7895" x="804" y="511.5339">Payment Gateway</text><text fill="#000000" font-family="sans-serif" font-size="14" lengthAdjust="spacing" textLength="62.5518" x="804" y="530.6018">(external)</text></g><!--entity MsgProvider--><g class="entity" data-entity="MsgProvider" data-source-line="48" data-uid="ent0029" id="entity_MsgProvider"><path d="M15.9018,783.7637 C17.8267,777.1105 22.8095,775.3852 27.8064,780.7106 C31.1204,775.8119 34.7851,774.8424 38.7785,779.9669 C42.4233,774.5702 47.7483,774.1664 51.567,779.7646 C53.7492,773.3609 58.9127,773.37 63.121,777.5534 C66.6843,771.9433 72.577,771.4581 75.5906,778.1124 C78.3001,773.1366 83.1807,772.7871 86.8212,776.971 C90.2844,772.1173 95.6994,771.9656 98.3408,777.8523 C101.6798,771.6578 107.6823,771.4696 110.8224,778.0467 C114.2378,772.7449 118.4315,773.2083 121.3271,778.5594 C125.8357,773.0589 131.126,773.7831 133.9125,780.3547 C138.3891,774.7111 142.4118,775.0332 145.5545,781.624 C150.1896,776.9944 153.7665,777.8861 156.731,783.4549 C163.6168,784.917 165.364,790.6629 160.4992,795.7317 C166.9554,799.4844 166.5828,804.569 161.0469,808.8233 C167.6233,812.7822 166.8334,819.4692 160.0628,822.4652 C166.2963,827.8897 164.7585,833.454 156.9237,835.4871 C153.5871,841.2469 148.9958,841.5542 144.9543,836.2497 C142.9327,841.388 138.1926,841.8756 134.6402,838.0015 C130.0316,844.1515 125.8367,844.4585 121.5108,837.7135 C119.7153,843.4531 114.3146,845.3099 110.3571,839.8708 C106.9256,844.3539 102.0125,843.9877 99.2688,839.0604 C96.6687,846.6422 90.4945,846.1561 86.0407,840.9828 C82.3249,846.1197 76.3368,845.0862 73.6769,839.7376 C70.4365,844.5376 65.4684,843.7298 63.4824,838.4667 C58.8479,844.6356 54.4132,845.296 50.2962,837.9613 C45.8953,843.9601 41.8578,844.009 38.0903,837.3505 C34.7236,842.6655 29.5131,841.7212 27.2021,836.2818 C22.6446,842.3045 18.3143,841.8746 14.7415,835.3072 C7.4371,832.3264 6.5875,827.1669 11.9135,821.5834 C4.1923,819.0485 1.7182,815.2668 6.591,807.8508 C1.6235,802.2193 3.993,796.6525 10.9552,795.1061 C7.3159,789.5924 8.2914,784.3712 15.9018,783.7637" fill="#F1F1F1" style="stroke:#181818;stroke-width:0.5;"/><text fill="#000000" font-family="sans-serif" font-size="14" lengthAdjust="spacing" textLength="128.6035" x="21" y="803.5339">Email/SMS Provider</text><text fill="#000000" font-family="sans-serif" font-size="14" lengthAdjust="spacing" textLength="62.5518" x="21" y="822.6018">(external)</text></g><!--entity GW--><g class="entity" data-entity="GW" data-source-line="10" data-uid="ent0005" id="entity_GW"><rect fill="#F1F1F1" height="58.1358" rx="2.5" ry="2.5" style="stroke:#181818;stroke-width:0.5;" width="210.9593" x="1029" y="204.0679"/><text fill="#000000" font-family="sans-serif" font-size="14" lengthAdjust="spacing" textLength="82.7957" x="1039" y="229.0339">API Gateway</text><text fill="#000000" font-family="sans-serif" font-size="14" lengthAdjust="spacing" textLength="190.9593" x="1039" y="248.1018">(routing, authn, rate limiting)</text></g><!--entity Auth--><g class="entity" data-entity="Auth" data-source-line="14" data-uid="ent0007" id="entity_Auth"><rect fill="#F1F1F1" height="58.1358" rx="2.5" ry="2.5" style="stroke:#181818;stroke-width:0.5;" width="151.4735" x="1259" y="361.0679"/><text fill="#000000" font-family="sans-serif" font-size="14" lengthAdjust="spacing" textLength="81.6477" x="1269" y="386.0339">Auth Service</text><text fill="#000000" font-family="sans-serif" font-size="14" lengthAdjust="spacing" textLength="131.4735" x="1269" y="405.1018">(JWT/OAuth2, RBAC)</text></g><!--entity UserDB--><g class="entity" data-entity="UserDB" data-source-line="15" data-uid="ent0008" id="entity_UserDB"><path d="M1297.5,501.5679 C1297.5,491.5679 1334.2889,491.5679 1334.2889,491.5679 C1334.2889,491.5679 1371.0778,491.5679 1371.0778,501.5679 L1371.0778,529.6358 C1371.0778,539.6358 1334.2889,539.6358 1334.2889,539.6358 C1334.2889,539.6358 1297.5,539.6358 1297.5,529.6358 L1297.5,501.5679" fill="#F1F1F1" style="stroke:#181818;stroke-width:0.5;"/><path d="M1297.5,501.5679 C1297.5,511.5679 1334.2889,511.5679 1334.2889,511.5679 C1334.2889,511.5679 1371.0778,511.5679 1371.0778,501.5679" fill="none" style="stroke:#181818;stroke-width:0.5;"/><text fill="#000000" font-family="sans-serif" font-size="14" lengthAdjust="spacing" textLength="53.5778" x="1307.5" y="530.5339">User DB</text></g><!--entity Catalog--><g class="entity" data-entity="Catalog" data-source-line="19" data-uid="ent0010" id="entity_Catalog"><rect fill="#F1F1F1" height="58.1358" rx="2.5" ry="2.5" style="stroke:#181818;stroke-width:0.5;" width="131.0476" x="1461" y="361.0679"/><text fill="#000000" font-family="sans-serif" font-size="14" lengthAdjust="spacing" textLength="100.6456" x="1471" y="386.0339">Catalog Service</text><text fill="#000000" font-family="sans-serif" font-size="14" lengthAdjust="spacing" textLength="111.0476" x="1471" y="405.1018">(search, filtering)</text></g><!--entity CatalogDB--><g class="entity" data-entity="CatalogDB" data-source-line="20" data-uid="ent0011" id="entity_CatalogDB"><path d="M1466,501.5679 C1466,491.5679 1512.6309,491.5679 1512.6309,491.5679 C1512.6309,491.5679 1559.2617,491.5679 1559.2617,501.5679 L1559.2617,529.6358 C1559.2617,539.6358 1512.6309,539.6358 1512.6309,539.6358 C1512.6309,539.6358 1466,539.6358 1466,529.6358 L1466,501.5679" fill="#F1F1F1" style="stroke:#181818;stroke-width:0.5;"/><path d="M1466,501.5679 C1466,511.5679 1512.6309,511.5679 1512.6309,511.5679 C1512.6309,511.5679 1559.2617,511.5679 1559.2617,501.5679" fill="none" style="stroke:#181818;stroke-width:0.5;"/><text fill="#000000" font-family="sans-serif" font-size="14" lengthAdjust="spacing" textLength="73.2617" x="1476" y="530.5339">Catalog DB</text></g><!--entity SearchCache--><g class="entity" data-entity="SearchCache" data-source-line="21" data-uid="ent0012" id="entity_SearchCache"><path d="M1577.5,501.5679 C1577.5,491.5679 1631.5998,491.5679 1631.5998,491.5679 C1631.5998,491.5679 1685.6996,491.5679 1685.6996,501.5679 L1685.6996,529.6358 C1685.6996,539.6358 1631.5998,539.6358 1631.5998,539.6358 C1631.5998,539.6358 1577.5,539.6358 1577.5,529.6358 L1577.5,501.5679" fill="#F1F1F1" style="stroke:#181818;stroke-width:0.5;"/><path d="M1577.5,501.5679 C1577.5,511.5679 1631.5998,511.5679 1631.5998,511.5679 C1631.5998,511.5679 1685.6996,511.5679 1685.6996,501.5679" fill="none" style="stroke:#181818;stroke-width:0.5;"/><text fill="#000000" font-family="sans-serif" font-size="14" lengthAdjust="spacing" textLength="88.1996" x="1587.5" y="530.5339">Search Cache</text></g><!--entity Waiting--><g class="entity" data-entity="Waiting" data-source-line="25" data-uid="ent0014" id="entity_Waiting"><rect fill="#F1F1F1" height="39.0679" rx="2.5" ry="2.5" style="stroke:#181818;stroke-width:0.5;" width="163.1354" x="977" y="370.5679"/><text fill="#000000" font-family="sans-serif" font-size="14" lengthAdjust="spacing" textLength="143.1354" x="987" y="395.5339">Waiting Room Service</text></g><!--entity Reservation--><g class="entity" data-entity="Reservation" data-source-line="26" data-uid="ent0015" id="entity_Reservation"><rect fill="#F1F1F1" height="58.1358" rx="2.5" ry="2.5" style="stroke:#181818;stroke-width:0.5;" width="148.0855" x="956.5" y="486.5679"/><text fill="#000000" font-family="sans-serif" font-size="14" lengthAdjust="spacing" textLength="128.0855" x="966.5" y="511.5339">Reservation Service</text><text fill="#000000" font-family="sans-serif" font-size="14" lengthAdjust="spacing" textLength="86.7017" x="966.5" y="530.6018">(seat locking)</text></g><!--entity RedisLock--><g class="entity" data-entity="RedisLock" data-source-line="27" data-uid="ent0016" id="entity_RedisLock"><path d="M959,659.5679 C959,649.5679 1019.3298,649.5679 1019.3298,649.5679 C1019.3298,649.5679 1079.6596,649.5679 1079.6596,659.5679 L1079.6596,706.7038 C1079.6596,716.7038 1019.3298,716.7038 1019.3298,716.7038 C1019.3298,716.7038 959,716.7038 959,706.7038 L959,659.5679" fill="#F1F1F1" style="stroke:#181818;stroke-width:0.5;"/><path d="M959,659.5679 C959,669.5679 1019.3298,669.5679 1019.3298,669.5679 C1019.3298,669.5679 1079.6596,669.5679 1079.6596,659.5679" fill="none" style="stroke:#181818;stroke-width:0.5;"/><text fill="#000000" font-family="sans-serif" font-size="14" lengthAdjust="spacing" textLength="100.6596" x="969" y="688.5339">Seat Lock Store</text><text fill="#000000" font-family="sans-serif" font-size="14" lengthAdjust="spacing" textLength="43.9318" x="969" y="707.6018">(Redis)</text></g><!--entity ResDB--><g class="entity" data-entity="ResDB" data-source-line="28" data-uid="ent0017" id="entity_ResDB"><path d="M1098,669.0679 C1098,659.0679 1158.3508,659.0679 1158.3508,659.0679 C1158.3508,659.0679 1218.7016,659.0679 1218.7016,669.0679 L1218.7016,697.1358 C1218.7016,707.1358 1158.3508,707.1358 1158.3508,707.1358 C1158.3508,707.1358 1098,707.1358 1098,697.1358 L1098,669.0679" fill="#F1F1F1" style="stroke:#181818;stroke-width:0.5;"/><path d="M1098,669.0679 C1098,679.0679 1158.3508,679.0679 1158.3508,679.0679 C1158.3508,679.0679 1218.7016,679.0679 1218.7016,669.0679" fill="none" style="stroke:#181818;stroke-width:0.5;"/><text fill="#000000" font-family="sans-serif" font-size="14" lengthAdjust="spacing" textLength="100.7016" x="1108" y="698.0339">Reservation DB</text></g><!--entity Checkout--><g class="entity" data-entity="Checkout" data-source-line="32" data-uid="ent0019" id="entity_Checkout"><rect fill="#F1F1F1" height="58.1358" rx="2.5" ry="2.5" style="stroke:#181818;stroke-width:0.5;" width="146.2655" x="541.5" y="361.0679"/><text fill="#000000" font-family="sans-serif" font-size="14" lengthAdjust="spacing" textLength="112.1115" x="551.5" y="386.0339">Checkout Service</text><text fill="#000000" font-family="sans-serif" font-size="14" lengthAdjust="spacing" textLength="126.2655" x="551.5" y="405.1018">(Saga orchestrator)</text></g><!--entity BillingDB--><g class="entity" data-entity="BillingDB" data-source-line="33" data-uid="ent0020" id="entity_BillingDB"><path d="M564,501.5679 C564,491.5679 614.5578,491.5679 614.5578,491.5679 C614.5578,491.5679 665.1157,491.5679 665.1157,501.5679 L665.1157,529.6358 C665.1157,539.6358 614.5578,539.6358 614.5578,539.6358 C614.5578,539.6358 564,539.6358 564,529.6358 L564,501.5679" fill="#F1F1F1" style="stroke:#181818;stroke-width:0.5;"/><path d="M564,501.5679 C564,511.5679 614.5578,511.5679 614.5578,511.5679 C614.5578,511.5679 665.1157,511.5679 665.1157,501.5679" fill="none" style="stroke:#181818;stroke-width:0.5;"/><text fill="#000000" font-family="sans-serif" font-size="14" lengthAdjust="spacing" textLength="81.1157" x="574" y="530.5339">Payment DB</text></g><!--entity Ticketing--><g class="entity" data-entity="Ticketing" data-source-line="37" data-uid="ent0022" id="entity_Ticketing"><rect fill="#F1F1F1" height="58.1358" rx="2.5" ry="2.5" style="stroke:#181818;stroke-width:0.5;" width="205.3173" x="470" y="654.0679"/><text fill="#000000" font-family="sans-serif" font-size="14" lengthAdjust="spacing" textLength="109.7596" x="480" y="679.0339">Ticketing Service</text><text fill="#000000" font-family="sans-serif" font-size="14" lengthAdjust="spacing" textLength="185.3173" x="480" y="698.1018">(QR issuance and validation)</text></g><!--entity TicketDB--><g class="entity" data-entity="TicketDB" data-source-line="38" data-uid="ent0023" id="entity_TicketDB"><path d="M531.5,793.5679 C531.5,783.5679 572.2509,783.5679 572.2509,783.5679 C572.2509,783.5679 613.0017,783.5679 613.0017,793.5679 L613.0017,821.6358 C613.0017,831.6358 572.2509,831.6358 572.2509,831.6358 C572.2509,831.6358 531.5,831.6358 531.5,821.6358 L531.5,793.5679" fill="#F1F1F1" style="stroke:#181818;stroke-width:0.5;"/><path d="M531.5,793.5679 C531.5,803.5679 572.2509,803.5679 572.2509,803.5679 C572.2509,803.5679 613.0017,803.5679 613.0017,793.5679" fill="none" style="stroke:#181818;stroke-width:0.5;"/><text fill="#000000" font-family="sans-serif" font-size="14" lengthAdjust="spacing" textLength="61.5017" x="541.5" y="822.5339">Ticket DB</text></g><!--entity Notif--><g class="entity" data-entity="Notif" data-source-line="42" data-uid="ent0025" id="entity_Notif"><rect fill="#F1F1F1" height="39.0679" rx="2.5" ry="2.5" style="stroke:#181818;stroke-width:0.5;" width="146.9095" x="182" y="663.5679"/><text fill="#000000" font-family="sans-serif" font-size="14" lengthAdjust="spacing" textLength="126.9095" x="192" y="688.5339">Notification Service</text></g><!--entity NotifDB--><g class="entity" data-entity="NotifDB" data-source-line="43" data-uid="ent0026" id="entity_NotifDB"><path d="M193,793.5679 C193,783.5679 255.3108,783.5679 255.3108,783.5679 C255.3108,783.5679 317.6216,783.5679 317.6216,793.5679 L317.6216,821.6358 C317.6216,831.6358 255.3108,831.6358 255.3108,831.6358 C255.3108,831.6358 193,831.6358 193,821.6358 L193,793.5679" fill="#F1F1F1" style="stroke:#181818;stroke-width:0.5;"/><path d="M193,793.5679 C193,803.5679 255.3108,803.5679 255.3108,803.5679 C255.3108,803.5679 317.6216,803.5679 317.6216,793.5679" fill="none" style="stroke:#181818;stroke-width:0.5;"/><text fill="#000000" font-family="sans-serif" font-size="14" lengthAdjust="spacing" textLength="104.6216" x="203" y="822.5339">Notification Log</text></g><g class="link" data-entity-1="Buyer" data-entity-2="GW" data-uid="lnk30" id="link_Buyer_GW"><polygon fill="#181818" points="1028.6943,239.3241,1019.4806,235.8447,1023.7025,239.6097,1019.9375,243.8316,1028.6943,239.3241" style="stroke:#181818;stroke-width:1;"/><path d="M314.2624,475.9174 C316.8466,462.8366 321.1938,448.6274 328.5,437.0679 C377.3405,359.7947 405.0805,344.1378 489.5,309.0679 C584.4332,269.6304 865.4635,248.6626 1022.7041,239.6668" fill="none" style="stroke:#181818;stroke-width:1;"/></g><g class="link" data-entity-1="Organizer" data-entity-2="GW" data-uid="lnk31" id="link_Organizer_GW"><polygon fill="#181818" points="1134.5,203.8968,1138.5,194.8968,1134.5,198.8968,1130.5,194.8968,1134.5,203.8968" style="stroke:#181818;stroke-width:1;"/><path d="M1134.5,125.1772 C1134.5,149.929 1134.5,175.4997 1134.5,197.8968" fill="none" style="stroke:#181818;stroke-width:1;"/></g><g class="link" data-entity-1="GW" data-entity-2="Auth" data-uid="lnk32" id="link_GW_Auth"><polygon fill="#181818" points="1305.7162,360.9083,1301.9343,351.8144,1302.0867,357.4692,1296.4319,357.6216,1305.7162,360.9083" style="stroke:#181818;stroke-width:1;"/><path d="M1179.7129,262.1688 C1200.5512,275.6652 1225.3051,292.4843 1246.5,309.0679 C1267.1518,325.2266 1284.6153,340.9147 1301.3608,356.7814" fill="none" style="stroke:#181818;stroke-width:1;"/><text fill="#000000" font-family="sans-serif" font-size="13" lengthAdjust="spacing" textLength="86.1641" x="1237.5" y="295.9649">validate token</text></g><g class="link" data-entity-1="GW" data-entity-2="Catalog" data-uid="lnk33" id="link_GW_Catalog"><polygon fill="#181818" points="1505.9397,361.0445,1503.3487,351.5425,1502.7786,357.1706,1497.1505,356.6004,1505.9397,361.0445" style="stroke:#181818;stroke-width:1;"/><path d="M1240.0055,244.1669 C1303.6936,253.8206 1384.6083,272.6091 1448.5,309.0679 C1471.2446,322.0468 1487.8985,338.9356 1502.1463,356.3958" fill="none" style="stroke:#181818;stroke-width:1;"/><text fill="#000000" font-family="sans-serif" font-size="13" lengthAdjust="spacing" textLength="97.0971" x="1435.5" y="295.9649">search / browse</text></g><g class="link" data-entity-1="GW" data-entity-2="Waiting" data-uid="lnk34" id="link_GW_Waiting"><polygon fill="#181818" points="1062.2854,370.3985,1068.1712,362.5018,1063.3877,365.5215,1060.368,360.7381,1062.2854,370.3985" style="stroke:#181818;stroke-width:1;"/><path d="M1107.0201,262.1875 C1102.4182,267.8174 1098.007,273.9052 1094.5,280.0679 C1077.7434,309.5132 1068.6892,342.0658 1063.6082,364.5461" fill="none" style="stroke:#181818;stroke-width:1;"/><text fill="#000000" font-family="sans-serif" font-size="13" lengthAdjust="spacing" textLength="64.7141" x="1096.5" y="295.9649">join queue</text></g><g class="link" data-entity-1="GW" data-entity-2="Reservation" data-uid="lnk35" id="link_GW_Reservation"><polygon fill="#181818" points="1104.6491,491.6864,1114.4796,491.0854,1109.0857,489.3807,1110.7904,483.9868,1104.6491,491.6864" style="stroke:#181818;stroke-width:1;"/><path d="M1154.8456,262.1514 C1158.0033,267.8316 1160.7835,273.9465 1162.5,280.0679 C1169.8699,306.3499 1189.0851,395.8392 1145.5,458.0679 C1135.3547,472.553 1125.744,480.7234 1109.973,488.9195" fill="none" style="stroke:#181818;stroke-width:1;"/><text fill="#000000" font-family="sans-serif" font-size="13" lengthAdjust="spacing" textLength="59.553" x="1175.5" y="395.4649">lock seats</text></g><g class="link" data-entity-1="GW" data-entity-2="Checkout" data-uid="lnk36" id="link_GW_Checkout"><polygon fill="#181818" points="687.6786,367.056,697.449,368.2969,692.4671,365.6172,695.1469,360.6353,687.6786,367.056" style="stroke:#181818;stroke-width:1;"/><path d="M1039.1958,262.1012 C1019.1435,268.0189 998.1232,274.2367 978.5,280.0679 C877.6416,310.039 766.9082,343.2491 693.4248,365.3294" fill="none" style="stroke:#181818;stroke-width:1;"/><text fill="#000000" font-family="sans-serif" font-size="13" lengthAdjust="spacing" textLength="99.9701" x="980.5" y="295.9649">submit payment</text></g><g class="link" data-entity-1="Auth" data-entity-2="UserDB" data-uid="lnk37" id="link_Auth_UserDB"><polygon fill="#181818" points="1334.5,491.2138,1338.5,482.2138,1334.5,486.2138,1330.5,482.2138,1334.5,491.2138" style="stroke:#181818;stroke-width:1;"/><path d="M1334.5,419.092 C1334.5,440.8692 1334.5,464.7192 1334.5,485.2138" fill="none" style="stroke:#181818;stroke-width:1;"/></g><g class="link" data-entity-1="Catalog" data-entity-2="CatalogDB" data-uid="lnk38" id="link_Catalog_CatalogDB"><polygon fill="#181818" points="1515.1474,491.2138,1520.1357,482.7216,1515.7106,486.2456,1512.1866,481.8205,1515.1474,491.2138" style="stroke:#181818;stroke-width:1;"/><path d="M1523.3232,419.092 C1520.8545,440.8692 1518.1465,464.7573 1515.8233,485.2519" fill="none" style="stroke:#181818;stroke-width:1;"/></g><g class="link" data-entity-1="Catalog" data-entity-2="SearchCache" data-uid="lnk39" id="link_Catalog_SearchCache"><polygon fill="#181818" points="1611.6442,491.2138,1608.862,481.766,1608.4055,487.4044,1602.7671,486.9479,1611.6442,491.2138" style="stroke:#181818;stroke-width:1;"/><path d="M1550.3261,419.092 C1568.8412,440.8692 1590.3333,466.148 1607.7578,486.6426" fill="none" style="stroke:#181818;stroke-width:1;"/></g><g class="link" data-entity-1="Waiting" data-entity-2="Reservation" data-uid="lnk40" id="link_Waiting_Reservation"><polygon fill="#181818" points="1054.8115,486.4445,1063.2473,481.3616,1057.677,482.3471,1056.6915,476.7767,1054.8115,486.4445" style="stroke:#181818;stroke-width:1;"/><path d="M1066.0638,409.5867 C1070.5507,423.2208 1074.4798,442.0874 1069.5,458.0679 C1066.3795,468.0817 1064.2346,472.9703 1058.2501,481.5276" fill="none" style="stroke:#181818;stroke-width:1;"/><text fill="#000000" font-family="sans-serif" font-size="13" lengthAdjust="spacing" textLength="65.8321" x="1074.5" y="452.9649">admit user</text></g><g class="link" data-entity-1="Reservation" data-entity-2="RedisLock" data-uid="lnk41" id="link_Reservation_RedisLock"><polygon fill="#181818" points="1021.678,649.2994,1026.266,640.5845,1022.0096,644.3104,1018.2836,640.0539,1021.678,649.2994" style="stroke:#181818;stroke-width:1;"/><path d="M1028.634,544.6427 C1026.7093,573.6006 1024.1079,612.7405 1022.0759,643.3126" fill="none" style="stroke:#181818;stroke-width:1;"/></g><g class="link" data-entity-1="Reservation" data-entity-2="ResDB" data-uid="lnk42" id="link_Reservation_ResDB"><polygon fill="#181818" points="1140.6106,658.9375,1138.2686,649.3711,1137.5516,654.9824,1131.9404,654.2654,1140.6106,658.9375" style="stroke:#181818;stroke-width:1;"/><path d="M1052.2135,544.6427 C1077.1063,576.8284 1113.7768,624.2422 1136.9399,654.1913" fill="none" style="stroke:#181818;stroke-width:1;"/></g><g class="link" data-entity-1="Reservation" data-entity-2="Broker" data-uid="lnk43" id="link_Reservation_Broker"><polygon fill="#181818" points="475.051,481.5519,484.8991,481.6687,479.6438,479.5755,481.7369,474.3202,475.051,481.5519" style="stroke:#181818;stroke-width:1;"/><path d="M977.7623,486.4932 C947.0588,471.389 907.0152,454.7246 869,448.0679 C785.7048,433.4824 569.9568,450.0386 489.5,476.0679 C484.7014,477.6204 485.3617,477.115 480.5623,479.1803" fill="none" style="stroke:#181818;stroke-width:1;"/><text fill="#000000" font-family="sans-serif" font-size="13" lengthAdjust="spacing" textLength="161.4471" x="706" y="452.9649">publish reservation events</text></g><g class="link" data-entity-1="Checkout" data-entity-2="Reservation" data-uid="lnk44" id="link_Checkout_Reservation"><polygon fill="#181818" points="994.8548,486.5393,990.231,477.8433,990.9167,483.4585,985.3016,484.1442,994.8548,486.5393" style="stroke:#181818;stroke-width:1;"/><path d="M687.6526,391.3935 C753.3507,394.0575 851.2257,403.9969 929.5,437.0679 C933.3174,438.6808 962.6112,461.314 990.1291,482.8423" fill="none" style="stroke:#181818;stroke-width:1;"/><text fill="#000000" font-family="sans-serif" font-size="13" lengthAdjust="spacing" textLength="103.3241" x="959.5" y="452.9649">confirm / release</text></g><g class="link" data-entity-1="Checkout" data-entity-2="BillingDB" data-uid="lnk45" id="link_Checkout_BillingDB"><polygon fill="#181818" points="614.5,491.2138,618.5,482.2138,614.5,486.2138,610.5,482.2138,614.5,491.2138" style="stroke:#181818;stroke-width:1;"/><path d="M614.5,419.092 C614.5,440.8692 614.5,464.7192 614.5,485.2138" fill="none" style="stroke:#181818;stroke-width:1;"/></g><g class="link" data-entity-1="Checkout" data-entity-2="PG" data-uid="lnk46" id="link_Checkout_PG"><polygon fill="#181818" points="876.4186,481.5589,882.4077,473.7402,877.585,476.6968,874.6284,471.8741,876.4186,481.5589" style="stroke:#181818;stroke-width:1;"/><path d="M687.6253,394.057 C754.8784,398.5243 847.5417,409.6166 870.5,437.0679 C880.6403,449.1928 881.4493,460.5883 877.8183,475.7244" fill="none" style="stroke:#181818;stroke-width:1;"/><text fill="#000000" font-family="sans-serif" font-size="13" lengthAdjust="spacing" textLength="42.263" x="881.5" y="452.9649">charge</text></g><g class="link" data-entity-1="Checkout" data-entity-2="Broker" data-uid="lnk47" id="link_Checkout_Broker"><polygon fill="#181818" points="437.9217,481.5298,446.4957,476.6835,440.9001,477.5137,440.0699,471.9181,437.9217,481.5298" style="stroke:#181818;stroke-width:1;"/><path d="M541.4136,408.5122 C520.9427,415.4204 499.4106,424.7372 481.5,437.0679 C464.4322,448.8185 452.8627,461.383 441.4958,476.7105" fill="none" style="stroke:#181818;stroke-width:1;"/><text fill="#000000" font-family="sans-serif" font-size="13" lengthAdjust="spacing" textLength="125.9051" x="483.5" y="452.9649">publish order events</text></g><g class="link" data-entity-1="Broker" data-entity-2="Ticketing" data-uid="lnk48" id="link_Broker_Ticketing"><polygon fill="#181818" points="596.0054,653.6392,604.4507,648.572,598.8785,649.5471,597.9034,643.975,596.0054,653.6392" style="stroke:#181818;stroke-width:1;"/><path d="M475.1265,549.6096 C479.9087,551.6484 484.7352,553.5042 489.5,555.0679 C515.1206,563.4761 591.9038,552.6355 609.5,573.0679 C629.1916,595.9335 616.2282,624.8372 599.4532,648.7287" fill="none" style="stroke:#181818;stroke-width:1;"/><text fill="#000000" font-family="sans-serif" font-size="13" lengthAdjust="spacing" textLength="163.3062" x="620.5" y="588.9649">consume payment success</text></g><g class="link" data-entity-1="Ticketing" data-entity-2="TicketDB" data-uid="lnk49" id="link_Ticketing_TicketDB"><polygon fill="#181818" points="572.5,783.5187,576.5,774.5187,572.5,778.5187,568.5,774.5187,572.5,783.5187" style="stroke:#181818;stroke-width:1;"/><path d="M572.5,712.1719 C572.5,733.7868 572.5,757.2828 572.5,777.5187" fill="none" style="stroke:#181818;stroke-width:1;"/></g><g class="link" data-entity-1="Ticketing" data-entity-2="Broker" data-uid="lnk50" id="link_Ticketing_Broker"><polygon fill="#181818" points="440.1327,549.6151,442.3311,559.2155,443.132,553.6156,448.7319,554.4165,440.1327,549.6151" style="stroke:#181818;stroke-width:1;"/><path d="M539.1967,654.0403 C520.0956,637.3644 496.0956,615.3644 476.5,594.0679 C463.711,580.1688 454.3315,568.5532 443.7319,554.4157" fill="none" style="stroke:#181818;stroke-width:1;"/><text fill="#000000" font-family="sans-serif" font-size="13" lengthAdjust="spacing" textLength="125.2291" x="478.5" y="588.9649">publish ticket events</text></g><g class="link" data-entity-1="Broker" data-entity-2="Notif" data-uid="lnk51" id="link_Broker_Notif"><polygon fill="#181818" points="270.9848,663.3256,279.8319,658.9979,274.1968,659.4938,273.7009,653.8587,270.9848,663.3256" style="stroke:#181818;stroke-width:1;"/><path d="M377.5721,549.5967 C369.1301,557.1257 360.3758,565.2233 352.5,573.0679 C322.1682,603.2794 293.465,636.5069 274.8392,658.7274" fill="none" style="stroke:#181818;stroke-width:1;"/><text fill="#000000" font-family="sans-serif" font-size="13" lengthAdjust="spacing" textLength="99.4891" x="354.5" y="588.9649">consume events</text></g><g class="link" data-entity-1="Notif" data-entity-2="NotifDB" data-uid="lnk52" id="link_Notif_NotifDB"><polygon fill="#181818" points="255.5,783.1682,259.5,774.1682,255.5,778.1682,251.5,774.1682,255.5,783.1682" style="stroke:#181818;stroke-width:1;"/><path d="M255.5,702.673 C255.5,724.225 255.5,753.7615 255.5,777.1682" fill="none" style="stroke:#181818;stroke-width:1;"/></g><g class="link" data-entity-1="Notif" data-entity-2="MsgProvider" data-uid="lnk53" id="link_Notif_MsgProvider"><polygon fill="#181818" points="110.645,773.4891,119.5102,769.1986,113.8731,769.6708,113.4008,764.0337,110.645,773.4891" style="stroke:#181818;stroke-width:1;"/><path d="M207.0162,702.651 C188.423,710.959 167.5868,721.7829 150.5,734.5679 C135.8028,745.5649 125.7111,755.6681 114.5187,768.9071" fill="none" style="stroke:#181818;stroke-width:1;"/><text fill="#000000" font-family="sans-serif" font-size="13" lengthAdjust="spacing" textLength="97.3571" x="152.5" y="750.4649">send email/SMS</text></g><g class="link" data-entity-1="Notif" data-entity-2="Buyer" data-uid="lnk54" id="link_Notif_Buyer"><polygon fill="#181818" points="290.6286,523.5087,280.7844,523.2064,285.9993,525.3982,283.8076,530.6132,290.6286,523.5087" style="stroke:#181818;stroke-width:1;"/><path d="M242.583,663.3773 C228.7753,640.876 210.8525,602.4504 226.5,573.0679 C239.9657,547.7822 264.7831,534.058 285.0735,525.7761" fill="none" style="stroke:#181818;stroke-width:1;stroke-dasharray:7,7;"/><text fill="#000000" font-family="sans-serif" font-size="13" lengthAdjust="spacing" textLength="101.2961" x="228.5" y="588.9649">WebSocket push</text></g><g class="link" data-entity-1="Checkout" data-entity-2="Buyer" data-uid="lnk55" id="link_Checkout_Buyer"><polygon fill="#181818" points="322.2816,475.7107,329.5451,469.0593,324.2798,471.1273,322.2117,465.8621,322.2816,475.7107" style="stroke:#181818;stroke-width:1;"/><path d="M541.3997,396.5359 C474.0402,402.8503 380.1708,415.2787 350.5,437.0679 C337.5638,446.5678 330.8803,455.9878 324.6795,470.2107" fill="none" style="stroke:#181818;stroke-width:1;stroke-dasharray:7,7;"/><text fill="#000000" font-family="sans-serif" font-size="13" lengthAdjust="spacing" textLength="101.2961" x="352.5" y="452.9649">WebSocket push</text></g><!--SRC=[VLLDRnit4BtpLqnrC6B0Ze4SVGXWMORWncvKAOKERGyZxdZ5QfTKIQvIDSX_pv1SxfUAtfPl7kSz3ZcpFnqjbZL2XMVJU70rUTGelF8LmHSb3-HNLUFW5XvDVJIQj8U5mj9Y3U_cfj455HpIdlxnxbe8Tr3wY24gCt_ZpvpBakJCPKL2eFJ6mhmvass_FziIjVgNr-A8ye0bmUnXzGnBzFGLp_22p9t1Dm7m-m3_Gx-px5hfyWQmyNjz0vOZKAbQ1VJwJq07owtuFiZxNB0dvSzm1GzIadEmC3KgdTDp7jYGFIb9dF_dxPUxpm7xS0Fh-SDZIXa09XVeSOUEa_xcoC9YFWl1yBsOZpIVJg5kZqolJCd22-MaEP4zZxKpePTtX5RkR-1DLPviTwIMEBAGDxSksYKR6P8sCHy7vPuYBG5nFNAy9Zx52Rqo6fvqgJInxMSTpc6cjhSOgmrhO-hiFTfi0u4pp3SwdeVAo4DtiW5lQjp32pDXmmR2tZKLobtFqYR-3C7Hbg5aMnI69ZSpLrKLl5_1uvxa8VJ0-4eosflUO8bWk6haF3ytOzixQPaZ3oiyrx5badwhDl6GsYou64dtSA_zwngKSmrgIO2wW1DMgeX7J2QwFICN2SqcqchYuHVZrPkIgLfNyCfzWUM5fH5hUDCnCD8SKLzCEUjeILbMfYbWbeG8vjOSoF89F-7R0TEr9YmpSodxtkUHGrPZbTYhPMO-iUFgRlEwWPKr9rN4l6FogojpJ8WuYU3szcCO5Tqeoe1ORkDd70ptkU84ditf7CpDTm-fO-4ETjPyTPG9kKVkuI-ZDFpTKDF5XW_rFhP3oE9Tbpo_GSxUx7YqmJ7LGeXeAd3QePDz33nDq673Y-pgqWKMGQTXI0m3YPYxxJ8IsckAfcladCTcLoctvrz1Jw0mKPmGtHalhKYZtvIjkQIMAkB7DIRtFJM2LykmTO-sdFAdTepbLz0PQSE1sJTWDE6QcdBb-IBYlqFqd7u7Mnd35v8-DUH_QCOE6UYrb0Ht15ReaS5RZk-FnmBb3X0jx_txZ-c7oumjxJOcwXyRj- -Byp-S7m00]--></g></svg>