<svg xmlns="http://www.w3.org/2000/svg" xmlns:xlink="http://www.w3.org/1999/xlink" contentStyleType="text/css" data-diagram-type="DESCRIPTION" height="899px" preserveAspectRatio="none" style="width:1908px;height:899px;background:#FFFFFF;" version="1.1" viewBox="0 0 1908 899" width="1908px" zoomAndPan="magnify"><title>TicketPlus - Deployment Diagram</title><defs/><g><g class="title" data-source-line="2"><text fill="#000000" font-family="sans-serif" font-size="14" font-weight="bold" lengthAdjust="spacing" textLength="233.4491" x="798.7755" y="24.9659">TicketPlus - Deployment Diagram</text></g><!--cluster Client Devices--><g class="cluster" data-entity="Client Devices" data-source-line="6" data-uid="ent0002" id="cluster_Client Devices"><polygon fill="none" points="425.8578,54.0679,435.8578,44.0679,598.8578,44.0679,598.8578,116.0679,588.8578,126.0679,425.8578,126.0679,425.8578,54.0679" style="stroke:#181818;stroke-width:1;"/><line style="stroke:#181818;stroke-width:1;" x1="588.8578" x2="598.8578" y1="54.0679" y2="44.0679"/><line style="stroke:#181818;stroke-width:1;" x1="425.8578" x2="588.8578" y1="54.0679" y2="54.0679"/><line style="stroke:#181818;stroke-width:1;" x1="588.8578" x2="588.8578" y1="54.0679" y2="126.0679"/><text fill="#000000" font-family="sans-serif" font-size="14" font-weight="bold" lengthAdjust="spacing" textLength="97.9436" x="459.386" y="72.0339">Client Devices</text></g><!--cluster Kubernetes Cluster--><g class="cluster" data-entity="Kubernetes Cluster" data-source-line="12" data-uid="ent0005" id="cluster_Kubernetes Cluster"><polygon fill="none" points="74.8578,241.0679,84.8578,231.0679,1286.8578,231.0679,1286.8578,605.0679,1276.8578,615.0679,74.8578,615.0679,74.8578,241.0679" style="stroke:#181818;stroke-width:1;"/><line style="stroke:#181818;stroke-width:1;" x1="1276.8578" x2="1286.8578" y1="241.0679" y2="231.0679"/><line style="stroke:#181818;stroke-width:1;" x1="74.8578" x2="1276.8578" y1="241.0679" y2="241.0679"/><line style="stroke:#181818;stroke-width:1;" x1="1276.8578" x2="1276.8578" y1="241.0679" y2="615.0679"/><text fill="#000000" font-family="sans-serif" font-size="14" font-weight="bold" lengthAdjust="spacing" textLength="134.4555" x="609.6301" y="259.0339">Kubernetes Cluster</text></g><!--cluster Ingress--><g class="cluster" data-entity="Ingress" data-source-line="13" data-uid="ent0006" id="cluster_Ingress"><polygon fill="none" points="409.8578,295.0679,419.8578,285.0679,613.8578,285.0679,613.8578,357.0679,603.8578,367.0679,409.8578,367.0679,409.8578,295.0679" style="stroke:#181818;stroke-width:1;"/><line style="stroke:#181818;stroke-width:1;" x1="603.8578" x2="613.8578" y1="295.0679" y2="285.0679"/><line style="stroke:#181818;stroke-width:1;" x1="409.8578" x2="603.8578" y1="295.0679" y2="295.0679"/><line style="stroke:#181818;stroke-width:1;" x1="603.8578" x2="603.8578" y1="295.0679" y2="367.0679"/><text fill="#000000" font-family="sans-serif" font-size="14" font-weight="bold" lengthAdjust="spacing" textLength="52.0518" x="481.8319" y="313.0339">Ingress</text></g><!--cluster GWPods--><g class="cluster" data-entity="GWPods" data-source-line="17" data-uid="ent0008" id="cluster_GWPods"><polygon fill="none" points="472.8578,396.0679,482.8578,386.0679,673.8578,386.0679,673.8578,477.0679,663.8578,487.0679,472.8578,487.0679,472.8578,396.0679" style="stroke:#181818;stroke-width:1;"/><line style="stroke:#181818;stroke-width:1;" x1="663.8578" x2="673.8578" y1="396.0679" y2="386.0679"/><line style="stroke:#181818;stroke-width:1;" x1="472.8578" x2="663.8578" y1="396.0679" y2="396.0679"/><line style="stroke:#181818;stroke-width:1;" x1="663.8578" x2="663.8578" y1="396.0679" y2="487.0679"/><text fill="#000000" font-family="sans-serif" font-size="14" font-weight="bold" lengthAdjust="spacing" textLength="125.8035" x="506.4561" y="414.0339">API Gateway Pods</text><text fill="#000000" font-family="sans-serif" font-size="14" font-weight="bold" lengthAdjust="spacing" textLength="90.4117" x="524.152" y="433.1018">(auto-scaled)</text></g><!--cluster AuthPods--><g class="cluster" data-entity="AuthPods" data-source-line="21" data-uid="ent0010" id="cluster_AuthPods"><polygon fill="none" points="82.8578,516.0679,92.8578,506.0679,304.8578,506.0679,304.8578,597.0679,294.8578,607.0679,82.8578,607.0679,82.8578,516.0679" style="stroke:#181818;stroke-width:1;"/><line style="stroke:#181818;stroke-width:1;" x1="294.8578" x2="304.8578" y1="516.0679" y2="506.0679"/><line style="stroke:#181818;stroke-width:1;" x1="82.8578" x2="294.8578" y1="516.0679" y2="516.0679"/><line style="stroke:#181818;stroke-width:1;" x1="294.8578" x2="294.8578" y1="516.0679" y2="607.0679"/><text fill="#000000" font-family="sans-serif" font-size="14" font-weight="bold" lengthAdjust="spacing" textLength="146.7755" x="116.4701" y="534.0339">Identity Service Pods</text><text fill="#000000" font-family="sans-serif" font-size="14" font-weight="bold" lengthAdjust="spacing" textLength="90.4117" x="144.652" y="553.1018">(auto-scaled)</text></g><!--cluster CatalogPods--><g class="cluster" data-entity="CatalogPods" data-source-line="25" data-uid="ent0012" id="cluster_CatalogPods"><polygon fill="none" points="312.8578,516.0679,322.8578,506.0679,532.8578,506.0679,532.8578,597.0679,522.8578,607.0679,312.8578,607.0679,312.8578,516.0679" style="stroke:#181818;stroke-width:1;"/><line style="stroke:#181818;stroke-width:1;" x1="522.8578" x2="532.8578" y1="516.0679" y2="506.0679"/><line style="stroke:#181818;stroke-width:1;" x1="312.8578" x2="522.8578" y1="516.0679" y2="516.0679"/><line style="stroke:#181818;stroke-width:1;" x1="522.8578" x2="522.8578" y1="516.0679" y2="607.0679"/><text fill="#000000" font-family="sans-serif" font-size="14" font-weight="bold" lengthAdjust="spacing" textLength="144.3115" x="346.7021" y="534.0339">Catalog Service Pods</text><text fill="#000000" font-family="sans-serif" font-size="14" font-weight="bold" lengthAdjust="spacing" textLength="90.4117" x="373.652" y="553.1018">(auto-scaled)</text></g><!--cluster WaitPods--><g class="cluster" data-entity="WaitPods" data-source-line="29" data-uid="ent0014" id="cluster_WaitPods"><polygon fill="none" points="540.8578,516.0679,550.8578,506.0679,754.8578,506.0679,754.8578,597.0679,744.8578,607.0679,540.8578,607.0679,540.8578,516.0679" style="stroke:#181818;stroke-width:1;"/><line style="stroke:#181818;stroke-width:1;" x1="744.8578" x2="754.8578" y1="516.0679" y2="506.0679"/><line style="stroke:#181818;stroke-width:1;" x1="540.8578" x2="744.8578" y1="516.0679" y2="516.0679"/><line style="stroke:#181818;stroke-width:1;" x1="744.8578" x2="744.8578" y1="516.0679" y2="607.0679"/><text fill="#000000" font-family="sans-serif" font-size="14" font-weight="bold" lengthAdjust="spacing" textLength="135.5475" x="576.0841" y="534.0339">Waiting Room Pods</text><text fill="#000000" font-family="sans-serif" font-size="14" font-weight="bold" lengthAdjust="spacing" textLength="90.4117" x="598.652" y="553.1018">(auto-scaled)</text></g><!--cluster ResPods--><g class="cluster" data-entity="ResPods" data-source-line="33" data-uid="ent0016" id="cluster_ResPods"><polygon fill="none" points="762.8578,516.0679,772.8578,506.0679,1038.8578,506.0679,1038.8578,597.0679,1028.8578,607.0679,762.8578,607.0679,762.8578,516.0679" style="stroke:#181818;stroke-width:1;"/><line style="stroke:#181818;stroke-width:1;" x1="1028.8578" x2="1038.8578" y1="516.0679" y2="506.0679"/><line style="stroke:#181818;stroke-width:1;" x1="762.8578" x2="1028.8578" y1="516.0679" y2="516.0679"/><line style="stroke:#181818;stroke-width:1;" x1="1028.8578" x2="1028.8578" y1="516.0679" y2="607.0679"/><text fill="#000000" font-family="sans-serif" font-size="14" font-weight="bold" lengthAdjust="spacing" textLength="174.3414" x="809.6871" y="534.0339">Reservation Service Pods</text><text fill="#000000" font-family="sans-serif" font-size="14" font-weight="bold" lengthAdjust="spacing" textLength="200.8012" x="796.4572" y="553.1018">(auto-scaled, stateful-aware)</text></g><!--cluster CheckoutPods--><g class="cluster" data-entity="CheckoutPods" data-source-line="37" data-uid="ent0018" id="cluster_CheckoutPods"><polygon fill="none" points="1046.8578,516.0679,1056.8578,506.0679,1278.8578,506.0679,1278.8578,597.0679,1268.8578,607.0679,1046.8578,607.0679,1046.8578,516.0679" style="stroke:#181818;stroke-width:1;"/><line style="stroke:#181818;stroke-width:1;" x1="1268.8578" x2="1278.8578" y1="516.0679" y2="506.0679"/><line style="stroke:#181818;stroke-width:1;" x1="1046.8578" x2="1268.8578" y1="516.0679" y2="516.0679"/><line style="stroke:#181818;stroke-width:1;" x1="1268.8578" x2="1268.8578" y1="516.0679" y2="607.0679"/><text fill="#000000" font-family="sans-serif" font-size="14" font-weight="bold" lengthAdjust="spacing" textLength="156.8134" x="1080.4511" y="534.0339">Checkout Service Pods</text><text fill="#000000" font-family="sans-serif" font-size="14" font-weight="bold" lengthAdjust="spacing" textLength="90.4117" x="1113.652" y="553.1018">(auto-scaled)</text></g><!--cluster TicketPods--><g class="cluster" data-entity="TicketPods" data-source-line="41" data-uid="ent0020" id="cluster_TicketPods"><polygon fill="none" points="787.8578,276.0679,797.8578,266.0679,1018.8578,266.0679,1018.8578,357.0679,1008.8578,367.0679,787.8578,367.0679,787.8578,276.0679" style="stroke:#181818;stroke-width:1;"/><line style="stroke:#181818;stroke-width:1;" x1="1008.8578" x2="1018.8578" y1="276.0679" y2="266.0679"/><line style="stroke:#181818;stroke-width:1;" x1="787.8578" x2="1008.8578" y1="276.0679" y2="276.0679"/><line style="stroke:#181818;stroke-width:1;" x1="1008.8578" x2="1008.8578" y1="276.0679" y2="367.0679"/><text fill="#000000" font-family="sans-serif" font-size="14" font-weight="bold" lengthAdjust="spacing" textLength="155.5394" x="821.5881" y="294.0339">Ticketing Service Pods</text><text fill="#000000" font-family="sans-serif" font-size="14" font-weight="bold" lengthAdjust="spacing" textLength="90.4117" x="854.152" y="313.1018">(auto-scaled)</text></g><!--cluster NotifPods--><g class="cluster" data-entity="NotifPods" data-source-line="45" data-uid="ent0022" id="cluster_NotifPods"><polygon fill="none" points="1026.8578,276.0679,1036.8578,266.0679,1278.8578,266.0679,1278.8578,357.0679,1268.8578,367.0679,1026.8578,367.0679,1026.8578,276.0679" style="stroke:#181818;stroke-width:1;"/><line style="stroke:#181818;stroke-width:1;" x1="1268.8578" x2="1278.8578" y1="276.0679" y2="266.0679"/><line style="stroke:#181818;stroke-width:1;" x1="1026.8578" x2="1268.8578" y1="276.0679" y2="276.0679"/><line style="stroke:#181818;stroke-width:1;" x1="1268.8578" x2="1268.8578" y1="276.0679" y2="367.0679"/><text fill="#000000" font-family="sans-serif" font-size="14" font-weight="bold" lengthAdjust="spacing" textLength="176.3713" x="1060.6722" y="294.0339">Notification Worker Pods</text><text fill="#000000" font-family="sans-serif" font-size="14" font-weight="bold" lengthAdjust="spacing" textLength="90.4117" x="1103.652" y="313.1018">(auto-scaled)</text></g><!--cluster Data Tier--><g class="cluster" data-entity="Data Tier" data-source-line="50" data-uid="ent0024" id="cluster_Data Tier"><polygon fill="none" points="773.8578,668.0679,783.8578,658.0679,1381.8578,658.0679,1381.8578,796.0679,1371.8578,806.0679,773.8578,806.0679,773.8578,668.0679" style="stroke:#181818;stroke-width:1;"/><line style="stroke:#181818;stroke-width:1;" x1="1371.8578" x2="1381.8578" y1="668.0679" y2="658.0679"/><line style="stroke:#181818;stroke-width:1;" x1="773.8578" x2="1371.8578" y1="668.0679" y2="668.0679"/><line style="stroke:#181818;stroke-width:1;" x1="1371.8578" x2="1371.8578" y1="668.0679" y2="806.0679"/><text fill="#000000" font-family="sans-serif" font-size="14" font-weight="bold" lengthAdjust="spacing" textLength="63.9937" x="1041.861" y="686.0339">Data Tier</text></g><!--cluster External Services--><g class="cluster" data-entity="External Services" data-source-line="56" data-uid="ent0028" id="cluster_External Services"><polygon fill="none" points="1389.8578,701.0679,1399.8578,691.0679,1712.8578,691.0679,1712.8578,763.0679,1702.8578,773.0679,1389.8578,773.0679,1389.8578,701.0679" style="stroke:#181818;stroke-width:1;"/><line style="stroke:#181818;stroke-width:1;" x1="1702.8578" x2="1712.8578" y1="701.0679" y2="691.0679"/><line style="stroke:#181818;stroke-width:1;" x1="1389.8578" x2="1702.8578" y1="701.0679" y2="701.0679"/><line style="stroke:#181818;stroke-width:1;" x1="1702.8578" x2="1702.8578" y1="701.0679" y2="773.0679"/><text fill="#000000" font-family="sans-serif" font-size="14" font-weight="bold" lengthAdjust="spacing" textLength="119.2095" x="1487.7531" y="719.0339">External Services</text></g><!--cluster Observability Stack--><g class="cluster" data-entity="Observability Stack" data-source-line="61" data-uid="ent0031" id="cluster_Observability Stack"><polygon fill="none" points="554.8578,701.0679,564.8578,691.0679,765.8578,691.0679,765.8578,872.0679,755.8578,882.0679,554.8578,882.0679,554.8578,701.0679" style="stroke:#181818;stroke-width:1;"/><line style="stroke:#181818;stroke-width:1;" x1="755.8578" x2="765.8578" y1="701.0679" y2="691.0679"/><line style="stroke:#181818;stroke-width:1;" x1="554.8578" x2="755.8578" y1="701.0679" y2="701.0679"/><line style="stroke:#181818;stroke-width:1;" x1="755.8578" x2="755.8578" y1="701.0679" y2="882.0679"/><text fill="#000000" font-family="sans-serif" font-size="14" font-weight="bold" lengthAdjust="spacing" textLength="135.4915" x="588.6121" y="719.0339">Observability Stack</text></g><!--entity CDN--><g class="entity" data-entity="CDN" data-source-line="10" data-uid="ent0004" id="entity_CDN"><path d="M438.4419,164.9454 C441.6163,158.1521 445.1449,157.9768 449.9913,163.3593 C453.0004,156.7095 459.3426,157.1171 463.035,162.6263 C468.2676,157.4952 472.2396,157.5884 475.9262,164.308 C479.2951,157.4757 483.1892,156.8576 487.9574,163.0117 C491.4748,157.034 496.2331,157.4831 499.919,162.8339 C502.5611,155.9129 509.1611,155.5139 513.1061,161.5031 C517.847,154.8617 522.4726,156.4911 526.1737,162.5713 C529.8982,157.198 533.6664,157.2683 537.5425,162.4074 C542.373,156.9123 547.4012,157.5481 551.0271,163.7912 C553.5689,158.8565 558.594,157.4574 561.745,163.1784 C566.2564,156.764 571.7377,158.5069 575.2392,164.2951 C578.5922,158.6505 584.3834,157.7317 587.6974,164.3347 C599.0667,165.8679 600.6062,172.739 594.8689,181.443 C599.5711,190.4446 596.2176,195.0688 586.904,196.8024 C584.024,203.0123 579.3872,202.0756 575.826,197.5022 C573.4186,203.959 566.8837,204.4595 562.851,199.321 C559.3727,206.387 555.439,208.4619 549.1896,202.1512 C544.803,208.3042 540.668,207.6404 536.6205,201.7961 C534.3446,206.676 529.5613,207.9141 526.0028,203.2181 C522.6157,209.8818 518.5574,209.3536 513.807,204.6854 C510.6623,211.3222 504.4886,210.948 501.257,204.7705 C495.6232,209.8574 489.9069,209.2293 486.8315,201.8177 C482.4453,206.9278 478.5816,207.6166 474.7303,201.2535 C471.2281,206.7855 466.7661,206.1653 463.8255,200.6968 C458.5807,205.0879 454.155,205.5596 451.4805,198.0342 C446.8535,204.8336 439.848,203.7479 437.1257,196.1369 C427.0952,194.6826 425.2184,189.5994 429.0751,180.8376 C423.9522,172.3437 427.5641,164.0085 438.4419,164.9454" fill="#F1F1F1" style="stroke:#181818;stroke-width:0.5;"/><text fill="#000000" font-family="sans-serif" font-size="14" lengthAdjust="spacing" textLength="135.5755" x="443.8578" y="185.0339">CDN / Load Balancer</text></g><g class="entity" data-entity="GMN60" data-source-line="97" data-uid="ent0061" id="entity_GMN60"><path d="M1523.8578,548.0679 L1523.8578,611.186 L1722.126,611.186 L1722.126,558.0679 L1712.126,548.0679 L1523.8578,548.0679" fill="#FEFFDD" style="stroke:#181818;stroke-width:0.5;"/><path d="M1712.126,548.0679 L1712.126,558.0679 L1722.126,558.0679 L1712.126,548.0679" fill="#FEFFDD" style="stroke:#181818;stroke-width:1;"/><text fill="#000000" font-family="sans-serif" font-size="13" lengthAdjust="spacing" textLength="158.7691" x="1529.8578" y="566.9649">Horizontal Pod Autoscaler</text><text fill="#000000" font-family="sans-serif" font-size="13" lengthAdjust="spacing" textLength="177.2682" x="1529.8578" y="584.6709">scales on CPU + queue depth</text><text fill="#000000" font-family="sans-serif" font-size="13" lengthAdjust="spacing" textLength="167.2971" x="1529.8578" y="602.377">during ticket-release spikes</text></g><g class="entity" data-entity="GMN63" data-source-line="103" data-uid="ent0064" id="entity_GMN63"><path d="M1722.8578,705.0679 L1722.8578,785.892 A0,0 0 0 0 1722.8578,785.892 L1901.002,785.892 A0,0 0 0 0 1901.002,785.892 L1901.002,715.0679 L1891.002,705.0679 L1789.8751,705.0679 L886.491,711.8789 L1781.8751,705.0679 L1722.8578,705.0679 A0,0 0 0 0 1722.8578,705.0679" fill="#FEFFDD" style="stroke:#181818;stroke-width:0.5;"/><path d="M1891.002,705.0679 L1891.002,715.0679 L1901.002,715.0679 L1891.002,705.0679" fill="#FEFFDD" style="stroke:#181818;stroke-width:0.5;"/><text fill="#000000" font-family="sans-serif" font-size="13" lengthAdjust="spacing" textLength="157.1441" x="1728.8578" y="723.9649">Sentinel/Cluster mode for</text><text fill="#000000" font-family="sans-serif" font-size="13" lengthAdjust="spacing" textLength="141.1671" x="1728.8578" y="741.6709">HA; fallback to DB-level</text><text fill="#000000" font-family="sans-serif" font-size="13" lengthAdjust="spacing" textLength="132.9251" x="1728.8578" y="759.377">advisory locks if Redis</text><text fill="#000000" font-family="sans-serif" font-size="13" lengthAdjust="spacing" textLength="128.4661" x="1728.8578" y="777.083">becomes unavailable</text></g><!--entity Web / Mobile Client--><g class="entity" data-entity="Web . Mobile Client" data-source-line="7" data-uid="ent0003" id="entity_Web . Mobile Client"><rect fill="#F1F1F1" height="39.0679" rx="2.5" ry="2.5" style="stroke:#181818;stroke-width:0.5;" width="148.2255" x="437.8578" y="79.0679"/><text fill="#000000" font-family="sans-serif" font-size="14" lengthAdjust="spacing" textLength="128.2255" x="447.8578" y="104.0339">Web / Mobile Client</text></g><!--entity NGINX Ingress Controller--><g class="entity" data-entity="NGINX Ingress Controller" data-source-line="14" data-uid="ent0007" id="entity_NGINX Ingress Controller"><rect fill="#F1F1F1" height="39.0679" rx="2.5" ry="2.5" style="stroke:#181818;stroke-width:0.5;" width="186.9774" x="418.3578" y="320.0679"/><text fill="#000000" font-family="sans-serif" font-size="14" lengthAdjust="spacing" textLength="166.9774" x="428.3578" y="345.0339">NGINX Ingress Controller</text></g><!--entity API Gateway--><g class="entity" data-entity="API Gateway" data-source-line="18" data-uid="ent0009" id="entity_API Gateway"><rect fill="#F1F1F1" height="39.0679" rx="2.5" ry="2.5" style="stroke:#181818;stroke-width:0.5;" width="102.7957" x="550.3578" y="440.0679"/><text fill="#000000" font-family="sans-serif" font-size="14" lengthAdjust="spacing" textLength="82.7957" x="560.3578" y="465.0339">API Gateway</text></g><!--entity Auth Service--><g class="entity" data-entity="Auth Service" data-source-line="22" data-uid="ent0011" id="entity_Auth Service"><rect fill="#F1F1F1" height="39.0679" rx="2.5" ry="2.5" style="stroke:#181818;stroke-width:0.5;" width="101.6477" x="194.8578" y="560.0679"/><text fill="#000000" font-family="sans-serif" font-size="14" lengthAdjust="spacing" textLength="81.6477" x="204.8578" y="585.0339">Auth Service</text></g><!--entity Catalog Service--><g class="entity" data-entity="Catalog Service" data-source-line="26" data-uid="ent0013" id="entity_Catalog Service"><rect fill="#F1F1F1" height="39.0679" rx="2.5" ry="2.5" style="stroke:#181818;stroke-width:0.5;" width="120.6456" x="403.3578" y="560.0679"/><text fill="#000000" font-family="sans-serif" font-size="14" lengthAdjust="spacing" textLength="100.6456" x="413.3578" y="585.0339">Catalog Service</text></g><!--entity Waiting Room Service--><g class="entity" data-entity="Waiting Room Service" data-source-line="30" data-uid="ent0015" id="entity_Waiting Room Service"><rect fill="#F1F1F1" height="39.0679" rx="2.5" ry="2.5" style="stroke:#181818;stroke-width:0.5;" width="163.1354" x="583.3578" y="560.0679"/><text fill="#000000" font-family="sans-serif" font-size="14" lengthAdjust="spacing" textLength="143.1354" x="593.3578" y="585.0339">Waiting Room Service</text></g><!--entity Reservation Service--><g class="entity" data-entity="Reservation Service" data-source-line="34" data-uid="ent0017" id="entity_Reservation Service"><rect fill="#F1F1F1" height="39.0679" rx="2.5" ry="2.5" style="stroke:#181818;stroke-width:0.5;" width="148.0855" x="882.8578" y="560.0679"/><text fill="#000000" font-family="sans-serif" font-size="14" lengthAdjust="spacing" textLength="128.0855" x="892.8578" y="585.0339">Reservation Service</text></g><!--entity Checkout Service--><g class="entity" data-entity="Checkout Service" data-source-line="38" data-uid="ent0019" id="entity_Checkout Service"><rect fill="#F1F1F1" height="39.0679" rx="2.5" ry="2.5" style="stroke:#181818;stroke-width:0.5;" width="132.1115" x="1114.8578" y="560.0679"/><text fill="#000000" font-family="sans-serif" font-size="14" lengthAdjust="spacing" textLength="112.1115" x="1124.8578" y="585.0339">Checkout Service</text></g><!--entity Ticketing Service--><g class="entity" data-entity="Ticketing Service" data-source-line="42" data-uid="ent0021" id="entity_Ticketing Service"><rect fill="#F1F1F1" height="39.0679" rx="2.5" ry="2.5" style="stroke:#181818;stroke-width:0.5;" width="129.7596" x="880.8578" y="320.0679"/><text fill="#000000" font-family="sans-serif" font-size="14" lengthAdjust="spacing" textLength="109.7596" x="890.8578" y="345.0339">Ticketing Service</text></g><!--entity Notification Service--><g class="entity" data-entity="Notification Service" data-source-line="46" data-uid="ent0023" id="entity_Notification Service"><rect fill="#F1F1F1" height="39.0679" rx="2.5" ry="2.5" style="stroke:#181818;stroke-width:0.5;" width="146.9095" x="1123.3578" y="320.0679"/><text fill="#000000" font-family="sans-serif" font-size="14" lengthAdjust="spacing" textLength="126.9095" x="1133.3578" y="345.0339">Notification Service</text></g><!--entity PG--><g class="entity" data-entity="PG" data-source-line="51" data-uid="ent0025" id="entity_PG"><path d="M968.3578,703.0679 C968.3578,693.0679 1067.9155,693.0679 1067.9155,693.0679 C1067.9155,693.0679 1167.4731,693.0679 1167.4731,703.0679 L1167.4731,788.3396 C1167.4731,798.3396 1067.9155,798.3396 1067.9155,798.3396 C1067.9155,798.3396 968.3578,798.3396 968.3578,788.3396 L968.3578,703.0679" fill="#F1F1F1" style="stroke:#181818;stroke-width:0.5;"/><path d="M968.3578,703.0679 C968.3578,713.0679 1067.9155,713.0679 1067.9155,713.0679 C1067.9155,713.0679 1167.4731,713.0679 1167.4731,703.0679" fill="none" style="stroke:#181818;stroke-width:0.5;"/><text fill="#000000" font-family="sans-serif" font-size="14" lengthAdjust="spacing" textLength="76.9437" x="978.3578" y="732.0339">PostgreSQL</text><text fill="#000000" font-family="sans-serif" font-size="14" lengthAdjust="spacing" textLength="165.8434" x="978.3578" y="751.1018">(Primary + Read Replicas)</text><text fill="#000000" font-family="sans-serif" font-size="14" lengthAdjust="spacing" textLength="179.1153" x="978.3578" y="770.1697">users, events, reservations,</text><text fill="#000000" font-family="sans-serif" font-size="14" lengthAdjust="spacing" textLength="114.9116" x="978.3578" y="789.2376">payments, tickets</text></g><!--entity Redis--><g class="entity" data-entity="Redis" data-source-line="52" data-uid="ent0026" id="entity_Redis"><path d="M781.8578,722.0679 C781.8578,712.0679 865.8895,712.0679 865.8895,712.0679 C865.8895,712.0679 949.9212,712.0679 949.9212,722.0679 L949.9212,769.2038 C949.9212,779.2038 865.8895,779.2038 865.8895,779.2038 C865.8895,779.2038 781.8578,779.2038 781.8578,769.2038 L781.8578,722.0679" fill="#F1F1F1" style="stroke:#181818;stroke-width:0.5;"/><path d="M781.8578,722.0679 C781.8578,732.0679 865.8895,732.0679 865.8895,732.0679 C865.8895,732.0679 949.9212,732.0679 949.9212,722.0679" fill="none" style="stroke:#181818;stroke-width:0.5;"/><text fill="#000000" font-family="sans-serif" font-size="14" lengthAdjust="spacing" textLength="85.7217" x="791.8578" y="751.0339">Redis Cluster</text><text fill="#000000" font-family="sans-serif" font-size="14" lengthAdjust="spacing" textLength="148.0634" x="791.8578" y="770.1018">(seat locks, cache, TTL)</text></g><!--entity Kafka--><g class="entity" data-entity="Kafka" data-source-line="53" data-uid="ent0027" id="entity_Kafka"><path d="M1190.8578,721.5679 L1368.3952,721.5679 C1373.3952,721.5679 1373.3952,745.6358 1373.3952,745.6358 C1373.3952,745.6358 1373.3952,769.7038 1368.3952,769.7038 L1190.8578,769.7038 C1185.8578,769.7038 1185.8578,745.6358 1185.8578,745.6358 C1185.8578,745.6358 1185.8578,721.5679 1190.8578,721.5679" fill="#F1F1F1" style="stroke:#181818;stroke-width:0.5;"/><path d="M1368.3952,721.5679 C1363.3952,721.5679 1363.3952,745.6358 1363.3952,745.6358 C1363.3952,769.7038 1368.3952,769.7038 1368.3952,769.7038" fill="none" style="stroke:#181818;stroke-width:0.5;"/><text fill="#000000" font-family="sans-serif" font-size="14" lengthAdjust="spacing" textLength="86.8557" x="1190.8578" y="741.5339">Kafka Cluster</text><text fill="#000000" font-family="sans-serif" font-size="14" lengthAdjust="spacing" textLength="167.5374" x="1190.8578" y="760.6018">(order/notification topics)</text></g><!--entity Payment Gateway--><g class="entity" data-entity="Payment Gateway" data-source-line="57" data-uid="ent0029" id="entity_Payment Gateway"><rect fill="#F1F1F1" height="39.0679" rx="2.5" ry="2.5" style="stroke:#181818;stroke-width:0.5;" width="138.7895" x="1398.3578" y="726.0679"/><text fill="#000000" font-family="sans-serif" font-size="14" lengthAdjust="spacing" textLength="118.7895" x="1408.3578" y="751.0339">Payment Gateway</text></g><!--entity Email/SMS Provider--><g class="entity" data-entity="Email.SMS Provider" data-source-line="58" data-uid="ent0030" id="entity_Email.SMS Provider"><rect fill="#F1F1F1" height="39.0679" rx="2.5" ry="2.5" style="stroke:#181818;stroke-width:0.5;" width="148.6035" x="1555.3578" y="726.0679"/><text fill="#000000" font-family="sans-serif" font-size="14" lengthAdjust="spacing" textLength="128.6035" x="1565.3578" y="751.0339">Email/SMS Provider</text></g><!--entity Prometheus--><g class="entity" data-entity="Prometheus" data-source-line="62" data-uid="ent0032" id="entity_Prometheus"><rect fill="#F1F1F1" height="39.0679" rx="2.5" ry="2.5" style="stroke:#181818;stroke-width:0.5;" width="100.6677" x="656.3578" y="726.0679"/><text fill="#000000" font-family="sans-serif" font-size="14" lengthAdjust="spacing" textLength="80.6677" x="666.3578" y="751.0339">Prometheus</text></g><!--entity Grafana--><g class="entity" data-entity="Grafana" data-source-line="63" data-uid="ent0033" id="entity_Grafana"><rect fill="#F1F1F1" height="39.0679" rx="2.5" ry="2.5" style="stroke:#181818;stroke-width:0.5;" width="73.0038" x="670.3578" y="835.0679"/><text fill="#000000" font-family="sans-serif" font-size="14" lengthAdjust="spacing" textLength="53.0038" x="680.3578" y="860.0339">Grafana</text></g><g class="link" data-entity-1="Web . Mobile Client" data-entity-2="CDN" data-uid="lnk34" id="link_Web . Mobile Client_CDN"><polygon fill="#181818" points="511.8578,154.8787,515.8578,145.8787,511.8578,149.8787,507.8578,145.8787,511.8578,154.8787" style="stroke:#181818;stroke-width:1;"/><path d="M511.8578,118.2898 C511.8578,129.2405 511.8578,137.1696 511.8578,148.8787" fill="none" style="stroke:#181818;stroke-width:1;"/></g><g class="link" data-entity-1="CDN" data-entity-2="NGINX Ingress Controller" data-uid="lnk35" id="link_CDN_NGINX Ingress Controller"><polygon fill="#181818" points="511.8578,319.7116,515.8578,310.7116,511.8578,314.7116,507.8578,310.7116,511.8578,319.7116" style="stroke:#181818;stroke-width:1;"/><path d="M511.8578,204.2221 C511.8578,235.7301 511.8578,284.8424 511.8578,313.7116" fill="none" style="stroke:#181818;stroke-width:1;"/></g><g class="link" data-entity-1="NGINX Ingress Controller" data-entity-2="GWPods" data-uid="lnk36" id="link_NGINX Ingress Controller_GWPods"><polygon fill="#181818" points="511.8578,385.8745,515.8578,376.8745,511.8578,380.8745,507.8578,376.8745,511.8578,385.8745" style="stroke:#181818;stroke-width:1;"/><path d="M511.8578,359.2654 C511.8578,365.4715 511.8578,372.8173 511.8578,380.6617 C511.8578,381.6423 511.8578,382.6306 511.8578,383.6255 C511.8578,384.1229 511.8578,384.622 511.8578,385.1225 C511.8578,385.3728 511.8578,379.6235 511.8578,379.8745" fill="none" style="stroke:#181818;stroke-width:1;"/></g><g class="link" data-entity-1="GWPods" data-entity-2="AuthPods" data-uid="lnk37" id="link_GWPods_AuthPods"><polygon fill="#181818" points="186.1437,505.8094,195.5155,502.7814,189.8671,502.4724,190.1762,496.824,186.1437,505.8094" style="stroke:#181818;stroke-width:1;"/><path d="M472.677,460.6835 C471.9678,460.6932 471.2509,460.7034 470.5265,460.7141 C467.629,460.7568 464.6117,460.8074 461.4853,460.8672 C455.2327,460.9867 448.5439,461.1429 441.5053,461.3456 C413.3506,462.1565 379.5975,463.713 345.7607,466.6556 C311.924,469.5981 278.0038,473.9267 249.5149,480.282 C235.2705,483.4596 222.384,487.1438 211.5447,491.4148 C206.125,493.5503 201.2172,495.8324 196.9073,498.2713 C194.7524,499.4907 192.7469,500.7493 190.9018,502.0483 C189.9792,502.6978 189.0967,503.3575 188.2556,504.0273 C187.835,504.3623 187.4248,504.6998 187.0251,505.0399 C186.8253,505.2099 186.6281,505.3806 186.4335,505.5519 C186.3362,505.6376 190.7077,501.719 190.6118,501.8049" fill="none" style="stroke:#181818;stroke-width:1;"/></g><g class="link" data-entity-1="GWPods" data-entity-2="CatalogPods" data-uid="lnk38" id="link_GWPods_CatalogPods"><polygon fill="#181818" points="394.0331,505.8674,402.9742,501.7374,397.3295,502.1079,396.959,496.4632,394.0331,505.8674" style="stroke:#181818;stroke-width:1;"/><path d="M472.5941,466.0607 C472.4422,466.0939 472.2901,466.1273 472.1377,466.1609 C471.833,466.2281 471.5274,466.2961 471.2209,466.3649 C469.9948,466.64 468.7545,466.928 467.5019,467.2294 C462.4918,468.4349 457.2862,469.8549 452.0145,471.5268 C441.4711,474.8706 430.6633,479.2218 420.6256,484.8791 C415.6068,487.7078 410.7805,490.8629 406.2761,494.3819 C404.0239,496.1415 401.8521,497.9919 399.777,499.938 C398.7395,500.9111 397.7261,501.9081 396.7389,502.9295 C396.2453,503.4402 395.7582,503.9571 395.278,504.4801 C395.0378,504.7416 394.7994,505.0047 394.5627,505.2693 C394.4444,505.4017 394.3264,505.5344 394.209,505.6675 C394.1502,505.734 398.0473,501.2893 397.9887,501.356" fill="none" style="stroke:#181818;stroke-width:1;"/></g><g class="link" data-entity-1="GWPods" data-entity-2="WaitPods" data-uid="lnk39" id="link_GWPods_WaitPods"><polygon fill="#181818" points="540.7792,516.4897,541.5813,506.6736,539.1273,511.7704,534.0305,509.3165,540.7792,516.4897" style="stroke:#181818;stroke-width:1;"/><path d="M527.8265,487.1796 C527.9254,487.3638 528.0243,487.5484 528.1231,487.7334 C531.2852,493.6527 534.382,499.9719 536.8578,506.0679 C537.9265,508.6991 538.9579,511.4065 539.9507,514.1582 C540.1989,514.8461 540.4447,515.5368 540.688,516.2297 C540.7185,516.3163 538.7666,510.7399 538.797,510.8266" fill="none" style="stroke:#181818;stroke-width:1;"/></g><g class="link" data-entity-1="GWPods" data-entity-2="ResPods" data-uid="lnk40" id="link_GWPods_ResPods"><polygon fill="#181818" points="762.4144,507.4719,755.6089,500.3526,757.7893,505.5723,752.5696,507.7528,762.4144,507.4719" style="stroke:#181818;stroke-width:1;"/><path d="M540.8578,487.0679 C629.911,526.1613 667.9026,471.6308 758.8578,506.0679 C760.0454,506.5175 755.681,504.7064 756.8643,505.1924" fill="none" style="stroke:#181818;stroke-width:1;"/></g><g class="link" data-entity-1="GWPods" data-entity-2="CheckoutPods" data-uid="lnk41" id="link_GWPods_CheckoutPods"><polygon fill="#181818" points="1046.7439,509.3419,1042.9797,500.2407,1043.1211,505.8958,1037.466,506.0372,1046.7439,509.3419" style="stroke:#181818;stroke-width:1;"/><path d="M540.8578,487.0679 C592.5031,508.2431 998.0295,472.8107 1042.8578,506.0679 C1044.0741,506.9703 1045.2317,507.9356 1046.3334,508.9565 C1046.4711,509.0841 1042.2605,505.0773 1042.3965,505.2066" fill="none" style="stroke:#181818;stroke-width:1;"/></g><g class="link" data-entity-1="AuthPods" data-entity-2="PG" data-uid="lnk42" id="link_AuthPods_PG"><polygon fill="#181818" points="1016.3322,692.8922,1011.8957,684.0991,1012.461,689.7277,1006.8325,690.293,1016.3322,692.8922" style="stroke:#181818;stroke-width:1;"/><path d="M178.1295,607.1393 C178.2134,607.2632 178.2979,607.3867 178.3832,607.5096 C179.0656,608.493 179.7945,609.442 180.5727,610.3433 C182.1291,612.1457 183.8831,613.7567 185.8578,615.0679 C295.0901,687.5987 643.9112,643.3311 774.8578,650.0679 C795.2946,651.1193 939.6853,650.914 958.8578,658.0679 C979.5679,665.7955 994.753,675.2521 1011.6868,689.0948" fill="none" style="stroke:#181818;stroke-width:1;"/></g><g class="link" data-entity-1="CatalogPods" data-entity-2="PG" data-uid="lnk43" id="link_CatalogPods_PG"><polygon fill="#181818" points="1014.0789,692.9593,1009.5699,684.2033,1010.1817,689.8269,1004.558,690.4387,1014.0789,692.9593" style="stroke:#181818;stroke-width:1;"/><path d="M385.9873,607.0906 C386.0721,607.2162 386.1577,607.3413 386.2441,607.4658 C386.9348,608.4617 387.6741,609.4216 388.4652,610.331 C390.0473,612.1499 391.8364,613.7671 393.8578,615.0679 C415.2182,628.8133 825.9228,624.2257 850.8578,629.0679 C877.3607,634.2146 881.7281,643.2763 907.8578,650.0679 C930.0638,655.8397 937.845,648.8549 958.8578,658.0679 C978.4386,666.653 992.8311,675.8811 1009.4023,689.2004" fill="none" style="stroke:#181818;stroke-width:1;"/></g><g class="link" data-entity-1="ResPods" data-entity-2="Redis" data-uid="lnk44" id="link_ResPods_Redis"><polygon fill="#181818" points="864.0695,711.9814,867.5704,702.7758,863.7956,706.989,859.5824,703.2142,864.0695,711.9814" style="stroke:#181818;stroke-width:1;"/><path d="M858.3242,607.2877 C858.3316,607.4233 858.3391,607.5592 858.3465,607.6955 C858.3615,607.9682 858.3765,608.2423 858.3917,608.5179 C858.5127,610.7229 858.6388,613.0218 858.7694,615.401 C859.2917,624.9178 859.8844,635.7189 860.4994,646.9249 C861.7293,669.3367 862.7193,687.3767 863.7408,705.9905" fill="none" style="stroke:#181818;stroke-width:1;"/></g><g class="link" data-entity-1="ResPods" data-entity-2="PG" data-uid="lnk45" id="link_ResPods_PG"><polygon fill="#181818" points="1006.2749,693.013,1001.6776,684.303,1002.3462,689.9202,996.729,690.5889,1006.2749,693.013" style="stroke:#181818;stroke-width:1;"/><path d="M867.3535,607.0885 C867.3934,607.1506 867.4334,607.2127 867.4735,607.2747 C867.5537,607.3987 867.6345,607.5223 867.7158,607.6456 C867.8783,607.8922 868.043,608.1375 868.2097,608.3812 C868.5432,608.8686 868.8851,609.3499 869.2355,609.8237 C870.6371,611.7188 872.1751,613.4947 873.8578,615.0679 C885.7952,626.2286 893.17,621.9035 907.8578,629.0679 C931.2934,640.4992 937.2482,643.476 958.8578,658.0679 C974.6746,668.7482 986.3952,677.3628 1001.5605,689.3016" fill="none" style="stroke:#181818;stroke-width:1;"/></g><g class="link" data-entity-1="ResPods" data-entity-2="Kafka" data-uid="lnk46" id="link_ResPods_Kafka"><polygon fill="#181818" points="1258.3799,721.2206,1254.9126,712.0022,1254.8707,717.6589,1249.214,717.6169,1258.3799,721.2206" style="stroke:#181818;stroke-width:1;"/><path d="M866.1642,607.0875 C866.2478,607.2118 866.3322,607.3356 866.4173,607.4589 C867.0979,608.4449 867.8243,609.3975 868.5995,610.3032 C870.1499,612.1147 871.8951,613.7387 873.8578,615.0679 C907.0772,637.5657 1014.2154,622.8906 1053.8578,629.0679 C1109.3536,637.7156 1126.657,632.8798 1176.8578,658.0679 C1208.5824,673.9857 1234.7346,697.2217 1254.1688,716.9466" fill="none" style="stroke:#181818;stroke-width:1;"/></g><g class="link" data-entity-1="CheckoutPods" data-entity-2="PG" data-uid="lnk47" id="link_CheckoutPods_PG"><polygon fill="#181818" points="1067.8578,692.709,1071.8578,683.709,1067.8578,687.709,1063.8578,683.709,1067.8578,692.709" style="stroke:#181818;stroke-width:1;"/><path d="M1067.8578,607.0978 C1067.8578,607.2114 1067.8578,607.3253 1067.8578,607.4395 C1067.8578,607.6678 1067.8578,607.8971 1067.8578,608.1275 C1067.8578,609.0492 1067.8578,609.9875 1067.8578,610.9416 C1067.8578,618.5743 1067.8578,627.213 1067.8578,636.3358 C1067.8578,654.5814 1067.8578,668.7638 1067.8578,686.709" fill="none" style="stroke:#181818;stroke-width:1;"/></g><g class="link" data-entity-1="CheckoutPods" data-entity-2="Payment Gateway" data-uid="lnk48" id="link_CheckoutPods_Payment Gateway"><polygon fill="#181818" points="1455.8281,725.9853,1453.9417,716.3188,1452.9599,721.8898,1447.3889,720.9081,1455.8281,725.9853" style="stroke:#181818;stroke-width:1;"/><path d="M1093.0205,607.0725 C1094.3625,608.1093 1095.7378,609.1118 1097.1413,610.0648 C1099.9482,611.9709 1102.8678,613.679 1105.8578,615.0679 C1148.5558,634.9016 1164.2955,622.1075 1210.8578,629.0679 C1288.8299,640.7236 1316.2279,621.0925 1385.8578,658.0679 C1416.1956,674.1781 1438.2258,700.8515 1452.3862,721.0707" fill="none" style="stroke:#181818;stroke-width:1;"/></g><g class="link" data-entity-1="CheckoutPods" data-entity-2="Kafka" data-uid="lnk49" id="link_CheckoutPods_Kafka"><polygon fill="#181818" points="1267.3243,721.301,1266.2166,711.5147,1264.7926,716.9894,1259.3179,715.5654,1267.3243,721.301" style="stroke:#181818;stroke-width:1;"/><path d="M1093.3601,607.0834 C1093.444,607.1485 1093.5279,607.2135 1093.612,607.2784 C1093.7802,607.4081 1093.9489,607.5374 1094.118,607.6661 C1094.4563,607.9234 1094.7965,608.1787 1095.1385,608.4315 C1095.8225,608.9371 1096.5137,609.4332 1097.2116,609.9178 C1100.003,611.8563 1102.8998,613.612 1105.8578,615.0679 C1137.4583,630.6213 1153.4242,611.3398 1183.8578,629.0679 C1221.9341,651.248 1248.5371,689.3051 1264.2863,716.127" fill="none" style="stroke:#181818;stroke-width:1;"/></g><g class="link" data-entity-1="Kafka" data-entity-2="TicketPods" data-uid="lnk50" id="link_Kafka_TicketPods"><polygon fill="#181818" points="871.8578,367.0679,877.5019,375.1391,876.1404,369.6486,881.6309,368.2871,871.8578,367.0679" style="stroke:#181818;stroke-width:1;"/><path d="M1297.2207,721.5594 C1309.8754,703.2694 1325.9629,676.4571 1332.8578,650.0679 C1349.2982,587.1454 1345.1719,558.6185 1306.8578,506.0679 C1243.5282,419.2065 1199.4994,418.0094 1096.8578,386.0679 C1048.9462,371.1581 919.9748,396.0632 876.9969,370.1647" fill="none" style="stroke:#181818;stroke-width:1;"/></g><g class="link" data-entity-1="TicketPods" data-entity-2="PG" data-uid="lnk51" id="link_TicketPods_PG"><polygon fill="#181818" points="1126.471,693.0669,1136.0152,690.6359,1130.3975,689.9713,1131.0622,684.3536,1126.471,693.0669" style="stroke:#181818;stroke-width:1;"/><path d="M871.8578,367.0679 C1023.8052,485.7928 1170.4502,349.3895 1282.8578,506.0679 C1311.0978,545.4299 1309.9194,574.8866 1282.8578,615.0679 C1254.4581,657.236 1220.7717,632.4503 1176.8578,658.0679 C1159.6424,668.1107 1146.9144,676.9493 1131.1828,689.3521" fill="none" style="stroke:#181818;stroke-width:1;"/></g><g class="link" data-entity-1="TicketPods" data-entity-2="Kafka" data-uid="lnk52" id="link_TicketPods_Kafka"><polygon fill="#181818" points="1303.398,721.3536,1312.4231,717.4107,1306.7719,717.6636,1306.519,712.0124,1303.398,721.3536" style="stroke:#181818;stroke-width:1;"/><path d="M871.8578,367.0679 C904.15,385.9213 1173.4305,371.4736 1207.8578,386.0679 C1280.2519,416.757 1303.1415,435.5166 1337.8578,506.0679 C1366.197,563.6595 1368.7646,589.0464 1348.8578,650.0679 C1339.9115,677.4917 1323.7089,699.1397 1307.4467,716.9255" fill="none" style="stroke:#181818;stroke-width:1;"/></g><g class="link" data-entity-1="Kafka" data-entity-2="NotifPods" data-uid="lnk53" id="link_Kafka_NotifPods"><polygon fill="#181818" points="1114.8578,367.0679,1120.8134,374.9121,1119.2381,369.479,1124.6712,367.9037,1114.8578,367.0679" style="stroke:#181818;stroke-width:1;"/><path d="M1301.5856,721.399 C1321.5796,701.5105 1353.0304,673.6583 1385.8578,658.0679 C1401.8411,650.4771 1413.6736,663.7792 1424.8578,650.0679 C1463.2041,603.0572 1467.0584,420.6518 1424.8578,377.0679 C1400.8853,352.3096 1150.3048,386.5798 1120.1141,369.9613" fill="none" style="stroke:#181818;stroke-width:1;"/></g><g class="link" data-entity-1="NotifPods" data-entity-2="Email.SMS Provider" data-uid="lnk54" id="link_NotifPods_Email.SMS Provider"><polygon fill="#181818" points="1611.2313,725.8815,1607.7674,716.6619,1607.7234,722.3186,1602.0667,722.2746,1611.2313,725.8815" style="stroke:#181818;stroke-width:1;"/><path d="M1114.8578,367.0679 C1146.4227,384.4143 1403.936,368.2531 1438.8578,377.0679 C1447.5301,379.2569 1451.2504,379.0996 1456.8578,386.0679 C1522.6799,467.8644 1465.714,522.2881 1514.8578,615.0679 C1527.8763,639.6458 1577.9262,692.0545 1607.0218,721.606" fill="none" style="stroke:#181818;stroke-width:1;"/></g><g class="link" data-entity-1="NotifPods" data-entity-2="PG" data-uid="lnk55" id="link_NotifPods_PG"><polygon fill="#181818" points="1119.7397,692.8726,1129.2432,690.2875,1123.6155,689.7139,1124.1891,684.0862,1119.7397,692.8726" style="stroke:#181818;stroke-width:1;"/><path d="M1114.8578,367.0679 C1133.8617,377.7618 1295.8366,361.2607 1310.8578,377.0679 C1394.4391,465.0222 1394.0577,561.7528 1310.8578,650.0679 C1300.6301,660.9244 1190.7895,652.7408 1176.8578,658.0679 C1156.3237,665.9197 1141.2661,675.3287 1124.3907,689.0821" fill="none" style="stroke:#181818;stroke-width:1;"/></g><g class="link" data-entity-1="GWPods" data-entity-2="Prometheus" data-uid="lnk56" id="link_GWPods_Prometheus"><polygon fill="#181818" points="656.1258,742.8747,647.2995,738.5047,651.1301,742.6672,646.9675,746.4978,656.1258,742.8747" style="stroke:#181818;stroke-width:1;"/><path d="M471.7913,461.3277 C471.3052,461.3387 470.8154,461.3499 470.322,461.3612 C469.3351,461.3838 468.3335,461.407 467.3175,461.4308 C451.0611,461.8112 431.1164,462.3404 408.784,463.0614 C364.1193,464.5033 309.9037,466.7125 256.5421,470.0339 C149.8188,476.6767 46.5113,487.7683 29.8578,506.0679 C-2.7482,541.8968 -1.0124,577.733 29.8578,615.0679 C109.782,711.7295 506.7562,736.6711 650.1309,742.6257" fill="none" style="stroke:#181818;stroke-width:1;stroke-dasharray:7,7;"/><text fill="#000000" font-family="sans-serif" font-size="13" lengthAdjust="spacing" textLength="45.37" x="31.8578" y="584.9649">metrics</text></g><g class="link" data-entity-1="ResPods" data-entity-2="Prometheus" data-uid="lnk57" id="link_ResPods_Prometheus"><polygon fill="#181818" points="718.8202,725.8067,727.1116,720.4914,721.5708,721.6313,720.4309,716.0904,718.8202,725.8067" style="stroke:#181818;stroke-width:1;"/><path d="M823.6101,607.2749 C820.2307,610.1301 816.7119,613.148 813.1127,616.2947 C798.7159,628.8816 783.0342,643.5293 769.8578,658.0679 C750.1457,679.818 734.0685,702.6594 722.1209,720.7962" fill="none" style="stroke:#181818;stroke-width:1;stroke-dasharray:7,7;"/><text fill="#000000" font-family="sans-serif" font-size="13" lengthAdjust="spacing" textLength="45.37" x="799.8578" y="644.9649">metrics</text></g><g class="link" data-entity-1="CheckoutPods" data-entity-2="Prometheus" data-uid="lnk58" id="link_CheckoutPods_Prometheus"><polygon fill="#181818" points="714.6434,726.0614,722.108,719.6364,716.7816,721.5417,714.8764,716.2153,714.6434,726.0614" style="stroke:#181818;stroke-width:1;"/><path d="M1052.0934,607.0738 C1052.0373,607.1363 1051.981,607.1987 1051.9247,607.261 C1051.0227,608.2575 1050.085,609.2239 1049.1121,610.1472 C1047.1663,611.9939 1045.0798,613.6686 1042.8578,615.0679 C1006.1591,638.1795 893.807,644.0426 850.8578,650.0679 C832.9457,652.5808 785.5557,649.0824 769.8578,658.0679 C742.9313,673.4807 726.8915,700.1712 717.2093,720.6377" fill="none" style="stroke:#181818;stroke-width:1;stroke-dasharray:7,7;"/><text fill="#000000" font-family="sans-serif" font-size="13" lengthAdjust="spacing" textLength="45.37" x="1002.8578" y="644.9649">metrics</text></g><g class="link" data-entity-1="Prometheus" data-entity-2="Grafana" data-uid="lnk59" id="link_Prometheus_Grafana"><polygon fill="#181818" points="706.8578,834.7845,710.8578,825.7845,706.8578,829.7845,702.8578,825.7845,706.8578,834.7845" style="stroke:#181818;stroke-width:1;"/><path d="M706.8578,765.2059 C706.8578,784.7253 706.8578,809.2109 706.8578,828.7845" fill="none" style="stroke:#181818;stroke-width:1;"/></g><g class="link" data-entity-1="ResPods" data-entity-2="GMN60" data-uid="lnk62" id="link_ResPods_GMN60"><path d="M870.1954,506.023 C870.3314,505.8633 870.4687,505.7046 870.6073,505.5472 C871.7155,504.2877 872.9028,503.1039 874.1744,502.0073 C876.7176,499.8142 879.598,497.9701 882.8578,496.5679 C914.3973,483.0018 1468.0448,486.4644 1500.8578,496.5679 C1533.6652,506.6697 1565.5538,528.9371 1588.4966,547.8665" fill="none" style="stroke:#181818;stroke-width:1;stroke-dasharray:7,7;"/></g><!--SRC=[XLPDJzj04BtxLqmv5PN0lPMGWA202jHDg589E4piIRBAUZVTNQTDA_vxPzSVMHi2fzWpyzxCVhpdV5WRN1G84hUwT60BSgWmSS99WdkHhSYbihGmW26jfTuMf1mC1IuC5abYLqAjaHyXqyLQAqvEt9QHXZBcMKXA4gLpWeCBAGAIDY8ZUm3_4e27AStW16xrJ32agdXAdfCaaxhC6JEyu_IDnXpEKQBAo1m0Mk1uG_krd95Hv8YZFARp5PwwobwhXI5RT-D-TwFhkvzGH-52AsUqb6IUECrj6zXPUWqZTFGRjv3gt3wgZrWwFR0PIieFmmoZgSyqn16YntMTywA4syA4Z5_wNiApqYqxbFpUW7gS5-XGwiMxb7LTpDg3zeYdA9nG2nXhNUnbzKKnPGVqEk-OBCVH2QtU6Fe8hECzd9ToWB_HKDMEiN6tLwZwkxEaRENlyhlRKnTszgS7xd5NWl2hVO-ybav4_GBRuxxJJin5LYrjgisAp5xsK1kJTy0T_kT6AaC-UXwhKKZEhpEqd4YrTQo8oVSRRfKQKQ3PmYVUUDRTc4NFjFRmKPMyyVO8QCCNcd_DxY3iqIExGB06JhYmJXlcJ4UTJcFAHIjKRcO97KYThHYMORQa8xY_lsdEdMiP_QkaqWiTvokCeDhaP4vKl6odroAp5JgKxzP- -OTH2cMpDOq1fTNKiNOVBWiKycHoEu7Kw8t8lJsqHDzcOTLiM47J3hDLGsKqU-UIIXjOHWRdRAG1-ghFmM1m6fpCkvn_ViETzgS2ilAY9AazoOSQDubZaHt4uKRFSQmMNGSTgIL9MhVoAJxbs6hgK2FSYiyVPXpf5LJdrL5amzoFlJoq5oKLMtLb_FjEZ4caoxf1BzB7jb9BTg8BOxnsJxebJDxiuF7nQUUAm6VWHyFtjTs6Dqew2toZhXCEGxRNaE-luy-oM2mTw7bxm01NseY_VA5O71pn5qS7fp6S2myMM5iNwG-sX4gBEQtTqkkwDDxDAhqF34do8hThiIARaCh1jtpPk9Brn7yM5ScJMj9GU7tDjMzxTVO5vYZbZDN5geRX-K2oxKXEORuHLhC_1TS0iIES4Vy5uM5BXHi-69pnVuzsYFy0]--></g></svg>