<svg xmlns="http://www.w3.org/2000/svg" xmlns:xlink="http://www.w3.org/1999/xlink" version="1.1" data-diagram-type="DESCRIPTION" style="width:2412px;height:1158px;background:#FFFFFF;" width="2412px" height="1158px" viewBox="0 0 2412 1158" zoomAndPan="magnify" preserveAspectRatio="none" contentStyleType="text/css"><?plantuml 1.2026.7beta6?><defs/><g font-family="sans-serif" lengthAdjust="spacing"><g class="title" data-source-line="1"><text x="1070.748" y="22.995" fill="#000" font-size="14" textLength="264.188" font-weight="700">TicketPlus - Deployment Diagram</text></g><!--cluster Client Devices--><g class="cluster" data-qualified-name="Client Devices" id="ent0001" data-source-line="5"><polygon points="625.89,53.297,635.89,43.297,813.89,43.297,813.89,125.597,803.89,135.597,625.89,135.597,625.89,53.297" fill="none" style="stroke:#181818;stroke-width:1;stroke-linejoin:miter;stroke-miterlimit:10;"/><line x1="803.89" y1="53.297" x2="813.89" y2="43.297" style="stroke:#181818;stroke-width:1;"/><line x1="625.89" y1="53.297" x2="803.89" y2="53.297" style="stroke:#181818;stroke-width:1;"/><line x1="803.89" y1="53.297" x2="803.89" y2="135.597" style="stroke:#181818;stroke-width:1;"/><text x="659.856" y="69.292" fill="#000" font-size="14" textLength="112.068" font-weight="700">Client Devices</text></g><!--cluster Kubernetes Cluster--><g class="cluster" data-qualified-name="Kubernetes Cluster" id="ent0004" data-source-line="11"><polygon points="37.89,285.897,47.89,275.897,1550.89,275.897,1550.89,824.787,1540.89,834.787,37.89,834.787,37.89,285.897" fill="none" style="stroke:#181818;stroke-width:1;stroke-linejoin:miter;stroke-miterlimit:10;"/><line x1="1540.89" y1="285.897" x2="1550.89" y2="275.897" style="stroke:#181818;stroke-width:1;"/><line x1="37.89" y1="285.897" x2="1540.89" y2="285.897" style="stroke:#181818;stroke-width:1;"/><line x1="1540.89" y1="285.897" x2="1540.89" y2="834.787" style="stroke:#181818;stroke-width:1;"/><text x="714.111" y="301.892" fill="#000" font-size="14" textLength="152.558" font-weight="700">Kubernetes Cluster</text></g><!--cluster Ingress--><g class="cluster" data-qualified-name="Kubernetes Cluster.Ingress" id="ent0005" data-source-line="12"><polygon points="606.89,365.897,616.89,355.897,832.89,355.897,832.89,438.187,822.89,448.187,606.89,448.187,606.89,365.897" fill="none" style="stroke:#181818;stroke-width:1;stroke-linejoin:miter;stroke-miterlimit:10;"/><line x1="822.89" y1="365.897" x2="832.89" y2="355.897" style="stroke:#181818;stroke-width:1;"/><line x1="606.89" y1="365.897" x2="822.89" y2="365.897" style="stroke:#181818;stroke-width:1;"/><line x1="822.89" y1="365.897" x2="822.89" y2="448.187" style="stroke:#181818;stroke-width:1;"/><text x="686.759" y="381.892" fill="#000" font-size="14" textLength="58.263" font-weight="700">Ingress</text></g><!--cluster GWPods--><g class="cluster" data-qualified-name="Kubernetes Cluster.GWPods" id="ent0007" data-source-line="16"><polygon points="520.89,515.187,530.89,505.187,738.89,505.187,738.89,619.487,728.89,629.487,520.89,629.487,520.89,515.187" fill="none" style="stroke:#181818;stroke-width:1;stroke-linejoin:miter;stroke-miterlimit:10;"/><line x1="728.89" y1="515.187" x2="738.89" y2="505.187" style="stroke:#181818;stroke-width:1;"/><line x1="520.89" y1="515.187" x2="728.89" y2="515.187" style="stroke:#181818;stroke-width:1;"/><line x1="728.89" y1="515.187" x2="728.89" y2="629.487" style="stroke:#181818;stroke-width:1;"/><text x="554.431" y="531.182" fill="#000" font-size="14" textLength="142.919" font-weight="700">API Gateway Pods</text><text x="573.527" y="547.479" fill="#000" font-size="14" textLength="104.727" font-weight="700">(auto-scaled)</text></g><!--cluster AuthPods--><g class="cluster" data-qualified-name="Kubernetes Cluster.AuthPods" id="ent0009" data-source-line="20"><polygon points="69.89,688.487,79.89,678.487,313.89,678.487,313.89,792.787,303.89,802.787,69.89,802.787,69.89,688.487" fill="none" style="stroke:#181818;stroke-width:1;stroke-linejoin:miter;stroke-miterlimit:10;"/><line x1="303.89" y1="688.487" x2="313.89" y2="678.487" style="stroke:#181818;stroke-width:1;"/><line x1="69.89" y1="688.487" x2="303.89" y2="688.487" style="stroke:#181818;stroke-width:1;"/><line x1="303.89" y1="688.487" x2="303.89" y2="802.787" style="stroke:#181818;stroke-width:1;"/><text x="103.798" y="704.482" fill="#000" font-size="14" textLength="168.185" font-weight="700">Identity Service Pods</text><text x="135.527" y="720.779" fill="#000" font-size="14" textLength="104.727" font-weight="700">(auto-scaled)</text></g><!--cluster CatalogPods--><g class="cluster" data-qualified-name="Kubernetes Cluster.CatalogPods" id="ent0011" data-source-line="24"><polygon points="353.89,688.487,363.89,678.487,595.89,678.487,595.89,792.787,585.89,802.787,353.89,802.787,353.89,688.487" fill="none" style="stroke:#181818;stroke-width:1;stroke-linejoin:miter;stroke-miterlimit:10;"/><line x1="585.89" y1="688.487" x2="595.89" y2="678.487" style="stroke:#181818;stroke-width:1;"/><line x1="353.89" y1="688.487" x2="585.89" y2="688.487" style="stroke:#181818;stroke-width:1;"/><line x1="585.89" y1="688.487" x2="585.89" y2="802.787" style="stroke:#181818;stroke-width:1;"/><text x="387.649" y="704.482" fill="#000" font-size="14" textLength="166.482" font-weight="700">Catalog Service Pods</text><text x="418.527" y="720.779" fill="#000" font-size="14" textLength="104.727" font-weight="700">(auto-scaled)</text></g><!--cluster WaitPods--><g class="cluster" data-qualified-name="Kubernetes Cluster.WaitPods" id="ent0013" data-source-line="28"><polygon points="981.89,688.487,991.89,678.487,1223.89,678.487,1223.89,792.787,1213.89,802.787,981.89,802.787,981.89,688.487" fill="none" style="stroke:#181818;stroke-width:1;stroke-linejoin:miter;stroke-miterlimit:10;"/><line x1="1213.89" y1="688.487" x2="1223.89" y2="678.487" style="stroke:#181818;stroke-width:1;"/><line x1="981.89" y1="688.487" x2="1213.89" y2="688.487" style="stroke:#181818;stroke-width:1;"/><line x1="1213.89" y1="688.487" x2="1213.89" y2="802.787" style="stroke:#181818;stroke-width:1;"/><text x="1022.013" y="704.482" fill="#000" font-size="14" textLength="153.754" font-weight="700">Waiting Room Pods</text><text x="1046.527" y="720.779" fill="#000" font-size="14" textLength="104.727" font-weight="700">(auto-scaled)</text></g><!--cluster ResPods--><g class="cluster" data-qualified-name="Kubernetes Cluster.ResPods" id="ent0015" data-source-line="32"><polygon points="635.89,688.487,645.89,678.487,941.89,678.487,941.89,792.787,931.89,802.787,635.89,802.787,635.89,688.487" fill="none" style="stroke:#181818;stroke-width:1;stroke-linejoin:miter;stroke-miterlimit:10;"/><line x1="931.89" y1="688.487" x2="941.89" y2="678.487" style="stroke:#181818;stroke-width:1;"/><line x1="635.89" y1="688.487" x2="931.89" y2="688.487" style="stroke:#181818;stroke-width:1;"/><line x1="931.89" y1="688.487" x2="931.89" y2="802.787" style="stroke:#181818;stroke-width:1;"/><text x="684.47" y="704.482" fill="#000" font-size="14" textLength="200.84" font-weight="700">Reservation Service Pods</text><text x="669.653" y="720.779" fill="#000" font-size="14" textLength="230.474" font-weight="700">(auto-scaled, stateful-aware)</text></g><!--cluster CheckoutPods--><g class="cluster" data-qualified-name="Kubernetes Cluster.CheckoutPods" id="ent0017" data-source-line="36"><polygon points="1263.89,688.487,1273.89,678.487,1518.89,678.487,1518.89,792.787,1508.89,802.787,1263.89,802.787,1263.89,688.487" fill="none" style="stroke:#181818;stroke-width:1;stroke-linejoin:miter;stroke-miterlimit:10;"/><line x1="1508.89" y1="688.487" x2="1518.89" y2="678.487" style="stroke:#181818;stroke-width:1;"/><line x1="1263.89" y1="688.487" x2="1508.89" y2="688.487" style="stroke:#181818;stroke-width:1;"/><line x1="1508.89" y1="688.487" x2="1508.89" y2="802.787" style="stroke:#181818;stroke-width:1;"/><text x="1297.487" y="704.482" fill="#000" font-size="14" textLength="179.806" font-weight="700">Checkout Service Pods</text><text x="1335.027" y="720.779" fill="#000" font-size="14" textLength="104.727" font-weight="700">(auto-scaled)</text></g><!--cluster NotifPods--><g class="cluster" data-qualified-name="Kubernetes Cluster.NotifPods" id="ent0019" data-source-line="40"><polygon points="1244.89,341.897,1254.89,331.897,1518.89,331.897,1518.89,446.187,1508.89,456.187,1244.89,456.187,1244.89,341.897" fill="none" style="stroke:#181818;stroke-width:1;stroke-linejoin:miter;stroke-miterlimit:10;"/><line x1="1508.89" y1="341.897" x2="1518.89" y2="331.897" style="stroke:#181818;stroke-width:1;"/><line x1="1244.89" y1="341.897" x2="1508.89" y2="341.897" style="stroke:#181818;stroke-width:1;"/><line x1="1508.89" y1="341.897" x2="1508.89" y2="456.187" style="stroke:#181818;stroke-width:1;"/><text x="1278.793" y="357.892" fill="#000" font-size="14" textLength="198.194" font-weight="700">Notification Worker Pods</text><text x="1325.527" y="374.189" fill="#000" font-size="14" textLength="104.727" font-weight="700">(auto-scaled)</text></g><!--cluster Data Tier--><g class="cluster" data-qualified-name="Data Tier" id="ent0021" data-source-line="45"><polygon points="1095.89,893.787,1105.89,883.787,1795.89,883.787,1795.89,1023.967,1785.89,1033.967,1095.89,1033.967,1095.89,893.787" fill="none" style="stroke:#181818;stroke-width:1;stroke-linejoin:miter;stroke-miterlimit:10;"/><line x1="1785.89" y1="893.787" x2="1795.89" y2="883.787" style="stroke:#181818;stroke-width:1;"/><line x1="1095.89" y1="893.787" x2="1785.89" y2="893.787" style="stroke:#181818;stroke-width:1;"/><line x1="1785.89" y1="893.787" x2="1785.89" y2="1033.967" style="stroke:#181818;stroke-width:1;"/><text x="1405.475" y="909.782" fill="#000" font-size="14" textLength="72.83" font-weight="700">Data Tier</text></g><!--cluster External Services--><g class="cluster" data-qualified-name="External Services" id="ent0025" data-source-line="51"><polygon points="1819.89,922.727,1829.89,912.727,2190.89,912.727,2190.89,995.027,2180.89,1005.027,1819.89,1005.027,1819.89,922.727" fill="none" style="stroke:#181818;stroke-width:1;stroke-linejoin:miter;stroke-miterlimit:10;"/><line x1="2180.89" y1="922.727" x2="2190.89" y2="912.727" style="stroke:#181818;stroke-width:1;"/><line x1="1819.89" y1="922.727" x2="2180.89" y2="922.727" style="stroke:#181818;stroke-width:1;"/><line x1="2180.89" y1="922.727" x2="2180.89" y2="1005.027" style="stroke:#181818;stroke-width:1;"/><text x="1932.737" y="938.722" fill="#000" font-size="14" textLength="137.307" font-weight="700">External Services</text></g><!--cluster Observability Stack--><g class="cluster" data-qualified-name="Observability Stack" id="ent0028" data-source-line="56"><polygon points="806.89,922.727,816.89,912.727,1036.89,912.727,1036.89,1123.267,1026.89,1133.267,806.89,1133.267,806.89,922.727" fill="none" style="stroke:#181818;stroke-width:1;stroke-linejoin:miter;stroke-miterlimit:10;"/><line x1="1026.89" y1="922.727" x2="1036.89" y2="912.727" style="stroke:#181818;stroke-width:1;"/><line x1="806.89" y1="922.727" x2="1026.89" y2="922.727" style="stroke:#181818;stroke-width:1;"/><line x1="1026.89" y1="922.727" x2="1026.89" y2="1133.267" style="stroke:#181818;stroke-width:1;"/><text x="840.805" y="938.722" fill="#000" font-size="14" textLength="154.171" font-weight="700">Observability Stack</text></g><!--entity Web / Mobile Client--><g class="entity" data-qualified-name="Client Devices.Web . Mobile Client" id="ent0002" data-source-line="6"><rect x="641.96" y="83.297" width="155.864" height="36.297" fill="#F1F1F1" style="stroke:#181818;stroke-width:0.5;" rx="2.5" ry="2.5"/><text x="651.96" y="106.292" fill="#000" font-size="14" textLength="135.864">Web / Mobile Client</text></g><!--entity NGINX Ingress Controller--><g class="entity" data-qualified-name="Kubernetes Cluster.Ingress.NGINX Ingress Controller" id="ent0006" data-source-line="13"><rect x="622.68" y="395.897" width="194.433" height="36.297" fill="#F1F1F1" style="stroke:#181818;stroke-width:0.5;" rx="2.5" ry="2.5"/><text x="632.68" y="418.892" fill="#000" font-size="14" textLength="174.433">NGINX Ingress Controller</text></g><!--entity API Gateway--><g class="entity" data-qualified-name="Kubernetes Cluster.GWPods.API Gateway" id="ent0008" data-source-line="17"><rect x="565.67" y="569.187" width="108.443" height="36.297" fill="#F1F1F1" style="stroke:#181818;stroke-width:0.5;" rx="2.5" ry="2.5"/><text x="575.67" y="592.182" fill="#000" font-size="14" textLength="88.443">API Gateway</text></g><!--entity Auth Service--><g class="entity" data-qualified-name="Kubernetes Cluster.AuthPods.Auth Service" id="ent0010" data-source-line="21"><rect x="128.39" y="742.487" width="109.004" height="36.297" fill="#F1F1F1" style="stroke:#181818;stroke-width:0.5;" rx="2.5" ry="2.5"/><text x="138.39" y="765.482" fill="#000" font-size="14" textLength="89.004">Auth Service</text></g><!--entity Catalog Service--><g class="entity" data-qualified-name="Kubernetes Cluster.CatalogPods.Catalog Service" id="ent0012" data-source-line="25"><rect x="400.92" y="742.487" width="129.956" height="36.297" fill="#F1F1F1" style="stroke:#181818;stroke-width:0.5;" rx="2.5" ry="2.5"/><text x="410.92" y="765.482" fill="#000" font-size="14" textLength="109.956">Catalog Service</text></g><!--entity Waiting Room Service--><g class="entity" data-qualified-name="Kubernetes Cluster.WaitPods.Waiting Room Service" id="ent0014" data-source-line="29"><rect x="1005.6" y="742.487" width="174.588" height="36.297" fill="#F1F1F1" style="stroke:#181818;stroke-width:0.5;" rx="2.5" ry="2.5"/><text x="1015.6" y="765.482" fill="#000" font-size="14" textLength="154.588">Waiting Room Service</text></g><!--entity Reservation Service--><g class="entity" data-qualified-name="Kubernetes Cluster.ResPods.Reservation Service" id="ent0016" data-source-line="33"><rect x="699.96" y="742.487" width="159.877" height="36.297" fill="#F1F1F1" style="stroke:#181818;stroke-width:0.5;" rx="2.5" ry="2.5"/><text x="709.96" y="765.482" fill="#000" font-size="14" textLength="139.877">Reservation Service</text></g><!--entity Checkout Service--><g class="entity" data-qualified-name="Kubernetes Cluster.CheckoutPods.Checkout Service" id="ent0018" data-source-line="37"><rect x="1287.8" y="742.487" width="142.186" height="36.297" fill="#F1F1F1" style="stroke:#181818;stroke-width:0.5;" rx="2.5" ry="2.5"/><text x="1297.8" y="765.482" fill="#000" font-size="14" textLength="122.186">Checkout Service</text></g><!--entity Notification Service--><g class="entity" data-qualified-name="Kubernetes Cluster.NotifPods.Notification Service" id="ent0020" data-source-line="41"><rect x="1293.63" y="395.897" width="156.521" height="36.297" fill="#F1F1F1" style="stroke:#181818;stroke-width:0.5;" rx="2.5" ry="2.5"/><text x="1303.63" y="418.892" fill="#000" font-size="14" textLength="136.521">Notification Service</text></g><!--entity PG--><g class="entity" data-qualified-name="Data Tier.PG" id="ent0022" data-source-line="46"><path d="M1111.77,933.787 C1111.77,923.787 1218.898,923.787 1218.898,923.787 C1218.898,923.787 1326.027,923.787 1326.027,933.787 L1326.027,1007.974 C1326.027,1017.974 1218.898,1017.974 1218.898,1017.974 C1218.898,1017.974 1111.77,1017.974 1111.77,1007.974 L1111.77,933.787" style="stroke:#181818;stroke-width:0.5;" fill="#F1F1F1"/><path d="M1111.77,933.787 C1111.77,943.787 1218.898,943.787 1218.898,943.787 C1218.898,943.787 1326.027,943.787 1326.027,933.787" style="stroke:#181818;stroke-width:0.5;" fill="none"/><text x="1121.77" y="960.782" fill="#000" font-size="14" textLength="80.753">PostgreSQL</text><text x="1121.77" y="977.079" fill="#000" font-size="14" textLength="184.734">(Primary + Read Replicas)</text><text x="1121.77" y="993.376" fill="#000" font-size="14" textLength="194.257">users, events, reservations,</text><text x="1121.77" y="1009.673" fill="#000" font-size="14" textLength="125.139">payments, tickets</text></g><!--entity Redis--><g class="entity" data-qualified-name="Data Tier.Redis" id="ent0023" data-source-line="47"><path d="M1361.36,950.077 C1361.36,940.077 1453.894,940.077 1453.894,940.077 C1453.894,940.077 1546.427,940.077 1546.427,950.077 L1546.427,991.671 C1546.427,1001.671 1453.894,1001.671 1453.894,1001.671 C1453.894,1001.671 1361.36,1001.671 1361.36,991.671 L1361.36,950.077" style="stroke:#181818;stroke-width:0.5;" fill="#F1F1F1"/><path d="M1361.36,950.077 C1361.36,960.077 1453.894,960.077 1453.894,960.077 C1453.894,960.077 1546.427,960.077 1546.427,950.077" style="stroke:#181818;stroke-width:0.5;" fill="none"/><text x="1371.36" y="977.072" fill="#000" font-size="14" textLength="92.552">Redis Cluster</text><text x="1371.36" y="993.369" fill="#000" font-size="14" textLength="165.067">(seat locks, cache, TTL)</text></g><!--entity Kafka--><g class="entity" data-qualified-name="Data Tier.Kafka" id="ent0024" data-source-line="48"><path d="M1586.78,949.577 L1775,949.577 C1780,949.577 1780,970.874 1780,970.874 C1780,970.874 1780,992.171 1775,992.171 L1586.78,992.171 C1581.78,992.171 1581.78,970.874 1581.78,970.874 C1581.78,970.874 1581.78,949.577 1586.78,949.577" style="stroke:#181818;stroke-width:0.5;" fill="#F1F1F1"/><path d="M1775,949.577 C1770,949.577 1770,970.874 1770,970.874 C1770,992.171 1775,992.171 1775,992.171" style="stroke:#181818;stroke-width:0.5;" fill="none"/><text x="1586.78" y="967.572" fill="#000" font-size="14" textLength="93.516">Kafka Cluster</text><text x="1586.78" y="983.869" fill="#000" font-size="14" textLength="178.22">(order/notification topics)</text></g><!--entity Payment Gateway--><g class="entity" data-qualified-name="External Services.Payment Gateway" id="ent0026" data-source-line="52"><rect x="1835.79" y="952.727" width="148.215" height="36.297" fill="#F1F1F1" style="stroke:#181818;stroke-width:0.5;" rx="2.5" ry="2.5"/><text x="1845.79" y="975.722" fill="#000" font-size="14" textLength="128.215">Payment Gateway</text></g><!--entity Email/SMS Provider--><g class="entity" data-qualified-name="External Services.Email.SMS Provider" id="ent0027" data-source-line="53"><rect x="2018.87" y="952.727" width="156.056" height="36.297" fill="#F1F1F1" style="stroke:#181818;stroke-width:0.5;" rx="2.5" ry="2.5"/><text x="2028.87" y="975.722" fill="#000" font-size="14" textLength="136.056">Email/SMS Provider</text></g><!--entity Prometheus--><g class="entity" data-qualified-name="Observability Stack.Prometheus" id="ent0029" data-source-line="57"><rect x="881.81" y="952.727" width="104.157" height="36.297" fill="#F1F1F1" style="stroke:#181818;stroke-width:0.5;" rx="2.5" ry="2.5"/><text x="891.81" y="975.722" fill="#000" font-size="14" textLength="84.157">Prometheus</text></g><!--entity Grafana--><g class="entity" data-qualified-name="Observability Stack.Grafana" id="ent0030" data-source-line="58"><rect x="895.82" y="1080.967" width="76.144" height="36.297" fill="#F1F1F1" style="stroke:#181818;stroke-width:0.5;" rx="2.5" ry="2.5"/><text x="905.82" y="1103.962" fill="#000" font-size="14" textLength="56.144">Grafana</text></g><!--entity CDN--><g class="entity" data-qualified-name="CDN" id="ent0003" data-source-line="9"><path d="M641.003,191.569 C643.822,184.739 650.076,184.06 653.991,190.495 C657.531,185.788 660.971,184.374 664.993,189.981 C668.163,184.984 672.644,185.508 675.47,190.347 C677.898,184.621 683.781,183.625 687.512,188.924 C691.337,184.537 695.113,183.771 698.62,189.281 C701.496,183.717 706.915,184.268 709.485,189.586 C712.484,183.175 716.815,182.181 721.737,187.594 C725.343,182.783 729.915,182.326 732.8,188.331 C736.781,183.332 741.506,185.188 743.753,190.224 C747.285,185.739 751.196,185.18 754.178,190.793 C756.827,184.352 761.638,183.296 765.954,189.204 C769.521,183.822 774.014,185.033 776.987,189.846 C781.398,184.642 785.788,185.384 788.633,191.462 C791.845,186.717 795.9,186.749 799.395,191.129 C808.831,192.818 810.749,200.905 804.989,207.719 C809.584,213.767 807.61,220.859 799.603,222.229 C795.878,227.493 791.752,227.697 787.96,222.303 C785.3,227.9 781.702,229.477 777.102,224.249 C774.558,229.669 769.079,229.002 766.146,224.687 C763.58,230.139 758.695,230.529 754.803,226.229 C751.164,231.244 747.047,231.354 743.227,226.439 C740.3,231.365 735.304,232.531 731.628,227.295 C729.254,232.762 723.935,234.582 720.078,228.822 C716.953,233.392 713.574,233.724 710.192,229.099 C705.572,233.978 699.825,233.488 697.69,226.486 C695.013,232.312 689.914,231.209 687.066,226.662 C683.038,231.949 677.912,230.907 675.911,224.696 C672.664,229.956 666.989,231.646 663.3,225.17 C659.991,229.296 655.237,229.648 653.154,223.91 C648.346,228.484 644.571,226.568 642.236,221.195 C635.441,217.383 634.229,211.954 640.581,206.647 C633.502,202.17 632.797,195.617 641.003,191.569" style="stroke:#181818;stroke-width:0.5;" fill="#F1F1F1"/><text x="647.63" y="210.592" fill="#000" font-size="14" textLength="144.519">CDN / Load Balancer</text></g><g class="entity" data-qualified-name="GMN54" id="ent0055" data-source-line="89"><path d="M1613.89,732.937 L1613.89,788.335 L1827.903,788.335 L1827.903,742.937 L1817.903,732.937 L1613.89,732.937" style="stroke:#181818;stroke-width:0.5;" fill="#FEFFDD"/><path d="M1817.903,732.937 L1817.903,742.937 L1827.903,742.937 L1817.903,732.937" style="stroke:#181818;stroke-width:1;" fill="#FEFFDD"/><text x="1619.89" y="750.004" fill="#000" font-size="13" textLength="167.711">Horizontal Pod Autoscaler</text><text x="1619.89" y="765.137" fill="#000" font-size="13" textLength="193.013">scales on CPU + queue depth</text><text x="1619.89" y="780.269" fill="#000" font-size="13" textLength="180">during ticket-release spikes</text></g><g class="entity" data-qualified-name="GMN57" id="ent0058" data-source-line="95"><path d="M2210.11,935.607 L2210.11,1006.138 L2397.685,1006.138 L2397.685,945.607 L2387.685,935.607 L2210.11,935.607" style="stroke:#181818;stroke-width:0.5;" fill="#FEFFDD"/><path d="M2387.685,935.607 L2387.685,945.607 L2397.685,945.607 L2387.685,935.607" style="stroke:#181818;stroke-width:1;" fill="#FEFFDD"/><text x="2216.11" y="952.674" fill="#000" font-size="13" textLength="166.575">Sentinel/Cluster mode for</text><text x="2216.11" y="967.807" fill="#000" font-size="13" textLength="153.689">HA; fallback to DB-level</text><text x="2216.11" y="982.939" fill="#000" font-size="13" textLength="144.555">advisory locks if Redis</text><text x="2216.11" y="998.072" fill="#000" font-size="13" textLength="138.074">becomes unavailable</text></g><!--link Web / Mobile Client to CDN--><g class="link" data-entity-1="ent0002" data-entity-2="ent0003" id="lnk31" data-source-line="61" data-link-type="dependency"><path d="M719.89,119.797 C719.89,137.017 719.89,158.477 719.89,177.287" style="stroke:#181818;stroke-width:1;" fill="none" id="Web / Mobile Client-to-CDN"/><polygon points="719.89,182.287,723.89,173.287,719.89,177.287,715.89,173.287,719.89,182.287" fill="#181818" style="stroke:#181818;stroke-width:1;stroke-linejoin:miter;stroke-miterlimit:10;"/></g><!--link CDN to NGINX Ingress Controller--><g class="link" data-entity-1="ent0003" data-entity-2="ent0006" id="lnk32" data-source-line="62" data-link-type="dependency"><path d="M719.89,229.217 C719.89,270.677 719.89,353.357 719.89,390.657" style="stroke:#181818;stroke-width:1;" fill="none" id="CDN-to-NGINX Ingress Controller"/><polygon points="719.89,395.657,723.89,386.657,719.89,390.657,715.89,386.657,719.89,395.657" fill="#181818" style="stroke:#181818;stroke-width:1;stroke-linejoin:miter;stroke-miterlimit:10;"/></g><!--link NGINX Ingress Controller to GWPods--><g class="link" data-entity-1="ent0006" data-entity-2="ent0007" id="lnk33" data-source-line="63" data-link-type="dependency"><path d="M719.89,432.407 C719.89,443.124 719.89,457.889 719.89,474.061 C719.89,482.146 719.89,490.583 719.89,499.042 C719.89,500.099 719.89,501.157 719.89,502.214 C719.89,502.743 719.89,503.272 719.89,503.8 C719.89,504.064 719.89,499.328 719.89,499.593" style="stroke:#181818;stroke-width:1;" fill="none" id="NGINX Ingress Controller-to-GWPods"/><polygon points="719.89,504.593,723.89,495.593,719.89,499.593,715.89,495.593,719.89,504.593" fill="#181818" style="stroke:#181818;stroke-width:1;stroke-linejoin:miter;stroke-miterlimit:10;"/></g><!--link GWPods to AuthPods--><g class="link" data-entity-1="ent0007" data-entity-2="ent0009" id="lnk34" data-source-line="65" data-link-type="dependency"><path d="M704.927,629.754 C704.868,629.846 704.808,629.938 704.748,630.03 C704.629,630.214 704.509,630.398 704.387,630.581 C700.509,636.44 695.735,641.729 689.89,645.487 C632.8,682.207 445.36,631.627 384.89,662.487 C360.495,674.937 340.978,698.664 327.446,719.553 C324.063,724.775 321.055,729.82 318.438,734.467 C317.129,736.79 315.918,739.014 314.808,741.111 C314.53,741.635 316.572,737.719 316.307,738.227" style="stroke:#181818;stroke-width:1;" fill="none" id="GWPods-to-AuthPods"/><polygon points="313.993,742.659,321.704,736.532,316.307,738.227,314.612,732.83,313.993,742.659" fill="#181818" style="stroke:#181818;stroke-width:1;stroke-linejoin:miter;stroke-miterlimit:10;"/></g><!--link GWPods to CatalogPods--><g class="link" data-entity-1="ent0007" data-entity-2="ent0011" id="lnk35" data-source-line="66" data-link-type="dependency"><path d="M699.817,629.566 C699.372,630.349 698.922,631.131 698.467,631.911 C697.559,633.471 696.633,635.024 695.692,636.56 C693.81,639.63 691.87,642.632 689.89,645.487 C670.81,673.002 645.802,701.084 625.325,722.509 C615.086,733.222 605.98,742.27 599.313,748.751 C598.48,749.561 597.685,750.331 596.93,751.059 C596.742,751.241 596.556,751.42 596.372,751.597 C596.28,751.685 599.792,748.306 599.702,748.393" style="stroke:#181818;stroke-width:1;" fill="none" id="GWPods-to-CatalogPods"/><polygon points="596.099,751.86,605.357,748.501,599.702,748.393,599.81,742.737,596.099,751.86" fill="#181818" style="stroke:#181818;stroke-width:1;stroke-linejoin:miter;stroke-miterlimit:10;"/></g><!--link GWPods to WaitPods--><g class="link" data-entity-1="ent0007" data-entity-2="ent0013" id="lnk36" data-source-line="67" data-link-type="dependency"><path d="M739.026,588.521 C750.506,588.689 766.656,589.011 786.105,589.625 C825.002,590.853 877.091,593.254 931.391,597.943 C1039.993,607.322 1157.44,625.857 1195.89,662.487 C1199.818,666.228 1203.081,670.52 1205.786,675.169 C1206.124,675.75 1206.453,676.337 1206.774,676.929 C1206.934,677.225 1207.092,677.522 1207.248,677.821 C1207.326,677.97 1205.119,673.672 1205.196,673.822" style="stroke:#181818;stroke-width:1;" fill="none" id="GWPods-to-WaitPods"/><polygon points="1207.481,678.27,1206.926,668.436,1205.196,673.822,1199.81,672.092,1207.481,678.27" fill="#181818" style="stroke:#181818;stroke-width:1;stroke-linejoin:miter;stroke-miterlimit:10;"/></g><!--link GWPods to ResPods--><g class="link" data-entity-1="ent0007" data-entity-2="ent0015" id="lnk37" data-source-line="68" data-link-type="dependency"><path d="M739.227,593.513 C739.395,593.562 739.564,593.612 739.733,593.661 C740.412,593.861 741.104,594.066 741.81,594.278 C743.223,594.7 744.69,595.145 746.208,595.614 C749.243,596.551 752.481,597.582 755.888,598.708 C762.701,600.959 770.192,603.589 778.096,606.612 C809.713,618.702 847.94,637.062 875.89,662.487 C880.468,666.651 884.797,671.261 888.869,676.144 C889.379,676.754 889.884,677.369 890.385,677.988 C890.51,678.142 887.502,674.401 887.626,674.556" style="stroke:#181818;stroke-width:1;" fill="none" id="GWPods-to-ResPods"/><polygon points="890.76,678.452,888.237,668.932,887.626,674.556,882.003,673.946,890.76,678.452" fill="#181818" style="stroke:#181818;stroke-width:1;stroke-linejoin:miter;stroke-miterlimit:10;"/></g><!--link GWPods to CheckoutPods--><g class="link" data-entity-1="ent0007" data-entity-2="ent0017" id="lnk38" data-source-line="69" data-link-type="dependency"><path d="M738.901,588.946 C742.665,589.073 746.946,589.22 751.706,589.388 C770.746,590.06 797.452,591.063 829.397,592.428 C893.287,595.157 978.131,599.332 1064.511,605.192 C1237.273,616.912 1416.18,635.372 1445.89,662.487 C1449.889,666.136 1453.191,670.357 1455.908,674.956 C1456.587,676.105 1454.961,672.823 1455.569,674.016" style="stroke:#181818;stroke-width:1;" fill="none" id="GWPods-to-CheckoutPods"/><polygon points="1457.837,678.472,1457.318,668.637,1455.569,674.016,1450.189,672.267,1457.837,678.472" fill="#181818" style="stroke:#181818;stroke-width:1;stroke-linejoin:miter;stroke-miterlimit:10;"/></g><!--link AuthPods to PG--><g class="link" data-entity-1="ent0009" data-entity-2="ent0022" id="lnk39" data-source-line="71" data-link-type="dependency"><path d="M314.018,775.109 C314.086,775.214 314.154,775.32 314.223,775.425 C314.361,775.637 314.501,775.851 314.642,776.066 C314.923,776.497 315.212,776.935 315.506,777.38 C316.685,779.158 317.964,781.042 319.338,783.008 C322.088,786.942 325.221,791.205 328.703,795.606 C342.628,813.209 362.12,833.022 384.89,842.787 C421.3,858.387 1061.32,835.567 1097.89,850.787 C1133.68,865.677 1161.478,892.805 1183.118,919.455" style="stroke:#181818;stroke-width:1;" fill="none" id="AuthPods-to-PG"/><polygon points="1186.27,923.337,1183.702,913.829,1183.118,919.455,1177.492,918.872,1186.27,923.337" fill="#181818" style="stroke:#181818;stroke-width:1;stroke-linejoin:miter;stroke-miterlimit:10;"/></g><!--link CatalogPods to PG--><g class="link" data-entity-1="ent0011" data-entity-2="ent0022" id="lnk40" data-source-line="72" data-link-type="dependency"><path d="M596.012,772.13 C596.09,772.226 596.168,772.322 596.247,772.418 C601.284,778.598 608.413,786.864 617.108,795.677 C634.498,813.302 658.155,833.112 683.89,842.787 C707.92,851.817 1123.6,838.047 1145.89,850.787 C1173.37,866.487 1189.811,892.544 1201.271,918.814" style="stroke:#181818;stroke-width:1;" fill="none" id="CatalogPods-to-PG"/><polygon points="1203.27,923.397,1203.338,913.548,1201.271,918.814,1196.005,916.747,1203.27,923.397" fill="#181818" style="stroke:#181818;stroke-width:1;stroke-linejoin:miter;stroke-miterlimit:10;"/></g><!--link ResPods to Redis--><g class="link" data-entity-1="ent0015" data-entity-2="ent0023" id="lnk41" data-source-line="73" data-link-type="dependency"><path d="M942.042,783.055 C942.096,783.177 942.151,783.299 942.206,783.422 C942.316,783.667 942.427,783.914 942.539,784.162 C942.763,784.658 942.992,785.158 943.225,785.663 C943.691,786.674 944.176,787.702 944.678,788.745 C945.683,790.831 946.759,792.977 947.909,795.159 C957.105,812.622 970.965,832.442 989.89,842.787 C1013.11,855.467 1201.63,847.537 1227.89,850.787 C1280.23,857.247 1296.64,852.367 1343.89,875.787 C1375.87,891.627 1402.72,915.266 1423.4,936.366" style="stroke:#181818;stroke-width:1;" fill="none" id="ResPods-to-Redis"/><polygon points="1426.9,939.937,1423.457,930.709,1423.4,936.366,1417.744,936.309,1426.9,939.937" fill="#181818" style="stroke:#181818;stroke-width:1;stroke-linejoin:miter;stroke-miterlimit:10;"/></g><!--link ResPods to PG--><g class="link" data-entity-1="ent0015" data-entity-2="ent0022" id="lnk42" data-source-line="74" data-link-type="dependency"><path d="M941.896,782.659 C943.62,786.541 945.63,790.755 947.931,795.118 C957.135,812.569 970.995,832.392 989.89,842.787 C1009.96,853.817 1178.51,835.857 1195.89,850.787 C1216.34,868.337 1221.964,893.118 1222.604,918.498" style="stroke:#181818;stroke-width:1;" fill="none" id="ResPods-to-PG"/><polygon points="1222.73,923.497,1226.502,914.399,1222.604,918.498,1218.504,914.601,1222.73,923.497" fill="#181818" style="stroke:#181818;stroke-width:1;stroke-linejoin:miter;stroke-miterlimit:10;"/></g><!--link ResPods to Kafka--><g class="link" data-entity-1="ent0015" data-entity-2="ent0024" id="lnk43" data-source-line="75" data-link-type="dependency"><path d="M942.016,783.095 C942.071,783.217 942.125,783.34 942.18,783.463 C942.29,783.708 942.4,783.955 942.512,784.204 C942.736,784.7 942.964,785.202 943.197,785.707 C943.663,786.719 944.146,787.749 944.648,788.793 C945.651,790.882 946.727,793.03 947.875,795.216 C957.062,812.697 970.925,832.517 989.89,842.787 C1005.14,851.037 1284.59,849.737 1301.89,850.787 C1418.65,857.837 1455.54,831.717 1563.89,875.787 C1603.98,892.087 1637.827,923.181 1659.097,945.581" style="stroke:#181818;stroke-width:1;" fill="none" id="ResPods-to-Kafka"/><polygon points="1662.54,949.207,1659.243,939.926,1659.097,945.581,1653.442,945.435,1662.54,949.207" fill="#181818" style="stroke:#181818;stroke-width:1;stroke-linejoin:miter;stroke-miterlimit:10;"/></g><!--link CheckoutPods to PG--><g class="link" data-entity-1="ent0017" data-entity-2="ent0022" id="lnk44" data-source-line="76" data-link-type="dependency"><path d="M1463.294,803.135 C1463.103,804.217 1462.896,805.304 1462.674,806.393 C1461.783,810.75 1460.634,815.146 1459.16,819.438 C1456.212,828.02 1451.965,836.184 1445.89,842.787 C1413.63,877.837 1386.18,853.817 1343.89,875.787 C1318.95,888.737 1297.668,903.513 1276.488,920.193" style="stroke:#181818;stroke-width:1;" fill="none" id="CheckoutPods-to-PG"/><polygon points="1272.56,923.287,1282.105,920.861,1276.488,920.193,1277.156,914.576,1272.56,923.287" fill="#181818" style="stroke:#181818;stroke-width:1;stroke-linejoin:miter;stroke-miterlimit:10;"/></g><!--link CheckoutPods to Payment Gateway--><g class="link" data-entity-1="ent0017" data-entity-2="ent0026" id="lnk45" data-source-line="77" data-link-type="dependency"><path d="M1518.562,802.832 C1518.77,802.971 1518.978,803.111 1519.187,803.251 C1520.022,803.809 1520.863,804.368 1521.71,804.928 C1523.404,806.046 1525.123,807.166 1526.864,808.284 C1533.829,812.755 1541.154,817.196 1548.713,821.424 C1563.832,829.881 1579.89,837.487 1595.89,842.787 C1635.7,855.967 1648.49,844.177 1689.89,850.787 C1737.69,858.407 1752.54,854.257 1795.89,875.787 C1835.43,895.407 1869.827,927.54 1890.427,948.88" style="stroke:#181818;stroke-width:1;" fill="none" id="CheckoutPods-to-Payment Gateway"/><polygon points="1893.9,952.477,1890.527,943.224,1890.427,948.88,1884.771,948.78,1893.9,952.477" fill="#181818" style="stroke:#181818;stroke-width:1;stroke-linejoin:miter;stroke-miterlimit:10;"/></g><!--link CheckoutPods to Kafka--><g class="link" data-entity-1="ent0017" data-entity-2="ent0024" id="lnk46" data-source-line="78" data-link-type="dependency"><path d="M1519.385,802.68 C1520.22,803.235 1521.062,803.792 1521.91,804.349 C1523.607,805.463 1525.327,806.578 1527.069,807.693 C1534.038,812.153 1541.36,816.601 1548.909,820.862 C1564.005,829.383 1580.005,837.157 1595.89,842.787 C1609.2,847.497 1648.64,841.087 1658.89,850.787 C1685.63,876.057 1686.544,917.447 1684.154,944.267" style="stroke:#181818;stroke-width:1;" fill="none" id="CheckoutPods-to-Kafka"/><polygon points="1683.71,949.247,1688.493,940.637,1684.154,944.267,1680.525,939.927,1683.71,949.247" fill="#181818" style="stroke:#181818;stroke-width:1;stroke-linejoin:miter;stroke-miterlimit:10;"/></g><!--link Kafka to NotifPods--><g class="link" data-entity-1="ent0024" data-entity-2="ent0019" id="lnk47" data-source-line="79" data-link-type="dependency"><path d="M1714.3,949.237 C1758.3,921.257 1831.77,871.497 1845.89,842.787 C1881.27,770.877 1881.99,734.027 1845.89,662.487 C1804.525,580.502 1721.755,518.962 1648.843,477.759 C1612.386,457.158 1578.394,441.641 1553.275,431.195 C1540.715,425.972 1530.373,422.017 1523.05,419.328 C1522.135,418.992 1521.267,418.675 1520.447,418.379 C1520.038,418.231 1524.345,419.778 1523.96,419.64" style="stroke:#181818;stroke-width:1;" fill="none" id="Kafka-to-NotifPods"/><polygon points="1519.255,417.949,1526.372,424.757,1523.96,419.64,1529.077,417.228,1519.255,417.949" fill="#181818" style="stroke:#181818;stroke-width:1;stroke-linejoin:miter;stroke-miterlimit:10;"/></g><!--link NotifPods to Email/SMS Provider--><g class="link" data-entity-1="ent0019" data-entity-2="ent0027" id="lnk48" data-source-line="80" data-link-type="dependency"><path d="M1518.982,415.292 C1519.288,415.304 1519.602,415.318 1519.924,415.332 C1525.079,415.555 1532.273,415.951 1541.069,416.645 C1558.662,418.035 1582.664,420.624 1609.573,425.436 C1663.39,435.059 1728.835,453.577 1777.89,489.187 C1957.02,619.217 2062.858,878.294 2088.928,947.984" style="stroke:#181818;stroke-width:1;" fill="none" id="NotifPods-to-Email/SMS Provider"/><polygon points="2090.68,952.667,2091.273,942.836,2088.928,947.984,2083.78,945.639,2090.68,952.667" fill="#181818" style="stroke:#181818;stroke-width:1;stroke-linejoin:miter;stroke-miterlimit:10;"/></g><!--link NotifPods to PG--><g class="link" data-entity-1="ent0019" data-entity-2="ent0022" id="lnk49" data-source-line="81" data-link-type="dependency"><path d="M1519.079,433.579 C1519.327,434.171 1519.581,434.777 1519.838,435.395 C1520.868,437.868 1521.966,440.544 1523.121,443.412 C1525.43,449.148 1527.966,455.65 1530.636,462.821 C1541.318,491.506 1554.157,530.898 1563.298,574.802 C1581.577,662.609 1585.06,768.462 1526.89,842.787 C1498.39,879.197 1471.47,859.957 1425.89,867.787 C1389.8,873.977 1378.02,862.497 1343.89,875.787 C1316.18,886.577 1293.15,902.157 1271.47,920.117" style="stroke:#181818;stroke-width:1;" fill="none" id="NotifPods-to-PG"/><polygon points="1267.62,923.307,1277.103,920.646,1271.47,920.117,1271.999,914.485,1267.62,923.307" fill="#181818" style="stroke:#181818;stroke-width:1;stroke-linejoin:miter;stroke-miterlimit:10;"/></g><!--link GWPods to Prometheus--><g class="link" data-entity-1="ent0007" data-entity-2="ent0029" id="lnk50" data-source-line="83" data-link-type="dependency"><path d="M705.196,629.621 C704.96,629.991 704.72,630.358 704.477,630.723 C700.588,636.565 695.788,641.812 689.89,645.487 C660.27,663.947 86.24,637.477 61.89,662.487 C6,719.907 9.48,782.177 61.89,842.787 C116.03,905.377 696.613,952.59 876.593,965.82" style="stroke:#181818;stroke-width:1;stroke-dasharray:7,7;" fill="none" id="GWPods-to-Prometheus"/><polygon points="881.58,966.187,872.897,961.538,876.593,965.82,872.311,969.516,881.58,966.187" fill="#181818" style="stroke:#181818;stroke-width:1;stroke-linejoin:miter;stroke-miterlimit:10;"/><text x="62.89" y="765.204" fill="#000" font-size="13" textLength="48.636">metrics</text></g><!--link ResPods to Prometheus--><g class="link" data-entity-1="ent0015" data-entity-2="ent0029" id="lnk51" data-source-line="84" data-link-type="dependency"><path d="M933.334,803.022 C933.32,804.179 933.306,805.348 933.293,806.528 C933.238,811.248 933.184,816.139 933.133,821.097 C933.033,831.011 932.945,841.189 932.89,850.787 C932.69,886.967 933.15,924.338 933.52,947.518" style="stroke:#181818;stroke-width:1;stroke-dasharray:7,7;" fill="none" id="ResPods-to-Prometheus"/><polygon points="933.6,952.517,937.456,943.454,933.52,947.518,929.457,943.582,933.6,952.517" fill="#181818" style="stroke:#181818;stroke-width:1;stroke-linejoin:miter;stroke-miterlimit:10;"/><text x="933.89" y="863.854" fill="#000" font-size="13" textLength="48.636">metrics</text></g><!--link CheckoutPods to Prometheus--><g class="link" data-entity-1="ent0017" data-entity-2="ent0029" id="lnk52" data-source-line="85" data-link-type="dependency"><path d="M1464.974,802.981 C1464.892,803.526 1464.806,804.072 1464.716,804.619 C1464.535,805.713 1464.337,806.808 1464.12,807.904 C1463.252,812.284 1462.082,816.658 1460.525,820.864 C1457.413,829.274 1452.758,837.012 1445.89,842.787 C1434.05,852.737 1322.3,849.427 1306.89,850.787 C1212.82,859.057 1185.47,845.887 1095.89,875.787 C1042.52,893.597 991.345,927.368 961.155,949.298" style="stroke:#181818;stroke-width:1;stroke-dasharray:7,7;" fill="none" id="CheckoutPods-to-Prometheus"/><polygon points="957.11,952.237,966.742,950.184,961.155,949.298,962.041,943.711,957.11,952.237" fill="#181818" style="stroke:#181818;stroke-width:1;stroke-linejoin:miter;stroke-miterlimit:10;"/><text x="1307.89" y="863.854" fill="#000" font-size="13" textLength="48.636">metrics</text></g><!--link Prometheus to Grafana--><g class="link" data-entity-1="ent0029" data-entity-2="ent0030" id="lnk53" data-source-line="86" data-link-type="dependency"><path d="M933.89,989.427 C933.89,1013.547 933.89,1051.677 933.89,1075.717" style="stroke:#181818;stroke-width:1;" fill="none" id="Prometheus-to-Grafana"/><polygon points="933.89,1080.717,937.89,1071.717,933.89,1075.717,929.89,1071.717,933.89,1080.717" fill="#181818" style="stroke:#181818;stroke-width:1;stroke-linejoin:miter;stroke-miterlimit:10;"/></g><!--link ResPods to GMN54--><g class="link" data-entity-1="ent0015" data-entity-2="ent0055" id="lnk56" data-source-line="89" data-link-type="association"><path d="M941.979,731.379 C942.096,731.042 942.214,730.703 942.333,730.362 C942.81,729 943.31,727.613 943.832,726.205 C945.923,720.574 948.383,714.614 951.249,708.621 C962.71,684.647 980.655,660.137 1007.39,653.987 C1037.82,646.987 1538.97,646.987 1569.39,653.987 C1620.02,665.627 1667.06,705.027 1694.9,732.527" style="stroke:#181818;stroke-width:1;stroke-dasharray:7,7;" fill="none" id="ResPods-GMN54"/></g><!--link Redis to GMN57--><g class="link" data-entity-1="ent0023" data-entity-2="ent0058" id="lnk59" data-source-line="95" data-link-type="association"><path d="M1478.07,939.697 C1501.22,912.607 1538.85,875.267 1581.39,859.287 C1612.18,847.717 2142.54,847.887 2173.39,859.287 C2214.22,874.357 2250.93,908.537 2274.93,935.127" style="stroke:#181818;stroke-width:1;stroke-dasharray:7,7;" fill="none" id="Redis-GMN57"/></g><?plantuml-src XLLHRzf037xFhx3wj6fGtZUfKWiLHMjP1fsOrFR1IGoSkDonkmiTc_hVvxiGcgH0dvBO_ZxxpluS9vmaU13fYbmi2mjT6D1QwcrEoi50uC9W7aLs9TGQ-HLIdQ-rOkVKRHbfA7Me5fAYIEcCuAmlHK3IHgHap-1V1F0uemHwSAyJmP0ouZbwZQ9KwY9Zp63CxZkD6LoZH9MIEGEqmFQAzbkHa57aYArSflCHdhhqZjJ2aDrbutpZuMZy2tPMw6lbZ9QIp3ExEMq5kuf7C4H7BxY5M6VsINt2mkckJL5ITXvg6CwyfoAk8LfSeumF9TmMfcJyqOyINXLksQ3axmhKukoZGwaN7rBkukgiBMYBU8R22RM0YTRvKLOVLATiW0xpJiYo7PtGwaJH7R2Ext1Uo2w-eA4o7MFhsGvGjMzdIUbA5-xZwza5Dkwd1MvnZxKJSv6MwMVQhCWSfG-nTUu6kC7_MetpWDl3ggkcEEFF12qxOcqTJ-tqnnsdYet8qMpXCryEQsF2mcHQU_wa2huSsm7QyD3nqxnTbkqyiLA3VDdXWh1jg3CUDZ9DA1DxCN4oI-X0wdJ5i1JJ9NNWuU6kwWt7ClftGOKN8yvNM8Dgav7fgVgndLwBr9Re4Fvszfi_Z58egwkfbaHSLbtNr-DDZaBsflTJY8tUYCnBU4_qFGcdvgKITESmNLLKHkVabbJOm38qE4U50Nfm5q6tUncsZTz4_lt41Zdk2iXoNqJHRczuKwNukgqcsRgvqbpTjXD60rsRw2ZQRnJluYxNry7EL8chvFFDh5jQ0MM_6ggfcDkszqrx5rAobIFZl_ToYTw44wWEzRePmXLKjt1nSTbeCtm1VZKyS_kZd0Xf57aYhc4EHUv7YMVGyUzFB9OEz7pV981RRSHV7WeUSBRuvkkmBGpxmei5raS__icoBlMKqTejlJOBu_ThgTck8KbUg7OjLcGZKXdubEyJbzAS-j-F8jdRoH9ohv6vzcblhxx27ALCM26iJ1XSToMl3iakp3R2QjunGVaWtWWJubyz5riet71ZCE5_V5N4Vm00?></g></svg>