<svg xmlns="http://www.w3.org/2000/svg" xmlns:xlink="http://www.w3.org/1999/xlink" contentStyleType="text/css" data-diagram-type="CLASS" height="1352px" preserveAspectRatio="none" style="width:875px;height:1352px;background:#FFFFFF;" version="1.1" viewBox="0 0 875 1352" width="875px" zoomAndPan="magnify"><title>TicketPlus - Class Diagram</title><defs/><g><g class="title" data-source-line="2"><text fill="#000000" font-family="sans-serif" font-size="14" font-weight="bold" lengthAdjust="spacing" textLength="183.3153" x="336.3601" y="24.9659">TicketPlus - Class Diagram</text></g><!--class Role--><g class="entity" data-entity="Role" data-source-line="6" data-uid="ent0002" id="entity_Role"><rect fill="#F1F1F1" height="105.2038" rx="2.5" ry="2.5" style="stroke:#181818;stroke-width:0.5;" width="90.6657" x="616.3181" y="128.3396"/><ellipse cx="644.809" cy="144.3396" fill="#EB937F" rx="11" ry="11" style="stroke:#181818;stroke-width:1;"/><path d="M648.9184,150.3396 L641.1996,150.3396 L641.1996,137.949 L648.9184,137.949 L648.9184,140.1052 L643.6527,140.1052 L643.6527,142.7771 L648.4184,142.7771 L648.4184,144.9333 L643.6527,144.9333 L643.6527,148.1833 L648.9184,148.1833 L648.9184,150.3396 Z " fill="#000000"/><text fill="#000000" font-family="sans-serif" font-size="14" lengthAdjust="spacing" textLength="28.6859" x="661.807" y="149.7716">Role</text><line style="stroke:#181818;stroke-width:0.5;" x1="617.3181" x2="705.9838" y1="160.3396" y2="160.3396"/><text fill="#000000" font-family="sans-serif" font-size="14" lengthAdjust="spacing" textLength="43.7498" x="622.3181" y="179.3055">BUYER</text><text fill="#000000" font-family="sans-serif" font-size="14" lengthAdjust="spacing" textLength="78.6657" x="622.3181" y="198.3734">ORGANIZER</text><text fill="#000000" font-family="sans-serif" font-size="14" lengthAdjust="spacing" textLength="47.2498" x="622.3181" y="217.4414">ADMIN</text><line style="stroke:#181818;stroke-width:0.5;" x1="617.3181" x2="705.9838" y1="225.5433" y2="225.5433"/></g><!--class SeatStatus--><g class="entity" data-entity="SeatStatus" data-source-line="12" data-uid="ent0003" id="entity_SeatStatus"><rect fill="#F1F1F1" height="105.2038" rx="2.5" ry="2.5" style="stroke:#181818;stroke-width:0.5;" width="101.4958" x="595.7921" y="353.8763"/><ellipse cx="610.7921" cy="369.8763" fill="#EB937F" rx="11" ry="11" style="stroke:#181818;stroke-width:1;"/><path d="M614.9015,375.8763 L607.1827,375.8763 L607.1827,363.4857 L614.9015,363.4857 L614.9015,365.6419 L609.6359,365.6419 L609.6359,368.3138 L614.4015,368.3138 L614.4015,370.47 L609.6359,370.47 L609.6359,373.72 L614.9015,373.72 L614.9015,375.8763 Z " fill="#000000"/><text fill="#000000" font-family="sans-serif" font-size="14" lengthAdjust="spacing" textLength="69.4958" x="624.7921" y="375.3083">SeatStatus</text><line style="stroke:#181818;stroke-width:0.5;" x1="596.7921" x2="696.2879" y1="385.8763" y2="385.8763"/><text fill="#000000" font-family="sans-serif" font-size="14" lengthAdjust="spacing" textLength="71.5397" x="601.7921" y="404.8422">AVAILABLE</text><text fill="#000000" font-family="sans-serif" font-size="14" lengthAdjust="spacing" textLength="53.7878" x="601.7921" y="423.9101">LOCKED</text><text fill="#000000" font-family="sans-serif" font-size="14" lengthAdjust="spacing" textLength="57.6378" x="601.7921" y="442.9781">BOOKED</text><line style="stroke:#181818;stroke-width:0.5;" x1="596.7921" x2="696.2879" y1="451.08" y2="451.08"/></g><!--class EventStatus--><g class="entity" data-entity="EventStatus" data-source-line="18" data-uid="ent0004" id="entity_EventStatus"><rect fill="#F1F1F1" height="143.3396" rx="2.5" ry="2.5" style="stroke:#181818;stroke-width:0.5;" width="109.5037" x="591.7881" y="569.413"/><ellipse cx="606.7881" cy="585.413" fill="#EB937F" rx="11" ry="11" style="stroke:#181818;stroke-width:1;"/><path d="M610.8975,591.413 L603.1788,591.413 L603.1788,579.0224 L610.8975,579.0224 L610.8975,581.1786 L605.6319,581.1786 L605.6319,583.8505 L610.3975,583.8505 L610.3975,586.0068 L605.6319,586.0068 L605.6319,589.2568 L610.8975,589.2568 L610.8975,591.413 Z " fill="#000000"/><text fill="#000000" font-family="sans-serif" font-size="14" lengthAdjust="spacing" textLength="77.5037" x="620.7881" y="590.845">EventStatus</text><line style="stroke:#181818;stroke-width:0.5;" x1="592.7881" x2="700.2918" y1="601.413" y2="601.413"/><text fill="#000000" font-family="sans-serif" font-size="14" lengthAdjust="spacing" textLength="64.0357" x="597.7881" y="620.3789">PLANNED</text><text fill="#000000" font-family="sans-serif" font-size="14" lengthAdjust="spacing" textLength="59.5418" x="597.7881" y="639.4469">ON_SALE</text><text fill="#000000" font-family="sans-serif" font-size="14" lengthAdjust="spacing" textLength="91.3076" x="597.7881" y="658.5148">SALE_PAUSED</text><text fill="#000000" font-family="sans-serif" font-size="14" lengthAdjust="spacing" textLength="71.3437" x="597.7881" y="677.5827">SOLD_OUT</text><text fill="#000000" font-family="sans-serif" font-size="14" lengthAdjust="spacing" textLength="77.7417" x="597.7881" y="696.6506">CANCELLED</text><line style="stroke:#181818;stroke-width:0.5;" x1="592.7881" x2="700.2918" y1="704.7526" y2="704.7526"/></g><!--class ReservationStatus--><g class="entity" data-entity="ReservationStatus" data-source-line="26" data-uid="ent0005" id="entity_ReservationStatus"><rect fill="#F1F1F1" height="124.2717" rx="2.5" ry="2.5" style="stroke:#181818;stroke-width:0.5;" width="150.7476" x="717.2879" y="344.3423"/><ellipse cx="732.2879" cy="360.3423" fill="#EB937F" rx="11" ry="11" style="stroke:#181818;stroke-width:1;"/><path d="M736.3972,366.3423 L728.6785,366.3423 L728.6785,353.9517 L736.3972,353.9517 L736.3972,356.108 L731.1316,356.108 L731.1316,358.7798 L735.8972,358.7798 L735.8972,360.9361 L731.1316,360.9361 L731.1316,364.1861 L736.3972,364.1861 L736.3972,366.3423 Z " fill="#000000"/><text fill="#000000" font-family="sans-serif" font-size="14" lengthAdjust="spacing" textLength="118.7476" x="746.2879" y="365.7743">ReservationStatus</text><line style="stroke:#181818;stroke-width:0.5;" x1="718.2879" x2="867.0354" y1="376.3423" y2="376.3423"/><text fill="#000000" font-family="sans-serif" font-size="14" lengthAdjust="spacing" textLength="62.6917" x="723.2879" y="395.3083">PENDING</text><text fill="#000000" font-family="sans-serif" font-size="14" lengthAdjust="spacing" textLength="81.8437" x="723.2879" y="414.3762">CONFIRMED</text><text fill="#000000" font-family="sans-serif" font-size="14" lengthAdjust="spacing" textLength="55.9158" x="723.2879" y="433.4441">EXPIRED</text><text fill="#000000" font-family="sans-serif" font-size="14" lengthAdjust="spacing" textLength="77.7417" x="723.2879" y="452.512">CANCELLED</text><line style="stroke:#181818;stroke-width:0.5;" x1="718.2879" x2="867.0354" y1="460.614" y2="460.614"/></g><!--class PaymentStatus--><g class="entity" data-entity="PaymentStatus" data-source-line="33" data-uid="ent0006" id="entity_PaymentStatus"><rect fill="#F1F1F1" height="124.2717" rx="2.5" ry="2.5" style="stroke:#181818;stroke-width:0.5;" width="131.1616" x="727.0808" y="569.413"/><ellipse cx="742.0808" cy="585.413" fill="#EB937F" rx="11" ry="11" style="stroke:#181818;stroke-width:1;"/><path d="M746.1902,591.413 L738.4714,591.413 L738.4714,579.0224 L746.1902,579.0224 L746.1902,581.1786 L740.9246,581.1786 L740.9246,583.8505 L745.6902,583.8505 L745.6902,586.0068 L740.9246,586.0068 L740.9246,589.2568 L746.1902,589.2568 L746.1902,591.413 Z " fill="#000000"/><text fill="#000000" font-family="sans-serif" font-size="14" lengthAdjust="spacing" textLength="99.1616" x="756.0808" y="590.845">PaymentStatus</text><line style="stroke:#181818;stroke-width:0.5;" x1="728.0808" x2="857.2425" y1="601.413" y2="601.413"/><text fill="#000000" font-family="sans-serif" font-size="14" lengthAdjust="spacing" textLength="67.3957" x="733.0808" y="620.3789">INITIATED</text><text fill="#000000" font-family="sans-serif" font-size="14" lengthAdjust="spacing" textLength="79.4077" x="733.0808" y="639.4469">SUCCEEDED</text><text fill="#000000" font-family="sans-serif" font-size="14" lengthAdjust="spacing" textLength="46.2978" x="733.0808" y="658.5148">FAILED</text><text fill="#000000" font-family="sans-serif" font-size="14" lengthAdjust="spacing" textLength="72.8557" x="733.0808" y="677.5827">REFUNDED</text><line style="stroke:#181818;stroke-width:0.5;" x1="728.0808" x2="857.2425" y1="685.6847" y2="685.6847"/></g><!--class User--><g class="entity" data-entity="User" data-source-line="40" data-uid="ent0007" id="entity_User"><rect fill="#F1F1F1" height="181.4754" rx="2.5" ry="2.5" style="stroke:#181818;stroke-width:0.5;" width="163.1434" x="49.3699" y="52.0679"/><ellipse cx="111.3826" cy="68.0679" fill="#ADD1B2" rx="11" ry="11" style="stroke:#181818;stroke-width:1;"/><path d="M114.3514,73.7085 Q113.7733,74.0054 113.1326,74.146 Q112.492,74.3023 111.7889,74.3023 Q109.2889,74.3023 107.9608,72.6617 Q106.6483,71.0054 106.6483,67.8804 Q106.6483,64.7554 107.9608,63.0992 Q109.2889,61.4429 111.7889,61.4429 Q112.492,61.4429 113.1326,61.5992 Q113.7889,61.7554 114.3514,62.0523 L114.3514,64.771 Q113.7264,64.1929 113.1326,63.9273 Q112.5389,63.646 111.9139,63.646 Q110.5701,63.646 109.8826,64.7242 Q109.1951,65.7867 109.1951,67.8804 Q109.1951,69.9742 109.8826,71.0523 Q110.5701,72.1148 111.9139,72.1148 Q112.5389,72.1148 113.1326,71.8492 Q113.7264,71.5679 114.3514,70.9898 L114.3514,73.7085 Z " fill="#000000"/><text fill="#000000" font-family="sans-serif" font-size="14" lengthAdjust="spacing" textLength="30.6179" x="131.8826" y="73.4999">User</text><line style="stroke:#181818;stroke-width:0.5;" x1="50.3699" x2="211.5133" y1="84.0679" y2="84.0679"/><text fill="#000000" font-family="sans-serif" font-size="14" lengthAdjust="spacing" textLength="63.0558" x="55.3699" y="103.0339">+id: UUID</text><text fill="#000000" font-family="sans-serif" font-size="14" lengthAdjust="spacing" textLength="113.9875" x="55.3699" y="122.1018">+fullName: string</text><text fill="#000000" font-family="sans-serif" font-size="14" lengthAdjust="spacing" textLength="89.8797" x="55.3699" y="141.1697">+email: string</text><text fill="#000000" font-family="sans-serif" font-size="14" lengthAdjust="spacing" textLength="96.0956" x="55.3699" y="160.2376">+phone: string</text><text fill="#000000" font-family="sans-serif" font-size="14" lengthAdjust="spacing" textLength="151.1434" x="55.3699" y="179.3055">+passwordHash: string</text><text fill="#000000" font-family="sans-serif" font-size="14" lengthAdjust="spacing" textLength="69.8457" x="55.3699" y="198.3734">+role: Role</text><text fill="#000000" font-family="sans-serif" font-size="14" lengthAdjust="spacing" textLength="142.6174" x="55.3699" y="217.4414">+createdAt: DateTime</text><line style="stroke:#181818;stroke-width:0.5;" x1="50.3699" x2="211.5133" y1="225.5433" y2="225.5433"/></g><!--class Organizer--><g class="entity" data-entity="Organizer" data-source-line="50" data-uid="ent0008" id="entity_Organizer"><rect fill="#F1F1F1" height="86.1358" rx="2.5" ry="2.5" style="stroke:#181818;stroke-width:0.5;" width="188.4973" x="189.3114" y="363.4103"/><ellipse cx="246.4592" cy="379.4103" fill="#ADD1B2" rx="11" ry="11" style="stroke:#181818;stroke-width:1;"/><path d="M249.428,385.0509 Q248.8499,385.3478 248.2092,385.4884 Q247.5686,385.6446 246.8655,385.6446 Q244.3655,385.6446 243.0374,384.004 Q241.7249,382.3478 241.7249,379.2228 Q241.7249,376.0978 243.0374,374.4415 Q244.3655,372.7853 246.8655,372.7853 Q247.5686,372.7853 248.2092,372.9415 Q248.8655,373.0978 249.428,373.3946 L249.428,376.1134 Q248.803,375.5353 248.2092,375.2696 Q247.6155,374.9884 246.9905,374.9884 Q245.6467,374.9884 244.9592,376.0665 Q244.2717,377.129 244.2717,379.2228 Q244.2717,381.3165 244.9592,382.3946 Q245.6467,383.4571 246.9905,383.4571 Q247.6155,383.4571 248.2092,383.1915 Q248.803,382.9103 249.428,382.3321 L249.428,385.0509 Z " fill="#000000"/><text fill="#000000" font-family="sans-serif" font-size="14" lengthAdjust="spacing" textLength="65.7018" x="266.9592" y="384.8422">Organizer</text><line style="stroke:#181818;stroke-width:0.5;" x1="190.3114" x2="376.8088" y1="395.4103" y2="395.4103"/><text fill="#000000" font-family="sans-serif" font-size="14" lengthAdjust="spacing" textLength="176.4973" x="195.3114" y="414.3762">+organizationName: string</text><text fill="#000000" font-family="sans-serif" font-size="14" lengthAdjust="spacing" textLength="118.2995" x="195.3114" y="433.4441">+verified: boolean</text><line style="stroke:#181818;stroke-width:0.5;" x1="190.3114" x2="376.8088" y1="441.5461" y2="441.5461"/></g><!--class Venue--><g class="entity" data-entity="Venue" data-source-line="56" data-uid="ent0010" id="entity_Venue"><rect fill="#F1F1F1" height="124.2717" rx="2.5" ry="2.5" style="stroke:#181818;stroke-width:0.5;" width="130.4536" x="397.8088" y="344.0233"/><ellipse cx="438.4398" cy="360.0233" fill="#ADD1B2" rx="11" ry="11" style="stroke:#181818;stroke-width:1;"/><path d="M441.4085,365.6639 Q440.8304,365.9608 440.1898,366.1014 Q439.5491,366.2577 438.846,366.2577 Q436.346,366.2577 435.0179,364.617 Q433.7054,362.9608 433.7054,359.8358 Q433.7054,356.7108 435.0179,355.0545 Q436.346,353.3983 438.846,353.3983 Q439.5491,353.3983 440.1898,353.5545 Q440.846,353.7108 441.4085,354.0077 L441.4085,356.7264 Q440.7835,356.1483 440.1898,355.8827 Q439.596,355.6014 438.971,355.6014 Q437.6273,355.6014 436.9398,356.6795 Q436.2523,357.742 436.2523,359.8358 Q436.2523,361.9295 436.9398,363.0077 Q437.6273,364.0702 438.971,364.0702 Q439.596,364.0702 440.1898,363.8045 Q440.7835,363.5233 441.4085,362.9452 L441.4085,365.6639 Z " fill="#000000"/><text fill="#000000" font-family="sans-serif" font-size="14" lengthAdjust="spacing" textLength="41.4958" x="458.1355" y="365.4553">Venue</text><line style="stroke:#181818;stroke-width:0.5;" x1="398.8088" x2="527.2623" y1="376.0233" y2="376.0233"/><text fill="#000000" font-family="sans-serif" font-size="14" lengthAdjust="spacing" textLength="63.0558" x="403.8088" y="394.9892">+id: UUID</text><text fill="#000000" font-family="sans-serif" font-size="14" lengthAdjust="spacing" textLength="91.3076" x="403.8088" y="414.0571">+name: string</text><text fill="#000000" font-family="sans-serif" font-size="14" lengthAdjust="spacing" textLength="105.9796" x="403.8088" y="433.1251">+address: string</text><text fill="#000000" font-family="sans-serif" font-size="14" lengthAdjust="spacing" textLength="118.4536" x="403.8088" y="452.193">+totalCapacity: int</text><line style="stroke:#181818;stroke-width:0.5;" x1="398.8088" x2="527.2623" y1="460.295" y2="460.295"/></g><!--class Sector--><g class="entity" data-entity="Sector" data-source-line="63" data-uid="ent0011" id="entity_Sector"><rect fill="#F1F1F1" height="105.2038" rx="2.5" ry="2.5" style="stroke:#181818;stroke-width:0.5;" width="123.5096" x="448.2786" y="632.9727"/><ellipse cx="485.7343" cy="648.9727" fill="#ADD1B2" rx="11" ry="11" style="stroke:#181818;stroke-width:1;"/><path d="M488.7031,654.6133 Q488.125,654.9102 487.4843,655.0508 Q486.8437,655.2071 486.1406,655.2071 Q483.6406,655.2071 482.3125,653.5665 Q481,651.9102 481,648.7852 Q481,645.6602 482.3125,644.004 Q483.6406,642.3477 486.1406,642.3477 Q486.8437,642.3477 487.4843,642.504 Q488.1406,642.6602 488.7031,642.9571 L488.7031,645.6758 Q488.0781,645.0977 487.4843,644.8321 Q486.8906,644.5508 486.2656,644.5508 Q484.9218,644.5508 484.2343,645.629 Q483.5468,646.6915 483.5468,648.7852 Q483.5468,650.879 484.2343,651.9571 Q484.9218,653.0196 486.2656,653.0196 Q486.8906,653.0196 487.4843,652.754 Q488.0781,652.4727 488.7031,651.8946 L488.7031,654.6133 Z " fill="#000000"/><text fill="#000000" font-family="sans-serif" font-size="14" lengthAdjust="spacing" textLength="41.6078" x="504.7245" y="654.4047">Sector</text><line style="stroke:#181818;stroke-width:0.5;" x1="449.2786" x2="570.7881" y1="664.9727" y2="664.9727"/><text fill="#000000" font-family="sans-serif" font-size="14" lengthAdjust="spacing" textLength="63.0558" x="454.2786" y="683.9387">+id: UUID</text><text fill="#000000" font-family="sans-serif" font-size="14" lengthAdjust="spacing" textLength="91.3076" x="454.2786" y="703.0066">+name: string</text><text fill="#000000" font-family="sans-serif" font-size="14" lengthAdjust="spacing" textLength="111.5096" x="454.2786" y="722.0745">+priceTier: string</text><line style="stroke:#181818;stroke-width:0.5;" x1="449.2786" x2="570.7881" y1="730.1765" y2="730.1765"/></g><!--class Row--><g class="entity" data-entity="Row" data-source-line="69" data-uid="ent0012" id="entity_Row"><rect fill="#F1F1F1" height="86.1358" rx="2.5" ry="2.5" style="stroke:#181818;stroke-width:0.5;" width="97.3997" x="597.4601" y="918.7441"/><ellipse cx="629.2081" cy="934.7441" fill="#ADD1B2" rx="11" ry="11" style="stroke:#181818;stroke-width:1;"/><path d="M632.1769,940.3848 Q631.5987,940.6816 630.9581,940.8223 Q630.3175,940.9785 629.6144,940.9785 Q627.1144,940.9785 625.7862,939.3379 Q624.4737,937.6816 624.4737,934.5566 Q624.4737,931.4316 625.7862,929.7754 Q627.1144,928.1191 629.6144,928.1191 Q630.3175,928.1191 630.9581,928.2754 Q631.6144,928.4316 632.1769,928.7285 L632.1769,931.4473 Q631.5519,930.8691 630.9581,930.6035 Q630.3644,930.3223 629.7394,930.3223 Q628.3956,930.3223 627.7081,931.4004 Q627.0206,932.4629 627.0206,934.5566 Q627.0206,936.6504 627.7081,937.7285 Q628.3956,938.791 629.7394,938.791 Q630.3644,938.791 630.9581,938.5254 Q631.5519,938.2441 632.1769,937.666 L632.1769,940.3848 Z " fill="#000000"/><text fill="#000000" font-family="sans-serif" font-size="14" lengthAdjust="spacing" textLength="28.1819" x="646.9299" y="940.1761">Row</text><line style="stroke:#181818;stroke-width:0.5;" x1="598.4601" x2="693.8598" y1="950.7441" y2="950.7441"/><text fill="#000000" font-family="sans-serif" font-size="14" lengthAdjust="spacing" textLength="63.0558" x="603.4601" y="969.7101">+id: UUID</text><text fill="#000000" font-family="sans-serif" font-size="14" lengthAdjust="spacing" textLength="85.3997" x="603.4601" y="988.778">+label: string</text><line style="stroke:#181818;stroke-width:0.5;" x1="598.4601" x2="693.8598" y1="996.88" y2="996.88"/></g><!--class Seat--><g class="entity" data-entity="Seat" data-source-line="74" data-uid="ent0013" id="entity_Seat"><rect fill="#F1F1F1" height="143.3396" rx="2.5" ry="2.5" style="stroke:#181818;stroke-width:0.5;" width="147.9955" x="450.5011" y="1163.6679"/><ellipse cx="506.0039" cy="1179.6679" fill="#ADD1B2" rx="11" ry="11" style="stroke:#181818;stroke-width:1;"/><path d="M508.9727,1185.3085 Q508.3945,1185.6054 507.7539,1185.746 Q507.1133,1185.9022 506.4102,1185.9022 Q503.9102,1185.9022 502.582,1184.2616 Q501.2695,1182.6054 501.2695,1179.4804 Q501.2695,1176.3554 502.582,1174.6991 Q503.9102,1173.0429 506.4102,1173.0429 Q507.1133,1173.0429 507.7539,1173.1991 Q508.4102,1173.3554 508.9727,1173.6522 L508.9727,1176.371 Q508.3477,1175.7929 507.7539,1175.5272 Q507.1602,1175.246 506.5352,1175.246 Q505.1914,1175.246 504.5039,1176.3241 Q503.8164,1177.3866 503.8164,1179.4804 Q503.8164,1181.5741 504.5039,1182.6522 Q505.1914,1183.7147 506.5352,1183.7147 Q507.1602,1183.7147 507.7539,1183.4491 Q508.3477,1183.1679 508.9727,1182.5897 L508.9727,1185.3085 Z " fill="#000000"/><text fill="#000000" font-family="sans-serif" font-size="14" lengthAdjust="spacing" textLength="28.4899" x="526.5039" y="1185.0998">Seat</text><line style="stroke:#181818;stroke-width:0.5;" x1="451.5011" x2="597.4966" y1="1195.6679" y2="1195.6679"/><text fill="#000000" font-family="sans-serif" font-size="14" lengthAdjust="spacing" textLength="63.0558" x="456.5011" y="1214.6338">+id: UUID</text><text fill="#000000" font-family="sans-serif" font-size="14" lengthAdjust="spacing" textLength="135.9955" x="456.5011" y="1233.7017">+seatNumber: string</text><text fill="#000000" font-family="sans-serif" font-size="14" lengthAdjust="spacing" textLength="124.9216" x="456.5011" y="1252.7696">+status: SeatStatus</text><text fill="#000000" font-family="sans-serif" font-size="14" lengthAdjust="spacing" textLength="52.6118" x="456.5011" y="1271.8375">+x: float</text><text fill="#000000" font-family="sans-serif" font-size="14" lengthAdjust="spacing" textLength="52.3458" x="456.5011" y="1290.9055">+y: float</text><line style="stroke:#181818;stroke-width:0.5;" x1="451.5011" x2="597.4966" y1="1299.0074" y2="1299.0074"/></g><!--class Event--><g class="entity" data-entity="Event" data-source-line="82" data-uid="ent0014" id="entity_Event"><rect fill="#F1F1F1" height="200.5433" rx="2.5" ry="2.5" style="stroke:#181818;stroke-width:0.5;" width="153.6375" x="232.3476" y="569.413"/><ellipse cx="286.6674" cy="585.413" fill="#ADD1B2" rx="11" ry="11" style="stroke:#181818;stroke-width:1;"/><path d="M289.6362,591.0536 Q289.0581,591.3505 288.4174,591.4911 Q287.7768,591.6474 287.0737,591.6474 Q284.5737,591.6474 283.2456,590.0068 Q281.9331,588.3505 281.9331,585.2255 Q281.9331,582.1005 283.2456,580.4443 Q284.5737,578.788 287.0737,578.788 Q287.7768,578.788 288.4174,578.9443 Q289.0737,579.1005 289.6362,579.3974 L289.6362,582.1161 Q289.0112,581.538 288.4174,581.2724 Q287.8237,580.9911 287.1987,580.9911 Q285.8549,580.9911 285.1674,582.0693 Q284.4799,583.1318 284.4799,585.2255 Q284.4799,587.3193 285.1674,588.3974 Q285.8549,589.4599 287.1987,589.4599 Q287.8237,589.4599 288.4174,589.1943 Q289.0112,588.913 289.6362,588.3349 L289.6362,591.0536 Z " fill="#000000"/><text fill="#000000" font-family="sans-serif" font-size="14" lengthAdjust="spacing" textLength="36.4978" x="307.1674" y="590.845">Event</text><line style="stroke:#181818;stroke-width:0.5;" x1="233.3476" x2="384.9851" y1="601.413" y2="601.413"/><text fill="#000000" font-family="sans-serif" font-size="14" lengthAdjust="spacing" textLength="63.0558" x="238.3476" y="620.3789">+id: UUID</text><text fill="#000000" font-family="sans-serif" font-size="14" lengthAdjust="spacing" textLength="79.0437" x="238.3476" y="639.4469">+title: string</text><text fill="#000000" font-family="sans-serif" font-size="14" lengthAdjust="spacing" textLength="127.5395" x="238.3476" y="658.5148">+description: string</text><text fill="#000000" font-family="sans-serif" font-size="14" lengthAdjust="spacing" textLength="111.3416" x="238.3476" y="677.5827">+category: string</text><text fill="#000000" font-family="sans-serif" font-size="14" lengthAdjust="spacing" textLength="141.6375" x="238.3476" y="696.6506">+startTime: DateTime</text><text fill="#000000" font-family="sans-serif" font-size="14" lengthAdjust="spacing" textLength="136.3454" x="238.3476" y="715.7185">+endTime: DateTime</text><text fill="#000000" font-family="sans-serif" font-size="14" lengthAdjust="spacing" textLength="132.9295" x="238.3476" y="734.7864">+status: EventStatus</text><text fill="#000000" font-family="sans-serif" font-size="14" lengthAdjust="spacing" textLength="127.4275" x="238.3476" y="753.8544">+organizerId: UUID</text><line style="stroke:#181818;stroke-width:0.5;" x1="233.3476" x2="384.9851" y1="761.9563" y2="761.9563"/></g><!--class PricingRule--><g class="entity" data-entity="PricingRule" data-source-line="93" data-uid="ent0015" id="entity_PricingRule"><rect fill="#F1F1F1" height="143.3396" rx="2.5" ry="2.5" style="stroke:#181818;stroke-width:0.5;" width="176.0234" x="401.4367" y="871.0743"/><ellipse cx="448.0356" cy="887.0743" fill="#ADD1B2" rx="11" ry="11" style="stroke:#181818;stroke-width:1;"/><path d="M451.0043,892.715 Q450.4262,893.0118 449.7856,893.1525 Q449.1449,893.3087 448.4418,893.3087 Q445.9418,893.3087 444.6137,891.6681 Q443.3012,890.0118 443.3012,886.8868 Q443.3012,883.7618 444.6137,882.1056 Q445.9418,880.4493 448.4418,880.4493 Q449.1449,880.4493 449.7856,880.6056 Q450.4418,880.7618 451.0043,881.0587 L451.0043,883.7775 Q450.3793,883.1993 449.7856,882.9337 Q449.1918,882.6525 448.5668,882.6525 Q447.2231,882.6525 446.5356,883.7306 Q445.8481,884.7931 445.8481,886.8868 Q445.8481,888.9806 446.5356,890.0587 Q447.2231,891.1212 448.5668,891.1212 Q449.1918,891.1212 449.7856,890.8556 Q450.3793,890.5743 451.0043,889.9962 L451.0043,892.715 Z " fill="#000000"/><text fill="#000000" font-family="sans-serif" font-size="14" lengthAdjust="spacing" textLength="74.3257" x="468.5356" y="892.5063">PricingRule</text><line style="stroke:#181818;stroke-width:0.5;" x1="402.4367" x2="576.4601" y1="903.0743" y2="903.0743"/><text fill="#000000" font-family="sans-serif" font-size="14" lengthAdjust="spacing" textLength="63.0558" x="407.4367" y="922.0403">+id: UUID</text><text fill="#000000" font-family="sans-serif" font-size="14" lengthAdjust="spacing" textLength="130.3395" x="407.4367" y="941.1082">+basePrice: decimal</text><text fill="#000000" font-family="sans-serif" font-size="14" lengthAdjust="spacing" textLength="164.0234" x="407.4367" y="960.1761">+dynamicMultiplier: float</text><text fill="#000000" font-family="sans-serif" font-size="14" lengthAdjust="spacing" textLength="144.2134" x="407.4367" y="979.244">+validFrom: DateTime</text><text fill="#000000" font-family="sans-serif" font-size="14" lengthAdjust="spacing" textLength="125.8595" x="407.4367" y="998.312">+validTo: DateTime</text><line style="stroke:#181818;stroke-width:0.5;" x1="402.4367" x2="576.4601" y1="1006.4139" y2="1006.4139"/></g><!--class Reservation--><g class="entity" data-entity="Reservation" data-source-line="101" data-uid="ent0016" id="entity_Reservation"><rect fill="#F1F1F1" height="181.4754" rx="2.5" ry="2.5" style="stroke:#181818;stroke-width:0.5;" width="186.1734" x="116.2537" y="871.0743"/><ellipse cx="166.2195" cy="887.0743" fill="#ADD1B2" rx="11" ry="11" style="stroke:#181818;stroke-width:1;"/><path d="M169.1882,892.715 Q168.6101,893.0118 167.9695,893.1525 Q167.3289,893.3087 166.6257,893.3087 Q164.1257,893.3087 162.7976,891.6681 Q161.4851,890.0118 161.4851,886.8868 Q161.4851,883.7618 162.7976,882.1056 Q164.1257,880.4493 166.6257,880.4493 Q167.3289,880.4493 167.9695,880.6056 Q168.6257,880.7618 169.1882,881.0587 L169.1882,883.7775 Q168.5632,883.1993 167.9695,882.9337 Q167.3757,882.6525 166.7507,882.6525 Q165.407,882.6525 164.7195,883.7306 Q164.032,884.7931 164.032,886.8868 Q164.032,888.9806 164.7195,890.0587 Q165.407,891.1212 166.7507,891.1212 Q167.3757,891.1212 167.9695,890.8556 Q168.5632,890.5743 169.1882,889.9962 L169.1882,892.715 Z " fill="#000000"/><text fill="#000000" font-family="sans-serif" font-size="14" lengthAdjust="spacing" textLength="77.7417" x="186.7195" y="892.5063">Reservation</text><line style="stroke:#181818;stroke-width:0.5;" x1="117.2537" x2="301.427" y1="903.0743" y2="903.0743"/><text fill="#000000" font-family="sans-serif" font-size="14" lengthAdjust="spacing" textLength="63.0558" x="122.2537" y="922.0403">+id: UUID</text><text fill="#000000" font-family="sans-serif" font-size="14" lengthAdjust="spacing" textLength="93.2256" x="122.2537" y="941.1082">+userId: UUID</text><text fill="#000000" font-family="sans-serif" font-size="14" lengthAdjust="spacing" textLength="100.7996" x="122.2537" y="960.1761">+eventId: UUID</text><text fill="#000000" font-family="sans-serif" font-size="14" lengthAdjust="spacing" textLength="174.1734" x="122.2537" y="979.244">+status: ReservationStatus</text><text fill="#000000" font-family="sans-serif" font-size="14" lengthAdjust="spacing" textLength="135.5895" x="122.2537" y="998.312">+lockedAt: DateTime</text><text fill="#000000" font-family="sans-serif" font-size="14" lengthAdjust="spacing" textLength="140.7135" x="122.2537" y="1017.3799">+expiresAt: DateTime</text><text fill="#000000" font-family="sans-serif" font-size="14" lengthAdjust="spacing" textLength="163.2674" x="122.2537" y="1036.4478">+idempotencyKey: string</text><line style="stroke:#181818;stroke-width:0.5;" x1="117.2537" x2="301.427" y1="1044.5498" y2="1044.5498"/></g><!--class Payment--><g class="entity" data-entity="Payment" data-source-line="111" data-uid="ent0017" id="entity_Payment"><rect fill="#F1F1F1" height="181.4754" rx="2.5" ry="2.5" style="stroke:#181818;stroke-width:0.5;" width="172.2014" x="258.2997" y="1163.6679"/><ellipse cx="311.0725" cy="1179.6679" fill="#ADD1B2" rx="11" ry="11" style="stroke:#181818;stroke-width:1;"/><path d="M314.0413,1185.3085 Q313.4632,1185.6054 312.8225,1185.746 Q312.1819,1185.9022 311.4788,1185.9022 Q308.9788,1185.9022 307.6507,1184.2616 Q306.3382,1182.6054 306.3382,1179.4804 Q306.3382,1176.3554 307.6507,1174.6991 Q308.9788,1173.0429 311.4788,1173.0429 Q312.1819,1173.0429 312.8225,1173.1991 Q313.4788,1173.3554 314.0413,1173.6522 L314.0413,1176.371 Q313.4163,1175.7929 312.8225,1175.5272 Q312.2288,1175.246 311.6038,1175.246 Q310.26,1175.246 309.5725,1176.3241 Q308.885,1177.3866 308.885,1179.4804 Q308.885,1181.5741 309.5725,1182.6522 Q310.26,1183.7147 311.6038,1183.7147 Q312.2288,1183.7147 312.8225,1183.4491 Q313.4163,1183.1679 314.0413,1182.5897 L314.0413,1185.3085 Z " fill="#000000"/><text fill="#000000" font-family="sans-serif" font-size="14" lengthAdjust="spacing" textLength="58.1558" x="331.5725" y="1185.0998">Payment</text><line style="stroke:#181818;stroke-width:0.5;" x1="259.2997" x2="429.5011" y1="1195.6679" y2="1195.6679"/><text fill="#000000" font-family="sans-serif" font-size="14" lengthAdjust="spacing" textLength="63.0558" x="264.2997" y="1214.6338">+id: UUID</text><text fill="#000000" font-family="sans-serif" font-size="14" lengthAdjust="spacing" textLength="139.0055" x="264.2997" y="1233.7017">+reservationId: UUID</text><text fill="#000000" font-family="sans-serif" font-size="14" lengthAdjust="spacing" textLength="109.6896" x="264.2997" y="1252.7696">+provider: string</text><text fill="#000000" font-family="sans-serif" font-size="14" lengthAdjust="spacing" textLength="144.4655" x="264.2997" y="1271.8375">+providerRefId: string</text><text fill="#000000" font-family="sans-serif" font-size="14" lengthAdjust="spacing" textLength="118.5655" x="264.2997" y="1290.9055">+amount: decimal</text><text fill="#000000" font-family="sans-serif" font-size="14" lengthAdjust="spacing" textLength="154.5874" x="264.2997" y="1309.9734">+status: PaymentStatus</text><text fill="#000000" font-family="sans-serif" font-size="14" lengthAdjust="spacing" textLength="160.2014" x="264.2997" y="1329.0413">+processedAt: DateTime</text><line style="stroke:#181818;stroke-width:0.5;" x1="259.2997" x2="429.5011" y1="1337.1433" y2="1337.1433"/></g><!--class Ticket--><g class="entity" data-entity="Ticket" data-source-line="121" data-uid="ent0018" id="entity_Ticket"><rect fill="#F1F1F1" height="143.3396" rx="2.5" ry="2.5" style="stroke:#181818;stroke-width:0.5;" width="151.0055" x="87.2943" y="1163.6679"/><ellipse cx="139.2761" cy="1179.6679" fill="#ADD1B2" rx="11" ry="11" style="stroke:#181818;stroke-width:1;"/><path d="M142.2448,1185.3085 Q141.6667,1185.6054 141.0261,1185.746 Q140.3855,1185.9022 139.6823,1185.9022 Q137.1823,1185.9022 135.8542,1184.2616 Q134.5417,1182.6054 134.5417,1179.4804 Q134.5417,1176.3554 135.8542,1174.6991 Q137.1823,1173.0429 139.6823,1173.0429 Q140.3855,1173.0429 141.0261,1173.1991 Q141.6823,1173.3554 142.2448,1173.6522 L142.2448,1176.371 Q141.6198,1175.7929 141.0261,1175.5272 Q140.4323,1175.246 139.8073,1175.246 Q138.4636,1175.246 137.7761,1176.3241 Q137.0886,1177.3866 137.0886,1179.4804 Q137.0886,1181.5741 137.7761,1182.6522 Q138.4636,1183.7147 139.8073,1183.7147 Q140.4323,1183.7147 141.0261,1183.4491 Q141.6198,1183.1679 142.2448,1182.5897 L142.2448,1185.3085 Z " fill="#000000"/><text fill="#000000" font-family="sans-serif" font-size="14" lengthAdjust="spacing" textLength="38.5418" x="159.7761" y="1185.0998">Ticket</text><line style="stroke:#181818;stroke-width:0.5;" x1="88.2943" x2="237.2997" y1="1195.6679" y2="1195.6679"/><text fill="#000000" font-family="sans-serif" font-size="14" lengthAdjust="spacing" textLength="63.0558" x="93.2943" y="1214.6338">+id: UUID</text><text fill="#000000" font-family="sans-serif" font-size="14" lengthAdjust="spacing" textLength="139.0055" x="93.2943" y="1233.7017">+reservationId: UUID</text><text fill="#000000" font-family="sans-serif" font-size="14" lengthAdjust="spacing" textLength="135.6175" x="93.2943" y="1252.7696">+qrCodeHash: string</text><text fill="#000000" font-family="sans-serif" font-size="14" lengthAdjust="spacing" textLength="134.9875" x="93.2943" y="1271.8375">+issuedAt: DateTime</text><text fill="#000000" font-family="sans-serif" font-size="14" lengthAdjust="spacing" textLength="136.3315" x="93.2943" y="1290.9055">+checkedIn: boolean</text><line style="stroke:#181818;stroke-width:0.5;" x1="88.2943" x2="237.2997" y1="1299.0074" y2="1299.0074"/></g><!--class Notification--><g class="entity" data-entity="Notification" data-source-line="129" data-uid="ent0019" id="entity_Notification"><rect fill="#F1F1F1" height="143.3396" rx="2.5" ry="2.5" style="stroke:#181818;stroke-width:0.5;" width="156.3114" x="12" y="344.6614"/><ellipse cx="48.4856" cy="360.6614" fill="#ADD1B2" rx="11" ry="11" style="stroke:#181818;stroke-width:1;"/><path d="M51.4543,366.302 Q50.8762,366.5989 50.2356,366.7395 Q49.595,366.8958 48.8918,366.8958 Q46.3918,366.8958 45.0637,365.2551 Q43.7512,363.5989 43.7512,360.4739 Q43.7512,357.3489 45.0637,355.6926 Q46.3918,354.0364 48.8918,354.0364 Q49.595,354.0364 50.2356,354.1926 Q50.8918,354.3489 51.4543,354.6458 L51.4543,357.3645 Q50.8293,356.7864 50.2356,356.5208 Q49.6418,356.2395 49.0168,356.2395 Q47.6731,356.2395 46.9856,357.3176 Q46.2981,358.3801 46.2981,360.4739 Q46.2981,362.5676 46.9856,363.6458 Q47.6731,364.7083 49.0168,364.7083 Q49.6418,364.7083 50.2356,364.4426 Q50.8293,364.1614 51.4543,363.5833 L51.4543,366.302 Z " fill="#000000"/><text fill="#000000" font-family="sans-serif" font-size="14" lengthAdjust="spacing" textLength="76.5657" x="67.2602" y="366.0934">Notification</text><line style="stroke:#181818;stroke-width:0.5;" x1="13" x2="167.3114" y1="376.6614" y2="376.6614"/><text fill="#000000" font-family="sans-serif" font-size="14" lengthAdjust="spacing" textLength="63.0558" x="18" y="395.6273">+id: UUID</text><text fill="#000000" font-family="sans-serif" font-size="14" lengthAdjust="spacing" textLength="93.2256" x="18" y="414.6952">+userId: UUID</text><text fill="#000000" font-family="sans-serif" font-size="14" lengthAdjust="spacing" textLength="105.8536" x="18" y="433.7632">+channel: string</text><text fill="#000000" font-family="sans-serif" font-size="14" lengthAdjust="spacing" textLength="144.3114" x="18" y="452.8311">+templateType: string</text><text fill="#000000" font-family="sans-serif" font-size="14" lengthAdjust="spacing" textLength="121.1135" x="18" y="471.899">+sentAt: DateTime</text><line style="stroke:#181818;stroke-width:0.5;" x1="13" x2="167.3114" y1="480.001" y2="480.001"/></g><line style="stroke:#181818;stroke-width:1;" x1="171.7274" x2="171.7274" y1="233.5433" y2="263.2493"/><line style="stroke:#181818;stroke-width:1;" x1="171.7274" x2="283.5601" y1="263.2493" y2="263.2493"/><line style="stroke:#181818;stroke-width:1;" x1="283.5601" x2="283.5601" y1="263.2493" y2="363.4103"/><polygon fill="#FFFFFF" points="171.7274,233.5433,164.7274,252.5433,178.7274,252.5433,171.7274,233.5433" style="stroke:#181818;stroke-width:1;"/><line style="stroke:#181818;stroke-width:1;" x1="484.7778" x2="484.7778" y1="468.295" y2="498.001"/><line style="stroke:#181818;stroke-width:1;" x1="484.7778" x2="510.0333" y1="498.001" y2="498.001"/><line style="stroke:#181818;stroke-width:1;" x1="510.0333" x2="510.0333" y1="498.001" y2="632.9727"/><polygon fill="#181818" points="484.7778,468.295,480.7778,474.295,484.7778,480.295,488.7778,474.295,484.7778,468.295" style="stroke:#181818;stroke-width:1;"/><text fill="#000000" font-family="sans-serif" font-size="13" lengthAdjust="spacing" textLength="51.7401" x="454.2933" y="523.898">contains</text><text fill="#000000" font-family="sans-serif" font-size="13" lengthAdjust="spacing" textLength="7.436" x="487.7778" y="484.192">1</text><text fill="#000000" font-family="sans-serif" font-size="13" lengthAdjust="spacing" textLength="34.112" x="513.0333" y="627.1637">many</text><line style="stroke:#181818;stroke-width:1;" x1="530.6183" x2="530.6183" y1="738.1765" y2="799.6623"/><line style="stroke:#181818;stroke-width:1;" x1="530.6183" x2="646.1599" y1="799.6623" y2="799.6623"/><line style="stroke:#181818;stroke-width:1;" x1="646.1599" x2="646.1599" y1="799.6623" y2="918.7441"/><polygon fill="#181818" points="530.6183,738.1765,526.6183,744.1765,530.6183,750.1765,534.6183,744.1765,530.6183,738.1765" style="stroke:#181818;stroke-width:1;"/><text fill="#000000" font-family="sans-serif" font-size="13" lengthAdjust="spacing" textLength="51.7401" x="590.4199" y="825.5594">contains</text><text fill="#000000" font-family="sans-serif" font-size="13" lengthAdjust="spacing" textLength="7.436" x="533.6183" y="754.0735">1</text><text fill="#000000" font-family="sans-serif" font-size="13" lengthAdjust="spacing" textLength="34.112" x="649.1599" y="912.9351">many</text><line style="stroke:#181818;stroke-width:1;" x1="646.1599" x2="646.1599" y1="1004.88" y2="1133.9618"/><line style="stroke:#181818;stroke-width:1;" x1="646.1599" x2="549.1648" y1="1133.9618" y2="1133.9618"/><line style="stroke:#181818;stroke-width:1;" x1="549.1648" x2="549.1648" y1="1133.9618" y2="1163.6679"/><polygon fill="#181818" points="646.1599,1004.88,642.1599,1010.88,646.1599,1016.88,650.1599,1010.88,646.1599,1004.88" style="stroke:#181818;stroke-width:1;"/><text fill="#000000" font-family="sans-serif" font-size="13" lengthAdjust="spacing" textLength="51.7401" x="590.4199" y="1118.1528">contains</text><text fill="#000000" font-family="sans-serif" font-size="13" lengthAdjust="spacing" textLength="7.436" x="649.1599" y="1020.777">1</text><text fill="#000000" font-family="sans-serif" font-size="13" lengthAdjust="spacing" textLength="34.112" x="552.1648" y="1157.8589">many</text><line style="stroke:#181818;stroke-width:1;" x1="441.2933" x2="441.2933" y1="468.295" y2="539.707"/><line style="stroke:#181818;stroke-width:1;" x1="441.2933" x2="334.7726" y1="539.707" y2="539.707"/><line style="stroke:#181818;stroke-width:1;" x1="334.7726" x2="334.7726" y1="539.707" y2="569.413"/><text fill="#000000" font-family="sans-serif" font-size="13" lengthAdjust="spacing" textLength="33.046" x="404.2473" y="523.898">hosts</text><text fill="#000000" font-family="sans-serif" font-size="13" lengthAdjust="spacing" textLength="7.436" x="444.2933" y="484.192">1</text><text fill="#000000" font-family="sans-serif" font-size="13" lengthAdjust="spacing" textLength="34.112" x="337.7726" y="563.604">many</text><line style="stroke:#181818;stroke-width:1;" x1="489.4484" x2="489.4484" y1="738.1765" y2="871.0743"/><text fill="#000000" font-family="sans-serif" font-size="13" lengthAdjust="spacing" textLength="56.2901" x="429.1584" y="825.5594">priced by</text><text fill="#000000" font-family="sans-serif" font-size="13" lengthAdjust="spacing" textLength="7.436" x="492.4484" y="754.0735">1</text><text fill="#000000" font-family="sans-serif" font-size="13" lengthAdjust="spacing" textLength="34.112" x="492.4484" y="865.2653">many</text><line style="stroke:#181818;stroke-width:1;" x1="309.1664" x2="309.1664" y1="769.9563" y2="841.3683"/><line style="stroke:#181818;stroke-width:1;" x1="309.1664" x2="240.3692" y1="841.3683" y2="841.3683"/><line style="stroke:#181818;stroke-width:1;" x1="240.3692" x2="240.3692" y1="841.3683" y2="871.0743"/><text fill="#000000" font-family="sans-serif" font-size="13" lengthAdjust="spacing" textLength="49.79" x="255.3763" y="825.5594">receives</text><text fill="#000000" font-family="sans-serif" font-size="13" lengthAdjust="spacing" textLength="7.436" x="312.1664" y="785.8534">1</text><text fill="#000000" font-family="sans-serif" font-size="13" lengthAdjust="spacing" textLength="34.112" x="243.3692" y="865.2653">many</text><line style="stroke:#181818;stroke-width:1;" x1="130.9416" x2="130.9416" y1="233.5433" y2="273.2493"/><line style="stroke:#181818;stroke-width:1;" x1="130.9416" x2="178.3114" y1="273.2493" y2="273.2493"/><line style="stroke:#181818;stroke-width:1;" x1="178.3114" x2="178.3114" y1="273.2493" y2="871.0743"/><text fill="#000000" font-family="sans-serif" font-size="13" lengthAdjust="spacing" textLength="39.949" x="134.3624" y="523.898">makes</text><text fill="#000000" font-family="sans-serif" font-size="13" lengthAdjust="spacing" textLength="7.436" x="133.9416" y="249.4403">1</text><text fill="#000000" font-family="sans-serif" font-size="13" lengthAdjust="spacing" textLength="34.112" x="181.3114" y="865.2653">many</text><line style="stroke:#181818;stroke-width:1;" x1="255.8837" x2="255.8837" y1="1052.5498" y2="1082.2558"/><line style="stroke:#181818;stroke-width:1;" x1="255.8837" x2="499.833" y1="1082.2558" y2="1082.2558"/><line style="stroke:#181818;stroke-width:1;" x1="499.833" x2="499.833" y1="1082.2558" y2="1163.6679"/><text fill="#000000" font-family="sans-serif" font-size="13" lengthAdjust="spacing" textLength="33.475" x="462.3579" y="1118.1528">holds</text><text fill="#000000" font-family="sans-serif" font-size="13" lengthAdjust="spacing" textLength="34.112" x="258.8837" y="1068.4468">many</text><text fill="#000000" font-family="sans-serif" font-size="13" lengthAdjust="spacing" textLength="34.112" x="502.833" y="1157.8589">many</text><line style="stroke:#181818;stroke-width:1;" x1="209.3403" x2="209.3403" y1="1052.5498" y2="1092.2558"/><line style="stroke:#181818;stroke-width:1;" x1="209.3403" x2="344.4004" y1="1092.2558" y2="1092.2558"/><line style="stroke:#181818;stroke-width:1;" x1="344.4004" x2="344.4004" y1="1092.2558" y2="1163.6679"/><text fill="#000000" font-family="sans-serif" font-size="13" lengthAdjust="spacing" textLength="59.6311" x="280.7694" y="1118.1528">settled by</text><text fill="#000000" font-family="sans-serif" font-size="13" lengthAdjust="spacing" textLength="7.436" x="212.3403" y="1068.4468">1</text><text fill="#000000" font-family="sans-serif" font-size="13" lengthAdjust="spacing" textLength="21.84" x="347.4004" y="1157.8589">0..1</text><line style="stroke:#181818;stroke-width:1;" x1="162.797" x2="162.797" y1="1052.5498" y2="1163.6679"/><text fill="#000000" font-family="sans-serif" font-size="13" lengthAdjust="spacing" textLength="57.0571" x="101.7399" y="1118.1528">produces</text><text fill="#000000" font-family="sans-serif" font-size="13" lengthAdjust="spacing" textLength="7.436" x="165.797" y="1068.4468">1</text><text fill="#000000" font-family="sans-serif" font-size="13" lengthAdjust="spacing" textLength="21.84" x="165.797" y="1157.8589">0..1</text><line style="stroke:#181818;stroke-width:1;" x1="90.1557" x2="90.1557" y1="233.5433" y2="344.6614"/><text fill="#000000" font-family="sans-serif" font-size="13" lengthAdjust="spacing" textLength="49.79" x="36.3657" y="299.1464">receives</text><text fill="#000000" font-family="sans-serif" font-size="13" lengthAdjust="spacing" textLength="7.436" x="93.1557" y="249.4403">1</text><text fill="#000000" font-family="sans-serif" font-size="13" lengthAdjust="spacing" textLength="34.112" x="93.1557" y="338.8524">many</text><line style="stroke:#181818;stroke-width:1;" x1="283.5601" x2="283.5601" y1="449.5461" y2="569.413"/><text fill="#000000" font-family="sans-serif" font-size="13" lengthAdjust="spacing" textLength="59.579" x="219.9811" y="523.898">organizes</text><text fill="#000000" font-family="sans-serif" font-size="13" lengthAdjust="spacing" textLength="7.436" x="286.5601" y="465.4431">1</text><text fill="#000000" font-family="sans-serif" font-size="13" lengthAdjust="spacing" textLength="34.112" x="286.5601" y="563.604">many</text><!--SRC=[ZLLDaviu4BtpAvGvRcfIsIkr5s8p2HKFkB0zjRkNALdqsAeH4Yi99-JZlwSbm1Pciic9fdbwUlt9gqRJGqs9e9rgBG7n75bk1P0jPyzWrw8rv9Oi13M6B3azQ5f7aNdcig5e4kO-9DPglcyjP4p93Vy2v6qKWMnhKYfa-XeHycxtJrhYioZV9tdshxUJvNsMHzy7w0QetLXgyJvt87b8ibNoRfMYlIeM7zEbOoaAPun7qXF8yCnwbUIv1nRvuoRnPztZSPtiDjw_ALRBnsAtHNEHv8jqjGheIZ2WJzHo328WJVDbbhzt9uhyBYllFL7wzpehlJNdMTEkdWhBycoR9TjUmcwnIDEbj-ymHc-KwTqkN_OSFgLaXrhysTUyYibkbpdOwwTMY9pM41E3APS7vuEQSX4wcgEI4qI3X9-KhZvGSmpz6giJ-ngvDwQn0b0bDYPBDBQyXekSGX-enCeEcbJ_wdDrhUS4cZznGDLxXTHK8ekFvgzljxSNef7v0NC6yqZb5IkjAWt6X2whB1KBsb36RHSJBkr5xmQOLVhNj8tc34C5VNQUAKhrQNvUq3s8ETOrxnniq9ktzJvWTrxV5t7GyCxxEIPFGb7hx6wqp_o-q-SN-4aDkIimJFF6bILqCwpdGUdkIeQshiX1kLqtoMhk72K70nTq0UXir7GMlCQyuaLbArwexPuQS02yfGB6QogyzWwBmzbzAonlX2_9EICdAdXrfrKzrUNTM_LImmR3F1VGca2p2zh55Jh6W6ShmVU0miqudHF7yRdXsA7NRbv1tIWBadKVePjtph0ivXhrvUfGMQFL2Jdrj8bxNmbF3XeCJQrQQITP7YERBAc1XE60_Mm1zB-3tvRvdrwe2guN3ZUcdMUE7S4bD9FXnXYkpPN5PS9-iuxiIAM4oJAqc7xXBkkQoQGO3FuwqduLtVnvG_x0JNLJKzdTZ9ia9lXlivHB4msUAvnR5m78lSwOS4a4aCjr5qm_w34vAcCdDrqWuMZ5n2-mYkoxg3ywnOPJ41CD3FW9JB-E_mzPqsU4XRu1Delcg4HrXHnutxvvWzROtvXxiBYjlDIVmuSsSt6fgcKlQvqqHH3MvIVrSbB7VMMY7m00]--></g></svg>