<svg xmlns="http://www.w3.org/2000/svg" xmlns:xlink="http://www.w3.org/1999/xlink" contentStyleType="text/css" data-diagram-type="ACTIVITY" height="2084px" preserveAspectRatio="none" style="width:492px;height:2084px;background:#FFFFFF;" version="1.1" viewBox="0 0 492 2084" width="492px" zoomAndPan="magnify"><title>TicketPlus - Admin/Organizer Event Creation Workflow (Activity)</title><defs/><g><g class="title" data-source-line="2"><text fill="#000000" font-family="sans-serif" font-size="14" font-weight="bold" lengthAdjust="spacing" textLength="449.5524" x="20" y="34.9659">TicketPlus - Admin/Organizer Event Creation Workflow (Activity)</text></g><ellipse cx="259.4593" cy="60.0679" fill="#222222" rx="10" ry="10" style="stroke:#222222;stroke-width:1;"/><rect fill="#F1F1F1" height="36.3441" rx="12.5" ry="12.5" style="stroke:#181818;stroke-width:0.5;" width="129.5968" x="194.6609" y="90.0679"/><text fill="#000000" font-family="sans-serif" font-size="12" lengthAdjust="spacing" textLength="109.5968" x="204.6609" y="112.896">Log in as Organizer</text><polygon fill="#F1F1F1" points="204.0747,146.412,314.8439,146.412,326.8439,158.412,314.8439,170.412,204.0747,170.412,192.0747,158.412,204.0747,146.412" style="stroke:#181818;stroke-width:0.5;"/><text fill="#000000" font-family="sans-serif" font-size="11" lengthAdjust="spacing" textLength="110.7692" x="204.0747" y="162.68">Venue already exists?</text><text fill="#000000" font-family="sans-serif" font-size="11" lengthAdjust="spacing" textLength="13.4529" x="178.6218" y="155.1891">no</text><text fill="#000000" font-family="sans-serif" font-size="11" lengthAdjust="spacing" textLength="17.0829" x="326.8439" y="155.1891">yes</text><rect fill="#F1F1F1" height="36.3441" rx="12.5" ry="12.5" style="stroke:#181818;stroke-width:0.5;" width="134.5288" x="84.3963" y="180.412"/><text fill="#000000" font-family="sans-serif" font-size="12" lengthAdjust="spacing" textLength="114.5288" x="94.3963" y="203.2401">Create venue profile</text><rect fill="#F1F1F1" height="36.3441" rx="12.5" ry="12.5" style="stroke:#181818;stroke-width:0.5;" width="243.2016" x="30.0599" y="236.7561"/><text fill="#000000" font-family="sans-serif" font-size="12" lengthAdjust="spacing" textLength="223.2016" x="40.0599" y="259.5842">Define sectors (VIP, regular, balcony, ...)</text><rect fill="#F1F1F1" height="36.3441" rx="12.5" ry="12.5" style="stroke:#181818;stroke-width:0.5;" width="252.9937" x="25.1639" y="293.1003"/><text fill="#000000" font-family="sans-serif" font-size="12" lengthAdjust="spacing" textLength="232.9937" x="35.1639" y="315.9283">Define rows and seat numbers per sector</text><rect fill="#F1F1F1" height="36.3441" rx="12.5" ry="12.5" style="stroke:#181818;stroke-width:0.5;" width="121.8447" x="90.7384" y="349.4444"/><text fill="#000000" font-family="sans-serif" font-size="12" lengthAdjust="spacing" textLength="101.8447" x="100.7384" y="372.2725">Save venue layout</text><rect fill="#F1F1F1" height="36.3441" rx="12.5" ry="12.5" style="stroke:#181818;stroke-width:0.5;" width="138.2008" x="298.1576" y="180.412"/><text fill="#000000" font-family="sans-serif" font-size="12" lengthAdjust="spacing" textLength="118.2008" x="308.1576" y="203.2401">Select existing venue</text><polygon fill="#F1F1F1" points="259.4593,391.7885,271.4593,403.7885,259.4593,415.7885,247.4593,403.7885,259.4593,391.7885" style="stroke:#181818;stroke-width:0.5;"/><rect fill="#F1F1F1" height="36.3441" rx="12.5" ry="12.5" style="stroke:#181818;stroke-width:0.5;" width="118.3767" x="200.271" y="435.7885"/><text fill="#000000" font-family="sans-serif" font-size="12" lengthAdjust="spacing" textLength="98.3767" x="210.271" y="458.6166">Create new event</text><rect fill="#F1F1F1" height="52.6882" rx="12.5" ry="12.5" style="stroke:#181818;stroke-width:0.5;" width="209.5294" x="154.6947" y="492.1326"/><text fill="#000000" font-family="sans-serif" font-size="12" lengthAdjust="spacing" textLength="109.5368" x="164.6947" y="514.9607">Set event metadata</text><text fill="#000000" font-family="sans-serif" font-size="12" lengthAdjust="spacing" textLength="189.5294" x="164.6947" y="531.3048">(title, description, category, artist)</text><rect fill="#F1F1F1" height="36.3441" rx="12.5" ry="12.5" style="stroke:#181818;stroke-width:0.5;" width="193.8692" x="162.5247" y="564.8208"/><text fill="#000000" font-family="sans-serif" font-size="12" lengthAdjust="spacing" textLength="173.8692" x="172.5247" y="587.6489">Map event to venue + time slot</text><rect fill="#F1F1F1" height="36.3441" rx="12.5" ry="12.5" style="stroke:#181818;stroke-width:0.5;" width="137.9848" x="190.4669" y="621.1649"/><text fill="#000000" font-family="sans-serif" font-size="12" lengthAdjust="spacing" textLength="117.9848" x="200.4669" y="643.993">Define pricing model</text><rect fill="#555555" height="6" rx="2.5" ry="2.5" style="stroke:#555555;stroke-width:1;" width="417.8583" x="49.5302" y="677.5091"/><rect fill="#F1F1F1" height="36.3441" rx="12.5" ry="12.5" style="stroke:#181818;stroke-width:0.5;" width="158.685" x="63.5302" y="711.6811"/><text fill="#000000" font-family="sans-serif" font-size="12" lengthAdjust="spacing" textLength="138.685" x="73.5302" y="734.5092">Set base price per sector</text><rect fill="#F1F1F1" height="52.6882" rx="12.5" ry="12.5" style="stroke:#181818;stroke-width:0.5;" width="205.1733" x="250.2152" y="703.5091"/><text fill="#000000" font-family="sans-serif" font-size="12" lengthAdjust="spacing" textLength="180.1573" x="260.2152" y="726.3371">Configure dynamic pricing rules</text><text fill="#000000" font-family="sans-serif" font-size="12" lengthAdjust="spacing" textLength="185.1733" x="260.2152" y="742.6813">(demand/time-based multipliers)</text><rect fill="#555555" height="6" rx="2.5" ry="2.5" style="stroke:#555555;stroke-width:1;" width="417.8583" x="49.5302" y="776.1973"/><rect fill="#F1F1F1" height="36.3441" rx="12.5" ry="12.5" style="stroke:#181818;stroke-width:0.5;" width="177.6091" x="170.6548" y="802.1973"/><text fill="#000000" font-family="sans-serif" font-size="12" lengthAdjust="spacing" textLength="157.6091" x="180.6548" y="825.0254">Set event status = PLANNED</text><rect fill="#F1F1F1" height="36.3441" rx="12.5" ry="12.5" style="stroke:#181818;stroke-width:0.5;" width="92.4325" x="213.2431" y="908.0323"/><text fill="#000000" font-family="sans-serif" font-size="12" lengthAdjust="spacing" textLength="72.4325" x="223.2431" y="930.8604">Save as draft</text><ellipse cx="259.4593" cy="982.7044" fill="none" rx="11" ry="11" style="stroke:#222222;stroke-width:1;"/><ellipse cx="259.4593" cy="982.7044" fill="#222222" rx="6" ry="6" style="stroke:#222222;stroke-width:1;"/><polygon fill="#F1F1F1" points="214.0682,858.5414,304.8505,858.5414,316.8505,870.5414,304.8505,882.5414,214.0682,882.5414,202.0682,870.5414,214.0682,858.5414" style="stroke:#181818;stroke-width:0.5;"/><text fill="#000000" font-family="sans-serif" font-size="11" lengthAdjust="spacing" textLength="13.4529" x="263.4593" y="894.3003">no</text><text fill="#000000" font-family="sans-serif" font-size="11" lengthAdjust="spacing" textLength="90.7824" x="214.0682" y="874.8094">Ready to publish?</text><text fill="#000000" font-family="sans-serif" font-size="11" lengthAdjust="spacing" textLength="17.0829" x="316.8505" y="867.3184">yes</text><rect fill="#F1F1F1" height="52.6882" rx="12.5" ry="12.5" style="stroke:#181818;stroke-width:0.5;" width="256.6537" x="131.1325" y="1035.7044"/><text fill="#000000" font-family="sans-serif" font-size="12" lengthAdjust="spacing" textLength="148.273" x="141.1325" y="1058.5325">Run pre-publish validation</text><text fill="#000000" font-family="sans-serif" font-size="12" lengthAdjust="spacing" textLength="236.6537" x="141.1325" y="1074.8766">(pricing completeness, seat map integrity)</text><rect fill="#F1F1F1" height="36.3441" rx="12.5" ry="12.5" style="stroke:#181818;stroke-width:0.5;" width="146.8169" x="186.0509" y="1157.8836"/><text fill="#000000" font-family="sans-serif" font-size="12" lengthAdjust="spacing" textLength="126.8169" x="196.0509" y="1180.7117">Show validation errors</text><ellipse cx="259.4593" cy="1232.5556" fill="none" rx="11" ry="11" style="stroke:#222222;stroke-width:1;"/><ellipse cx="259.4593" cy="1232.5556" fill="#222222" rx="6" ry="6" style="stroke:#222222;stroke-width:1;"/><polygon fill="#F1F1F1" points="211.5987,1108.3926,307.32,1108.3926,319.32,1120.3926,307.32,1132.3926,211.5987,1132.3926,199.5987,1120.3926,211.5987,1108.3926" style="stroke:#181818;stroke-width:0.5;"/><text fill="#000000" font-family="sans-serif" font-size="11" lengthAdjust="spacing" textLength="13.4529" x="263.4593" y="1144.1515">no</text><text fill="#000000" font-family="sans-serif" font-size="11" lengthAdjust="spacing" textLength="95.7213" x="211.5987" y="1124.6606">Validation passed?</text><text fill="#000000" font-family="sans-serif" font-size="11" lengthAdjust="spacing" textLength="17.0829" x="319.32" y="1117.1697">yes</text><rect fill="#F1F1F1" height="36.3441" rx="12.5" ry="12.5" style="stroke:#181818;stroke-width:0.5;" width="173.7571" x="172.5808" y="1285.5556"/><text fill="#000000" font-family="sans-serif" font-size="12" lengthAdjust="spacing" textLength="153.7571" x="182.5808" y="1308.3837">Set event status = ON_SALE</text><rect fill="#F1F1F1" height="36.3441" rx="12.5" ry="12.5" style="stroke:#181818;stroke-width:0.5;" width="191.2652" x="163.8267" y="1341.8997"/><text fill="#000000" font-family="sans-serif" font-size="12" lengthAdjust="spacing" textLength="171.2652" x="173.8267" y="1364.7278">Publish event to Event Catalog</text><rect fill="#F1F1F1" height="36.3441" rx="12.5" ry="12.5" style="stroke:#181818;stroke-width:0.5;" width="226.5335" x="146.1926" y="1398.2439"/><text fill="#000000" font-family="sans-serif" font-size="12" lengthAdjust="spacing" textLength="206.5335" x="156.1926" y="1421.072">Event becomes searchable/bookable</text><rect fill="#F1F1F1" height="36.3441" rx="12.5" ry="12.5" style="stroke:#181818;stroke-width:0.5;" width="253.0057" x="132.9565" y="1504.0789"/><text fill="#000000" font-family="sans-serif" font-size="12" lengthAdjust="spacing" textLength="233.0057" x="142.9565" y="1526.907">Enable virtual waiting room for this event</text><polygon fill="#F1F1F1" points="196.8368,1454.588,322.0819,1454.588,334.0819,1466.588,322.0819,1478.588,196.8368,1478.588,184.8368,1466.588,196.8368,1454.588" style="stroke:#181818;stroke-width:0.5;"/><text fill="#000000" font-family="sans-serif" font-size="11" lengthAdjust="spacing" textLength="17.0829" x="263.4593" y="1490.3469">yes</text><text fill="#000000" font-family="sans-serif" font-size="11" lengthAdjust="spacing" textLength="125.2451" x="196.8368" y="1470.8559">High demand expected?</text><text fill="#000000" font-family="sans-serif" font-size="11" lengthAdjust="spacing" textLength="13.4529" x="334.0819" y="1463.365">no</text><polygon fill="#F1F1F1" points="259.4593,1560.423,271.4593,1572.423,259.4593,1584.423,247.4593,1572.423,259.4593,1560.423" style="stroke:#181818;stroke-width:0.5;"/><rect fill="#F1F1F1" height="36.3441" rx="12.5" ry="12.5" style="stroke:#181818;stroke-width:0.5;" width="182.6972" x="168.1108" y="1604.423"/><text fill="#000000" font-family="sans-serif" font-size="12" lengthAdjust="spacing" textLength="162.6972" x="178.1108" y="1627.2511">Monitor live sales dashboard</text><rect fill="#F1F1F1" height="52.6882" rx="12.5" ry="12.5" style="stroke:#181818;stroke-width:0.5;" width="221.2654" x="148.8266" y="1704.7671"/><text fill="#000000" font-family="sans-serif" font-size="12" lengthAdjust="spacing" textLength="201.2535" x="158.8266" y="1727.5952">Organizer reviews real-time metrics</text><text fill="#000000" font-family="sans-serif" font-size="12" lengthAdjust="spacing" textLength="201.2654" x="158.8266" y="1743.9394">(sales, revenue, remaining capacity)</text><rect fill="#F1F1F1" height="36.3441" rx="12.5" ry="12.5" style="stroke:#181818;stroke-width:0.5;" width="195.7533" x="161.5827" y="1826.9463"/><text fill="#000000" font-family="sans-serif" font-size="12" lengthAdjust="spacing" textLength="175.7533" x="171.5827" y="1849.7744">Update pricing / seat allocation</text><polygon fill="#F1F1F1" points="191.8923,1777.4554,327.0264,1777.4554,339.0264,1789.4554,327.0264,1801.4554,191.8923,1801.4554,179.8923,1789.4554,191.8923,1777.4554" style="stroke:#181818;stroke-width:0.5;"/><text fill="#000000" font-family="sans-serif" font-size="11" lengthAdjust="spacing" textLength="17.0829" x="263.4593" y="1813.2143">yes</text><text fill="#000000" font-family="sans-serif" font-size="11" lengthAdjust="spacing" textLength="135.1341" x="191.8923" y="1793.7233">Adjust pricing or capacity?</text><polygon fill="#F1F1F1" points="259.4593,1883.2904,271.4593,1895.2904,259.4593,1907.2904,247.4593,1895.2904,259.4593,1883.2904" style="stroke:#181818;stroke-width:0.5;"/><polygon fill="#F1F1F1" points="259.4593,1660.7671,271.4593,1672.7671,259.4593,1684.7671,247.4593,1672.7671,259.4593,1660.7671" style="stroke:#181818;stroke-width:0.5;"/><polygon fill="#F1F1F1" points="212.5997,1927.2904,306.319,1927.2904,318.319,1939.2904,306.319,1951.2904,212.5997,1951.2904,200.5997,1939.2904,212.5997,1927.2904" style="stroke:#181818;stroke-width:0.5;"/><text fill="#000000" font-family="sans-serif" font-size="11" lengthAdjust="spacing" textLength="93.7193" x="212.5997" y="1943.5584">Event still on sale?</text><text fill="#000000" font-family="sans-serif" font-size="11" lengthAdjust="spacing" textLength="17.0829" x="318.319" y="1936.0675">yes</text><rect fill="#F1F1F1" height="36.3441" rx="12.5" ry="12.5" style="stroke:#181818;stroke-width:0.5;" width="262.2937" x="128.3125" y="1995.4953"/><text fill="#000000" font-family="sans-serif" font-size="12" lengthAdjust="spacing" textLength="242.2937" x="138.3125" y="2018.3234">Set event status = SOLD_OUT or completed</text><ellipse cx="259.4593" cy="2062.8394" fill="none" rx="11" ry="11" style="stroke:#222222;stroke-width:1;"/><ellipse cx="259.4593" cy="2062.8394" fill="#222222" rx="6" ry="6" style="stroke:#222222;stroke-width:1;"/><line style="stroke:#181818;stroke-width:1;" x1="259.4593" x2="259.4593" y1="70.0679" y2="90.0679"/><polygon fill="#181818" points="255.4593,80.0679,259.4593,90.0679,263.4593,80.0679,259.4593,84.0679" style="stroke:#181818;stroke-width:1;"/><line style="stroke:#181818;stroke-width:1;" x1="151.6607" x2="151.6607" y1="216.7561" y2="236.7561"/><polygon fill="#181818" points="147.6607,226.7561,151.6607,236.7561,155.6607,226.7561,151.6607,230.7561" style="stroke:#181818;stroke-width:1;"/><line style="stroke:#181818;stroke-width:1;" x1="151.6607" x2="151.6607" y1="273.1003" y2="293.1003"/><polygon fill="#181818" points="147.6607,283.1003,151.6607,293.1003,155.6607,283.1003,151.6607,287.1003" style="stroke:#181818;stroke-width:1;"/><line style="stroke:#181818;stroke-width:1;" x1="151.6607" x2="151.6607" y1="329.4444" y2="349.4444"/><polygon fill="#181818" points="147.6607,339.4444,151.6607,349.4444,155.6607,339.4444,151.6607,343.4444" style="stroke:#181818;stroke-width:1;"/><line style="stroke:#181818;stroke-width:1;" x1="192.0747" x2="151.6607" y1="158.412" y2="158.412"/><line style="stroke:#181818;stroke-width:1;" x1="151.6607" x2="151.6607" y1="158.412" y2="180.412"/><polygon fill="#181818" points="147.6607,170.412,151.6607,180.412,155.6607,170.412,151.6607,174.412" style="stroke:#181818;stroke-width:1;"/><line style="stroke:#181818;stroke-width:1;" x1="326.8439" x2="367.258" y1="158.412" y2="158.412"/><line style="stroke:#181818;stroke-width:1;" x1="367.258" x2="367.258" y1="158.412" y2="180.412"/><polygon fill="#181818" points="363.258,170.412,367.258,180.412,371.258,170.412,367.258,174.412" style="stroke:#181818;stroke-width:1;"/><line style="stroke:#181818;stroke-width:1;" x1="151.6607" x2="151.6607" y1="385.7885" y2="403.7885"/><line style="stroke:#181818;stroke-width:1;" x1="151.6607" x2="247.4593" y1="403.7885" y2="403.7885"/><polygon fill="#181818" points="237.4593,399.7885,247.4593,403.7885,237.4593,407.7885,241.4593,403.7885" style="stroke:#181818;stroke-width:1;"/><line style="stroke:#181818;stroke-width:1;" x1="367.258" x2="367.258" y1="216.7561" y2="403.7885"/><line style="stroke:#181818;stroke-width:1;" x1="367.258" x2="271.4593" y1="403.7885" y2="403.7885"/><polygon fill="#181818" points="281.4593,399.7885,271.4593,403.7885,281.4593,407.7885,277.4593,403.7885" style="stroke:#181818;stroke-width:1;"/><line style="stroke:#181818;stroke-width:1;" x1="259.4593" x2="259.4593" y1="126.412" y2="146.412"/><polygon fill="#181818" points="255.4593,136.412,259.4593,146.412,263.4593,136.412,259.4593,140.412" style="stroke:#181818;stroke-width:1;"/><line style="stroke:#181818;stroke-width:1;" x1="259.4593" x2="259.4593" y1="415.7885" y2="435.7885"/><polygon fill="#181818" points="255.4593,425.7885,259.4593,435.7885,263.4593,425.7885,259.4593,429.7885" style="stroke:#181818;stroke-width:1;"/><line style="stroke:#181818;stroke-width:1;" x1="259.4593" x2="259.4593" y1="472.1326" y2="492.1326"/><polygon fill="#181818" points="255.4593,482.1326,259.4593,492.1326,263.4593,482.1326,259.4593,486.1326" style="stroke:#181818;stroke-width:1;"/><line style="stroke:#181818;stroke-width:1;" x1="259.4593" x2="259.4593" y1="544.8208" y2="564.8208"/><polygon fill="#181818" points="255.4593,554.8208,259.4593,564.8208,263.4593,554.8208,259.4593,558.8208" style="stroke:#181818;stroke-width:1;"/><line style="stroke:#181818;stroke-width:1;" x1="259.4593" x2="259.4593" y1="601.1649" y2="621.1649"/><polygon fill="#181818" points="255.4593,611.1649,259.4593,621.1649,263.4593,611.1649,259.4593,615.1649" style="stroke:#181818;stroke-width:1;"/><line style="stroke:#181818;stroke-width:1;" x1="142.8727" x2="142.8727" y1="683.5091" y2="711.6811"/><polygon fill="#181818" points="138.8727,701.6811,142.8727,711.6811,146.8727,701.6811,142.8727,705.6811" style="stroke:#181818;stroke-width:1;"/><line style="stroke:#181818;stroke-width:1;" x1="352.8019" x2="352.8019" y1="683.5091" y2="703.5091"/><polygon fill="#181818" points="348.8019,693.5091,352.8019,703.5091,356.8019,693.5091,352.8019,697.5091" style="stroke:#181818;stroke-width:1;"/><line style="stroke:#181818;stroke-width:1;" x1="142.8727" x2="142.8727" y1="748.0252" y2="776.1973"/><polygon fill="#181818" points="138.8727,766.1973,142.8727,776.1973,146.8727,766.1973,142.8727,770.1973" style="stroke:#181818;stroke-width:1;"/><line style="stroke:#181818;stroke-width:1;" x1="352.8019" x2="352.8019" y1="756.1973" y2="776.1973"/><polygon fill="#181818" points="348.8019,766.1973,352.8019,776.1973,356.8019,766.1973,352.8019,770.1973" style="stroke:#181818;stroke-width:1;"/><line style="stroke:#181818;stroke-width:1;" x1="259.4593" x2="259.4593" y1="657.5091" y2="677.5091"/><polygon fill="#181818" points="255.4593,667.5091,259.4593,677.5091,263.4593,667.5091,259.4593,671.5091" style="stroke:#181818;stroke-width:1;"/><line style="stroke:#181818;stroke-width:1;" x1="259.4593" x2="259.4593" y1="782.1973" y2="802.1973"/><polygon fill="#181818" points="255.4593,792.1973,259.4593,802.1973,263.4593,792.1973,259.4593,796.1973" style="stroke:#181818;stroke-width:1;"/><line style="stroke:#181818;stroke-width:1;" x1="259.4593" x2="259.4593" y1="944.3765" y2="971.7044"/><polygon fill="#181818" points="255.4593,961.7044,259.4593,971.7044,263.4593,961.7044,259.4593,965.7044" style="stroke:#181818;stroke-width:1;"/><line style="stroke:#181818;stroke-width:1;" x1="259.4593" x2="259.4593" y1="882.5414" y2="908.0323"/><polygon fill="#181818" points="255.4593,898.0323,259.4593,908.0323,263.4593,898.0323,259.4593,902.0323" style="stroke:#181818;stroke-width:1;"/><line style="stroke:#181818;stroke-width:1;" x1="316.8505" x2="328.8505" y1="870.5414" y2="870.5414"/><polygon fill="#181818" points="324.8505,941.7044,328.8505,951.7044,332.8505,941.7044,328.8505,945.7044" style="stroke:#181818;stroke-width:1;"/><line style="stroke:#181818;stroke-width:1;" x1="328.8505" x2="328.8505" y1="870.5414" y2="1015.7044"/><line style="stroke:#181818;stroke-width:1;" x1="328.8505" x2="259.4593" y1="1015.7044" y2="1015.7044"/><line style="stroke:#181818;stroke-width:1;" x1="259.4593" x2="259.4593" y1="1015.7044" y2="1035.7044"/><polygon fill="#181818" points="255.4593,1025.7044,259.4593,1035.7044,263.4593,1025.7044,259.4593,1029.7044" style="stroke:#181818;stroke-width:1;"/><line style="stroke:#181818;stroke-width:1;" x1="259.4593" x2="259.4593" y1="838.5414" y2="858.5414"/><polygon fill="#181818" points="255.4593,848.5414,259.4593,858.5414,263.4593,848.5414,259.4593,852.5414" style="stroke:#181818;stroke-width:1;"/><line style="stroke:#181818;stroke-width:1;" x1="259.4593" x2="259.4593" y1="1194.2277" y2="1221.5556"/><polygon fill="#181818" points="255.4593,1211.5556,259.4593,1221.5556,263.4593,1211.5556,259.4593,1215.5556" style="stroke:#181818;stroke-width:1;"/><line style="stroke:#181818;stroke-width:1;" x1="259.4593" x2="259.4593" y1="1132.3926" y2="1157.8836"/><polygon fill="#181818" points="255.4593,1147.8836,259.4593,1157.8836,263.4593,1147.8836,259.4593,1151.8836" style="stroke:#181818;stroke-width:1;"/><line style="stroke:#181818;stroke-width:1;" x1="319.32" x2="342.8678" y1="1120.3926" y2="1120.3926"/><polygon fill="#181818" points="338.8678,1191.5556,342.8678,1201.5556,346.8678,1191.5556,342.8678,1195.5556" style="stroke:#181818;stroke-width:1;"/><line style="stroke:#181818;stroke-width:1;" x1="342.8678" x2="342.8678" y1="1120.3926" y2="1265.5556"/><line style="stroke:#181818;stroke-width:1;" x1="342.8678" x2="259.4593" y1="1265.5556" y2="1265.5556"/><line style="stroke:#181818;stroke-width:1;" x1="259.4593" x2="259.4593" y1="1265.5556" y2="1285.5556"/><polygon fill="#181818" points="255.4593,1275.5556,259.4593,1285.5556,263.4593,1275.5556,259.4593,1279.5556" style="stroke:#181818;stroke-width:1;"/><line style="stroke:#181818;stroke-width:1;" x1="259.4593" x2="259.4593" y1="1088.3926" y2="1108.3926"/><polygon fill="#181818" points="255.4593,1098.3926,259.4593,1108.3926,263.4593,1098.3926,259.4593,1102.3926" style="stroke:#181818;stroke-width:1;"/><line style="stroke:#181818;stroke-width:1;" x1="259.4593" x2="259.4593" y1="1321.8997" y2="1341.8997"/><polygon fill="#181818" points="255.4593,1331.8997,259.4593,1341.8997,263.4593,1331.8997,259.4593,1335.8997" style="stroke:#181818;stroke-width:1;"/><line style="stroke:#181818;stroke-width:1;" x1="259.4593" x2="259.4593" y1="1378.2439" y2="1398.2439"/><polygon fill="#181818" points="255.4593,1388.2439,259.4593,1398.2439,263.4593,1388.2439,259.4593,1392.2439" style="stroke:#181818;stroke-width:1;"/><line style="stroke:#181818;stroke-width:1;" x1="259.4593" x2="259.4593" y1="1478.588" y2="1504.0789"/><polygon fill="#181818" points="255.4593,1494.0789,259.4593,1504.0789,263.4593,1494.0789,259.4593,1498.0789" style="stroke:#181818;stroke-width:1;"/><line style="stroke:#181818;stroke-width:1;" x1="334.0819" x2="395.9622" y1="1466.588" y2="1466.588"/><polygon fill="#181818" points="391.9622,1512.251,395.9622,1522.251,399.9622,1512.251,395.9622,1516.251" style="stroke:#181818;stroke-width:1;"/><line style="stroke:#181818;stroke-width:1;" x1="395.9622" x2="395.9622" y1="1466.588" y2="1572.423"/><line style="stroke:#181818;stroke-width:1;" x1="395.9622" x2="271.4593" y1="1572.423" y2="1572.423"/><polygon fill="#181818" points="281.4593,1568.423,271.4593,1572.423,281.4593,1576.423,277.4593,1572.423" style="stroke:#181818;stroke-width:1;"/><line style="stroke:#181818;stroke-width:1;" x1="259.4593" x2="259.4593" y1="1540.423" y2="1560.423"/><polygon fill="#181818" points="255.4593,1550.423,259.4593,1560.423,263.4593,1550.423,259.4593,1554.423" style="stroke:#181818;stroke-width:1;"/><line style="stroke:#181818;stroke-width:1;" x1="259.4593" x2="259.4593" y1="1434.588" y2="1454.588"/><polygon fill="#181818" points="255.4593,1444.588,259.4593,1454.588,263.4593,1444.588,259.4593,1448.588" style="stroke:#181818;stroke-width:1;"/><line style="stroke:#181818;stroke-width:1;" x1="259.4593" x2="259.4593" y1="1584.423" y2="1604.423"/><polygon fill="#181818" points="255.4593,1594.423,259.4593,1604.423,263.4593,1594.423,259.4593,1598.423" style="stroke:#181818;stroke-width:1;"/><line style="stroke:#181818;stroke-width:1;" x1="259.4593" x2="259.4593" y1="1801.4554" y2="1826.9463"/><polygon fill="#181818" points="255.4593,1816.9463,259.4593,1826.9463,263.4593,1816.9463,259.4593,1820.9463" style="stroke:#181818;stroke-width:1;"/><line style="stroke:#181818;stroke-width:1;" x1="339.0264" x2="367.336" y1="1789.4554" y2="1789.4554"/><polygon fill="#181818" points="363.336,1835.1184,367.336,1845.1184,371.336,1835.1184,367.336,1839.1184" style="stroke:#181818;stroke-width:1;"/><line style="stroke:#181818;stroke-width:1;" x1="367.336" x2="367.336" y1="1789.4554" y2="1895.2904"/><line style="stroke:#181818;stroke-width:1;" x1="367.336" x2="271.4593" y1="1895.2904" y2="1895.2904"/><polygon fill="#181818" points="281.4593,1891.2904,271.4593,1895.2904,281.4593,1899.2904,277.4593,1895.2904" style="stroke:#181818;stroke-width:1;"/><line style="stroke:#181818;stroke-width:1;" x1="259.4593" x2="259.4593" y1="1863.2904" y2="1883.2904"/><polygon fill="#181818" points="255.4593,1873.2904,259.4593,1883.2904,263.4593,1873.2904,259.4593,1877.2904" style="stroke:#181818;stroke-width:1;"/><line style="stroke:#181818;stroke-width:1;" x1="259.4593" x2="259.4593" y1="1757.4554" y2="1777.4554"/><polygon fill="#181818" points="255.4593,1767.4554,259.4593,1777.4554,263.4593,1767.4554,259.4593,1771.4554" style="stroke:#181818;stroke-width:1;"/><line style="stroke:#181818;stroke-width:1;" x1="259.4593" x2="259.4593" y1="1684.7671" y2="1704.7671"/><polygon fill="#181818" points="255.4593,1694.7671,259.4593,1704.7671,263.4593,1694.7671,259.4593,1698.7671" style="stroke:#181818;stroke-width:1;"/><line style="stroke:#181818;stroke-width:1;" x1="318.319" x2="391.336" y1="1939.2904" y2="1939.2904"/><polygon fill="#181818" points="387.336,1811.2743,391.336,1801.2743,395.336,1811.2743,391.336,1807.2743" style="stroke:#181818;stroke-width:1;"/><line style="stroke:#181818;stroke-width:1;" x1="391.336" x2="391.336" y1="1672.7671" y2="1939.2904"/><line style="stroke:#181818;stroke-width:1;" x1="391.336" x2="271.4593" y1="1672.7671" y2="1672.7671"/><polygon fill="#181818" points="281.4593,1668.7671,271.4593,1672.7671,281.4593,1676.7671,277.4593,1672.7671" style="stroke:#181818;stroke-width:1;"/><line style="stroke:#181818;stroke-width:1;" x1="259.4593" x2="259.4593" y1="1907.2904" y2="1927.2904"/><polygon fill="#181818" points="255.4593,1917.2904,259.4593,1927.2904,263.4593,1917.2904,259.4593,1921.2904" style="stroke:#181818;stroke-width:1;"/><line style="stroke:#181818;stroke-width:1;" x1="259.4593" x2="259.4593" y1="1640.7671" y2="1660.7671"/><polygon fill="#181818" points="255.4593,1650.7671,259.4593,1660.7671,263.4593,1650.7671,259.4593,1654.7671" style="stroke:#181818;stroke-width:1;"/><line style="stroke:#181818;stroke-width:1;" x1="259.4593" x2="259.4593" y1="1951.2904" y2="1995.4953"/><polygon fill="#181818" points="255.4593,1985.4953,259.4593,1995.4953,263.4593,1985.4953,259.4593,1989.4953" style="stroke:#181818;stroke-width:1;"/><text fill="#000000" font-family="sans-serif" font-size="11" lengthAdjust="spacing" textLength="13.4529" x="263.4593" y="1974.7723">no</text><line style="stroke:#181818;stroke-width:1;" x1="259.4593" x2="259.4593" y1="2031.8394" y2="2051.8394"/><polygon fill="#181818" points="255.4593,2041.8394,259.4593,2051.8394,263.4593,2041.8394,259.4593,2045.8394" style="stroke:#181818;stroke-width:1;"/><!--SRC=[VLHBRzf04BxxLqnle4Au1xKLQf1QYGGKalPIAHgyOpFDUjVQNKFfh-_ihare6lLco_FuNkDthSEwGT1uibq0tr10WqNWe0aUk7ociD6TXoaiLCDcjdOr6lvD3fO7CW4-EyB0ri1twvuhROymMfI13nnEuwBm0LqehbUs1ZQ07ixjywBW2aRVo7G4g6MAEW7zOX_yfp64FHaO6Jik0AxJ2e93AcsThLZJF7wueOeDWQSoMETbsDVD11pLdKOtWHtgqfhJ1AwkhiQNzSuUFQ1HqeW1JDViIBfRePGdfTej7eQLMPfvGTeJZ4xa4wejQQdEaDdKkLQAZEAgA0RGXev0KQXv8HqXFqCKMM707sQKX9w08bywRgEI4oYbixPEe8jwCbxGNzzYspS7s-Dw3u4ReQ-jJ2y6TgtZCk9fh28zBogn9SCDeeZFt-aljh44i4OsIMrhAguxHw1E1XikpnDTfyaBP4MDg3UBowTnf8Acqu5RpQBZE4a0QUqbPKb2a1XzWCrgSNUtlEdzlq- -2wMsssds-zVU9niaDyfX5Q8nFjZsqeb1x_lE252QzdFWW9fLIgOW7XYKjcar1JBa_IJRtuYkR4Hl5nCxfFBS32rwOVWFhBq4_MK5a7EImF_XUqE9zTtJTh5QYhcR7lJPuFws92BQrbAGttSa1CX7uAxSuqxJR6VjStpeWN_XUW_P7qbcAmPVO1-IkpIn0mxiGeSQZiWfmCxQ9lecrUo7q6OcaVL0vDOQbjY0Pd76eqG25Fhzpg9JWi9HAxB6DIz_2aS79havEGazJPcL0n1BOfZIX7YrATFneP4W9hEmnJAR0X39BTJFpeTp70N3KFAQecn_R5Mylw5ubjr6hMsPB8j3CwMC68vx-Qt0QDbxn5g361lXoNGH9C-UVZHs_hQTs_Ngvcdz-920zK4JHL8W_W00]--></g></svg>