<svg xmlns="http://www.w3.org/2000/svg" xmlns:xlink="http://www.w3.org/1999/xlink" contentStyleType="text/css" data-diagram-type="SEQUENCE" height="937px" preserveAspectRatio="none" style="width:1981px;height:937px;background:#FFFFFF;" version="1.1" viewBox="0 0 1981 937" width="1981px" zoomAndPan="magnify"><title>TicketPlus - Asynchronous Transaction Outcome Flow</title><defs/><g><text fill="#000000" font-family="sans-serif" font-size="14" font-weight="bold" lengthAdjust="spacing" textLength="373.5886" x="804.9338" y="29.9659">TicketPlus - Asynchronous Transaction Outcome Flow</text><rect fill="none" height="286.63" style="stroke:#000000;stroke-width:1.5;" width="514.7422" x="1459.7139" y="552.314"/><rect fill="none" height="51.412" style="stroke:#000000;stroke-width:1.5;" width="366.0466" x="1469.7139" y="704.12"/><g><title>Buyer</title><rect fill="#000000" fill-opacity="0.00000" height="745.8082" width="8" x="27.2849" y="110.1358"/><line style="stroke:#181818;stroke-width:0.5;stroke-dasharray:5,5;" x1="31" x2="31" y1="110.1358" y2="855.9441"/></g><g><title>Checkout Service</title><rect fill="#000000" fill-opacity="0.00000" height="745.8082" width="8" x="233.2811" y="110.1358"/><line style="stroke:#181818;stroke-width:0.5;stroke-dasharray:5,5;" x1="237.2253" x2="237.2253" y1="110.1358" y2="855.9441"/></g><g><title>Checkout DB . Outbox</title><rect fill="#000000" fill-opacity="0.00000" height="745.8082" width="8" x="555.7443" y="110.1358"/><line style="stroke:#181818;stroke-width:0.5;stroke-dasharray:5,5;" x1="559.1736" x2="559.1736" y1="110.1358" y2="855.9441"/></g><g><title>Outbox Relay</title><rect fill="#000000" fill-opacity="0.00000" height="745.8082" width="8" x="773.2845" y="110.1358"/><line style="stroke:#181818;stroke-width:0.5;stroke-dasharray:5,5;" x1="776.2967" x2="776.2967" y1="110.1358" y2="855.9441"/></g><g><title>Kafka</title><rect fill="#000000" fill-opacity="0.00000" height="745.8082" width="8" x="1035.7527" y="110.1358"/><line style="stroke:#181818;stroke-width:0.5;stroke-dasharray:5,5;" x1="1039.4198" x2="1039.4198" y1="110.1358" y2="855.9441"/></g><g><title>Ticketing Consumer</title><rect fill="#000000" fill-opacity="0.00000" height="745.8082" width="8" x="1208.0919" y="110.1358"/><line style="stroke:#181818;stroke-width:0.5;stroke-dasharray:5,5;" x1="1211.5161" x2="1211.5161" y1="110.1358" y2="855.9441"/></g><g><title>Ticket DB</title><rect fill="#000000" fill-opacity="0.00000" height="745.8082" width="8" x="1431.963" y="110.1358"/><line style="stroke:#181818;stroke-width:0.5;stroke-dasharray:5,5;" x1="1435.2122" x2="1435.2122" y1="110.1358" y2="855.9441"/></g><g><title>Notification Consumer</title><rect fill="#000000" fill-opacity="0.00000" height="745.8082" width="8" x="1556.8646" y="110.1358"/><line style="stroke:#181818;stroke-width:0.5;stroke-dasharray:5,5;" x1="1560.7139" x2="1560.7139" y1="110.1358" y2="855.9441"/></g><g><title>Email.SMS Provider</title><rect fill="#000000" fill-opacity="0.00000" height="745.8082" width="8" x="1750.4587" y="110.1358"/><line style="stroke:#181818;stroke-width:0.5;stroke-dasharray:5,5;" x1="1754.157" x2="1754.157" y1="110.1358" y2="855.9441"/></g><g><title>Notification DLQ</title><rect fill="#000000" fill-opacity="0.00000" height="745.8082" width="8" x="1896.1083" y="110.1358"/><line style="stroke:#181818;stroke-width:0.5;stroke-dasharray:5,5;" x1="1899.7605" x2="1899.7605" y1="110.1358" y2="855.9441"/></g><g class="participant participant-head" data-participant="Buyer"><rect fill="#E2E2F0" height="33.0679" rx="2.5" ry="2.5" style="stroke:#181818;stroke-width:0.5;" width="52.5698" x="5" y="76.0679"/><text fill="#000000" font-family="sans-serif" font-size="14" lengthAdjust="spacing" textLength="38.5698" x="12" y="98.0339">Buyer</text></g><g class="participant participant-tail" data-participant="Buyer"><rect fill="#E2E2F0" height="33.0679" rx="2.5" ry="2.5" style="stroke:#181818;stroke-width:0.5;" width="52.5698" x="5" y="854.9441"/><text fill="#000000" font-family="sans-serif" font-size="14" lengthAdjust="spacing" textLength="38.5698" x="12" y="876.91">Buyer</text></g><g class="participant participant-head" data-participant="Checkout"><rect fill="#E2E2F0" height="33.0679" rx="2.5" ry="2.5" style="stroke:#181818;stroke-width:0.5;" width="126.1115" x="174.2253" y="76.0679"/><text fill="#000000" font-family="sans-serif" font-size="14" lengthAdjust="spacing" textLength="112.1115" x="181.2253" y="98.0339">Checkout Service</text></g><g class="participant participant-tail" data-participant="Checkout"><rect fill="#E2E2F0" height="33.0679" rx="2.5" ry="2.5" style="stroke:#181818;stroke-width:0.5;" width="126.1115" x="174.2253" y="854.9441"/><text fill="#000000" font-family="sans-serif" font-size="14" lengthAdjust="spacing" textLength="112.1115" x="181.2253" y="876.91">Checkout Service</text></g><g class="participant participant-head" data-participant="DB"><text fill="#000000" font-family="sans-serif" font-size="14" lengthAdjust="spacing" textLength="149.1414" x="482.1736" y="106.0339">Checkout DB + Outbox</text><path d="M541.7443,55.0679 C541.7443,45.0679 559.7443,45.0679 559.7443,45.0679 C559.7443,45.0679 577.7443,45.0679 577.7443,55.0679 L577.7443,81.0679 C577.7443,91.0679 559.7443,91.0679 559.7443,91.0679 C559.7443,91.0679 541.7443,91.0679 541.7443,81.0679 L541.7443,55.0679" fill="#E2E2F0" style="stroke:#181818;stroke-width:0.5;"/><path d="M541.7443,55.0679 C541.7443,65.0679 559.7443,65.0679 559.7443,65.0679 C559.7443,65.0679 577.7443,65.0679 577.7443,55.0679" fill="none" style="stroke:#181818;stroke-width:0.5;"/></g><g class="participant participant-tail" data-participant="DB"><text fill="#000000" font-family="sans-serif" font-size="14" lengthAdjust="spacing" textLength="149.1414" x="482.1736" y="869.91">Checkout DB + Outbox</text><path d="M541.7443,884.012 C541.7443,874.012 559.7443,874.012 559.7443,874.012 C559.7443,874.012 577.7443,874.012 577.7443,884.012 L577.7443,910.012 C577.7443,920.012 559.7443,920.012 559.7443,920.012 C559.7443,920.012 541.7443,920.012 541.7443,910.012 L541.7443,884.012" fill="#E2E2F0" style="stroke:#181818;stroke-width:0.5;"/><path d="M541.7443,884.012 C541.7443,894.012 559.7443,894.012 559.7443,894.012 C559.7443,894.012 577.7443,894.012 577.7443,884.012" fill="none" style="stroke:#181818;stroke-width:0.5;"/></g><g class="participant participant-head" data-participant="Relay"><rect fill="#E2E2F0" height="33.0679" rx="2.5" ry="2.5" style="stroke:#181818;stroke-width:0.5;" width="101.9757" x="726.2967" y="76.0679"/><text fill="#000000" font-family="sans-serif" font-size="14" lengthAdjust="spacing" textLength="87.9757" x="733.2967" y="98.0339">Outbox Relay</text></g><g class="participant participant-tail" data-participant="Relay"><rect fill="#E2E2F0" height="33.0679" rx="2.5" ry="2.5" style="stroke:#181818;stroke-width:0.5;" width="101.9757" x="726.2967" y="854.9441"/><text fill="#000000" font-family="sans-serif" font-size="14" lengthAdjust="spacing" textLength="87.9757" x="733.2967" y="876.91">Outbox Relay</text></g><g class="participant participant-head" data-participant="Kafka"><path d="M1016.4198,81.0679 L1063.0857,81.0679 C1068.0857,81.0679 1068.0857,95.6019 1068.0857,95.6019 C1068.0857,95.6019 1068.0857,110.1358 1063.0857,110.1358 L1016.4198,110.1358 C1011.4198,110.1358 1011.4198,95.6019 1011.4198,95.6019 C1011.4198,95.6019 1011.4198,81.0679 1016.4198,81.0679" fill="#E2E2F0" style="stroke:#181818;stroke-width:0.5;"/><path d="M1063.0857,81.0679 C1058.0857,81.0679 1058.0857,95.6019 1058.0857,95.6019 C1058.0857,110.1358 1063.0857,110.1358 1063.0857,110.1358" fill="none" style="stroke:#181818;stroke-width:0.5;"/><text fill="#000000" font-family="sans-serif" font-size="14" lengthAdjust="spacing" textLength="36.6659" x="1016.4198" y="101.0339">Kafka</text></g><g class="participant participant-tail" data-participant="Kafka"><path d="M1016.4198,854.9441 L1063.0857,854.9441 C1068.0857,854.9441 1068.0857,869.478 1068.0857,869.478 C1068.0857,869.478 1068.0857,884.012 1063.0857,884.012 L1016.4198,884.012 C1011.4198,884.012 1011.4198,869.478 1011.4198,869.478 C1011.4198,869.478 1011.4198,854.9441 1016.4198,854.9441" fill="#E2E2F0" style="stroke:#181818;stroke-width:0.5;"/><path d="M1063.0857,854.9441 C1058.0857,854.9441 1058.0857,869.478 1058.0857,869.478 C1058.0857,884.012 1063.0857,884.012 1063.0857,884.012" fill="none" style="stroke:#181818;stroke-width:0.5;"/><text fill="#000000" font-family="sans-serif" font-size="14" lengthAdjust="spacing" textLength="36.6659" x="1016.4198" y="874.91">Kafka</text></g><g class="participant participant-head" data-participant="Ticketing"><rect fill="#E2E2F0" height="33.0679" rx="2.5" ry="2.5" style="stroke:#181818;stroke-width:0.5;" width="145.1515" x="1139.5161" y="76.0679"/><text fill="#000000" font-family="sans-serif" font-size="14" lengthAdjust="spacing" textLength="131.1515" x="1146.5161" y="98.0339">Ticketing Consumer</text></g><g class="participant participant-tail" data-participant="Ticketing"><rect fill="#E2E2F0" height="33.0679" rx="2.5" ry="2.5" style="stroke:#181818;stroke-width:0.5;" width="145.1515" x="1139.5161" y="854.9441"/><text fill="#000000" font-family="sans-serif" font-size="14" lengthAdjust="spacing" textLength="131.1515" x="1146.5161" y="876.91">Ticketing Consumer</text></g><g class="participant participant-head" data-participant="TicketDB"><text fill="#000000" font-family="sans-serif" font-size="14" lengthAdjust="spacing" textLength="61.5017" x="1402.2122" y="106.0339">Ticket DB</text><path d="M1417.963,55.0679 C1417.963,45.0679 1435.963,45.0679 1435.963,45.0679 C1435.963,45.0679 1453.963,45.0679 1453.963,55.0679 L1453.963,81.0679 C1453.963,91.0679 1435.963,91.0679 1435.963,91.0679 C1435.963,91.0679 1417.963,91.0679 1417.963,81.0679 L1417.963,55.0679" fill="#E2E2F0" style="stroke:#181818;stroke-width:0.5;"/><path d="M1417.963,55.0679 C1417.963,65.0679 1435.963,65.0679 1435.963,65.0679 C1435.963,65.0679 1453.963,65.0679 1453.963,55.0679" fill="none" style="stroke:#181818;stroke-width:0.5;"/></g><g class="participant participant-tail" data-participant="TicketDB"><text fill="#000000" font-family="sans-serif" font-size="14" lengthAdjust="spacing" textLength="61.5017" x="1402.2122" y="869.91">Ticket DB</text><path d="M1417.963,884.012 C1417.963,874.012 1435.963,874.012 1435.963,874.012 C1435.963,874.012 1453.963,874.012 1453.963,884.012 L1453.963,910.012 C1453.963,920.012 1435.963,920.012 1435.963,920.012 C1435.963,920.012 1417.963,920.012 1417.963,910.012 L1417.963,884.012" fill="#E2E2F0" style="stroke:#181818;stroke-width:0.5;"/><path d="M1417.963,884.012 C1417.963,894.012 1435.963,894.012 1435.963,894.012 C1435.963,894.012 1453.963,894.012 1453.963,884.012" fill="none" style="stroke:#181818;stroke-width:0.5;"/></g><g class="participant participant-head" data-participant="Notification"><rect fill="#E2E2F0" height="33.0679" rx="2.5" ry="2.5" style="stroke:#181818;stroke-width:0.5;" width="162.3014" x="1479.7139" y="76.0679"/><text fill="#000000" font-family="sans-serif" font-size="14" lengthAdjust="spacing" textLength="148.3014" x="1486.7139" y="98.0339">Notification Consumer</text></g><g class="participant participant-tail" data-participant="Notification"><rect fill="#E2E2F0" height="33.0679" rx="2.5" ry="2.5" style="stroke:#181818;stroke-width:0.5;" width="162.3014" x="1479.7139" y="854.9441"/><text fill="#000000" font-family="sans-serif" font-size="14" lengthAdjust="spacing" textLength="148.3014" x="1486.7139" y="876.91">Notification Consumer</text></g><g class="participant participant-head" data-participant="Provider"><rect fill="#E2E2F0" height="33.0679" rx="2.5" ry="2.5" style="stroke:#181818;stroke-width:0.5;" width="142.6035" x="1683.157" y="76.0679"/><text fill="#000000" font-family="sans-serif" font-size="14" lengthAdjust="spacing" textLength="128.6035" x="1690.157" y="98.0339">Email/SMS Provider</text></g><g class="participant participant-tail" data-participant="Provider"><rect fill="#E2E2F0" height="33.0679" rx="2.5" ry="2.5" style="stroke:#181818;stroke-width:0.5;" width="142.6035" x="1683.157" y="854.9441"/><text fill="#000000" font-family="sans-serif" font-size="14" lengthAdjust="spacing" textLength="128.6035" x="1690.157" y="876.91">Email/SMS Provider</text></g><g class="participant participant-head" data-participant="DLQ"><path d="M1840.7605,81.0679 L1959.4561,81.0679 C1964.4561,81.0679 1964.4561,95.6019 1964.4561,95.6019 C1964.4561,95.6019 1964.4561,110.1358 1959.4561,110.1358 L1840.7605,110.1358 C1835.7605,110.1358 1835.7605,95.6019 1835.7605,95.6019 C1835.7605,95.6019 1835.7605,81.0679 1840.7605,81.0679" fill="#E2E2F0" style="stroke:#181818;stroke-width:0.5;"/><path d="M1959.4561,81.0679 C1954.4561,81.0679 1954.4561,95.6019 1954.4561,95.6019 C1954.4561,110.1358 1959.4561,110.1358 1959.4561,110.1358" fill="none" style="stroke:#181818;stroke-width:0.5;"/><text fill="#000000" font-family="sans-serif" font-size="14" lengthAdjust="spacing" textLength="108.6956" x="1840.7605" y="101.0339">Notification DLQ</text></g><g class="participant participant-tail" data-participant="DLQ"><path d="M1840.7605,854.9441 L1959.4561,854.9441 C1964.4561,854.9441 1964.4561,869.478 1964.4561,869.478 C1964.4561,869.478 1964.4561,884.012 1959.4561,884.012 L1840.7605,884.012 C1835.7605,884.012 1835.7605,869.478 1835.7605,869.478 C1835.7605,869.478 1835.7605,854.9441 1840.7605,854.9441" fill="#E2E2F0" style="stroke:#181818;stroke-width:0.5;"/><path d="M1959.4561,854.9441 C1954.4561,854.9441 1954.4561,869.478 1954.4561,869.478 C1954.4561,884.012 1959.4561,884.012 1959.4561,884.012" fill="none" style="stroke:#181818;stroke-width:0.5;"/><text fill="#000000" font-family="sans-serif" font-size="14" lengthAdjust="spacing" textLength="108.6956" x="1840.7605" y="874.91">Notification DLQ</text></g><g class="message" data-participant-1="Buyer" data-participant-2="Checkout"><polygon fill="#181818" points="225.2811,139.8419,235.2811,143.8419,225.2811,147.8419,229.2811,143.8419" style="stroke:#181818;stroke-width:1;"/><line style="stroke:#181818;stroke-width:1;" x1="31.2849" x2="231.2811" y1="143.8419" y2="143.8419"/><text fill="#000000" font-family="sans-serif" font-size="13" font-weight="bold" lengthAdjust="spacing" textLength="7.436" x="38.2849" y="138.0328">1</text><text fill="#000000" font-family="sans-serif" font-size="13" lengthAdjust="spacing" textLength="115.7261" x="49.7209" y="138.0328">complete checkout</text></g><g class="message" data-participant-1="Checkout" data-participant-2="Checkout"><line style="stroke:#181818;stroke-width:1;" x1="237.2811" x2="279.2811" y1="175.5479" y2="175.5479"/><line style="stroke:#181818;stroke-width:1;" x1="279.2811" x2="279.2811" y1="175.5479" y2="188.5479"/><line style="stroke:#181818;stroke-width:1;" x1="238.2811" x2="279.2811" y1="188.5479" y2="188.5479"/><polygon fill="#181818" points="248.2811,184.5479,238.2811,188.5479,248.2811,192.5479,244.2811,188.5479" style="stroke:#181818;stroke-width:1;"/><text fill="#000000" font-family="sans-serif" font-size="13" font-weight="bold" lengthAdjust="spacing" textLength="7.436" x="244.2811" y="169.7389">2</text><text fill="#000000" font-family="sans-serif" font-size="13" lengthAdjust="spacing" textLength="115.5961" x="255.7171" y="169.7389">authorize payment</text></g><g class="message" data-participant-1="Checkout" data-participant-2="DB"><polygon fill="#181818" points="547.7443,216.2539,557.7443,220.2539,547.7443,224.2539,551.7443,220.2539" style="stroke:#181818;stroke-width:1;"/><line style="stroke:#181818;stroke-width:1;" x1="237.2811" x2="553.7443" y1="220.2539" y2="220.2539"/><text fill="#000000" font-family="sans-serif" font-size="13" font-weight="bold" lengthAdjust="spacing" textLength="7.436" x="244.2811" y="214.4449">3</text><text fill="#000000" font-family="sans-serif" font-size="13" lengthAdjust="spacing" textLength="287.0273" x="255.7171" y="214.4449">atomic write(PAID, PaymentSucceeded outbox)</text></g><g class="message" data-participant-1="DB" data-participant-2="Checkout"><polygon fill="#181818" points="248.2811,247.9599,238.2811,251.9599,248.2811,255.9599,244.2811,251.9599" style="stroke:#181818;stroke-width:1;"/><line style="stroke:#181818;stroke-width:1;stroke-dasharray:2,2;" x1="242.2811" x2="558.7443" y1="251.9599" y2="251.9599"/><text fill="#000000" font-family="sans-serif" font-size="13" font-weight="bold" lengthAdjust="spacing" textLength="7.436" x="254.2811" y="246.1509">4</text><text fill="#000000" font-family="sans-serif" font-size="13" lengthAdjust="spacing" textLength="66.4821" x="265.7171" y="246.1509">committed</text></g><g class="message" data-participant-1="Checkout" data-participant-2="Buyer"><polygon fill="#181818" points="42.2849,279.6659,32.2849,283.6659,42.2849,287.6659,38.2849,283.6659" style="stroke:#181818;stroke-width:1;"/><line style="stroke:#181818;stroke-width:1;stroke-dasharray:2,2;" x1="36.2849" x2="236.2811" y1="283.6659" y2="283.6659"/><text fill="#000000" font-family="sans-serif" font-size="13" font-weight="bold" lengthAdjust="spacing" textLength="7.436" x="48.2849" y="277.8569">5</text><text fill="#000000" font-family="sans-serif" font-size="13" lengthAdjust="spacing" textLength="170.5601" x="59.7209" y="277.8569">payment accepted / orderId</text></g><g class="message" data-participant-1="Relay" data-participant-2="DB"><polygon fill="#181818" points="570.7443,311.3719,560.7443,315.3719,570.7443,319.3719,566.7443,315.3719" style="stroke:#181818;stroke-width:1;"/><line style="stroke:#181818;stroke-width:1;" x1="564.7443" x2="776.2845" y1="315.3719" y2="315.3719"/><text fill="#000000" font-family="sans-serif" font-size="13" font-weight="bold" lengthAdjust="spacing" textLength="7.436" x="576.7443" y="309.5629">6</text><text fill="#000000" font-family="sans-serif" font-size="13" lengthAdjust="spacing" textLength="182.1042" x="588.1804" y="309.5629">poll unpublished outbox rows</text></g><g class="message" data-participant-1="Relay" data-participant-2="Kafka"><polygon fill="#181818" points="1027.7527,343.0779,1037.7527,347.0779,1027.7527,351.0779,1031.7527,347.0779" style="stroke:#181818;stroke-width:1;"/><line style="stroke:#181818;stroke-width:1;" x1="777.2845" x2="1033.7527" y1="347.0779" y2="347.0779"/><text fill="#000000" font-family="sans-serif" font-size="13" font-weight="bold" lengthAdjust="spacing" textLength="7.436" x="784.2845" y="341.2689">7</text><text fill="#000000" font-family="sans-serif" font-size="13" lengthAdjust="spacing" textLength="227.0322" x="795.7205" y="341.2689">PaymentSucceeded(eventId, orderId)</text></g><g class="message" data-participant-1="Relay" data-participant-2="DB"><polygon fill="#181818" points="570.7443,374.784,560.7443,378.784,570.7443,382.784,566.7443,378.784" style="stroke:#181818;stroke-width:1;"/><line style="stroke:#181818;stroke-width:1;" x1="564.7443" x2="776.2845" y1="378.784" y2="378.784"/><text fill="#000000" font-family="sans-serif" font-size="13" font-weight="bold" lengthAdjust="spacing" textLength="7.436" x="576.7443" y="372.975">8</text><text fill="#000000" font-family="sans-serif" font-size="13" lengthAdjust="spacing" textLength="95.4591" x="588.1804" y="372.975">mark published</text></g><g class="message" data-participant-1="Kafka" data-participant-2="Ticketing"><polygon fill="#181818" points="1200.0919,406.49,1210.0919,410.49,1200.0919,414.49,1204.0919,410.49" style="stroke:#181818;stroke-width:1;"/><line style="stroke:#181818;stroke-width:1;" x1="1039.7527" x2="1206.0919" y1="410.49" y2="410.49"/><text fill="#000000" font-family="sans-serif" font-size="13" font-weight="bold" lengthAdjust="spacing" textLength="7.436" x="1046.7527" y="404.681">9</text><text fill="#000000" font-family="sans-serif" font-size="13" lengthAdjust="spacing" textLength="119.6391" x="1058.1887" y="404.681">PaymentSucceeded</text></g><g class="message" data-participant-1="Ticketing" data-participant-2="TicketDB"><polygon fill="#181818" points="1423.963,438.196,1433.963,442.196,1423.963,446.196,1427.963,442.196" style="stroke:#181818;stroke-width:1;"/><line style="stroke:#181818;stroke-width:1;" x1="1212.0919" x2="1429.963" y1="442.196" y2="442.196"/><text fill="#000000" font-family="sans-serif" font-size="13" font-weight="bold" lengthAdjust="spacing" textLength="14.872" x="1219.0919" y="436.387">10</text><text fill="#000000" font-family="sans-serif" font-size="13" lengthAdjust="spacing" textLength="180.9992" x="1237.9639" y="436.387">insert ticket if eventId unseen</text></g><g class="message" data-participant-1="Ticketing" data-participant-2="Kafka"><polygon fill="#181818" points="1050.7527,469.902,1040.7527,473.902,1050.7527,477.902,1046.7527,473.902" style="stroke:#181818;stroke-width:1;"/><line style="stroke:#181818;stroke-width:1;" x1="1044.7527" x2="1211.0919" y1="473.902" y2="473.902"/><text fill="#000000" font-family="sans-serif" font-size="13" font-weight="bold" lengthAdjust="spacing" textLength="14.872" x="1056.7527" y="468.093">11</text><text fill="#000000" font-family="sans-serif" font-size="13" lengthAdjust="spacing" textLength="129.4671" x="1075.6247" y="468.093">TicketIssued(ticketId)</text></g><g class="message" data-participant-1="Kafka" data-participant-2="Notification"><polygon fill="#181818" points="1548.8646,501.608,1558.8646,505.608,1548.8646,509.608,1552.8646,505.608" style="stroke:#181818;stroke-width:1;"/><line style="stroke:#181818;stroke-width:1;" x1="1039.7527" x2="1554.8646" y1="505.608" y2="505.608"/><text fill="#000000" font-family="sans-serif" font-size="13" font-weight="bold" lengthAdjust="spacing" textLength="14.872" x="1046.7527" y="499.799">12</text><text fill="#000000" font-family="sans-serif" font-size="13" lengthAdjust="spacing" textLength="207.2462" x="1065.6247" y="499.799">PaymentSucceeded / TicketIssued</text></g><g class="message" data-participant-1="Notification" data-participant-2="Provider"><polygon fill="#181818" points="1742.4587,533.314,1752.4587,537.314,1742.4587,541.314,1746.4587,537.314" style="stroke:#181818;stroke-width:1;"/><line style="stroke:#181818;stroke-width:1;" x1="1560.8646" x2="1748.4587" y1="537.314" y2="537.314"/><text fill="#000000" font-family="sans-serif" font-size="13" font-weight="bold" lengthAdjust="spacing" textLength="14.872" x="1567.8646" y="531.505">13</text><text fill="#000000" font-family="sans-serif" font-size="13" lengthAdjust="spacing" textLength="111.6961" x="1586.7366" y="531.505">send confirmation</text></g><path d="M1459.7139,552.314 L1522.1729,552.314 L1522.1729,562.0201 L1512.1729,572.0201 L1459.7139,572.0201 L1459.7139,552.314" fill="#EEEEEE" style="stroke:#000000;stroke-width:1.5;"/><rect fill="none" height="286.63" style="stroke:#000000;stroke-width:1.5;" width="514.7422" x="1459.7139" y="552.314"/><text fill="#000000" font-family="sans-serif" font-size="13" font-weight="bold" lengthAdjust="spacing" textLength="17.459" x="1474.7139" y="567.2111">alt</text><text fill="#000000" font-family="sans-serif" font-size="11" font-weight="bold" lengthAdjust="spacing" textLength="106.4132" x="1537.1729" y="566.073">[provider succeeds]</text><g class="message" data-participant-1="Provider" data-participant-2="Notification"><polygon fill="#181818" points="1571.8646,591.7261,1561.8646,595.7261,1571.8646,599.7261,1567.8646,595.7261" style="stroke:#181818;stroke-width:1;"/><line style="stroke:#181818;stroke-width:1;stroke-dasharray:2,2;" x1="1565.8646" x2="1753.4587" y1="595.7261" y2="595.7261"/><text fill="#000000" font-family="sans-serif" font-size="13" font-weight="bold" lengthAdjust="spacing" textLength="14.872" x="1577.8646" y="589.9171">14</text><text fill="#000000" font-family="sans-serif" font-size="13" lengthAdjust="spacing" textLength="55.12" x="1596.7366" y="589.9171">accepted</text></g><g class="message" data-participant-1="Notification" data-participant-2="Notification"><line style="stroke:#181818;stroke-width:1;" x1="1560.8646" x2="1602.8646" y1="627.4321" y2="627.4321"/><line style="stroke:#181818;stroke-width:1;" x1="1602.8646" x2="1602.8646" y1="627.4321" y2="640.4321"/><line style="stroke:#181818;stroke-width:1;" x1="1561.8646" x2="1602.8646" y1="640.4321" y2="640.4321"/><polygon fill="#181818" points="1571.8646,636.4321,1561.8646,640.4321,1571.8646,644.4321,1567.8646,640.4321" style="stroke:#181818;stroke-width:1;"/><text fill="#000000" font-family="sans-serif" font-size="13" font-weight="bold" lengthAdjust="spacing" textLength="14.872" x="1567.8646" y="621.6231">15</text><text fill="#000000" font-family="sans-serif" font-size="13" lengthAdjust="spacing" textLength="149.9941" x="1586.7366" y="621.6231">record delivered eventId</text></g><line style="stroke:#000000;stroke-width:1;stroke-dasharray:2,2;" x1="1459.7139" x2="1974.4561" y1="649.4321" y2="649.4321"/><text fill="#000000" font-family="sans-serif" font-size="11" font-weight="bold" lengthAdjust="spacing" textLength="147.1349" x="1464.7139" y="661.191">[transient provider failure]</text><g class="message" data-participant-1="Provider" data-participant-2="Notification"><polygon fill="#181818" points="1571.8646,685.12,1561.8646,689.12,1571.8646,693.12,1567.8646,689.12" style="stroke:#181818;stroke-width:1;"/><line style="stroke:#181818;stroke-width:1;stroke-dasharray:2,2;" x1="1565.8646" x2="1753.4587" y1="689.12" y2="689.12"/><text fill="#000000" font-family="sans-serif" font-size="13" font-weight="bold" lengthAdjust="spacing" textLength="14.872" x="1577.8646" y="683.311">16</text><text fill="#000000" font-family="sans-serif" font-size="13" lengthAdjust="spacing" textLength="80.9121" x="1596.7366" y="683.311">timeout / 5xx</text></g><path d="M1469.7139,704.12 L1543.0019,704.12 L1543.0019,713.826 L1533.0019,723.826 L1469.7139,723.826 L1469.7139,704.12" fill="#EEEEEE" style="stroke:#000000;stroke-width:1.5;"/><rect fill="none" height="51.412" style="stroke:#000000;stroke-width:1.5;" width="366.0466" x="1469.7139" y="704.12"/><text fill="#000000" font-family="sans-serif" font-size="13" font-weight="bold" lengthAdjust="spacing" textLength="28.288" x="1484.7139" y="719.017">loop</text><text fill="#000000" font-family="sans-serif" font-size="11" font-weight="bold" lengthAdjust="spacing" textLength="125.9821" x="1558.0019" y="717.8789">[maximum 5 attempts]</text><g class="message" data-participant-1="Notification" data-participant-2="Provider"><polygon fill="#181818" points="1742.4587,743.532,1752.4587,747.532,1742.4587,751.532,1746.4587,747.532" style="stroke:#181818;stroke-width:1;"/><line style="stroke:#181818;stroke-width:1;" x1="1560.8646" x2="1748.4587" y1="747.532" y2="747.532"/><text fill="#000000" font-family="sans-serif" font-size="13" font-weight="bold" lengthAdjust="spacing" textLength="14.872" x="1567.8646" y="741.723">17</text><text fill="#000000" font-family="sans-serif" font-size="13" lengthAdjust="spacing" textLength="150.7221" x="1586.7366" y="741.723">retry with backoff + jitter</text></g><g class="message" data-participant-1="Notification" data-participant-2="DLQ"><polygon fill="#181818" points="1888.1083,782.2381,1898.1083,786.2381,1888.1083,790.2381,1892.1083,786.2381" style="stroke:#181818;stroke-width:1;"/><line style="stroke:#181818;stroke-width:1;" x1="1560.8646" x2="1894.1083" y1="786.2381" y2="786.2381"/><text fill="#000000" font-family="sans-serif" font-size="13" font-weight="bold" lengthAdjust="spacing" textLength="14.872" x="1567.8646" y="780.429">18</text><text fill="#000000" font-family="sans-serif" font-size="13" lengthAdjust="spacing" textLength="199.5242" x="1586.7366" y="780.429">original event + failure metadata</text></g><g class="message" data-participant-1="Notification" data-participant-2="Notification"><line style="stroke:#181818;stroke-width:1;" x1="1560.8646" x2="1602.8646" y1="817.9441" y2="817.9441"/><line style="stroke:#181818;stroke-width:1;" x1="1602.8646" x2="1602.8646" y1="817.9441" y2="830.9441"/><line style="stroke:#181818;stroke-width:1;" x1="1561.8646" x2="1602.8646" y1="830.9441" y2="830.9441"/><polygon fill="#181818" points="1571.8646,826.9441,1561.8646,830.9441,1571.8646,834.9441,1567.8646,830.9441" style="stroke:#181818;stroke-width:1;"/><text fill="#000000" font-family="sans-serif" font-size="13" font-weight="bold" lengthAdjust="spacing" textLength="14.872" x="1567.8646" y="812.1351">19</text><text fill="#000000" font-family="sans-serif" font-size="13" lengthAdjust="spacing" textLength="110.3051" x="1586.7366" y="812.1351">emit delivery alert</text></g><!--SRC=[XLHDRzim3BthLt0zjLY3d7hfOK3JR42mRakN_W55fXCj-l0aAedtwqTRiMCd1NgpgSV7nqTAdweWDrQ2aRLF1D4YIIS5QJ88Rrhja9OcHPZ0KwoTsWRlFF- -1UcYLAIzWr-9bBS8tum_29d8ksJN68IeP22jT2KTmIpL71f6Rfwtg7PDqHM6lLPu0p925nI59BcM4GUu-Gm-DzNM_jXYvxCnOJw2tyZDj83sI_nDc9ZckontiWstN-FKtAbs6tZsBYQBeKNsuO6S7EFY0yIbaf-UTAcLRFqPCGvFnZbVhTHcklgnWcNmUrsS4hgVheqHzVpbDJlnyYf4Qp5CllGUmYFmO2g3XA0wN_l3CP3djlL1_qEeP6tHZO7iF4F8MwtW43JXxV9fCR-7PSQkabA81HRWsn7S2KwON2cncWYB0J4ZikZ7hYf8PgeO1LFmWTjU54AqO-nbLDuOIAvAQwFZjgy9mH_Y6ThEcD6N2cznpx-BuhwZlxkWjpBie2SN8XFnwNb5hbd5-R17jcpQHGm4b7T6bt0gpmr4H3VEwpJdu2B6n7fpQgFpB6Mq0zTgsBiXXHZ1ERrRAKwDw0eUZIjri7adfI6eEa3Cb570EMboBQ0R6iCkQrqW0ohs7GeqUe-1fPxy46ZuRb7pgkXc3Ne59L-A5F030QGjDXirXOVZaR76-uedUTGsMNZWpIMq5JLjN2iSk16GGWq7JLjOIzxHikG7vq-pjO5JsQft6kIhnvbyTJRQIPFxuQoJRcZUq-Rj-DWQvElH6LE3DBmtWal-1m00]--></g></svg>