<svg xmlns="http://www.w3.org/2000/svg" xmlns:xlink="http://www.w3.org/1999/xlink" contentStyleType="text/css" data-diagram-type="DESCRIPTION" height="411px" preserveAspectRatio="none" style="width:1548px;height:411px;background:#FFFFFF;" version="1.1" viewBox="0 0 1548 411" width="1548px" zoomAndPan="magnify"><title>TicketPlus - DDD Bounded Context Map</title><defs/><g><g class="title" data-source-line="2"><text fill="#000000" font-family="sans-serif" font-size="14" font-weight="bold" lengthAdjust="spacing" textLength="273.895" x="633.5525" y="24.9659">TicketPlus - DDD Bounded Context Map</text></g><!--entity Buyer--><g class="entity" data-entity="Buyer" data-source-line="6" data-uid="ent0002" id="entity_Buyer"><ellipse cx="38.7849" cy="69.3921" fill="#F1F1F1" rx="8" ry="8" style="stroke:#181818;stroke-width:0.5;"/><path d="M38.7849,77.3921 L38.7849,104.3921 M25.7849,85.3921 L51.7849,85.3921 M38.7849,104.3921 L25.7849,119.3921 M38.7849,104.3921 L51.7849,119.3921" fill="none" style="stroke:#181818;stroke-width:0.5;"/><text fill="#000000" font-family="sans-serif" font-size="14" lengthAdjust="spacing" textLength="38.5698" x="19.5" y="135.858">Buyer</text></g><!--entity Organizer--><g class="entity" data-entity="Organizer" data-source-line="7" data-uid="ent0003" id="entity_Organizer"><ellipse cx="38.8509" cy="166.3921" fill="#F1F1F1" rx="8" ry="8" style="stroke:#181818;stroke-width:0.5;"/><path d="M38.8509,174.3921 L38.8509,201.3921 M25.8509,182.3921 L51.8509,182.3921 M38.8509,201.3921 L25.8509,216.3921 M38.8509,201.3921 L51.8509,216.3921" fill="none" style="stroke:#181818;stroke-width:0.5;"/><text fill="#000000" font-family="sans-serif" font-size="14" lengthAdjust="spacing" textLength="65.7018" x="6" y="232.858">Organizer</text></g><!--entity Gateway--><g class="entity" data-entity="Gateway" data-source-line="9" data-uid="ent0004" id="entity_Gateway"><rect fill="#F1F1F1" height="39.0679" rx="2.5" ry="2.5" style="stroke:#181818;stroke-width:0.5;" width="102.7957" x="109" y="129.8921"/><text fill="#000000" font-family="sans-serif" font-size="14" lengthAdjust="spacing" textLength="82.7957" x="119" y="154.858">API Gateway</text></g><!--entity Identity--><g class="entity" data-entity="Identity" data-source-line="10" data-uid="ent0005" id="entity_Identity"><rect fill="#F1F1F1" height="58.1358" rx="2.5" ry="2.5" style="stroke:#181818;stroke-width:0.5;" width="131.9856" x="358" y="-12.6079"/><text fill="#000000" font-family="sans-serif" font-size="14" lengthAdjust="spacing" textLength="111.9856" x="368" y="12.358">Identity &amp; Access</text><text fill="#000000" font-family="sans-serif" font-size="14" lengthAdjust="spacing" textLength="59.9758" x="368" y="31.4259">[Identity]</text></g><!--entity Catalog--><g class="entity" data-entity="Catalog" data-source-line="11" data-uid="ent0006" id="entity_Catalog"><rect fill="#F1F1F1" height="58.1358" rx="2.5" ry="2.5" style="stroke:#181818;stroke-width:0.5;" width="206.7873" x="682.5" y="48.3921"/><text fill="#000000" font-family="sans-serif" font-size="14" lengthAdjust="spacing" textLength="131.4875" x="692.5" y="73.358">Catalog &amp; Discovery</text><text fill="#000000" font-family="sans-serif" font-size="14" lengthAdjust="spacing" textLength="186.7873" x="692.5" y="92.4259">[Upstream metadata owner]</text></g><!--entity Waiting--><g class="entity" data-entity="Waiting" data-source-line="12" data-uid="ent0007" id="entity_Waiting"><rect fill="#F1F1F1" height="58.1358" rx="2.5" ry="2.5" style="stroke:#181818;stroke-width:0.5;" width="148.0155" x="350" y="120.3921"/><text fill="#000000" font-family="sans-serif" font-size="14" lengthAdjust="spacing" textLength="92.7916" x="360" y="145.358">Waiting Room</text><text fill="#000000" font-family="sans-serif" font-size="14" lengthAdjust="spacing" textLength="128.0155" x="360" y="164.4259">[Admission control]</text></g><!--entity Reservation--><g class="entity" data-entity="Reservation" data-source-line="13" data-uid="ent0008" id="entity_Reservation"><rect fill="#F1F1F1" height="58.1358" rx="2.5" ry="2.5" style="stroke:#181818;stroke-width:0.5;" width="178.7734" x="696.5" y="188.3921"/><text fill="#000000" font-family="sans-serif" font-size="14" lengthAdjust="spacing" textLength="158.7734" x="706.5" y="213.358">Reservation &amp; Inventory</text><text fill="#000000" font-family="sans-serif" font-size="14" lengthAdjust="spacing" textLength="125.2855" x="706.5" y="232.4259">[Availability owner]</text></g><!--entity Checkout--><g class="entity" data-entity="Checkout" data-source-line="14" data-uid="ent0009" id="entity_Checkout"><rect fill="#F1F1F1" height="58.1358" rx="2.5" ry="2.5" style="stroke:#181818;stroke-width:0.5;" width="142.3316" x="353" y="253.3921"/><text fill="#000000" font-family="sans-serif" font-size="14" lengthAdjust="spacing" textLength="120.1055" x="363" y="278.358">Billing &amp; Checkout</text><text fill="#000000" font-family="sans-serif" font-size="14" lengthAdjust="spacing" textLength="122.3316" x="363" y="297.4259">[Saga coordinator]</text></g><!--entity Ticketing--><g class="entity" data-entity="Ticketing" data-source-line="15" data-uid="ent0010" id="entity_Ticketing"><rect fill="#F1F1F1" height="58.1358" rx="2.5" ry="2.5" style="stroke:#181818;stroke-width:0.5;" width="123.4176" x="1419" y="107.3921"/><text fill="#000000" font-family="sans-serif" font-size="14" lengthAdjust="spacing" textLength="59.4158" x="1429" y="132.358">Ticketing</text><text fill="#000000" font-family="sans-serif" font-size="14" lengthAdjust="spacing" textLength="103.4176" x="1429" y="151.4259">[Ticket lifecycle]</text></g><!--entity Notification--><g class="entity" data-entity="Notification" data-source-line="16" data-uid="ent0011" id="entity_Notification"><rect fill="#F1F1F1" height="58.1358" rx="2.5" ry="2.5" style="stroke:#181818;stroke-width:0.5;" width="96.5657" x="1432" y="183.3921"/><text fill="#000000" font-family="sans-serif" font-size="14" lengthAdjust="spacing" textLength="76.5657" x="1442" y="208.358">Notification</text><text fill="#000000" font-family="sans-serif" font-size="14" lengthAdjust="spacing" textLength="62.4818" x="1442" y="227.4259">[Delivery]</text></g><!--entity Kafka--><g class="entity" data-entity="Kafka" data-source-line="17" data-uid="ent0012" id="entity_Kafka"><path d="M1069,150.3921 L1245.9073,150.3921 C1250.9073,150.3921 1250.9073,174.46 1250.9073,174.46 C1250.9073,174.46 1250.9073,198.5279 1245.9073,198.5279 L1069,198.5279 C1064,198.5279 1064,174.46 1064,174.46 C1064,174.46 1064,150.3921 1069,150.3921" fill="#F1F1F1" style="stroke:#181818;stroke-width:0.5;"/><path d="M1245.9073,150.3921 C1240.9073,150.3921 1240.9073,174.46 1240.9073,174.46 C1240.9073,198.5279 1245.9073,198.5279 1245.9073,198.5279" fill="none" style="stroke:#181818;stroke-width:0.5;"/><text fill="#000000" font-family="sans-serif" font-size="14" lengthAdjust="spacing" textLength="36.6659" x="1069" y="170.358">Kafka</text><text fill="#000000" font-family="sans-serif" font-size="14" lengthAdjust="spacing" textLength="166.9073" x="1069" y="189.4259">Versioned domain events</text></g><g class="entity" data-entity="GMN28" data-source-line="37" data-uid="ent0029" id="entity_GMN28"><path d="M683.5,124.8921 L683.5,170.3041 A0,0 0 0 0 683.5,170.3041 L888.9442,170.3041 A0,0 0 0 0 888.9442,170.3041 L888.9442,134.8921 L878.9442,124.8921 L790,124.8921 L786,106.5879 L782,124.8921 L683.5,124.8921 A0,0 0 0 0 683.5,124.8921" fill="#FEFFDD" style="stroke:#181818;stroke-width:0.5;"/><path d="M878.9442,124.8921 L878.9442,134.8921 L888.9442,134.8921 L878.9442,124.8921" fill="#FEFFDD" style="stroke:#181818;stroke-width:0.5;"/><text fill="#000000" font-family="sans-serif" font-size="13" lengthAdjust="spacing" textLength="172.5491" x="689.5" y="143.7891">Never writes live availability.</text><text fill="#000000" font-family="sans-serif" font-size="13" lengthAdjust="spacing" textLength="184.4442" x="689.5" y="161.4951">Search counts are projections.</text></g><g class="entity" data-entity="GMN31" data-source-line="42" data-uid="ent0032" id="entity_GMN31"><path d="M671,264.8921 L671,310.3041 A0,0 0 0 0 671,310.3041 L901.0403,310.3041 A0,0 0 0 0 901.0403,310.3041 L901.0403,274.8921 L891.0403,264.8921 L790,264.8921 L786,246.5879 L782,264.8921 L671,264.8921 A0,0 0 0 0 671,264.8921" fill="#FEFFDD" style="stroke:#181818;stroke-width:0.5;"/><path d="M891.0403,264.8921 L891.0403,274.8921 L901.0403,274.8921 L891.0403,264.8921" fill="#FEFFDD" style="stroke:#181818;stroke-width:0.5;"/><text fill="#000000" font-family="sans-serif" font-size="13" lengthAdjust="spacing" textLength="179.4132" x="677" y="283.7891">Sole authority for AVAILABLE,</text><text fill="#000000" font-family="sans-serif" font-size="13" lengthAdjust="spacing" textLength="209.0403" x="677" y="301.4951">LOCKED, and BOOKED transitions.</text></g><g class="link" data-entity-1="Buyer" data-entity-2="Gateway" data-uid="lnk13" id="link_Buyer_Gateway"><polygon fill="#181818" points="111.8412,129.85,105.0316,122.7345,107.215,127.953,101.9965,130.1364,111.8412,129.85" style="stroke:#181818;stroke-width:1;"/><path d="M58.6719,108.0483 C72.9165,113.8892 87.6469,119.9293 106.2897,127.5736" fill="none" style="stroke:#181818;stroke-width:1;"/></g><g class="link" data-entity-1="Organizer" data-entity-2="Gateway" data-uid="lnk14" id="link_Organizer_Gateway"><polygon fill="#181818" points="110.7386,168.9783,100.8962,168.6211,106.0989,170.8419,103.878,176.0446,110.7386,168.9783" style="stroke:#181818;stroke-width:1;"/><path d="M72.0238,184.529 C83.9151,179.7525 92.1213,176.4563 105.1709,171.2146" fill="none" style="stroke:#181818;stroke-width:1;"/></g><g class="link" data-entity-1="Gateway" data-entity-2="Identity" data-uid="lnk15" id="link_Gateway_Identity"><polygon fill="#181818" points="357.8823,24.9128,348.2973,22.6485,352.9688,25.8387,349.7786,30.5102,357.8823,24.9128" style="stroke:#181818;stroke-width:1;"/><path d="M173.7398,129.5831 C185.8733,111.5667 206.0767,85.5459 230,70.3921 C268.6519,45.9087 312.6236,33.4408 351.9861,26.0238" fill="none" style="stroke:#181818;stroke-width:1;"/><text fill="#000000" font-family="sans-serif" font-size="13" lengthAdjust="spacing" textLength="98.0851" x="232" y="26.2891">token validation</text></g><g class="link" data-entity-1="Gateway" data-entity-2="Catalog" data-uid="lnk16" id="link_Gateway_Catalog"><polygon fill="#181818" points="682.0933,84.5641,672.829,81.2213,677.1062,84.9234,673.404,89.2006,682.0933,84.5641" style="stroke:#181818;stroke-width:1;"/><path d="M210.8308,129.792 C217.2108,127.7308 223.712,125.8573 230,124.3921 C282.2458,112.2182 296.5862,116.3716 350,111.3921 C463.5133,100.8097 587.918,91.3502 676.1088,84.9953" fill="none" style="stroke:#181818;stroke-width:1;"/><text fill="#000000" font-family="sans-serif" font-size="13" lengthAdjust="spacing" textLength="83.0181" x="382.5" y="93.2891">event queries</text></g><g class="link" data-entity-1="Gateway" data-entity-2="Waiting" data-uid="lnk17" id="link_Gateway_Waiting"><polygon fill="#181818" points="349.9027,149.3921,340.9027,145.3921,344.9027,149.3921,340.9027,153.3921,349.9027,149.3921" style="stroke:#181818;stroke-width:1;"/><path d="M212.2299,149.3921 C251.3667,149.3921 300.0453,149.3921 343.9027,149.3921" fill="none" style="stroke:#181818;stroke-width:1;"/><text fill="#000000" font-family="sans-serif" font-size="13" lengthAdjust="spacing" textLength="62.5041" x="250" y="144.2891">admission</text></g><g class="link" data-entity-1="Gateway" data-entity-2="Reservation" data-uid="lnk18" id="link_Gateway_Reservation"><polygon fill="#181818" points="696.4379,222.8216,687.2776,219.2037,691.4423,223.0319,687.6141,227.1966,696.4379,222.8216" style="stroke:#181818;stroke-width:1;"/><path d="M210.5784,168.9612 C248.0881,182.8772 301.4364,200.4546 350,208.3921 C468.7174,227.7958 602.0716,226.7936 690.4432,223.074" fill="none" style="stroke:#181818;stroke-width:1;"/><text fill="#000000" font-family="sans-serif" font-size="13" lengthAdjust="spacing" textLength="92.3651" x="378" y="203.2891">seat map / lock</text></g><g class="link" data-entity-1="Gateway" data-entity-2="Checkout" data-uid="lnk19" id="link_Gateway_Checkout"><polygon fill="#181818" points="352.5442,284.8724,343.7356,280.4669,347.5494,284.6448,343.3715,288.4586,352.5442,284.8724" style="stroke:#181818;stroke-width:1;"/><path d="M168.7349,168.9545 C178.6578,192.8345 198.8834,232.4886 230,252.3921 C266.1353,275.5058 307.6908,282.8288 346.5504,284.5993" fill="none" style="stroke:#181818;stroke-width:1;"/><text fill="#000000" font-family="sans-serif" font-size="13" lengthAdjust="spacing" textLength="55.3801" x="253.5" y="247.2891">checkout</text></g><g class="link" data-entity-1="Catalog" data-entity-2="Kafka" data-uid="lnk20" id="link_Catalog_Kafka"><polygon fill="#181818" points="1123.8979,150.3866,1118.6862,142.0297,1119.757,147.5843,1114.2024,148.6552,1123.8979,150.3866" style="stroke:#181818;stroke-width:1;"/><path d="M889.6941,80.4498 C938.1408,84.305 996.1269,92.4581 1046,109.3921 C1074.03,118.9094 1097.7914,132.7192 1118.9288,147.0238" fill="none" style="stroke:#181818;stroke-width:1;"/><text fill="#000000" font-family="sans-serif" font-size="13" lengthAdjust="spacing" textLength="94.0811" x="935.5" y="78.2891">EventPublished</text></g><g class="link" data-entity-1="Waiting" data-entity-2="Reservation" data-uid="lnk21" id="link_Waiting_Reservation"><polygon fill="#181818" points="696.2183,200.6222,688.1171,195.0212,691.3052,199.6942,686.6323,202.8822,696.2183,200.6222" style="stroke:#181818;stroke-width:1;"/><path d="M498.2853,163.2349 C555.5403,174.0497 629.4445,188.0094 690.3226,199.5086" fill="none" style="stroke:#181818;stroke-width:1;"/><text fill="#000000" font-family="sans-serif" font-size="13" lengthAdjust="spacing" textLength="133.6531" x="518" y="162.2891">admitted lock request</text></g><g class="link" data-entity-1="Reservation" data-entity-2="Kafka" data-uid="lnk22" id="link_Reservation_Kafka"><polygon fill="#181818" points="1063.7668,192.7338,1054.246,190.2128,1058.8301,193.5273,1055.5157,198.1115,1063.7668,192.7338" style="stroke:#181818;stroke-width:1;"/><path d="M875.6564,212.1312 C925.7918,208.5884 989.5551,203.1319 1046,195.3921 C1051.8039,194.5962 1051.8411,194.6508 1057.8428,193.686" fill="none" style="stroke:#181818;stroke-width:1;"/><text fill="#000000" font-family="sans-serif" font-size="13" lengthAdjust="spacing" textLength="113.8671" x="925.736" y="172.2891">InventoryChanged</text><text fill="#000000" font-family="sans-serif" font-size="13" lengthAdjust="spacing" textLength="118.3391" x="923.5" y="189.9951">ReservationExpired</text></g><g class="link" data-entity-1="Checkout" data-entity-2="Reservation" data-uid="lnk23" id="link_Checkout_Reservation"><polygon fill="#181818" points="696.2522,242.5888,686.5501,240.8952,691.402,243.8036,688.4937,248.6555,696.2522,242.5888" style="stroke:#181818;stroke-width:1;"/><path d="M495.2305,275.5092 C540.5064,270.4924 600.5152,262.7587 653,252.3921 C667.0718,249.6126 676.0446,247.6498 690.432,244.0465" fill="none" style="stroke:#181818;stroke-width:1;"/><text fill="#000000" font-family="sans-serif" font-size="13" lengthAdjust="spacing" textLength="108.0171" x="530.5" y="247.2891">Confirm / Release</text></g><g class="link" data-entity-1="Checkout" data-entity-2="Kafka" data-uid="lnk24" id="link_Checkout_Kafka"><polygon fill="#181818" points="1134.019,198.4175,1124.8637,202.0481,1130.5203,201.9895,1130.5789,207.6461,1134.019,198.4175" style="stroke:#181818;stroke-width:1;"/><path d="M489.9822,311.5227 C583.0115,349.0565 758.6368,404.319 901,358.3921 C999.8436,326.5048 1088.508,244.8816 1129.8205,202.7039" fill="none" style="stroke:#181818;stroke-width:1;"/><text fill="#000000" font-family="sans-serif" font-size="13" lengthAdjust="spacing" textLength="119.6391" x="726.5" y="335.2891">PaymentSucceeded</text><text fill="#000000" font-family="sans-serif" font-size="13" lengthAdjust="spacing" textLength="90.0771" x="741.281" y="352.9951">PaymentFailed</text></g><g class="link" data-entity-1="Kafka" data-entity-2="Catalog" data-uid="lnk25" id="link_Kafka_Catalog"><polygon fill="#181818" points="882.7632,106.4414,889.1411,113.9462,887.2694,108.608,892.6077,106.7363,882.7632,106.4414" style="stroke:#181818;stroke-width:1;"/><path d="M1063.9111,159.1234 C997.9694,148.1979 920.6985,135.268 919,134.3921 C908.9446,129.2066 910.6005,122.3779 901,116.3921 C895.2311,112.7953 894.4972,112.083 888.1707,109.0413" fill="none" style="stroke:#181818;stroke-width:1;"/><text fill="#000000" font-family="sans-serif" font-size="13" lengthAdjust="spacing" textLength="123.3961" x="921" y="129.2891">inventory projection</text></g><g class="link" data-entity-1="Kafka" data-entity-2="Ticketing" data-uid="lnk26" id="link_Kafka_Ticketing"><polygon fill="#181818" points="1418.7892,143.579,1409.3814,140.6648,1413.8239,144.1668,1410.3219,148.6093,1418.7892,143.579" style="stroke:#181818;stroke-width:1;"/><path d="M1251.3465,163.4009 C1305.229,157.0223 1365.6048,149.875 1412.8308,144.2844" fill="none" style="stroke:#181818;stroke-width:1;"/><text fill="#000000" font-family="sans-serif" font-size="13" lengthAdjust="spacing" textLength="67.8081" x="1301.5" y="141.2891">issue ticket</text></g><g class="link" data-entity-1="Kafka" data-entity-2="Notification" data-uid="lnk27" id="link_Kafka_Notification"><polygon fill="#181818" points="1431.8627,206.7528,1423.3953,201.7225,1426.8973,206.165,1422.4548,209.667,1431.8627,206.7528" style="stroke:#181818;stroke-width:1;"/><path d="M1251.3465,185.3833 C1310.4135,192.3756 1378.4854,200.434 1425.9043,206.0474" fill="none" style="stroke:#181818;stroke-width:1;"/><text fill="#000000" font-family="sans-serif" font-size="13" lengthAdjust="spacing" textLength="128.0761" x="1271" y="182.2891">send status message</text></g><!--SRC=[PLJBSjim3BphAz0SSahIkm-TaH_jU9B6dgIFGzC3Ga4oQufKISY9-lK5zIhTd4IHky0IMF1Tux6g4GnshcK8DJ5Qp5Yp8VYYrP5uRze0rx1Uhs7fMbjG0IjdcLuPFcEJ6IePs87NrO6Xq9uKQsUpSDIsGOyrA5StpfBbH-uaQWIWhGnb6Ifs7fPjHtvSxto5Ll-H_socmKM-ty8dP7h1xW8mJEiKiYtaexc3IyYLeX2Ux8zfxsTFclvIrWePZQk4jDP1kHFvJdXVcy2UH7ciHY4GS2-M_11cfAHHlgDcRIjuSAuMUbxKEWIfWTpSidTc88webFX0WVm9Oxr4mjQUPDVr4l8JQeFFsiGh9TaJHXfegOs92YvXTI1rb5PAZ4UiK2GuNsYB4dVKFm9I-j1e2I2iOGr6bwGwPMXWpOYKTkzObrhrQeIv9gDZ1GT6UfZzRgabkBZ5yeXFzXlvM1unKk5gr1OeNZpqj1wIPRqduFhwmzphsHbdk-Ettviji10_7id22Oqk1W4fRchwOiWB8ivh2cUOgQKBmAcRP-TfvnOG21bgRE0z6AUEvzd6UWjCJQNF9WaHqDzOJZTHpBvzDZeSgCWc1M-pHKNCKhsOIyP9z0VEKamQTdRLwY1JHyMJJP2RrqO6jiXcaM-poQoNsjTojGSoX87EmLEQFNPr7F5MXe-Ac6RS-IX6bWm3xhpyUf86ZNU_ndVZ7t3sN8I680RYVYU1f2Rh-s0B28miBrOjRm1MyiXOnmJFZjdLuCfvVW7kfVqUNhnc2X2j2vXCtOqW7WczEiWCjM9FG4-9q72JnMmn-fiSwPHA52Ul7hPyS3wwivHdBl-MR-_ovTtcIixlTglRpVeAKC8jTpjP0tkqGV-NvYy0]--></g></svg>