<svg xmlns="http://www.w3.org/2000/svg" xmlns:xlink="http://www.w3.org/1999/xlink" contentStyleType="text/css" data-diagram-type="DESCRIPTION" height="731px" preserveAspectRatio="none" style="width:1418px;height:731px;background:#FFFFFF;" version="1.1" viewBox="0 0 1418 731" width="1418px" zoomAndPan="magnify"><title>TicketPlus - Kubernetes Telemetry and Canary Architecture</title><defs/><g><g class="title" data-source-line="2"><text fill="#000000" font-family="sans-serif" font-size="14" font-weight="bold" lengthAdjust="spacing" textLength="414.2725" x="498.8637" y="24.9659">TicketPlus - Kubernetes Telemetry and Canary Architecture</text></g><!--cluster Kubernetes Cluster (3 AZs)--><g class="cluster" data-entity="Kubernetes Cluster .3 AZs." data-source-line="8" data-uid="ent0003" id="cluster_Kubernetes Cluster .3 AZs."><polygon fill="none" points="31,317.5679,41,307.5679,1201,307.5679,1201,629.5679,1191,639.5679,31,639.5679,31,317.5679" style="stroke:#181818;stroke-width:1;"/><line style="stroke:#181818;stroke-width:1;" x1="1191" x2="1201" y1="317.5679" y2="307.5679"/><line style="stroke:#181818;stroke-width:1;" x1="31" x2="1191" y1="317.5679" y2="317.5679"/><line style="stroke:#181818;stroke-width:1;" x1="1191" x2="1191" y1="317.5679" y2="639.5679"/><text fill="#000000" font-family="sans-serif" font-size="14" font-weight="bold" lengthAdjust="spacing" textLength="183.9593" x="520.0203" y="335.5339">Kubernetes Cluster (3 AZs)</text></g><!--entity LB--><g class="entity" data-entity="LB" data-source-line="6" data-uid="ent0002" id="entity_LB"><path d="M15.9571,657 C19.2311,651.8953 23.6473,651.5116 26.7478,657.1739 C30.1592,651.1599 35.9571,649.9657 39.6442,656.8993 C44.2184,650.9343 49.1595,651.6312 53.2494,657.458 C56.6391,651.7883 61.0679,651.509 65.4637,656.2812 C69.4191,650.5016 73.947,651.0167 78.0088,656.159 C80.7564,650.5563 86.5365,650.1452 89.6714,655.7562 C94.087,649.9266 100.1497,648.95 103.5425,656.7938 C106.9091,649.9238 111.8807,650.0804 116.6009,655.3362 C120.8669,649.7259 124.1996,650.0293 127.6089,656.1409 C131.2345,650.8481 137.4092,651.0941 140.5201,656.748 C144.2267,650.9357 149.6226,650.6116 152.946,657.1339 C155.9581,650.7536 162.2992,650.6958 165.8607,656.5542 C176.332,659.9602 174.7339,669.2998 167.9736,674.7111 C175.7594,680.2539 173.0361,686.5747 166.1834,690.4528 C163.2492,696.4884 158.0189,697.1064 154.034,691.5544 C148.9615,699.0813 144.4799,697.8925 139.9055,691.0642 C136.9025,696.0446 132.552,696.2571 129.1452,691.5109 C125.3776,698.6161 121.2941,700.5602 115.2975,693.7252 C111.8319,699.6341 106.366,701.0884 102.4067,694.2234 C100.0195,699.6104 94.6766,700.519 91.1997,695.3841 C86.083,699.9789 81.5094,700.5554 78.4273,693.208 C74.0868,699.2087 68.5948,700.3411 64.2594,693.2024 C61.1148,698.4411 56.2417,698.1078 53.2394,693.0501 C49.0652,698.5991 42.9665,697.9428 40.4509,691.3091 C36.5217,697.2578 30.8456,697.5471 27.4597,690.755 C24.6895,696.1226 19.2766,696.6538 16.1254,691.1523 C7.2794,687.6945 7.1512,680.8271 12.9136,674.5442 C5.4219,667.5074 7.0339,661.1892 15.9571,657" fill="#F1F1F1" style="stroke:#181818;stroke-width:0.5;"/><text fill="#000000" font-family="sans-serif" font-size="14" lengthAdjust="spacing" textLength="136.6955" x="21" y="678.0339">Public Load Balancer</text></g><!--entity PG--><g class="entity" data-entity="PG" data-source-line="19" data-uid="ent0012" id="entity_PG"><path d="M1052.5,150.5679 C1052.5,140.5679 1100.9719,140.5679 1100.9719,140.5679 C1100.9719,140.5679 1149.4437,140.5679 1149.4437,150.5679 L1149.4437,178.6358 C1149.4437,188.6358 1100.9719,188.6358 1100.9719,188.6358 C1100.9719,188.6358 1052.5,188.6358 1052.5,178.6358 L1052.5,150.5679" fill="#F1F1F1" style="stroke:#181818;stroke-width:0.5;"/><path d="M1052.5,150.5679 C1052.5,160.5679 1100.9719,160.5679 1100.9719,160.5679 C1100.9719,160.5679 1149.4437,160.5679 1149.4437,150.5679" fill="none" style="stroke:#181818;stroke-width:0.5;"/><text fill="#000000" font-family="sans-serif" font-size="14" lengthAdjust="spacing" textLength="76.9437" x="1062.5" y="179.5339">PostgreSQL</text></g><!--entity Redis--><g class="entity" data-entity="Redis" data-source-line="20" data-uid="ent0013" id="entity_Redis"><path d="M1073,230.5679 C1073,220.5679 1100.7659,220.5679 1100.7659,220.5679 C1100.7659,220.5679 1128.5319,220.5679 1128.5319,230.5679 L1128.5319,258.6358 C1128.5319,268.6358 1100.7659,268.6358 1100.7659,268.6358 C1100.7659,268.6358 1073,268.6358 1073,258.6358 L1073,230.5679" fill="#F1F1F1" style="stroke:#181818;stroke-width:0.5;"/><path d="M1073,230.5679 C1073,240.5679 1100.7659,240.5679 1100.7659,240.5679 C1100.7659,240.5679 1128.5319,240.5679 1128.5319,230.5679" fill="none" style="stroke:#181818;stroke-width:0.5;"/><text fill="#000000" font-family="sans-serif" font-size="14" lengthAdjust="spacing" textLength="35.5319" x="1083" y="259.5339">Redis</text></g><!--entity Kafka--><g class="entity" data-entity="Kafka" data-source-line="21" data-uid="ent0014" id="entity_Kafka"><path d="M382.5,213.0679 L429.1659,213.0679 C434.1659,213.0679 434.1659,227.6019 434.1659,227.6019 C434.1659,227.6019 434.1659,242.1358 429.1659,242.1358 L382.5,242.1358 C377.5,242.1358 377.5,227.6019 377.5,227.6019 C377.5,227.6019 377.5,213.0679 382.5,213.0679" fill="#F1F1F1" style="stroke:#181818;stroke-width:0.5;"/><path d="M429.1659,213.0679 C424.1659,213.0679 424.1659,227.6019 424.1659,227.6019 C424.1659,242.1358 429.1659,242.1358 429.1659,242.1358" fill="none" style="stroke:#181818;stroke-width:0.5;"/><text fill="#000000" font-family="sans-serif" font-size="14" lengthAdjust="spacing" textLength="36.6659" x="382.5" y="233.0339">Kafka</text></g><!--entity Grafana--><g class="entity" data-entity="Grafana" data-source-line="22" data-uid="ent0015" id="entity_Grafana"><rect fill="#F1F1F1" height="39.0679" rx="2.5" ry="2.5" style="stroke:#181818;stroke-width:0.5;" width="73.0038" x="369.5" y="260.0679"/><text fill="#000000" font-family="sans-serif" font-size="14" lengthAdjust="spacing" textLength="53.0038" x="379.5" y="285.0339">Grafana</text></g><!--entity Store--><g class="entity" data-entity="Store" data-source-line="23" data-uid="ent0016" id="entity_Store"><rect fill="#F1F1F1" height="39.0679" rx="2.5" ry="2.5" style="stroke:#181818;stroke-width:0.5;" width="182.8054" x="1230" y="442.0679"/><text fill="#000000" font-family="sans-serif" font-size="14" lengthAdjust="spacing" textLength="162.8054" x="1240" y="467.0339">Central Log / Trace Store</text></g><!--entity OnCall--><g class="entity" data-entity="OnCall" data-source-line="24" data-uid="ent0017" id="entity_OnCall"><ellipse cx="789.6948" cy="656.5679" fill="#F1F1F1" rx="8" ry="8" style="stroke:#181818;stroke-width:0.5;"/><path d="M789.6948,664.5679 L789.6948,691.5679 M776.6948,672.5679 L802.6948,672.5679 M789.6948,691.5679 L776.6948,706.5679 M789.6948,691.5679 L802.6948,706.5679" fill="none" style="stroke:#181818;stroke-width:0.5;"/><text fill="#000000" font-family="sans-serif" font-size="14" lengthAdjust="spacing" textLength="103.3896" x="738" y="723.0339">Primary On-Call</text></g><g class="entity" data-entity="GMN41" data-source-line="53" data-uid="ent0042" id="entity_GMN41"><path d="M684,52.0679 L684,83.3292 L738.2564,584.6952 L684,91.3292 L684,115.186 A0,0 0 0 0 684,115.186 L894.5922,115.186 A0,0 0 0 0 894.5922,115.186 L894.5922,62.0679 L884.5922,52.0679 L684,52.0679 A0,0 0 0 0 684,52.0679" fill="#FEFFDD" style="stroke:#181818;stroke-width:0.5;"/><path d="M884.5922,52.0679 L884.5922,62.0679 L894.5922,62.0679 L884.5922,52.0679" fill="#FEFFDD" style="stroke:#181818;stroke-width:0.5;"/><text fill="#000000" font-family="sans-serif" font-size="13" lengthAdjust="spacing" textLength="189.5922" x="690" y="70.9649">Automatic rollback when error,</text><text fill="#000000" font-family="sans-serif" font-size="13" lengthAdjust="spacing" textLength="179.8162" x="690" y="88.6709">latency, or conflict thresholds</text><text fill="#000000" font-family="sans-serif" font-size="13" lengthAdjust="spacing" textLength="164.6061" x="690" y="106.377">exceed the stable baseline.</text></g><!--entity Ingress--><g class="entity" data-entity="Ingress" data-source-line="9" data-uid="ent0004" id="entity_Ingress"><rect fill="#F1F1F1" height="39.0679" rx="2.5" ry="2.5" style="stroke:#181818;stroke-width:0.5;" width="173.9154" x="319" y="477.0679"/><text fill="#000000" font-family="sans-serif" font-size="14" lengthAdjust="spacing" textLength="153.9154" x="329" y="502.0339">Ingress / Traffic Splitter</text></g><!--entity Stable--><g class="entity" data-entity="Stable" data-source-line="10" data-uid="ent0005" id="entity_Stable"><rect fill="#F1F1F1" height="58.1358" rx="2.5" ry="2.5" style="stroke:#181818;stroke-width:0.5;" width="96.6077" x="741" y="475.5679"/><text fill="#000000" font-family="sans-serif" font-size="14" lengthAdjust="spacing" textLength="76.6077" x="751" y="500.5339">Stable Pods</text><text fill="#000000" font-family="sans-serif" font-size="14" lengthAdjust="spacing" textLength="69.9437" x="751" y="519.6018">95% traffic</text></g><!--entity Canary--><g class="entity" data-entity="Canary" data-source-line="11" data-uid="ent0006" id="entity_Canary"><rect fill="#F1F1F1" height="58.1358" rx="2.5" ry="2.5" style="stroke:#181818;stroke-width:0.5;" width="102.0257" x="738.5" y="551.5679"/><text fill="#000000" font-family="sans-serif" font-size="14" lengthAdjust="spacing" textLength="82.0257" x="748.5" y="576.5339">Canary Pods</text><text fill="#000000" font-family="sans-serif" font-size="14" lengthAdjust="spacing" textLength="61.9358" x="748.5" y="595.6018">5% traffic</text></g><!--entity Reservation--><g class="entity" data-entity="Reservation" data-source-line="12" data-uid="ent0007" id="entity_Reservation"><rect fill="#F1F1F1" height="58.1358" rx="2.5" ry="2.5" style="stroke:#181818;stroke-width:0.5;" width="133.6376" x="722.5" y="342.5679"/><text fill="#000000" font-family="sans-serif" font-size="14" lengthAdjust="spacing" textLength="113.6376" x="732.5" y="367.5339">Reservation Pods</text><text fill="#000000" font-family="sans-serif" font-size="14" lengthAdjust="spacing" textLength="102.8856" x="732.5" y="386.6018">HPA: CPU + RPS</text></g><!--entity Workers--><g class="entity" data-entity="Workers" data-source-line="13" data-uid="ent0008" id="entity_Workers"><rect fill="#F1F1F1" height="58.1358" rx="2.5" ry="2.5" style="stroke:#181818;stroke-width:0.5;" width="155.3375" x="511" y="369.5679"/><text fill="#000000" font-family="sans-serif" font-size="14" lengthAdjust="spacing" textLength="135.3375" x="521" y="394.5339">Notification Workers</text><text fill="#000000" font-family="sans-serif" font-size="14" lengthAdjust="spacing" textLength="95.5636" x="521" y="413.6018">HPA: Kafka lag</text></g><!--entity OTel--><g class="entity" data-entity="OTel" data-source-line="14" data-uid="ent0009" id="entity_OTel"><rect fill="#F1F1F1" height="39.0679" rx="2.5" ry="2.5" style="stroke:#181818;stroke-width:0.5;" width="184.3454" x="1009" y="442.0679"/><text fill="#000000" font-family="sans-serif" font-size="14" lengthAdjust="spacing" textLength="164.3454" x="1019" y="467.0339">OpenTelemetry Collector</text></g><!--entity Prometheus--><g class="entity" data-entity="Prometheus" data-source-line="15" data-uid="ent0010" id="entity_Prometheus"><rect fill="#F1F1F1" height="39.0679" rx="2.5" ry="2.5" style="stroke:#181818;stroke-width:0.5;" width="100.6677" x="39" y="363.0679"/><text fill="#000000" font-family="sans-serif" font-size="14" lengthAdjust="spacing" textLength="80.6677" x="49" y="388.0339">Prometheus</text></g><!--entity Alerts--><g class="entity" data-entity="Alerts" data-source-line="16" data-uid="ent0011" id="entity_Alerts"><rect fill="#F1F1F1" height="39.0679" rx="2.5" ry="2.5" style="stroke:#181818;stroke-width:0.5;" width="111.0277" x="350.5" y="592.0679"/><text fill="#000000" font-family="sans-serif" font-size="14" lengthAdjust="spacing" textLength="91.0277" x="360.5" y="617.0339">Alertmanager</text></g><g class="link" data-entity-1="LB" data-entity-2="Ingress" data-uid="lnk18" id="link_LB_Ingress"><polygon fill="#181818" points="335.9019,516.2366,326.1461,517.5868,331.6544,518.8745,330.3667,524.3829,335.9019,516.2366" style="stroke:#181818;stroke-width:1;"/><path d="M173.1213,671.9984 C216.9226,667.2483 268.2887,653.8573 301,619.5679 C328.8564,590.3676 293.0965,561.5139 319,530.5679 C323.7404,524.9047 324.4569,523.3445 330.8049,519.4021" fill="none" style="stroke:#181818;stroke-width:1;"/></g><g class="link" data-entity-1="Ingress" data-entity-2="Stable" data-uid="lnk19" id="link_Ingress_Stable"><polygon fill="#181818" points="740.7967,503.5676,731.8825,499.3798,735.7978,503.4628,731.7148,507.378,740.7967,503.5676" style="stroke:#181818;stroke-width:1;"/><path d="M493.0917,498.3732 C569.6797,499.9793 672.8713,502.1432 734.798,503.4418" fill="none" style="stroke:#181818;stroke-width:1;"/><text fill="#000000" font-family="sans-serif" font-size="13" lengthAdjust="spacing" textLength="25.675" x="576" y="493.4649">95%</text></g><g class="link" data-entity-1="Ingress" data-entity-2="Canary" data-uid="lnk20" id="link_Ingress_Canary"><polygon fill="#181818" points="738.2433,568.9625,730.3394,563.0864,733.365,567.8661,728.5853,570.8917,738.2433,568.9625" style="stroke:#181818;stroke-width:1;"/><path d="M470.5151,516.0716 C483.8214,519.8243 497.816,523.5275 511,526.5679 C579.1378,542.2814 597.395,540.039 666,553.5679 C689.8235,558.2659 710.2789,562.6778 732.3893,567.6468" fill="none" style="stroke:#181818;stroke-width:1;"/><text fill="#000000" font-family="sans-serif" font-size="13" lengthAdjust="spacing" textLength="18.239" x="579.5" y="521.4649">5%</text></g><g class="link" data-entity-1="Ingress" data-entity-2="Reservation" data-uid="lnk21" id="link_Ingress_Reservation"><polygon fill="#181818" points="722.255,395.648,712.4068,395.5373,717.6634,397.6272,715.5735,402.8838,722.255,395.648" style="stroke:#181818;stroke-width:1;"/><path d="M487.9173,477.0577 C557.7172,459.9428 649.7971,436.5734 666,428.5679 C675.0863,424.0786 675.2336,419.6538 684,414.5679 C695.9633,407.6273 703.7528,403.6233 716.7451,398.023" fill="none" style="stroke:#181818;stroke-width:1;"/></g><g class="link" data-entity-1="Kafka" data-entity-2="Workers" data-uid="lnk22" id="link_Kafka_Workers"><polygon fill="#181818" points="576.5794,369.4513,576.7856,359.6046,574.6448,364.8407,569.4087,362.7,576.5794,369.4513" style="stroke:#181818;stroke-width:1;"/><path d="M434.7942,229.8067 C452.8284,232.4366 476.0399,238.1518 493,250.5679 C534.5713,281.0014 560.1177,330.2198 574.2579,363.9186" fill="none" style="stroke:#181818;stroke-width:1;"/></g><g class="link" data-entity-1="Reservation" data-entity-2="Redis" data-uid="lnk23" id="link_Reservation_Redis"><polygon fill="#181818" points="1072.867,255.7016,1063.0223,255.4177,1068.2413,257.5998,1066.0592,262.8188,1072.867,255.7016" style="stroke:#181818;stroke-width:1;"/><path d="M856.5159,344.479 C923.8008,316.8694 1019.338,277.6667 1067.3162,257.9794" fill="none" style="stroke:#181818;stroke-width:1;"/></g><g class="link" data-entity-1="Reservation" data-entity-2="PG" data-uid="lnk24" id="link_Reservation_PG"><polygon fill="#181818" points="1052.4663,187.3576,1042.6324,187.9006,1048.0161,189.6371,1046.2796,195.0209,1052.4663,187.3576" style="stroke:#181818;stroke-width:1;"/><path d="M826.7781,342.2879 C869.1644,308.7293 942.0426,253.0264 1009,211.5679 C1022.7574,203.0497 1032.8925,197.384 1047.1261,190.093" fill="none" style="stroke:#181818;stroke-width:1;"/></g><g class="link" data-entity-1="Stable" data-entity-2="OTel" data-uid="lnk25" id="link_Stable_OTel"><polygon fill="#181818" points="1008.9369,474.2197,999.4721,471.4962,1003.9844,474.9077,1000.573,479.4201,1008.9369,474.2197" style="stroke:#181818;stroke-width:1;"/><path d="M838.1811,497.9434 C883.5397,491.6416 947.0267,482.8211 1002.994,475.0453" fill="none" style="stroke:#181818;stroke-width:1;stroke-dasharray:7,7;"/><text fill="#000000" font-family="sans-serif" font-size="13" lengthAdjust="spacing" textLength="74.1911" x="915" y="472.4649">traces / logs</text></g><g class="link" data-entity-1="Canary" data-entity-2="OTel" data-uid="lnk26" id="link_Canary_OTel"><polygon fill="#181818" points="1059.7796,481.1685,1049.9334,481.3996,1055.2594,483.3058,1053.3531,488.6318,1059.7796,481.1685" style="stroke:#181818;stroke-width:1;"/><path d="M840.8531,564.7649 C881.709,551.5789 940.5901,531.7468 991,511.5679 C1014.0976,502.322 1033.9582,493.3779 1054.3554,483.7333" fill="none" style="stroke:#181818;stroke-width:1;stroke-dasharray:7,7;"/><text fill="#000000" font-family="sans-serif" font-size="13" lengthAdjust="spacing" textLength="74.1911" x="915" y="506.4649">traces / logs</text></g><g class="link" data-entity-1="Reservation" data-entity-2="OTel" data-uid="lnk27" id="link_Reservation_OTel"><polygon fill="#181818" points="1032.7503,442.0123,1025.2252,435.6584,1027.9492,440.6162,1022.9914,443.3402,1032.7503,442.0123" style="stroke:#181818;stroke-width:1;"/><path d="M856.5159,390.7648 C908.4442,405.8651 974.7452,425.1449 1026.989,440.3369" fill="none" style="stroke:#181818;stroke-width:1;stroke-dasharray:7,7;"/><text fill="#000000" font-family="sans-serif" font-size="13" lengthAdjust="spacing" textLength="74.1911" x="915" y="402.4649">traces / logs</text></g><g class="link" data-entity-1="Workers" data-entity-2="OTel" data-uid="lnk28" id="link_Workers_OTel"><polygon fill="#181818" points="1008.7138,453.9572,1000.0595,449.2557,1003.7295,453.5605,999.4248,457.2305,1008.7138,453.9572" style="stroke:#181818;stroke-width:1;"/><path d="M666.1575,426.3275 C672.1468,427.9422 678.1421,429.3864 684,430.5679 C818.0941,457.6136 854.6106,442.0506 991,452.5679 C996.7742,453.0132 996.7386,453.004 1002.7327,453.4811" fill="none" style="stroke:#181818;stroke-width:1;stroke-dasharray:7,7;"/><text fill="#000000" font-family="sans-serif" font-size="13" lengthAdjust="spacing" textLength="74.1911" x="752.5" y="425.4649">traces / logs</text></g><g class="link" data-entity-1="OTel" data-entity-2="Store" data-uid="lnk29" id="link_OTel_Store"><polygon fill="#181818" points="1229.9172,461.5679,1220.9172,457.5679,1224.9172,461.5679,1220.9172,465.5679,1229.9172,461.5679" style="stroke:#181818;stroke-width:1;"/><path d="M1193.0815,461.5679 C1205.2596,461.5679 1211.7476,461.5679 1223.9172,461.5679" fill="none" style="stroke:#181818;stroke-width:1;"/></g><g class="link" data-entity-1="Prometheus" data-entity-2="Ingress" data-uid="lnk30" id="link_Prometheus_Ingress"><polygon fill="#181818" points="318.9453,495.3265,310.2965,490.6149,313.9615,494.924,309.6525,498.589,318.9453,495.3265" style="stroke:#181818;stroke-width:1;"/><path d="M107.5802,402.182 C126.0276,421.9545 157.3292,451.6226 191,466.5679 C230.8621,484.2614 272.6693,491.5888 312.9648,494.8435" fill="none" style="stroke:#181818;stroke-width:1;stroke-dasharray:7,7;"/><text fill="#000000" font-family="sans-serif" font-size="13" lengthAdjust="spacing" textLength="40.456" x="226" y="461.4649">scrape</text></g><g class="link" data-entity-1="Prometheus" data-entity-2="Stable" data-uid="lnk31" id="link_Prometheus_Stable"><polygon fill="#181818" points="740.7604,491.2837,733.0826,485.1152,735.9267,490.0051,731.0368,492.8492,740.7604,491.2837" style="stroke:#181818;stroke-width:1;"/><path d="M140.3576,391.7007 C186.6035,400.0756 257.3697,412.6465 319,422.5679 C472.8976,447.3429 513.1327,443.0743 666,473.5679 C690.8486,478.5247 712.4103,483.7846 734.9599,489.7494" fill="none" style="stroke:#181818;stroke-width:1;stroke-dasharray:7,7;"/><text fill="#000000" font-family="sans-serif" font-size="13" lengthAdjust="spacing" textLength="40.456" x="386" y="417.4649">scrape</text></g><g class="link" data-entity-1="Prometheus" data-entity-2="Canary" data-uid="lnk32" id="link_Prometheus_Canary"><polygon fill="#181818" points="738.4399,581.817,729.3905,577.9302,733.4403,581.8797,729.4908,585.9296,738.4399,581.817" style="stroke:#181818;stroke-width:1;"/><path d="M103.5471,402.4978 C120.8492,427.5427 153.5956,470.4071 191,496.5679 C241.0487,531.5722 259.4283,533.0998 319,546.5679 C468.8587,580.4484 645.8174,582.9786 732.4404,581.8923" fill="none" style="stroke:#181818;stroke-width:1;stroke-dasharray:7,7;"/><text fill="#000000" font-family="sans-serif" font-size="13" lengthAdjust="spacing" textLength="40.456" x="386" y="541.4649">scrape</text></g><g class="link" data-entity-1="Prometheus" data-entity-2="Reservation" data-uid="lnk33" id="link_Prometheus_Reservation"><polygon fill="#181818" points="722.3873,369.6524,713.4882,365.4327,717.3888,369.5297,713.2918,373.4303,722.3873,369.6524" style="stroke:#181818;stroke-width:1;"/><path d="M140.1979,374.2571 C156.3512,371.9281 174.3924,369.7191 191,368.5679 C401.6058,353.9693 454.9047,365.9835 666,368.5679 C684.294,368.7919 698.1232,369.0567 716.3891,369.5052" fill="none" style="stroke:#181818;stroke-width:1;stroke-dasharray:7,7;"/><text fill="#000000" font-family="sans-serif" font-size="13" lengthAdjust="spacing" textLength="40.456" x="386" y="356.4649">scrape</text></g><g class="link" data-entity-1="Prometheus" data-entity-2="Workers" data-uid="lnk34" id="link_Prometheus_Workers"><polygon fill="#181818" points="510.7112,397.8898,501.7597,393.7825,505.7116,397.8301,501.6641,401.7819,510.7112,397.8898" style="stroke:#181818;stroke-width:1;"/><path d="M140.0574,386.4825 C156.2829,387.6405 174.402,388.8019 191,389.5679 C302.0818,394.6943 424.8106,396.8628 504.7117,397.8181" fill="none" style="stroke:#181818;stroke-width:1;stroke-dasharray:7,7;"/><text fill="#000000" font-family="sans-serif" font-size="13" lengthAdjust="spacing" textLength="40.456" x="226" y="384.4649">scrape</text></g><g class="link" data-entity-1="Prometheus" data-entity-2="Kafka" data-uid="lnk35" id="link_Prometheus_Kafka"><polygon fill="#181818" points="377.4571,233.4793,367.78,231.648,372.5902,234.625,369.6132,239.4352,377.4571,233.4793" style="stroke:#181818;stroke-width:1;"/><path d="M116.6896,363.0403 C136.582,348.5936 164.8797,328.8553 191,313.5679 C245.7228,281.5405 259.6439,272.8658 319,250.5679 C338.0979,243.3935 354.5255,238.8776 371.6168,234.8542" fill="none" style="stroke:#181818;stroke-width:1;stroke-dasharray:7,7;"/><text fill="#000000" font-family="sans-serif" font-size="13" lengthAdjust="spacing" textLength="59.059" x="216.5" y="253.4649">exporters</text></g><g class="link" data-entity-1="Prometheus" data-entity-2="Redis" data-uid="lnk36" id="link_Prometheus_Redis"><polygon fill="#181818" points="1072.9198,239.8788,1064.6977,234.4569,1067.9875,239.0587,1063.3857,242.3485,1072.9198,239.8788" style="stroke:#181818;stroke-width:1;"/><path d="M98.1079,362.8908 C111.6514,330.5874 143.0972,266.6084 191,233.5679 C239.0989,200.3923 260.9562,210.279 319,203.5679 C613.035,169.5713 966.7218,222.2227 1067.0011,238.8947" fill="none" style="stroke:#181818;stroke-width:1;stroke-dasharray:7,7;"/><text fill="#000000" font-family="sans-serif" font-size="13" lengthAdjust="spacing" textLength="59.059" x="559" y="187.4649">exporters</text></g><g class="link" data-entity-1="Prometheus" data-entity-2="PG" data-uid="lnk37" id="link_Prometheus_PG"><polygon fill="#181818" points="1052.3547,160.2621,1043.7239,155.5178,1047.3725,159.8407,1043.0496,163.4893,1052.3547,160.2621" style="stroke:#181818;stroke-width:1;"/><path d="M95.5137,363.0586 C106.1875,325.7777 134.8961,244.6551 191,205.5679 C331.473,107.7013 879.7277,145.6608 1046.3761,159.7564" fill="none" style="stroke:#181818;stroke-width:1;stroke-dasharray:7,7;"/><text fill="#000000" font-family="sans-serif" font-size="13" lengthAdjust="spacing" textLength="59.059" x="559" y="136.4649">exporters</text></g><g class="link" data-entity-1="Prometheus" data-entity-2="Grafana" data-uid="lnk38" id="link_Prometheus_Grafana"><polygon fill="#181818" points="369.2921,289.011,359.5562,287.5235,364.4687,290.3283,361.6639,295.2409,369.2921,289.011" style="stroke:#181818;stroke-width:1;"/><path d="M140.1356,364.4314 C186.2283,347.8226 256.8943,322.9502 319,303.5679 C335.4249,298.442 347.9866,294.8299 363.504,290.5918" fill="none" style="stroke:#181818;stroke-width:1;"/></g><g class="link" data-entity-1="Prometheus" data-entity-2="Alerts" data-uid="lnk39" id="link_Prometheus_Alerts"><polygon fill="#181818" points="350.2398,617.1887,341.0847,613.5576,345.2439,617.3918,341.4097,621.551,350.2398,617.1887" style="stroke:#181818;stroke-width:1;"/><path d="M94.1739,402.3345 C102.9066,443.2691 128.9971,537.1903 191,581.5679 C237.2184,614.648 297.6857,619.3251 344.2447,617.4324" fill="none" style="stroke:#181818;stroke-width:1;"/><text fill="#000000" font-family="sans-serif" font-size="13" lengthAdjust="spacing" textLength="106.0411" x="193" y="576.4649">SLO / safety rules</text></g><g class="link" data-entity-1="Alerts" data-entity-2="OnCall" data-uid="lnk40" id="link_Alerts_OnCall"><polygon fill="#181818" points="737.8998,677.4877,729.8547,671.8064,732.9961,676.5108,728.2917,679.6522,737.8998,677.4877" style="stroke:#181818;stroke-width:1;"/><path d="M461.6596,622.4569 C535.522,637.1712 660.305,662.0297 732.0154,676.3154" fill="none" style="stroke:#181818;stroke-width:1;"/><text fill="#000000" font-family="sans-serif" font-size="13" lengthAdjust="spacing" textLength="30.615" x="573.5" y="628.4649">page</text></g><!--SRC=[VLJ1RXCn4BtxAuP8I22QSa0SoA5IcaD1ZSZIj492N1plxCQArrxiMMY4-7V6QwVP3GsNo9dtPcRdlR5Vj5xMZGGZzwuZ20sIj5AG9eDmhzKEgJ1TW2dSTXlq5Wa3tAD19lezI5l2WXFuEFTggmaLTHv5s6dRIYyRKAvfdKLBQzfpISy4QMk3mc15G0wyhhS4fOw8TbO8PLnNmgJeDaOhM3fPmhKqqYhq4v01bjT2M5SYJ0QVjE2F9FJmwXtCluNN4_WjuDWR9fzixJ44U0ltNbOL5rwtHXFbcXaUvwn9RlYJ2rU6x_R3-vT0ARNFIE0u8IkH4axu2Hlpxp2W_odZs3dfOp6VmQ9uW3TmLwpxn05fdFtPaURgAVshyplqXmgtijf5J-k-GiR6sQiMxT77XJE6zNT9ZHK3OtRX7HEts8MUSFmxfiqDUcfuqZhhsWU2-2D4ALam6TYrmWLYjTTVbgdMpG2xmrA7F3QVn8yEksXqdASFzoSnQ7d36dF37ipd8RpWNoyDhr6Tl5V8rZcFsKG-2Ha7ZpFg9jgtijE5D2OfOUDHYEKrJATNJsjosAOOorio0zwG4P2tOGOdyQ6XoQWOFPWqt8d4ZZgSHbaqaHjVNbxrXd4ZYkF57JUk3YBtFuiFQvubvSywJ-Y3IOUefJYkHfzp67m6GNdPuYd-fDxpy9E6pyF34Svn3XESmvC5Cy37rdcA5lpJX1tu7w6uEOT6NGvBUH9EDuCJryiLQnbaXRG7tnaC8cEHbXQGQItVgVZk4SB64Ra6N7LyLEOTHrW71PvlyaQg7VpQeWNqtlaB9XX9QDN-0dZJbRCLFwty-cxPcwqpPRp6-AWGIuuXX6HAl996MxmKoCzyRFqN]--></g></svg>