<svg xmlns="http://www.w3.org/2000/svg" xmlns:xlink="http://www.w3.org/1999/xlink" version="1.1" data-diagram-type="DESCRIPTION" style="width:1373px;height:1643px;background:#FFFFFF;" width="1373px" height="1643px" viewBox="0 0 1373 1643" zoomAndPan="magnify" preserveAspectRatio="none" contentStyleType="text/css"><?plantuml 1.2026.7beta6?><defs/><g font-family="sans-serif" lengthAdjust="spacing"><g class="title" data-source-line="1"><text x="562.932" y="22.995" fill="#000" font-size="14" textLength="240.386" font-weight="700">TicketPlus - Use Case Diagram</text></g><!--cluster TicketPlus Platform--><g class="cluster" data-qualified-name="TicketPlus Platform" id="ent0006" data-source-line="12"><rect x="166.28" y="44.297" width="1192.97" height="1478" fill="none" style="stroke:#181818;stroke-width:1;" rx="2.5" ry="2.5"/><text x="685.375" y="59.292" fill="#000" font-size="14" textLength="154.779" font-weight="700">TicketPlus Platform</text></g><!--cluster Event Discovery--><g class="cluster" data-qualified-name="TicketPlus Platform.Event Discovery" id="ent0007" data-source-line="14"><rect x="242.93" y="87.297" width="253.09" height="262" fill="none" style="stroke:#181818;stroke-width:1;" rx="2.5" ry="2.5"/><text x="305.955" y="102.292" fill="#000" font-size="14" textLength="127.039" font-weight="700">Event Discovery</text></g><!--cluster Booking Workflow--><g class="cluster" data-qualified-name="TicketPlus Platform.Booking Workflow" id="ent0011" data-source-line="20"><rect x="244.15" y="373.297" width="1057.7" height="247" fill="none" style="stroke:#181818;stroke-width:1;" rx="2.5" ry="2.5"/><text x="701.202" y="388.292" fill="#000" font-size="14" textLength="143.596" font-weight="700">Booking Workflow</text></g><!--cluster Checkout & Issuance--><g class="cluster" data-qualified-name="TicketPlus Platform.Checkout . Issuance" id="ent0017" data-source-line="28"><rect x="236.34" y="644.297" width="1098.91" height="186" fill="none" style="stroke:#181818;stroke-width:1;" rx="2.5" ry="2.5"/><text x="703.48" y="659.292" fill="#000" font-size="14" textLength="164.63" font-weight="700">Checkout &amp; Issuance</text></g><!--cluster Administrative Management--><g class="cluster" data-qualified-name="TicketPlus Platform.Administrative Management" id="ent0023" data-source-line="36"><rect x="190.28" y="854.297" width="358.39" height="447" fill="none" style="stroke:#181818;stroke-width:1;" rx="2.5" ry="2.5"/><text x="257.263" y="869.292" fill="#000" font-size="14" textLength="224.424" font-weight="700">Administrative Management</text></g><!--cluster Identity & Access--><g class="cluster" data-qualified-name="TicketPlus Platform.Identity . Access" id="ent0029" data-source-line="44"><rect x="231.93" y="1325.297" width="275.08" height="173" fill="none" style="stroke:#181818;stroke-width:1;" rx="2.5" ry="2.5"/><text x="300.694" y="1340.292" fill="#000" font-size="14" textLength="137.553" font-weight="700">Identity &amp; Access</text></g><!--entity UC1--><g class="entity" data-qualified-name="TicketPlus Platform.Event Discovery.UC1" id="ent0008" data-source-line="15"><ellipse cx="369.473" cy="145.301" rx="104.423" ry="23.285" fill="#F1F1F1" style="stroke:#181818;stroke-width:0.5;"/><text x="276.593" y="149.95" fill="#000" font-size="14" textLength="185.76">Search events by keyword</text></g><!--entity UC2--><g class="entity" data-qualified-name="TicketPlus Platform.Event Discovery.UC2" id="ent0009" data-source-line="16"><ellipse cx="369.474" cy="228.296" rx="110.544" ry="24.509" fill="#F1F1F1" style="stroke:#181818;stroke-width:0.5;"/><text x="269.946" y="232.944" fill="#000" font-size="14" textLength="199.056">Filter by genre/date/location</text></g><!--entity UC3--><g class="entity" data-qualified-name="TicketPlus Platform.Event Discovery.UC3" id="ent0010" data-source-line="17"><ellipse cx="369.47" cy="310.293" rx="100.73" ry="22.546" fill="#F1F1F1" style="stroke:#181818;stroke-width:0.5;"/><text x="280.637" y="314.941" fill="#000" font-size="14" textLength="177.666">View live seat availability</text></g><!--entity UC4--><g class="entity" data-qualified-name="TicketPlus Platform.Booking Workflow.UC4" id="ent0012" data-source-line="21"><ellipse cx="369.475" cy="431.294" rx="103.285" ry="23.057" fill="#F1F1F1" style="stroke:#181818;stroke-width:0.5;"/><text x="277.839" y="435.942" fill="#000" font-size="14" textLength="183.271">Enter virtual waiting room</text></g><!--entity UC5--><g class="entity" data-qualified-name="TicketPlus Platform.Booking Workflow.UC5" id="ent0013" data-source-line="22"><ellipse cx="369.474" cy="513.302" rx="109.324" ry="24.265" fill="#F1F1F1" style="stroke:#181818;stroke-width:0.5;"/><text x="271.266" y="517.95" fill="#000" font-size="14" textLength="196.417">View interactive venue map</text></g><!--entity UC6--><g class="entity" data-qualified-name="TicketPlus Platform.Booking Workflow.UC6" id="ent0014" data-source-line="23"><ellipse cx="369.466" cy="588.296" rx="65.896" ry="15.579" fill="#F1F1F1" style="stroke:#181818;stroke-width:0.5;"/><text x="321.55" y="592.945" fill="#000" font-size="14" textLength="95.833">Select seat(s)</text></g><!--entity UC7--><g class="entity" data-qualified-name="TicketPlus Platform.Booking Workflow.UC7" id="ent0015" data-source-line="24"><ellipse cx="775.712" cy="569.295" rx="116.042" ry="25.608" fill="#F1F1F1" style="stroke:#181818;stroke-width:0.5;"/><text x="670.267" y="573.944" fill="#000" font-size="14" textLength="210.889">Lock seat(s) temporarily (TTL)</text></g><!--entity UC8--><g class="entity" data-qualified-name="TicketPlus Platform.Booking Workflow.UC8" id="ent0016" data-source-line="25"><ellipse cx="1199.497" cy="569.296" rx="86.347" ry="19.669" fill="#F1F1F1" style="stroke:#181818;stroke-width:0.5;"/><text x="1126.787" y="573.945" fill="#000" font-size="14" textLength="145.421">Release expired lock</text></g><!--entity UC9--><g class="entity" data-qualified-name="TicketPlus Platform.Checkout . Issuance.UC9" id="ent0018" data-source-line="29"><ellipse cx="369.473" cy="705.293" rx="117.133" ry="25.827" fill="#F1F1F1" style="stroke:#181818;stroke-width:0.5;"/><text x="262.86" y="709.942" fill="#000" font-size="14" textLength="213.227">Checkout / pay for reservation</text></g><!--entity UC10--><g class="entity" data-qualified-name="TicketPlus Platform.Checkout . Issuance.UC10" id="ent0019" data-source-line="30"><ellipse cx="775.713" cy="758.301" rx="75.723" ry="17.545" fill="#F1F1F1" style="stroke:#181818;stroke-width:0.5;"/><text x="715.474" y="762.95" fill="#000" font-size="14" textLength="120.477">Process payment</text></g><!--entity UC11--><g class="entity" data-qualified-name="TicketPlus Platform.Checkout . Issuance.UC11" id="ent0020" data-source-line="31"><ellipse cx="1199.496" cy="790.298" rx="100.656" ry="22.531" fill="#F1F1F1" style="stroke:#181818;stroke-width:0.5;"/><text x="1110.745" y="794.946" fill="#000" font-size="14" textLength="177.502">Issue ticket with QR code</text></g><!--entity UC12--><g class="entity" data-qualified-name="TicketPlus Platform.Checkout . Issuance.UC12" id="ent0021" data-source-line="32"><ellipse cx="1199.502" cy="706.297" rx="119.752" ry="26.35" fill="#F1F1F1" style="stroke:#181818;stroke-width:0.5;"/><text x="1090.089" y="710.946" fill="#000" font-size="14" textLength="218.825">Roll back reservation on failure</text></g><!--entity UC13--><g class="entity" data-qualified-name="TicketPlus Platform.Checkout . Issuance.UC13" id="ent0022" data-source-line="33"><ellipse cx="369.466" cy="790.296" rx="110.446" ry="24.489" fill="#F1F1F1" style="stroke:#181818;stroke-width:0.5;"/><text x="270.044" y="794.945" fill="#000" font-size="14" textLength="198.844">Receive booking notification</text></g><!--entity UC14--><g class="entity" data-qualified-name="TicketPlus Platform.Administrative Management.UC14" id="ent0024" data-source-line="37"><ellipse cx="369.474" cy="924.296" rx="163.194" ry="35.039" fill="#F1F1F1" style="stroke:#181818;stroke-width:0.5;"/><text x="214.548" y="928.944" fill="#000" font-size="14" textLength="309.853">Configure venue layout (sectors/rows/seats)</text></g><!--entity UC15--><g class="entity" data-qualified-name="TicketPlus Platform.Administrative Management.UC15" id="ent0025" data-source-line="38"><ellipse cx="369.468" cy="1016.294" rx="96.138" ry="21.628" fill="#F1F1F1" style="stroke:#181818;stroke-width:0.5;"/><text x="285.714" y="1020.943" fill="#000" font-size="14" textLength="167.508">Create / schedule event</text></g><!--entity UC16--><g class="entity" data-qualified-name="TicketPlus Platform.Administrative Management.UC16" id="ent0026" data-source-line="39"><ellipse cx="369.47" cy="1092.293" rx="86.63" ry="19.726" fill="#F1F1F1" style="stroke:#181818;stroke-width:0.5;"/><text x="296.435" y="1096.941" fill="#000" font-size="14" textLength="146.07">Define pricing model</text></g><!--entity UC17--><g class="entity" data-qualified-name="TicketPlus Platform.Administrative Management.UC17" id="ent0027" data-source-line="40"><ellipse cx="369.468" cy="1172.292" rx="115.328" ry="25.466" fill="#F1F1F1" style="stroke:#181818;stroke-width:0.5;"/><text x="264.789" y="1176.941" fill="#000" font-size="14" textLength="209.357">Manage event lifecycle status</text></g><!--entity UC18--><g class="entity" data-qualified-name="TicketPlus Platform.Administrative Management.UC18" id="ent0028" data-source-line="41"><ellipse cx="369.467" cy="1259.294" rx="120.037" ry="26.407" fill="#F1F1F1" style="stroke:#181818;stroke-width:0.5;"/><text x="259.75" y="1263.943" fill="#000" font-size="14" textLength="219.434">View sales analytics dashboard</text></g><!--entity UC19--><g class="entity" data-qualified-name="TicketPlus Platform.Identity . Access.UC19" id="ent0030" data-source-line="45"><ellipse cx="369.467" cy="1377.298" rx="71.407" ry="16.681" fill="#F1F1F1" style="stroke:#181818;stroke-width:0.5;"/><text x="314.516" y="1381.947" fill="#000" font-size="14" textLength="109.901">Register / Login</text></g><!--entity UC20--><g class="entity" data-qualified-name="TicketPlus Platform.Identity . Access.UC20" id="ent0031" data-source-line="46"><ellipse cx="369.471" cy="1455.295" rx="121.541" ry="26.708" fill="#F1F1F1" style="stroke:#181818;stroke-width:0.5;"/><text x="258.151" y="1459.944" fill="#000" font-size="14" textLength="222.64">Manage role-based permissions</text></g><!--entity Buyer--><g class="entity" data-qualified-name="Buyer" id="ent0001" data-source-line="6"><ellipse cx="62.636" cy="483.647" rx="8" ry="8" fill="#F1F1F1" style="stroke:#181818;stroke-width:0.5;"/><path d="M62.636,491.647 L62.636,518.647 M49.636,499.647 L75.636,499.647 M62.636,518.647 L49.636,533.647 M62.636,518.647 L75.636,533.647" style="stroke:#181818;stroke-width:0.5;" fill="none"/><text x="42.07" y="548.142" fill="#000" font-size="14" textLength="41.132">Buyer</text></g><!--entity Organizer--><g class="entity" data-qualified-name="Organizer" id="ent0002" data-source-line="7"><ellipse cx="62.639" cy="1102.647" rx="8" ry="8" fill="#F1F1F1" style="stroke:#181818;stroke-width:0.5;"/><path d="M62.639,1110.647 L62.639,1137.647 M49.639,1118.647 L75.639,1118.647 M62.639,1137.647 L49.639,1152.647 M62.639,1137.647 L75.639,1152.647" style="stroke:#181818;stroke-width:0.5;" fill="none"/><text x="6" y="1167.142" fill="#000" font-size="14" textLength="113.278">Event Organizer</text></g><!--entity Admin--><g class="entity" data-qualified-name="Admin" id="ent0003" data-source-line="8"><ellipse cx="62.64" cy="1347.647" rx="8" ry="8" fill="#F1F1F1" style="stroke:#181818;stroke-width:0.5;"/><path d="M62.64,1355.647 L62.64,1382.647 M49.64,1363.647 L75.64,1363.647 M62.64,1382.647 L49.64,1397.647 M62.64,1382.647 L75.64,1397.647" style="stroke:#181818;stroke-width:0.5;" fill="none"/><text x="11.88" y="1412.142" fill="#000" font-size="14" textLength="101.521">System Admin</text></g><!--entity PG--><g class="entity" data-qualified-name="PG" id="ent0004" data-source-line="9"><ellipse cx="1199.497" cy="1562.804" rx="8" ry="8" fill="#F1F1F1" style="stroke:#181818;stroke-width:0.5;"/><path d="M1199.497,1570.804 L1199.497,1597.804 M1186.497,1578.804 L1212.497,1578.804 M1199.497,1597.804 L1186.497,1612.804 M1199.497,1597.804 L1212.497,1612.804" style="stroke:#181818;stroke-width:0.5;" fill="none"/><text x="1135.39" y="1627.299" fill="#000" font-size="14" textLength="128.215">Payment Gateway</text><text x="1161.883" y="1551.002" fill="#000" font-size="14" textLength="75.229" font-style="italic">«external»</text></g><!--entity NP--><g class="entity" data-qualified-name="NP" id="ent0005" data-source-line="10"><ellipse cx="775.707" cy="1562.804" rx="8" ry="8" fill="#F1F1F1" style="stroke:#181818;stroke-width:0.5;"/><path d="M775.707,1570.804 L775.707,1597.804 M762.707,1578.804 L788.707,1578.804 M775.707,1597.804 L762.707,1612.804 M775.707,1597.804 L788.707,1612.804" style="stroke:#181818;stroke-width:0.5;" fill="none"/><text x="704.22" y="1627.299" fill="#000" font-size="14" textLength="142.974">Notification Provider</text><text x="738.092" y="1551.002" fill="#000" font-size="14" textLength="75.229" font-style="italic">«external»</text></g><!--link Buyer to UC1--><g class="link" data-entity-1="ent0001" data-entity-2="ent0008" id="lnk32" data-source-line="50" data-link-type="dependency"><path d="M62.74,474.687 C63.39,405.877 75.31,262.187 158.28,186.297 C186.95,160.077 222.277,149.033 259.917,144.433" style="stroke:#181818;stroke-width:1;" fill="none" id="Buyer-to-UC1"/><polygon points="264.88,143.827,255.461,140.948,259.917,144.433,256.432,148.889,264.88,143.827" fill="#181818" style="stroke:#181818;stroke-width:1;stroke-linejoin:miter;stroke-miterlimit:10;"/></g><!--link Buyer to UC2--><g class="link" data-entity-1="ent0001" data-entity-2="ent0009" id="lnk33" data-source-line="51" data-link-type="dependency"><path d="M67.33,474.717 C74.67,420.447 96.21,322.407 158.28,270.297 C186.14,246.917 218.429,236.031 253.809,230.561" style="stroke:#181818;stroke-width:1;" fill="none" id="Buyer-to-UC2"/><polygon points="258.75,229.797,249.245,227.219,253.809,230.561,250.467,235.125,258.75,229.797" fill="#181818" style="stroke:#181818;stroke-width:1;stroke-linejoin:miter;stroke-miterlimit:10;"/></g><!--link Buyer to UC3--><g class="link" data-entity-1="ent0001" data-entity-2="ent0010" id="lnk34" data-source-line="52" data-link-type="dependency"><path d="M83.56,478.627 C100.47,451.877 126.93,415.617 158.28,392.297 C200.55,360.857 251.636,341.236 295.146,328.356" style="stroke:#181818;stroke-width:1;" fill="none" id="Buyer-to-UC3"/><polygon points="299.94,326.937,290.175,325.656,295.146,328.356,292.446,333.327,299.94,326.937" fill="#181818" style="stroke:#181818;stroke-width:1;stroke-linejoin:miter;stroke-miterlimit:10;"/></g><!--link Buyer to UC4--><g class="link" data-entity-1="ent0001" data-entity-2="ent0012" id="lnk35" data-source-line="53" data-link-type="dependency"><path d="M83.43,502.907 C102.22,493.427 131.51,479.667 158.28,471.297 C197.72,458.977 237.65,450.639 275.77,444.209" style="stroke:#181818;stroke-width:1;" fill="none" id="Buyer-to-UC4"/><polygon points="280.7,443.377,271.16,440.93,275.77,444.209,272.491,448.818,280.7,443.377" fill="#181818" style="stroke:#181818;stroke-width:1;stroke-linejoin:miter;stroke-miterlimit:10;"/></g><!--link Buyer to UC5--><g class="link" data-entity-1="ent0001" data-entity-2="ent0013" id="lnk36" data-source-line="54" data-link-type="dependency"><path d="M83.64,513.297 C119.07,513.297 190.23,513.297 254.89,513.297" style="stroke:#181818;stroke-width:1;" fill="none" id="Buyer-to-UC5"/><polygon points="259.89,513.297,250.89,509.297,254.89,513.297,250.89,517.297,259.89,513.297" fill="#181818" style="stroke:#181818;stroke-width:1;stroke-linejoin:miter;stroke-miterlimit:10;"/></g><!--link Buyer to UC6--><g class="link" data-entity-1="ent0001" data-entity-2="ent0014" id="lnk37" data-source-line="55" data-link-type="dependency"><path d="M83.37,523.887 C102.12,533.507 131.38,547.367 158.28,555.297 C207.35,569.767 259.881,577.683 302.321,582.413" style="stroke:#181818;stroke-width:1;" fill="none" id="Buyer-to-UC6"/><polygon points="307.29,582.967,298.788,577.995,302.321,582.413,297.902,585.945,307.29,582.967" fill="#181818" style="stroke:#181818;stroke-width:1;stroke-linejoin:miter;stroke-miterlimit:10;"/></g><!--link Buyer to UC9--><g class="link" data-entity-1="ent0001" data-entity-2="ent0018" id="lnk38" data-source-line="56" data-link-type="dependency"><path d="M83.61,542.567 C101,566.217 128.11,598.967 158.28,620.297 C199.74,649.617 248.041,669.402 290.471,683.382" style="stroke:#181818;stroke-width:1;" fill="none" id="Buyer-to-UC9"/><polygon points="295.22,684.947,287.924,678.331,290.471,683.382,285.42,685.93,295.22,684.947" fill="#181818" style="stroke:#181818;stroke-width:1;stroke-linejoin:miter;stroke-miterlimit:10;"/></g><!--link Buyer to UC13--><g class="link" data-entity-1="ent0001" data-entity-2="ent0022" id="lnk39" data-source-line="57" data-link-type="dependency"><path d="M67.86,551.527 C75.81,604.227 98.03,698.307 158.28,748.297 C186.27,771.527 218.599,782.371 253.969,787.851" style="stroke:#181818;stroke-width:1;" fill="none" id="Buyer-to-UC13"/><polygon points="258.91,788.617,250.629,783.286,253.969,787.851,249.404,791.192,258.91,788.617" fill="#181818" style="stroke:#181818;stroke-width:1;stroke-linejoin:miter;stroke-miterlimit:10;"/></g><!--link Buyer to UC19--><g class="link" data-entity-1="ent0001" data-entity-2="ent0030" id="lnk40" data-source-line="58" data-link-type="dependency"><path d="M67.71,551.827 C84.3,708.007 146.41,1286.377 158.28,1301.297 C192.93,1344.887 249.848,1362.666 297.518,1370.596" style="stroke:#181818;stroke-width:1;" fill="none" id="Buyer-to-UC19"/><polygon points="302.45,1371.417,294.228,1365.994,297.518,1370.596,292.916,1373.886,302.45,1371.417" fill="#181818" style="stroke:#181818;stroke-width:1;stroke-linejoin:miter;stroke-miterlimit:10;"/></g><!--link UC6 to UC7--><g class="link" data-entity-1="ent0014" data-entity-2="ent0015" id="lnk41" data-source-line="60" data-link-type="dependency"><path d="M434.52,585.287 C495.41,582.427 583.325,578.291 656.675,574.851" style="stroke:#181818;stroke-width:1;stroke-dasharray:7,7;" fill="none" id="UC6-to-UC7"/><polygon points="661.67,574.617,652.492,571.043,656.675,574.851,652.867,579.034,661.67,574.617" fill="#181818" style="stroke:#181818;stroke-width:1;stroke-linejoin:miter;stroke-miterlimit:10;"/><text x="565.67" y="573.364" fill="#000" font-size="13" textLength="63.007">«include»</text></g><!--link UC7 to UC8--><g class="link" data-entity-1="ent0015" data-entity-2="ent0016" id="lnk42" data-source-line="61" data-link-type="dependency"><path d="M892.24,569.297 C962,569.297 1044.39,569.297 1107.94,569.297" style="stroke:#181818;stroke-width:1;stroke-dasharray:7,7;" fill="none" id="UC7-to-UC8"/><polygon points="1112.94,569.297,1103.94,565.297,1107.94,569.297,1103.94,573.297,1112.94,569.297" fill="#181818" style="stroke:#181818;stroke-width:1;stroke-linejoin:miter;stroke-miterlimit:10;"/><text x="955.25" y="565.364" fill="#000" font-size="13" textLength="61.185">«extend»</text></g><!--link UC9 to UC10--><g class="link" data-entity-1="ent0018" data-entity-2="ent0019" id="lnk43" data-source-line="62" data-link-type="dependency"><path d="M471.17,718.507 C545.54,728.257 639.662,740.597 704.072,749.037" style="stroke:#181818;stroke-width:1;stroke-dasharray:7,7;" fill="none" id="UC9-to-UC10"/><polygon points="709.03,749.687,700.626,744.551,704.072,749.037,699.587,752.484,709.03,749.687" fill="#181818" style="stroke:#181818;stroke-width:1;stroke-linejoin:miter;stroke-miterlimit:10;"/><text x="565.67" y="728.364" fill="#000" font-size="13" textLength="63.007">«include»</text></g><!--link UC10 to UC11--><g class="link" data-entity-1="ent0019" data-entity-2="ent0020" id="lnk44" data-source-line="63" data-link-type="dependency"><path d="M843.43,766.397 C868.02,769.187 896.13,772.147 921.75,774.297 C980.98,779.277 1042.476,782.922 1095.436,785.622" style="stroke:#181818;stroke-width:1;stroke-dasharray:7,7;" fill="none" id="UC10-to-UC11"/><polygon points="1100.43,785.877,1091.645,781.424,1095.436,785.622,1091.238,789.413,1100.43,785.877" fill="#181818" style="stroke:#181818;stroke-width:1;stroke-linejoin:miter;stroke-miterlimit:10;"/><text x="954.25" y="770.364" fill="#000" font-size="13" textLength="63.007">«include»</text></g><!--link UC10 to UC12--><g class="link" data-entity-1="ent0019" data-entity-2="ent0021" id="lnk45" data-source-line="64" data-link-type="dependency"><path d="M843.08,750.117 C910.47,741.807 1010.848,729.439 1089.378,719.749" style="stroke:#181818;stroke-width:1;stroke-dasharray:7,7;" fill="none" id="UC10-to-UC12"/><polygon points="1094.34,719.137,1084.918,716.269,1089.378,719.749,1085.898,724.209,1094.34,719.137" fill="#181818" style="stroke:#181818;stroke-width:1;stroke-linejoin:miter;stroke-miterlimit:10;"/><text x="955.586" y="707.364" fill="#000" font-size="13" textLength="61.185">«extend»</text><text x="922.75" y="722.497" fill="#000" font-size="13" textLength="126.858">(on failure/timeout)</text></g><!--link Organizer to UC14--><g class="link" data-entity-1="ent0002" data-entity-2="ent0024" id="lnk46" data-source-line="66" data-link-type="dependency"><path d="M77.27,1093.857 C91.86,1058.307 118.42,1006.657 158.28,977.297 C179.41,961.737 199.859,952.179 225.369,944.379" style="stroke:#181818;stroke-width:1;" fill="none" id="Organizer-to-UC14"/><polygon points="230.15,942.917,220.374,941.723,225.369,944.379,222.713,949.374,230.15,942.917" fill="#181818" style="stroke:#181818;stroke-width:1;stroke-linejoin:miter;stroke-miterlimit:10;"/></g><!--link Organizer to UC15--><g class="link" data-entity-1="ent0002" data-entity-2="ent0025" id="lnk47" data-source-line="67" data-link-type="dependency"><path d="M102.05,1093.677 C118.17,1079.547 137.9,1064.727 158.28,1055.297 C195.42,1038.127 234.599,1029.204 272.819,1023.824" style="stroke:#181818;stroke-width:1;" fill="none" id="Organizer-to-UC15"/><polygon points="277.77,1023.127,268.3,1020.42,272.819,1023.824,269.415,1028.342,277.77,1023.127" fill="#181818" style="stroke:#181818;stroke-width:1;stroke-linejoin:miter;stroke-miterlimit:10;"/></g><!--link Organizer to UC16--><g class="link" data-entity-1="ent0002" data-entity-2="ent0026" id="lnk48" data-source-line="68" data-link-type="dependency"><path d="M119.55,1124.967 C168.36,1118.557 234.652,1109.857 288.432,1102.807" style="stroke:#181818;stroke-width:1;" fill="none" id="Organizer-to-UC16"/><polygon points="293.39,1102.157,283.946,1099.361,288.432,1102.807,284.986,1107.293,293.39,1102.157" fill="#181818" style="stroke:#181818;stroke-width:1;stroke-linejoin:miter;stroke-miterlimit:10;"/></g><!--link Organizer to UC17--><g class="link" data-entity-1="ent0002" data-entity-2="ent0027" id="lnk49" data-source-line="69" data-link-type="dependency"><path d="M119.55,1139.637 C161.4,1145.127 214.793,1152.136 264.473,1158.656" style="stroke:#181818;stroke-width:1;" fill="none" id="Organizer-to-UC17"/><polygon points="269.43,1159.307,261.027,1154.17,264.473,1158.656,259.986,1162.102,269.43,1159.307" fill="#181818" style="stroke:#181818;stroke-width:1;stroke-linejoin:miter;stroke-miterlimit:10;"/></g><!--link Organizer to UC18--><g class="link" data-entity-1="ent0002" data-entity-2="ent0028" id="lnk50" data-source-line="70" data-link-type="dependency"><path d="M98.56,1170.737 C115.16,1186.807 136.19,1204.267 158.28,1215.297 C189.88,1231.087 221.979,1240.27 256.049,1246.77" style="stroke:#181818;stroke-width:1;" fill="none" id="Organizer-to-UC18"/><polygon points="260.96,1247.707,252.869,1242.091,256.049,1246.77,251.37,1249.949,260.96,1247.707" fill="#181818" style="stroke:#181818;stroke-width:1;stroke-linejoin:miter;stroke-miterlimit:10;"/></g><!--link Organizer to UC19--><g class="link" data-entity-1="ent0002" data-entity-2="ent0030" id="lnk51" data-source-line="71" data-link-type="dependency"><path d="M76.14,1170.727 C90.37,1208.817 117.12,1266.377 158.28,1301.297 C201.77,1338.207 259.735,1356.719 305.375,1366.699" style="stroke:#181818;stroke-width:1;" fill="none" id="Organizer-to-UC19"/><polygon points="310.26,1367.767,302.322,1361.937,305.375,1366.699,300.613,1369.752,310.26,1367.767" fill="#181818" style="stroke:#181818;stroke-width:1;stroke-linejoin:miter;stroke-miterlimit:10;"/></g><!--link Admin to UC20--><g class="link" data-entity-1="ent0003" data-entity-2="ent0031" id="lnk52" data-source-line="73" data-link-type="dependency"><path d="M113.81,1396.787 C128.05,1401.917 143.66,1407.167 158.28,1411.297 C195.68,1421.877 232.577,1430.159 268.987,1437.419" style="stroke:#181818;stroke-width:1;" fill="none" id="Admin-to-UC20"/><polygon points="273.89,1438.397,265.846,1432.714,268.987,1437.419,264.282,1440.56,273.89,1438.397" fill="#181818" style="stroke:#181818;stroke-width:1;stroke-linejoin:miter;stroke-miterlimit:10;"/></g><!--link Admin to UC19--><g class="link" data-entity-1="ent0003" data-entity-2="ent0030" id="lnk53" data-source-line="74" data-link-type="dependency"><path d="M113.63,1377.297 C163.72,1377.297 236.25,1377.297 292.65,1377.297" style="stroke:#181818;stroke-width:1;" fill="none" id="Admin-to-UC19"/><polygon points="297.65,1377.297,288.65,1373.297,292.65,1377.297,288.65,1381.297,297.65,1377.297" fill="#181818" style="stroke:#181818;stroke-width:1;stroke-linejoin:miter;stroke-miterlimit:10;"/></g><!--link Admin to UC18--><g class="link" data-entity-1="ent0003" data-entity-2="ent0028" id="lnk54" data-source-line="75" data-link-type="dependency"><path d="M113.63,1357.947 C167.09,1337.257 247.177,1306.252 304.097,1284.222" style="stroke:#181818;stroke-width:1;" fill="none" id="Admin-to-UC18"/><polygon points="308.76,1282.417,298.923,1281.935,304.097,1284.222,301.81,1289.396,308.76,1282.417" fill="#181818" style="stroke:#181818;stroke-width:1;stroke-linejoin:miter;stroke-miterlimit:10;"/></g><!--link UC10 to PG--><g class="link" data-entity-1="ent0019" data-entity-2="ent0004" id="lnk55" data-source-line="77" data-link-type="dependency"><path d="M785.71,775.937 C837.17,876.707 1092.236,1376.194 1172.366,1533.124" style="stroke:#181818;stroke-width:1;" fill="none" id="UC10-to-PG"/><polygon points="1174.64,1537.577,1174.11,1527.742,1172.366,1533.124,1166.985,1531.38,1174.64,1537.577" fill="#181818" style="stroke:#181818;stroke-width:1;stroke-linejoin:miter;stroke-miterlimit:10;"/></g><!--link UC13 to NP--><g class="link" data-entity-1="ent0022" data-entity-2="ent0005" id="lnk56" data-source-line="78" data-link-type="dependency"><path d="M446.59,808.137 C484.42,820.597 528.05,840.967 556.67,873.297 C733.58,1073.187 766.706,1408.963 772.996,1532.683" style="stroke:#181818;stroke-width:1;" fill="none" id="UC13-to-NP"/><polygon points="773.25,1537.677,776.788,1528.485,772.996,1532.683,768.798,1528.892,773.25,1537.677" fill="#181818" style="stroke:#181818;stroke-width:1;stroke-linejoin:miter;stroke-miterlimit:10;"/></g><?plantuml-src VLLDRnCn4BtlhnZbWCgXf4s_KLMfj50XbHBQ0XSk4-zaOyLhHxOtOK7yTyREEiJPYYYAF3FlsS_puNZf5S6p57FoOzKus8UlZk06-UTMOcMnBWf5Km_UW9NLp4CfBGalZIxSNEe5CWGMAEPOqPDlURSGBWeKtbWOl6jQiWD01t6LtE-Nf3ryjXLg-Qi3RAm4UcgTfngkorhgY8Yh51rZMuTDxj3J2ji86D_1vINzz6Grggkh17qmNawbmA0QnjOiPTcT-J3E2KKGZxhYQmosiZ9MwAV6rWFuNHIGhfkkSIkTC4koRGW3Vnf78cHmy4HenGmem1nCMfXJkpAsZ6T_lJdCqH-aOY41Lf6sD2pvPaDbrhexoYYdV9Eq0YMN18xG0ovHAfn89NtR4OwOy2SJ_SuOBbm5tusTJvLPzLI_rq76KbhVe88LIX_WrfYws_Fu1H4oa3ZVGGjVjo6eST7XJtQpeZZBKV6UUzrXJdFClH7pX03kWeMnQALgOU_v-JvnpdBE8-yR5lHpmJrQ0gTktY7FUrcucP6OcyR3A_ZeN8DQK2yH6yoGUIrm1t1pExBBxOfSv1nkBq7E1K9eprJfWnmLZYJmiSDW9VqClZo2C2Kb_4vhF1gbOCBQjmK0VwTSyCPkQAFTZ0WA1Pbq9TTRWv0e_GQ9OoQTjnYh-GarkzUNsKsGqLDPyVbToHMs8Lrx7EV1SqDhLcuOghWfy-5ExznOZX8ds8aPbGtFNHoMXDxfd5kQIasmi5A4wzISC9MWEmsqLhtUZITaIg8LlBlpw1kNE6SlDB93HGwOhLgkZuCItMnYyD_GzdlfOyc7yCXnBrsBKFrUeXwfueJoL0tXtbHoa_oB5qLResX_mfuI5cHhwHpNAuaU7SJpMK5yKM5__oe-9TlMABEECkiuiquowpIpBl8JycrOUi44UFCcM6VmbXzIgOLgIk9tD7ZMaVCO2K-iBcFWeWiS7lGuxEfYX_-9ZR8TV-YzVsCmzB8cxi3NHR7vDqbwZ_kkaxxhjEywwxlE-ovEHvoRL863pEHmPfuNwoi5StmNraTn_J3-2m00?></g></svg>