<svg xmlns="http://www.w3.org/2000/svg" xmlns:xlink="http://www.w3.org/1999/xlink" version="1.1" data-diagram-type="SEQUENCE" style="width:1872px;height:1842px;background:#FFFFFF;" width="1872px" height="1842px" viewBox="0 0 1872 1842" zoomAndPan="magnify" preserveAspectRatio="none" contentStyleType="text/css"><?plantuml 1.2026.7beta6?><defs/><g font-family="sans-serif" lengthAdjust="spacing"><g class="title" data-source-line="1"><text x="740.768" y="27.995" fill="#000" font-size="14" textLength="389.259" font-weight="700">TicketPlus - End-to-End Booking Flow (Sequence)</text></g><g><title>Buyer</title><rect x="30.066" y="125.891" width="8" height="1627.383" fill="#000" fill-opacity="0"/><line x1="33.566" y1="125.891" x2="33.566" y2="1753.273" style="stroke:#181818;stroke-width:0.5;stroke-dasharray:5,5;"/></g><g><title>API Gateway</title><rect x="298.768" y="125.891" width="8" height="1627.383" fill="#000" fill-opacity="0"/><line x1="302.268" y1="125.891" x2="302.268" y2="1753.273" style="stroke:#181818;stroke-width:0.5;stroke-dasharray:5,5;"/></g><g><title>Waiting Room</title><rect x="489.705" y="125.891" width="8" height="1627.383" fill="#000" fill-opacity="0"/><line x1="493.205" y1="125.891" x2="493.205" y2="1753.273" style="stroke:#181818;stroke-width:0.5;stroke-dasharray:5,5;"/></g><g><title>Event Catalog</title><rect x="613.958" y="125.891" width="8" height="1627.383" fill="#000" fill-opacity="0"/><line x1="617.458" y1="125.891" x2="617.458" y2="1753.273" style="stroke:#181818;stroke-width:0.5;stroke-dasharray:5,5;"/></g><g><title>Reservation Engine</title><rect x="755.177" y="125.891" width="8" height="1627.383" fill="#000" fill-opacity="0"/><line x1="758.677" y1="125.891" x2="758.677" y2="1753.273" style="stroke:#181818;stroke-width:0.5;stroke-dasharray:5,5;"/></g><g><title>Redis</title><rect x="978.677" y="125.891" width="8" height="1627.383" fill="#000" fill-opacity="0"/><line x1="982.177" y1="125.891" x2="982.177" y2="1753.273" style="stroke:#181818;stroke-width:0.5;stroke-dasharray:5,5;"/></g><g><title>Billing . Checkout</title><rect x="1100.396" y="125.891" width="8" height="1627.383" fill="#000" fill-opacity="0"/><line x1="1103.896" y1="125.891" x2="1103.896" y2="1753.273" style="stroke:#181818;stroke-width:0.5;stroke-dasharray:5,5;"/></g><g><title>Payment Gateway</title><rect x="1347.034" y="125.891" width="8" height="1627.383" fill="#000" fill-opacity="0"/><line x1="1350.534" y1="125.891" x2="1350.534" y2="1753.273" style="stroke:#181818;stroke-width:0.5;stroke-dasharray:5,5;"/></g><g><title>PostgreSQL</title><rect x="1471.518" y="125.891" width="8" height="1627.383" fill="#000" fill-opacity="0"/><line x1="1475.018" y1="125.891" x2="1475.018" y2="1753.273" style="stroke:#181818;stroke-width:0.5;stroke-dasharray:5,5;"/></g><g><title>Notification Service</title><rect x="1600.154" y="125.891" width="8" height="1627.383" fill="#000" fill-opacity="0"/><line x1="1603.654" y1="125.891" x2="1603.654" y2="1753.273" style="stroke:#181818;stroke-width:0.5;stroke-dasharray:5,5;"/></g><g><title>Message Broker</title><rect x="1792.189" y="125.891" width="8" height="1627.383" fill="#000" fill-opacity="0"/><line x1="1795.689" y1="125.891" x2="1795.689" y2="1753.273" style="stroke:#181818;stroke-width:0.5;stroke-dasharray:5,5;"/></g><text x="10" y="122.589" fill="#000" font-size="14" textLength="41.132">Buyer</text><ellipse cx="33.566" cy="58.094" rx="8" ry="8" fill="#E2E2F0" style="stroke:#181818;stroke-width:0.5;"/><path d="M33.566,66.094 L33.566,93.094 M20.566,74.094 L46.566,74.094 M33.566,93.094 L20.566,108.094 M33.566,93.094 L46.566,108.094" style="stroke:#181818;stroke-width:0.5;" fill="none"/><rect x="251.046" y="94.594" width="102.443" height="30.297" fill="#E2E2F0" style="stroke:#181818;stroke-width:0.5;" rx="2.5" ry="2.5"/><text x="258.046" y="114.589" fill="#000" font-size="14" textLength="88.443">API Gateway</text><rect x="435.113" y="78.297" width="116.184" height="46.594" fill="#E2E2F0" style="stroke:#181818;stroke-width:0.5;" rx="2.5" ry="2.5"/><text x="444.007" y="98.292" fill="#000" font-size="14" textLength="98.396">Waiting Room</text><text x="442.113" y="114.589" fill="#000" font-size="14" textLength="102.184">Queue Service</text><rect x="561.297" y="78.297" width="112.321" height="46.594" fill="#E2E2F0" style="stroke:#181818;stroke-width:0.5;" rx="2.5" ry="2.5"/><text x="568.297" y="98.292" fill="#000" font-size="14" textLength="98.321">Event Catalog</text><text x="591.587" y="114.589" fill="#000" font-size="14" textLength="51.741">Service</text><rect x="683.618" y="94.594" width="150.117" height="30.297" fill="#E2E2F0" style="stroke:#181818;stroke-width:0.5;" rx="2.5" ry="2.5"/><text x="690.618" y="114.589" fill="#000" font-size="14" textLength="136.117">Reservation Engine</text><text x="959.972" y="106.292" fill="#000" font-size="14" textLength="38.411">Redis</text><text x="938.726" y="122.589" fill="#000" font-size="14" textLength="80.903">(seat locks)</text><path d="M964.177,57.297 C964.177,47.297 982.177,47.297 982.177,47.297 C982.177,47.297 1000.177,47.297 1000.177,57.297 L1000.177,83.297 C1000.177,93.297 982.177,93.297 982.177,93.297 C982.177,93.297 964.177,93.297 964.177,83.297 L964.177,57.297" style="stroke:#181818;stroke-width:0.5;" fill="#E2E2F0"/><path d="M964.177,57.297 C964.177,67.297 982.177,67.297 982.177,67.297 C982.177,67.297 1000.177,67.297 1000.177,57.297" style="stroke:#181818;stroke-width:0.5;" fill="none"/><rect x="1035.629" y="78.297" width="136.534" height="46.594" fill="#E2E2F0" style="stroke:#181818;stroke-width:0.5;" rx="2.5" ry="2.5"/><text x="1042.629" y="98.292" fill="#000" font-size="14" textLength="122.534">Billing / Checkout</text><text x="1078.025" y="114.589" fill="#000" font-size="14" textLength="51.741">Service</text><rect x="1279.426" y="94.594" width="142.215" height="30.297" fill="#E2E2F0" style="stroke:#181818;stroke-width:0.5;" rx="2.5" ry="2.5"/><text x="1286.426" y="114.589" fill="#000" font-size="14" textLength="128.215">Payment Gateway</text><text x="1431.641" y="122.589" fill="#000" font-size="14" textLength="80.753">PostgreSQL</text><path d="M1457.018,73.594 C1457.018,63.594 1475.018,63.594 1475.018,63.594 C1475.018,63.594 1493.018,63.594 1493.018,73.594 L1493.018,99.594 C1493.018,109.594 1475.018,109.594 1475.018,109.594 C1475.018,109.594 1457.018,109.594 1457.018,99.594 L1457.018,73.594" style="stroke:#181818;stroke-width:0.5;" fill="#E2E2F0"/><path d="M1457.018,73.594 C1457.018,83.594 1475.018,83.594 1475.018,83.594 C1475.018,83.594 1493.018,83.594 1493.018,73.594" style="stroke:#181818;stroke-width:0.5;" fill="none"/><rect x="1528.394" y="94.594" width="150.521" height="30.297" fill="#E2E2F0" style="stroke:#181818;stroke-width:0.5;" rx="2.5" ry="2.5"/><text x="1535.394" y="114.589" fill="#000" font-size="14" textLength="136.521">Notification Service</text><path d="M1734.583,83.297 L1856.795,83.297 C1861.795,83.297 1861.795,104.594 1861.795,104.594 C1861.795,104.594 1861.795,125.891 1856.795,125.891 L1734.583,125.891 C1729.583,125.891 1729.583,104.594 1729.583,104.594 C1729.583,104.594 1729.583,83.297 1734.583,83.297" style="stroke:#181818;stroke-width:0.5;" fill="#E2E2F0"/><path d="M1856.795,83.297 C1851.795,83.297 1851.795,104.594 1851.795,104.594 C1851.795,125.891 1856.795,125.891 1856.795,125.891" style="stroke:#181818;stroke-width:0.5;" fill="none"/><text x="1734.583" y="101.292" fill="#000" font-size="14" textLength="112.212">Message Broker</text><text x="1765.54" y="117.589" fill="#000" font-size="14" textLength="50.299">(Kafka)</text><text x="10" y="1766.269" fill="#000" font-size="14" textLength="41.132">Buyer</text><ellipse cx="33.566" cy="1778.07" rx="8" ry="8" fill="#E2E2F0" style="stroke:#181818;stroke-width:0.5;"/><path d="M33.566,1786.07 L33.566,1813.07 M20.566,1794.07 L46.566,1794.07 M33.566,1813.07 L20.566,1828.07 M33.566,1813.07 L46.566,1828.07" style="stroke:#181818;stroke-width:0.5;" fill="none"/><rect x="251.046" y="1753.273" width="102.443" height="30.297" fill="#E2E2F0" style="stroke:#181818;stroke-width:0.5;" rx="2.5" ry="2.5"/><text x="258.046" y="1773.269" fill="#000" font-size="14" textLength="88.443">API Gateway</text><rect x="435.113" y="1753.273" width="116.184" height="46.594" fill="#E2E2F0" style="stroke:#181818;stroke-width:0.5;" rx="2.5" ry="2.5"/><text x="444.007" y="1773.269" fill="#000" font-size="14" textLength="98.396">Waiting Room</text><text x="442.113" y="1789.565" fill="#000" font-size="14" textLength="102.184">Queue Service</text><rect x="561.297" y="1753.273" width="112.321" height="46.594" fill="#E2E2F0" style="stroke:#181818;stroke-width:0.5;" rx="2.5" ry="2.5"/><text x="568.297" y="1773.269" fill="#000" font-size="14" textLength="98.321">Event Catalog</text><text x="591.587" y="1789.565" fill="#000" font-size="14" textLength="51.741">Service</text><rect x="683.618" y="1753.273" width="150.117" height="30.297" fill="#E2E2F0" style="stroke:#181818;stroke-width:0.5;" rx="2.5" ry="2.5"/><text x="690.618" y="1773.269" fill="#000" font-size="14" textLength="136.117">Reservation Engine</text><text x="959.972" y="1766.269" fill="#000" font-size="14" textLength="38.411">Redis</text><text x="938.726" y="1782.565" fill="#000" font-size="14" textLength="80.903">(seat locks)</text><path d="M964.177,1795.867 C964.177,1785.867 982.177,1785.867 982.177,1785.867 C982.177,1785.867 1000.177,1785.867 1000.177,1795.867 L1000.177,1821.867 C1000.177,1831.867 982.177,1831.867 982.177,1831.867 C982.177,1831.867 964.177,1831.867 964.177,1821.867 L964.177,1795.867" style="stroke:#181818;stroke-width:0.5;" fill="#E2E2F0"/><path d="M964.177,1795.867 C964.177,1805.867 982.177,1805.867 982.177,1805.867 C982.177,1805.867 1000.177,1805.867 1000.177,1795.867" style="stroke:#181818;stroke-width:0.5;" fill="none"/><rect x="1035.629" y="1753.273" width="136.534" height="46.594" fill="#E2E2F0" style="stroke:#181818;stroke-width:0.5;" rx="2.5" ry="2.5"/><text x="1042.629" y="1773.269" fill="#000" font-size="14" textLength="122.534">Billing / Checkout</text><text x="1078.025" y="1789.565" fill="#000" font-size="14" textLength="51.741">Service</text><rect x="1279.426" y="1753.273" width="142.215" height="30.297" fill="#E2E2F0" style="stroke:#181818;stroke-width:0.5;" rx="2.5" ry="2.5"/><text x="1286.426" y="1773.269" fill="#000" font-size="14" textLength="128.215">Payment Gateway</text><text x="1431.641" y="1766.269" fill="#000" font-size="14" textLength="80.753">PostgreSQL</text><path d="M1457.018,1779.57 C1457.018,1769.57 1475.018,1769.57 1475.018,1769.57 C1475.018,1769.57 1493.018,1769.57 1493.018,1779.57 L1493.018,1805.57 C1493.018,1815.57 1475.018,1815.57 1475.018,1815.57 C1475.018,1815.57 1457.018,1815.57 1457.018,1805.57 L1457.018,1779.57" style="stroke:#181818;stroke-width:0.5;" fill="#E2E2F0"/><path d="M1457.018,1779.57 C1457.018,1789.57 1475.018,1789.57 1475.018,1789.57 C1475.018,1789.57 1493.018,1789.57 1493.018,1779.57" style="stroke:#181818;stroke-width:0.5;" fill="none"/><rect x="1528.394" y="1753.273" width="150.521" height="30.297" fill="#E2E2F0" style="stroke:#181818;stroke-width:0.5;" rx="2.5" ry="2.5"/><text x="1535.394" y="1773.269" fill="#000" font-size="14" textLength="136.521">Notification Service</text><path d="M1734.583,1753.273 L1856.795,1753.273 C1861.795,1753.273 1861.795,1774.57 1861.795,1774.57 C1861.795,1774.57 1861.795,1795.867 1856.795,1795.867 L1734.583,1795.867 C1729.583,1795.867 1729.583,1774.57 1729.583,1774.57 C1729.583,1774.57 1729.583,1753.273 1734.583,1753.273" style="stroke:#181818;stroke-width:0.5;" fill="#E2E2F0"/><path d="M1856.795,1753.273 C1851.795,1753.273 1851.795,1774.57 1851.795,1774.57 C1851.795,1795.867 1856.795,1795.867 1856.795,1795.867" style="stroke:#181818;stroke-width:0.5;" fill="none"/><text x="1734.583" y="1771.269" fill="#000" font-size="14" textLength="112.212">Message Broker</text><text x="1765.54" y="1787.565" fill="#000" font-size="14" textLength="50.299">(Kafka)</text><polygon points="290.268,151.023,300.268,155.023,290.268,159.023,294.268,155.023" fill="#181818" style="stroke:#181818;stroke-width:1;stroke-linejoin:miter;stroke-miterlimit:10;"/><line x1="33.566" y1="155.023" x2="296.268" y2="155.023" style="stroke:#181818;stroke-width:1;"/><text x="40.566" y="149.958" fill="#000" font-size="13" textLength="111.325">GET /events/{id}</text><polygon points="605.458,180.156,615.458,184.156,605.458,188.156,609.458,184.156" fill="#181818" style="stroke:#181818;stroke-width:1;stroke-linejoin:miter;stroke-miterlimit:10;"/><line x1="302.268" y1="184.156" x2="611.458" y2="184.156" style="stroke:#181818;stroke-width:1;"/><text x="309.268" y="179.09" fill="#000" font-size="13" textLength="154.223">fetch event + seat map</text><polygon points="313.268,209.289,303.268,213.289,313.268,217.289,309.268,213.289" fill="#181818" style="stroke:#181818;stroke-width:1;stroke-linejoin:miter;stroke-miterlimit:10;"/><line x1="307.268" y1="213.289" x2="616.458" y2="213.289" style="stroke:#181818;stroke-width:1;stroke-dasharray:2,2;"/><text x="319.268" y="208.223" fill="#000" font-size="13" textLength="84.468">event details</text><polygon points="44.566,238.422,34.566,242.422,44.566,246.422,40.566,242.422" fill="#181818" style="stroke:#181818;stroke-width:1;stroke-linejoin:miter;stroke-miterlimit:10;"/><line x1="38.566" y1="242.422" x2="301.268" y2="242.422" style="stroke:#181818;stroke-width:1;stroke-dasharray:2,2;"/><text x="50.566" y="237.356" fill="#000" font-size="13" textLength="120.491">render venue map</text><path d="M17.566,254.422 L82.009,254.422 L82.009,261.555 L72.009,271.555 L17.566,271.555 L17.566,254.422" style="stroke:#000;stroke-width:1.5;" fill="#EEE"/><rect x="17.566" y="254.422" width="491.639" height="143.664" fill="none" style="stroke:#000;stroke-width:1.5;"/><text x="32.566" y="267.489" fill="#000" font-size="13" textLength="19.443" font-weight="700">alt</text><text x="97.009" y="266.632" fill="#000" font-size="11" textLength="130.861" font-weight="700">[high-demand event]</text><polygon points="290.268,298.688,300.268,302.688,290.268,306.688,294.268,302.688" fill="#181818" style="stroke:#181818;stroke-width:1;stroke-linejoin:miter;stroke-miterlimit:10;"/><line x1="33.566" y1="302.688" x2="296.268" y2="302.688" style="stroke:#181818;stroke-width:1;"/><text x="40.566" y="297.622" fill="#000" font-size="13" textLength="113.007">join waiting room</text><polygon points="481.205,327.82,491.205,331.82,481.205,335.82,485.205,331.82" fill="#181818" style="stroke:#181818;stroke-width:1;stroke-linejoin:miter;stroke-miterlimit:10;"/><line x1="302.268" y1="331.82" x2="487.205" y2="331.82" style="stroke:#181818;stroke-width:1;"/><text x="309.268" y="326.754" fill="#000" font-size="13" textLength="164.925">enqueue(userId, eventId)</text><polygon points="44.566,356.953,34.566,360.953,44.566,364.953,40.566,360.953" fill="#181818" style="stroke:#181818;stroke-width:1;stroke-linejoin:miter;stroke-miterlimit:10;"/><line x1="38.566" y1="360.953" x2="492.205" y2="360.953" style="stroke:#181818;stroke-width:1;stroke-dasharray:2,2;"/><text x="50.566" y="355.887" fill="#000" font-size="13" textLength="207.111">queue position (via WebSocket)</text><polygon points="313.268,386.086,303.268,390.086,313.268,394.086,309.268,390.086" fill="#181818" style="stroke:#181818;stroke-width:1;stroke-linejoin:miter;stroke-miterlimit:10;"/><line x1="307.268" y1="390.086" x2="492.205" y2="390.086" style="stroke:#181818;stroke-width:1;"/><text x="319.268" y="385.02" fill="#000" font-size="13" textLength="166.937">admit user when slot free</text><polygon points="290.268,429.219,300.268,433.219,290.268,437.219,294.268,433.219" fill="#181818" style="stroke:#181818;stroke-width:1;stroke-linejoin:miter;stroke-miterlimit:10;"/><line x1="33.566" y1="433.219" x2="296.268" y2="433.219" style="stroke:#181818;stroke-width:1;"/><text x="40.566" y="428.153" fill="#000" font-size="13" textLength="87.509">select seat(s)</text><polygon points="746.677,458.352,756.677,462.352,746.677,466.352,750.677,462.352" fill="#181818" style="stroke:#181818;stroke-width:1;stroke-linejoin:miter;stroke-miterlimit:10;"/><line x1="302.268" y1="462.352" x2="752.677" y2="462.352" style="stroke:#181818;stroke-width:1;"/><text x="309.268" y="457.286" fill="#000" font-size="13" textLength="227.557">POST /reservations {seats, userId}</text><polygon points="970.177,487.484,980.177,491.484,970.177,495.484,974.177,491.484" fill="#181818" style="stroke:#181818;stroke-width:1;stroke-linejoin:miter;stroke-miterlimit:10;"/><line x1="758.677" y1="491.484" x2="976.177" y2="491.484" style="stroke:#181818;stroke-width:1;"/><text x="765.677" y="486.418" fill="#000" font-size="13" textLength="199.5">SET lock:seat:{id} NX EX=600</text><path d="M17.566,503.484 L82.009,503.484 L82.009,510.617 L72.009,520.617 L17.566,520.617 L17.566,503.484" style="stroke:#000;stroke-width:1.5;" fill="#EEE"/><rect x="17.566" y="503.484" width="1473.452" height="261.867" fill="none" style="stroke:#000;stroke-width:1.5;"/><text x="32.566" y="516.551" fill="#000" font-size="13" textLength="19.443" font-weight="700">alt</text><text x="97.009" y="515.695" fill="#000" font-size="11" textLength="93.226" font-weight="700">[lock acquired]</text><line x1="17.566" y1="658.148" x2="1491.018" y2="658.148" style="stroke:#000;stroke-width:1;stroke-dasharray:2,2;"/><text x="22.566" y="670.359" fill="#000" font-size="11" textLength="116.359" font-weight="700">[lock already held]</text><polygon points="769.677,547.75,759.677,551.75,769.677,555.75,765.677,551.75" fill="#181818" style="stroke:#181818;stroke-width:1;stroke-linejoin:miter;stroke-miterlimit:10;"/><line x1="763.677" y1="551.75" x2="981.177" y2="551.75" style="stroke:#181818;stroke-width:1;stroke-dasharray:2,2;"/><text x="775.677" y="546.684" fill="#000" font-size="13" textLength="18.757">OK</text><polygon points="1463.018,576.883,1473.018,580.883,1463.018,584.883,1467.018,580.883" fill="#181818" style="stroke:#181818;stroke-width:1;stroke-linejoin:miter;stroke-miterlimit:10;"/><line x1="758.677" y1="580.883" x2="1469.018" y2="580.883" style="stroke:#181818;stroke-width:1;"/><text x="765.677" y="575.817" fill="#000" font-size="13" textLength="258.394">insert Reservation(PENDING, expiresAt)</text><polygon points="313.268,606.016,303.268,610.016,313.268,614.016,309.268,610.016" fill="#181818" style="stroke:#181818;stroke-width:1;stroke-linejoin:miter;stroke-miterlimit:10;"/><line x1="307.268" y1="610.016" x2="757.677" y2="610.016" style="stroke:#181818;stroke-width:1;stroke-dasharray:2,2;"/><text x="319.268" y="604.95" fill="#000" font-size="13" textLength="127.956">reservation created</text><polygon points="44.566,635.148,34.566,639.148,44.566,643.148,40.566,639.148" fill="#181818" style="stroke:#181818;stroke-width:1;stroke-linejoin:miter;stroke-miterlimit:10;"/><line x1="38.566" y1="639.148" x2="301.268" y2="639.148" style="stroke:#181818;stroke-width:1;stroke-dasharray:2,2;"/><text x="50.566" y="634.083" fill="#000" font-size="13" textLength="238.354">seats locked, checkout timer started</text><polygon points="769.677,695.086,759.677,699.086,769.677,703.086,765.677,699.086" fill="#181818" style="stroke:#181818;stroke-width:1;stroke-linejoin:miter;stroke-miterlimit:10;"/><line x1="763.677" y1="699.086" x2="981.177" y2="699.086" style="stroke:#181818;stroke-width:1;stroke-dasharray:2,2;"/><text x="775.677" y="694.02" fill="#000" font-size="13" textLength="15.463">nil</text><polygon points="313.268,724.219,303.268,728.219,313.268,732.219,309.268,728.219" fill="#181818" style="stroke:#181818;stroke-width:1;stroke-linejoin:miter;stroke-miterlimit:10;"/><line x1="307.268" y1="728.219" x2="757.677" y2="728.219" style="stroke:#181818;stroke-width:1;stroke-dasharray:2,2;"/><text x="319.268" y="723.153" fill="#000" font-size="13" textLength="78.26">409 Conflict</text><polygon points="44.566,753.352,34.566,757.352,44.566,761.352,40.566,757.352" fill="#181818" style="stroke:#181818;stroke-width:1;stroke-linejoin:miter;stroke-miterlimit:10;"/><line x1="38.566" y1="757.352" x2="301.268" y2="757.352" style="stroke:#181818;stroke-width:1;stroke-dasharray:2,2;"/><text x="50.566" y="752.286" fill="#000" font-size="13" textLength="196.898">seat unavailable, pick another</text><polygon points="290.268,796.484,300.268,800.484,290.268,804.484,294.268,800.484" fill="#181818" style="stroke:#181818;stroke-width:1;stroke-linejoin:miter;stroke-miterlimit:10;"/><line x1="33.566" y1="800.484" x2="296.268" y2="800.484" style="stroke:#181818;stroke-width:1;"/><text x="40.566" y="795.418" fill="#000" font-size="13" textLength="154.121">submit payment details</text><polygon points="1091.896,825.617,1101.896,829.617,1091.896,833.617,1095.896,829.617" fill="#181818" style="stroke:#181818;stroke-width:1;stroke-linejoin:miter;stroke-miterlimit:10;"/><line x1="302.268" y1="829.617" x2="1097.896" y2="829.617" style="stroke:#181818;stroke-width:1;"/><text x="309.268" y="824.551" fill="#000" font-size="13" textLength="326.295">POST /checkout {reservationId, idempotencyKey}</text><polygon points="1463.018,854.75,1473.018,858.75,1463.018,862.75,1467.018,858.75" fill="#181818" style="stroke:#181818;stroke-width:1;stroke-linejoin:miter;stroke-miterlimit:10;"/><line x1="1103.896" y1="858.75" x2="1469.018" y2="858.75" style="stroke:#181818;stroke-width:1;"/><text x="1110.896" y="853.684" fill="#000" font-size="13" textLength="304.123">verify Reservation is PENDING and not expired</text><polygon points="1338.534,883.883,1348.534,887.883,1338.534,891.883,1342.534,887.883" fill="#181818" style="stroke:#181818;stroke-width:1;stroke-linejoin:miter;stroke-miterlimit:10;"/><line x1="1103.896" y1="887.883" x2="1344.534" y2="887.883" style="stroke:#181818;stroke-width:1;"/><text x="1110.896" y="882.817" fill="#000" font-size="13" textLength="222.638">charge(amount, idempotencyKey)</text><path d="M17.566,899.883 L82.009,899.883 L82.009,907.016 L72.009,917.016 L17.566,917.016 L17.566,899.883" style="stroke:#000;stroke-width:1.5;" fill="#EEE"/><rect x="17.566" y="899.883" width="1794.124" height="698.859" fill="none" style="stroke:#000;stroke-width:1.5;"/><text x="32.566" y="912.95" fill="#000" font-size="13" textLength="19.443" font-weight="700">alt</text><text x="97.009" y="912.093" fill="#000" font-size="11" textLength="125.125" font-weight="700">[payment succeeds]</text><line x1="17.566" y1="1287.609" x2="1811.689" y2="1287.609" style="stroke:#000;stroke-width:1;stroke-dasharray:2,2;"/><text x="22.566" y="1299.82" fill="#000" font-size="11" textLength="230.876" font-weight="700">[payment fails or gateway times out]</text><polygon points="1114.896,944.148,1104.896,948.148,1114.896,952.148,1110.896,948.148" fill="#181818" style="stroke:#181818;stroke-width:1;stroke-linejoin:miter;stroke-miterlimit:10;"/><line x1="1108.896" y1="948.148" x2="1349.534" y2="948.148" style="stroke:#181818;stroke-width:1;stroke-dasharray:2,2;"/><text x="1120.896" y="943.083" fill="#000" font-size="13" textLength="158.152">success + providerRefId</text><polygon points="1463.018,973.281,1473.018,977.281,1463.018,981.281,1467.018,977.281" fill="#181818" style="stroke:#181818;stroke-width:1;stroke-linejoin:miter;stroke-miterlimit:10;"/><line x1="1103.896" y1="977.281" x2="1469.018" y2="977.281" style="stroke:#181818;stroke-width:1;"/><text x="1110.896" y="972.215" fill="#000" font-size="13" textLength="189.42">insert Payment(SUCCEEDED)</text><polygon points="769.677,1002.414,759.677,1006.414,769.677,1010.414,765.677,1006.414" fill="#181818" style="stroke:#181818;stroke-width:1;stroke-linejoin:miter;stroke-miterlimit:10;"/><line x1="763.677" y1="1006.414" x2="1102.896" y2="1006.414" style="stroke:#181818;stroke-width:1;"/><text x="775.677" y="1001.348" fill="#000" font-size="13" textLength="127.689">confirm reservation</text><polygon points="1463.018,1031.547,1473.018,1035.547,1463.018,1039.547,1467.018,1035.547" fill="#181818" style="stroke:#181818;stroke-width:1;stroke-linejoin:miter;stroke-miterlimit:10;"/><line x1="758.677" y1="1035.547" x2="1469.018" y2="1035.547" style="stroke:#181818;stroke-width:1;"/><text x="765.677" y="1030.481" fill="#000" font-size="13" textLength="216.607">update Reservation(CONFIRMED)</text><polygon points="970.177,1060.68,980.177,1064.68,970.177,1068.68,974.177,1064.68" fill="#181818" style="stroke:#181818;stroke-width:1;stroke-linejoin:miter;stroke-miterlimit:10;"/><line x1="758.677" y1="1064.68" x2="976.177" y2="1064.68" style="stroke:#181818;stroke-width:1;"/><text x="765.677" y="1059.614" fill="#000" font-size="13" textLength="120.84">DEL lock:seat:{id}</text><polygon points="1463.018,1089.813,1473.018,1093.813,1463.018,1097.813,1467.018,1093.813" fill="#181818" style="stroke:#181818;stroke-width:1;stroke-linejoin:miter;stroke-miterlimit:10;"/><line x1="758.677" y1="1093.813" x2="1469.018" y2="1093.813" style="stroke:#181818;stroke-width:1;"/><text x="765.677" y="1088.747" fill="#000" font-size="13" textLength="198.618">update Seat.status = BOOKED</text><polygon points="1463.018,1118.945,1473.018,1122.945,1463.018,1126.945,1467.018,1122.945" fill="#181818" style="stroke:#181818;stroke-width:1;stroke-linejoin:miter;stroke-miterlimit:10;"/><line x1="1103.896" y1="1122.945" x2="1469.018" y2="1122.945" style="stroke:#181818;stroke-width:1;"/><text x="1110.896" y="1117.879" fill="#000" font-size="13" textLength="170.295">insert Ticket(qrCodeHash)</text><polygon points="1783.689,1148.078,1793.689,1152.078,1783.689,1156.078,1787.689,1152.078" fill="#181818" style="stroke:#181818;stroke-width:1;stroke-linejoin:miter;stroke-miterlimit:10;"/><line x1="1103.896" y1="1152.078" x2="1789.689" y2="1152.078" style="stroke:#181818;stroke-width:1;"/><text x="1110.896" y="1147.012" fill="#000" font-size="13" textLength="197.158">publish OrderConfirmed event</text><polygon points="1614.654,1177.211,1604.654,1181.211,1614.654,1185.211,1610.654,1181.211" fill="#181818" style="stroke:#181818;stroke-width:1;stroke-linejoin:miter;stroke-miterlimit:10;"/><line x1="1608.654" y1="1181.211" x2="1794.689" y2="1181.211" style="stroke:#181818;stroke-width:1;"/><text x="1620.654" y="1176.145" fill="#000" font-size="13" textLength="168.035">consume OrderConfirmed</text><polygon points="44.566,1206.344,34.566,1210.344,44.566,1214.344,40.566,1210.344" fill="#181818" style="stroke:#181818;stroke-width:1;stroke-linejoin:miter;stroke-miterlimit:10;"/><line x1="38.566" y1="1210.344" x2="1602.654" y2="1210.344" style="stroke:#181818;stroke-width:1;stroke-dasharray:2,2;"/><text x="50.566" y="1205.278" fill="#000" font-size="13" textLength="178.699">email/SMS with ticket + QR</text><polygon points="313.268,1235.477,303.268,1239.477,313.268,1243.477,309.268,1239.477" fill="#181818" style="stroke:#181818;stroke-width:1;stroke-linejoin:miter;stroke-miterlimit:10;"/><line x1="307.268" y1="1239.477" x2="1102.896" y2="1239.477" style="stroke:#181818;stroke-width:1;stroke-dasharray:2,2;"/><text x="319.268" y="1234.411" fill="#000" font-size="13" textLength="103.34">200 OK + ticket</text><polygon points="44.566,1264.609,34.566,1268.609,44.566,1272.609,40.566,1268.609" fill="#181818" style="stroke:#181818;stroke-width:1;stroke-linejoin:miter;stroke-miterlimit:10;"/><line x1="38.566" y1="1268.609" x2="301.268" y2="1268.609" style="stroke:#181818;stroke-width:1;stroke-dasharray:2,2;"/><text x="50.566" y="1263.543" fill="#000" font-size="13" textLength="244.702">booking confirmed (WebSocket push)</text><polygon points="1114.896,1324.547,1104.896,1328.547,1114.896,1332.547,1110.896,1328.547" fill="#181818" style="stroke:#181818;stroke-width:1;stroke-linejoin:miter;stroke-miterlimit:10;"/><line x1="1108.896" y1="1328.547" x2="1349.534" y2="1328.547" style="stroke:#181818;stroke-width:1;stroke-dasharray:2,2;"/><text x="1120.896" y="1323.481" fill="#000" font-size="13" textLength="104.654">failure / timeout</text><polygon points="769.677,1353.68,759.677,1357.68,769.677,1361.68,765.677,1357.68" fill="#181818" style="stroke:#181818;stroke-width:1;stroke-linejoin:miter;stroke-miterlimit:10;"/><line x1="763.677" y1="1357.68" x2="1102.896" y2="1357.68" style="stroke:#181818;stroke-width:1;"/><text x="775.677" y="1352.614" fill="#000" font-size="13" textLength="242.188">trigger compensation (Saga rollback)</text><polygon points="1463.018,1382.813,1473.018,1386.813,1463.018,1390.813,1467.018,1386.813" fill="#181818" style="stroke:#181818;stroke-width:1;stroke-linejoin:miter;stroke-miterlimit:10;"/><line x1="758.677" y1="1386.813" x2="1469.018" y2="1386.813" style="stroke:#181818;stroke-width:1;"/><text x="765.677" y="1381.747" fill="#000" font-size="13" textLength="215.484">update Reservation(CANCELLED)</text><polygon points="970.177,1411.945,980.177,1415.945,970.177,1419.945,974.177,1415.945" fill="#181818" style="stroke:#181818;stroke-width:1;stroke-linejoin:miter;stroke-miterlimit:10;"/><line x1="758.677" y1="1415.945" x2="976.177" y2="1415.945" style="stroke:#181818;stroke-width:1;"/><text x="765.677" y="1410.879" fill="#000" font-size="13" textLength="120.84">DEL lock:seat:{id}</text><polygon points="1463.018,1441.078,1473.018,1445.078,1463.018,1449.078,1467.018,1445.078" fill="#181818" style="stroke:#181818;stroke-width:1;stroke-linejoin:miter;stroke-miterlimit:10;"/><line x1="758.677" y1="1445.078" x2="1469.018" y2="1445.078" style="stroke:#181818;stroke-width:1;"/><text x="765.677" y="1440.012" fill="#000" font-size="13" textLength="213.51">update Seat.status = AVAILABLE</text><polygon points="1783.689,1470.211,1793.689,1474.211,1783.689,1478.211,1787.689,1474.211" fill="#181818" style="stroke:#181818;stroke-width:1;stroke-linejoin:miter;stroke-miterlimit:10;"/><line x1="1103.896" y1="1474.211" x2="1789.689" y2="1474.211" style="stroke:#181818;stroke-width:1;"/><text x="1110.896" y="1469.145" fill="#000" font-size="13" textLength="188.684">publish PaymentFailed event</text><polygon points="1614.654,1499.344,1604.654,1503.344,1614.654,1507.344,1610.654,1503.344" fill="#181818" style="stroke:#181818;stroke-width:1;stroke-linejoin:miter;stroke-miterlimit:10;"/><line x1="1608.654" y1="1503.344" x2="1794.689" y2="1503.344" style="stroke:#181818;stroke-width:1;"/><text x="1620.654" y="1498.278" fill="#000" font-size="13" textLength="159.561">consume PaymentFailed</text><polygon points="44.566,1528.477,34.566,1532.477,44.566,1536.477,40.566,1532.477" fill="#181818" style="stroke:#181818;stroke-width:1;stroke-linejoin:miter;stroke-miterlimit:10;"/><line x1="38.566" y1="1532.477" x2="1602.654" y2="1532.477" style="stroke:#181818;stroke-width:1;stroke-dasharray:2,2;"/><text x="50.566" y="1527.411" fill="#000" font-size="13" textLength="175.297">payment failed notification</text><polygon points="313.268,1557.609,303.268,1561.609,313.268,1565.609,309.268,1561.609" fill="#181818" style="stroke:#181818;stroke-width:1;stroke-linejoin:miter;stroke-miterlimit:10;"/><line x1="307.268" y1="1561.609" x2="1102.896" y2="1561.609" style="stroke:#181818;stroke-width:1;stroke-dasharray:2,2;"/><text x="319.268" y="1556.543" fill="#000" font-size="13" textLength="149.303">402 Payment Required</text><polygon points="44.566,1586.742,34.566,1590.742,44.566,1594.742,40.566,1590.742" fill="#181818" style="stroke:#181818;stroke-width:1;stroke-linejoin:miter;stroke-miterlimit:10;"/><line x1="38.566" y1="1590.742" x2="301.268" y2="1590.742" style="stroke:#181818;stroke-width:1;stroke-dasharray:2,2;"/><text x="50.566" y="1585.676" fill="#000" font-size="13" textLength="114.448">show retry option</text><rect x="10" y="1633.309" width="1851.795" height="3" fill="#EEE" style="stroke:#EEE;stroke-width:1;"/><line x1="10" y1="1633.309" x2="1861.795" y2="1633.309" style="stroke:#000;stroke-width:1;"/><line x1="10" y1="1636.309" x2="1861.795" y2="1636.309" style="stroke:#000;stroke-width:1;"/><rect x="796.997" y="1622.742" width="277.802" height="23.133" fill="#EEE" style="stroke:#000;stroke-width:2;"/><text x="802.997" y="1638.809" fill="#000" font-size="13" textLength="259.276" font-weight="700">TTL expiry (no payment submitted)</text><polygon points="970.177,1673.008,980.177,1677.008,970.177,1681.008,974.177,1677.008" fill="#181818" style="stroke:#181818;stroke-width:1;stroke-linejoin:miter;stroke-miterlimit:10;"/><line x1="758.677" y1="1677.008" x2="976.177" y2="1677.008" style="stroke:#181818;stroke-width:1;"/><text x="765.677" y="1671.942" fill="#000" font-size="13" textLength="169.501">key expires (TTL reached)</text><polygon points="769.677,1702.141,759.677,1706.141,769.677,1710.141,765.677,1706.141" fill="#181818" style="stroke:#181818;stroke-width:1;stroke-linejoin:miter;stroke-miterlimit:10;"/><line x1="763.677" y1="1706.141" x2="981.177" y2="1706.141" style="stroke:#181818;stroke-width:1;stroke-dasharray:2,2;"/><text x="775.677" y="1701.075" fill="#000" font-size="13" textLength="138.595">keyspace notification</text><polygon points="1463.018,1731.273,1473.018,1735.273,1463.018,1739.273,1467.018,1735.273" fill="#181818" style="stroke:#181818;stroke-width:1;stroke-linejoin:miter;stroke-miterlimit:10;"/><line x1="758.677" y1="1735.273" x2="1469.018" y2="1735.273" style="stroke:#181818;stroke-width:1;"/><text x="765.677" y="1730.208" fill="#000" font-size="13" textLength="365.676">update Reservation(EXPIRED), Seat.status = AVAILABLE</text><?plantuml-src hLPDR-984BtxLvHoCjgmGQFHIel4I7muB0e1WhEJ779fxCBknRYTxZOCYlBVjxhRP6mlCxk7FI6vNdszUbMDvZf3UEJH3lKgAnLq8SZZhXPT-e6H43kU9t2RYIFu8RwMc4VOyJmMQI5XL9vGUWMJcaUyOBc6g-5g1bEcySXELy0KJ9-QzYV6jOcu5cB_aZ-KM2A4A0yyGektNvekmG7fPymqoqJoajVHrSScVesA84npaLCl2SyTbZvxCU4tJA41nLozvBv2fY4JqKvrAXHzRyORyImp9T_0ECLe9qhTBAAoDvrMxBGtPTUvM4rh1Qo4qed4y65kRPDHqtyXDD_oo7LHpsODtgibxkeUbM89maYA7KfgvuvjTynruhvvdXqITB_GAFem3HxX1WsXwkQDn-_UzCcOAXxxi4KTfM01y0jOSlQiy2exTAim3X2ZPZnJDWOPRA8-ICnZIaW8gj0uUopJaF8axSQuPwGgw-q1D2hxI_0SZfKw9Ac30AuuAmdAcTkc_PAcEuklNPHPt26Sar6j1aTF8HIt_Fa7pk09Dw4mCgzvkDGitdCD9YuSKyn1PKB3LY9wr4gBG8KPHjeouwjEHHz9gm-hPKZSok_YK_1cOEeQNCdl7k4Sd3JMXv1cOPJNDwY-cGOidY5u7lpMwrdEZ15Oz5foYJ4LRVricpRXyiv-io4depxmdD9egCdVNmMBoMmn9RA-5HH43MtprgVgfrOlH98AiPcQ4xLTs6gGU8-g9G3DzyIBqYHRSiACLEqgpYXEV88KimjLvpnhbV2vzpkCHRxDUAGlveOoPmTI6jjaU0q5DpboeLDIzuK1bHippQBQlxf6lvnNzJoiZrRUQZGORN5IQY4q7RlJ7PxUlVC9g9W-eEJRKvrfe1Ohii58dCghE8_hpgjfd_XZCa6VxKMPwtQgZjkMS_MgZ2B4M14jgwcZvTo1DIb5Mrf8SQ0eSetRcI6yLMmbY-eW-U6Vut4GJ899fmcrmube35pkwwfeQgmiw89XGsFZvU9sjhvt0PiAdmJpbi8lHWl9-YlfIDFpCu3HSdaNJ7xOXtkg_5Sv5Z7-mLJQwiETlJuKvIRZAeMb96h6hY-itHuBCmxseDhMLRd75fwGrbwN91qndjs4zo4SkKvf3Kn1D8U7TRsIIewVUZrQLB8ws3_qlQbUsEYZGl_ZK54FfZsxMMT5R8sQWTxUn3qiTWlfGwalQCI0IudqSXcKmxH7hYLF4c8Y4li2S-NKx8SiONI5isp3ebtdtpKmN8o3-Vn_qy3mwt0s7uxcmSzdMsdwbjhyBwDjm2zDjauosYN-U8ClZFPpxzCv93NqSQLRzokbVquIjJo1A6mWUx860tXydBiJSG8_5xMLD_UBBce71eFMYx73q_cIWs_ywT3I3QCti7La2QWA5c6pXP_FC7XUpTOqmUiVpU9l?></g></svg>