<svg xmlns="http://www.w3.org/2000/svg" xmlns:xlink="http://www.w3.org/1999/xlink" version="1.1" data-diagram-type="DESCRIPTION" style="width:1765px;height:927px;background:#FFFFFF;" width="1765px" height="927px" viewBox="0 0 1765 927" zoomAndPan="magnify" preserveAspectRatio="none" contentStyleType="text/css"><?plantuml 1.2026.7beta6?><defs/><g font-family="sans-serif" lengthAdjust="spacing"><g class="title" data-source-line="1"><text x="668.292" y="22.995" fill="#000" font-size="14" textLength="421.415" font-weight="700">TicketPlus - Component Diagram (Bounded Contexts)</text></g><!--cluster API Gateway Layer--><g class="cluster" data-qualified-name="API Gateway Layer" id="ent0003" data-source-line="8"><path d="M958.5,166.087 L1108.079,166.087 A3.75,3.75 0 0 1 1110.579,168.587 L1117.579,188.384 L1211.5,188.384 A2.5,2.5 0 0 1 1214,190.884 L1214,286.187 A2.5,2.5 0 0 1 1211.5,288.687 L958.5,288.687 A2.5,2.5 0 0 1 956,286.187 L956,168.587 A2.5,2.5 0 0 1 958.5,166.087" style="stroke:#000;stroke-width:1.5;" fill="none"/><line x1="956" y1="188.384" x2="1117.579" y2="188.384" style="stroke:#000;stroke-width:1.5;"/><text x="960" y="181.082" fill="#000" font-size="14" textLength="148.579" font-weight="700">API Gateway Layer</text></g><!--cluster Identity & Access Domain--><g class="cluster" data-qualified-name="Identity . Access Domain" id="ent0005" data-source-line="12"><path d="M1220.5,337.687 L1423.967,337.687 A3.75,3.75 0 0 1 1426.467,340.187 L1433.467,359.984 L1433.5,359.984 A2.5,2.5 0 0 1 1436,362.484 L1436,595.577 A2.5,2.5 0 0 1 1433.5,598.077 L1220.5,598.077 A2.5,2.5 0 0 1 1218,595.577 L1218,340.187 A2.5,2.5 0 0 1 1220.5,337.687" style="stroke:#000;stroke-width:1.5;" fill="none"/><line x1="1218" y1="359.984" x2="1433.467" y2="359.984" style="stroke:#000;stroke-width:1.5;"/><text x="1222" y="352.682" fill="#000" font-size="14" textLength="202.467" font-weight="700">Identity &amp; Access Domain</text></g><!--cluster Event Catalog & Discovery Domain--><g class="cluster" data-qualified-name="Event Catalog . Discovery Domain" id="ent0008" data-source-line="17"><path d="M1462.5,337.687 L1737.71,337.687 A3.75,3.75 0 0 1 1740.21,340.187 L1747.21,359.984 L1747.5,359.984 A2.5,2.5 0 0 1 1750,362.484 L1750,595.577 A2.5,2.5 0 0 1 1747.5,598.077 L1462.5,598.077 A2.5,2.5 0 0 1 1460,595.577 L1460,340.187 A2.5,2.5 0 0 1 1462.5,337.687" style="stroke:#000;stroke-width:1.5;" fill="none"/><line x1="1460" y1="359.984" x2="1747.21" y2="359.984" style="stroke:#000;stroke-width:1.5;"/><text x="1464" y="352.682" fill="#000" font-size="14" textLength="274.21" font-weight="700">Event Catalog &amp; Discovery Domain</text></g><!--cluster Reservation Engine & Inventory Domain--><g class="cluster" data-qualified-name="Reservation Engine . Inventory Domain" id="ent0012" data-source-line="23"><path d="M864.5,345.837 L1181.819,345.837 A3.75,3.75 0 0 1 1184.319,348.337 L1191.319,368.134 L1191.5,368.134 A2.5,2.5 0 0 1 1194,370.634 L1194,777.017 A2.5,2.5 0 0 1 1191.5,779.517 L864.5,779.517 A2.5,2.5 0 0 1 862,777.017 L862,348.337 A2.5,2.5 0 0 1 864.5,345.837" style="stroke:#000;stroke-width:1.5;" fill="none"/><line x1="862" y1="368.134" x2="1191.319" y2="368.134" style="stroke:#000;stroke-width:1.5;"/><text x="866" y="360.832" fill="#000" font-size="14" textLength="316.319" font-weight="700">Reservation Engine &amp; Inventory Domain</text></g><!--cluster Billing & Checkout Domain--><g class="cluster" data-qualified-name="Billing . Checkout Domain" id="ent0017" data-source-line="30"><path d="M344.5,337.687 L555.849,337.687 A3.75,3.75 0 0 1 558.349,340.187 L565.349,359.984 L565.5,359.984 A2.5,2.5 0 0 1 568,362.484 L568,595.577 A2.5,2.5 0 0 1 565.5,598.077 L344.5,598.077 A2.5,2.5 0 0 1 342,595.577 L342,340.187 A2.5,2.5 0 0 1 344.5,337.687" style="stroke:#000;stroke-width:1.5;" fill="none"/><line x1="342" y1="359.984" x2="565.349" y2="359.984" style="stroke:#000;stroke-width:1.5;"/><text x="346" y="352.682" fill="#000" font-size="14" textLength="210.349" font-weight="700">Billing &amp; Checkout Domain</text></g><!--cluster Notification & Messaging Domain--><g class="cluster" data-qualified-name="Notification . Messaging Domain" id="ent0020" data-source-line="35"><path d="M8.5,660.577 L273.258,660.577 A3.75,3.75 0 0 1 275.758,663.077 L282.758,682.874 L282.5,682.874 A2.5,2.5 0 0 1 285,685.374 L285,909.967 A2.5,2.5 0 0 1 282.5,912.467 L8.5,912.467 A2.5,2.5 0 0 1 6,909.967 L6,663.077 A2.5,2.5 0 0 1 8.5,660.577" style="stroke:#000;stroke-width:1.5;" fill="none"/><line x1="6" y1="682.874" x2="282.758" y2="682.874" style="stroke:#000;stroke-width:1.5;"/><text x="10" y="675.572" fill="#000" font-size="14" textLength="263.758" font-weight="700">Notification &amp; Messaging Domain</text></g><!--entity GW--><g class="entity" data-qualified-name="API Gateway Layer.GW" id="ent0004" data-source-line="9"><rect x="972.46" y="220.087" width="225.078" height="52.594" fill="#F1F1F1" style="stroke:#181818;stroke-width:0.5;" rx="2.5" ry="2.5"/><text x="982.46" y="243.082" fill="#000" font-size="14" textLength="88.443">API Gateway</text><text x="982.46" y="259.379" fill="#000" font-size="14" textLength="205.078">(routing, authn, rate limiting)</text></g><!--entity Auth--><g class="entity" data-qualified-name="Identity . Access Domain.Auth" id="ent0006" data-source-line="13"><rect x="1233.76" y="391.687" width="162.488" height="52.594" fill="#F1F1F1" style="stroke:#181818;stroke-width:0.5;" rx="2.5" ry="2.5"/><text x="1243.76" y="414.682" fill="#000" font-size="14" textLength="89.004">Auth Service</text><text x="1243.76" y="430.979" fill="#000" font-size="14" textLength="142.488">(JWT/OAuth2, RBAC)</text></g><!--entity UserDB--><g class="entity" data-qualified-name="Identity . Access Domain.UserDB" id="ent0007" data-source-line="14"><path d="M1276.63,546.777 C1276.63,536.777 1315.003,536.777 1315.003,536.777 C1315.003,536.777 1353.375,536.777 1353.375,546.777 L1353.375,572.074 C1353.375,582.074 1315.003,582.074 1315.003,582.074 C1315.003,582.074 1276.63,582.074 1276.63,572.074 L1276.63,546.777" style="stroke:#181818;stroke-width:0.5;" fill="#F1F1F1"/><path d="M1276.63,546.777 C1276.63,556.777 1315.003,556.777 1315.003,556.777 C1315.003,556.777 1353.375,556.777 1353.375,546.777" style="stroke:#181818;stroke-width:0.5;" fill="none"/><text x="1286.63" y="573.772" fill="#000" font-size="14" textLength="56.745">User DB</text></g><!--entity Catalog--><g class="entity" data-qualified-name="Event Catalog . Discovery Domain.Catalog" id="ent0009" data-source-line="18"><rect x="1475.57" y="391.687" width="140.853" height="52.594" fill="#F1F1F1" style="stroke:#181818;stroke-width:0.5;" rx="2.5" ry="2.5"/><text x="1485.57" y="414.682" fill="#000" font-size="14" textLength="109.956">Catalog Service</text><text x="1485.57" y="430.979" fill="#000" font-size="14" textLength="120.853">(search, filtering)</text></g><!--entity CatalogDB--><g class="entity" data-qualified-name="Event Catalog . Discovery Domain.CatalogDB" id="ent0010" data-source-line="19"><path d="M1475.7,546.777 C1475.7,536.777 1525,536.777 1525,536.777 C1525,536.777 1574.3,536.777 1574.3,546.777 L1574.3,572.074 C1574.3,582.074 1525,582.074 1525,582.074 C1525,582.074 1475.7,582.074 1475.7,572.074 L1475.7,546.777" style="stroke:#181818;stroke-width:0.5;" fill="#F1F1F1"/><path d="M1475.7,546.777 C1475.7,556.777 1525,556.777 1525,556.777 C1525,556.777 1574.3,556.777 1574.3,546.777" style="stroke:#181818;stroke-width:0.5;" fill="none"/><text x="1485.7" y="573.772" fill="#000" font-size="14" textLength="78.6">Catalog DB</text></g><!--entity SearchCache--><g class="entity" data-qualified-name="Event Catalog . Discovery Domain.SearchCache" id="ent0011" data-source-line="20"><path d="M1608.8,546.777 C1608.8,536.777 1666.997,536.777 1666.997,536.777 C1666.997,536.777 1725.194,536.777 1725.194,546.777 L1725.194,572.074 C1725.194,582.074 1666.997,582.074 1666.997,582.074 C1666.997,582.074 1608.8,582.074 1608.8,572.074 L1608.8,546.777" style="stroke:#181818;stroke-width:0.5;" fill="#F1F1F1"/><path d="M1608.8,546.777 C1608.8,556.777 1666.997,556.777 1666.997,556.777 C1666.997,556.777 1725.194,556.777 1725.194,546.777" style="stroke:#181818;stroke-width:0.5;" fill="none"/><text x="1618.8" y="573.772" fill="#000" font-size="14" textLength="96.394">Search Cache</text></g><!--entity Waiting--><g class="entity" data-qualified-name="Reservation Engine . Inventory Domain.Waiting" id="ent0013" data-source-line="24"><rect x="887.71" y="399.837" width="174.588" height="36.297" fill="#F1F1F1" style="stroke:#181818;stroke-width:0.5;" rx="2.5" ry="2.5"/><text x="897.71" y="422.832" fill="#000" font-size="14" textLength="154.588">Waiting Room Service</text></g><!--entity Reservation--><g class="entity" data-qualified-name="Reservation Engine . Inventory Domain.Reservation" id="ent0014" data-source-line="25"><rect x="881.06" y="533.127" width="159.877" height="52.594" fill="#F1F1F1" style="stroke:#181818;stroke-width:0.5;" rx="2.5" ry="2.5"/><text x="891.06" y="556.122" fill="#000" font-size="14" textLength="139.877">Reservation Service</text><text x="891.06" y="572.419" fill="#000" font-size="14" textLength="95.259">(seat locking)</text></g><!--entity RedisLock--><g class="entity" data-qualified-name="Reservation Engine . Inventory Domain.RedisLock" id="ent0015" data-source-line="26"><path d="M880.03,711.927 C880.03,701.927 945.005,701.927 945.005,701.927 C945.005,701.927 1009.979,701.927 1009.979,711.927 L1009.979,753.521 C1009.979,763.521 945.005,763.521 945.005,763.521 C945.005,763.521 880.03,763.521 880.03,753.521 L880.03,711.927" style="stroke:#181818;stroke-width:0.5;" fill="#F1F1F1"/><path d="M880.03,711.927 C880.03,721.927 945.005,721.927 945.005,721.927 C945.005,721.927 1009.979,721.927 1009.979,711.927" style="stroke:#181818;stroke-width:0.5;" fill="none"/><text x="890.03" y="738.922" fill="#000" font-size="14" textLength="109.949">Seat Lock Store</text><text x="890.03" y="755.219" fill="#000" font-size="14" textLength="49.335">(Redis)</text></g><!--entity ResDB--><g class="entity" data-qualified-name="Reservation Engine . Inventory Domain.ResDB" id="ent0016" data-source-line="27"><path d="M1044.74,720.077 C1044.74,710.077 1109,710.077 1109,710.077 C1109,710.077 1173.261,710.077 1173.261,720.077 L1173.261,745.374 C1173.261,755.374 1109,755.374 1109,755.374 C1109,755.374 1044.74,755.374 1044.74,745.374 L1044.74,720.077" style="stroke:#181818;stroke-width:0.5;" fill="#F1F1F1"/><path d="M1044.74,720.077 C1044.74,730.077 1109,730.077 1109,730.077 C1109,730.077 1173.261,730.077 1173.261,720.077" style="stroke:#181818;stroke-width:0.5;" fill="none"/><text x="1054.74" y="747.072" fill="#000" font-size="14" textLength="108.521">Reservation DB</text></g><!--entity Checkout--><g class="entity" data-qualified-name="Billing . Checkout Domain.Checkout" id="ent0018" data-source-line="31"><rect x="395.63" y="391.687" width="156.739" height="52.594" fill="#F1F1F1" style="stroke:#181818;stroke-width:0.5;" rx="2.5" ry="2.5"/><text x="405.63" y="414.682" fill="#000" font-size="14" textLength="122.186">Checkout Service</text><text x="405.63" y="430.979" fill="#000" font-size="14" textLength="136.739">(Saga orchestrator)</text></g><!--entity BillingDB--><g class="entity" data-qualified-name="Billing . Checkout Domain.BillingDB" id="ent0019" data-source-line="32"><path d="M398.09,546.777 C398.09,536.777 475,536.777 475,536.777 C475,536.777 551.91,536.777 551.91,546.777 L551.91,572.074 C551.91,582.074 475,582.074 475,582.074 C475,582.074 398.09,582.074 398.09,572.074 L398.09,546.777" style="stroke:#181818;stroke-width:0.5;" fill="#F1F1F1"/><path d="M398.09,546.777 C398.09,556.777 475,556.777 475,556.777 C475,556.777 551.91,556.777 551.91,546.777" style="stroke:#181818;stroke-width:0.5;" fill="none"/><text x="408.09" y="573.772" fill="#000" font-size="14" textLength="133.82">Payment/Ticket DB</text></g><!--entity Notif--><g class="entity" data-qualified-name="Notification . Messaging Domain.Notif" id="ent0021" data-source-line="36"><rect x="112.74" y="714.577" width="156.521" height="36.297" fill="#F1F1F1" style="stroke:#181818;stroke-width:0.5;" rx="2.5" ry="2.5"/><text x="122.74" y="737.572" fill="#000" font-size="14" textLength="136.521">Notification Service</text></g><!--entity NotifDB--><g class="entity" data-qualified-name="Notification . Messaging Domain.NotifDB" id="ent0022" data-source-line="37"><path d="M125.98,861.167 C125.98,851.167 190.996,851.167 190.996,851.167 C190.996,851.167 256.011,851.167 256.011,861.167 L256.011,886.464 C256.011,896.464 190.996,896.464 190.996,896.464 C190.996,896.464 125.98,896.464 125.98,886.464 L125.98,861.167" style="stroke:#181818;stroke-width:0.5;" fill="#F1F1F1"/><path d="M125.98,861.167 C125.98,871.167 190.996,871.167 190.996,871.167 C190.996,871.167 256.011,871.167 256.011,861.167" style="stroke:#181818;stroke-width:0.5;" fill="none"/><text x="135.98" y="888.162" fill="#000" font-size="14" textLength="110.031">Notification Log</text></g><!--entity Buyer--><g class="entity" data-qualified-name="Buyer" id="ent0001" data-source-line="5"><ellipse cx="125.996" cy="529.777" rx="8" ry="8" fill="#F1F1F1" style="stroke:#181818;stroke-width:0.5;"/><path d="M125.996,537.777 L125.996,564.777 M112.996,545.777 L138.996,545.777 M125.996,564.777 L112.996,579.777 M125.996,564.777 L138.996,579.777" style="stroke:#181818;stroke-width:0.5;" fill="none"/><text x="105.43" y="594.272" fill="#000" font-size="14" textLength="41.132">Buyer</text></g><!--entity Organizer--><g class="entity" data-qualified-name="Organizer" id="ent0002" data-source-line="6"><ellipse cx="1085.001" cy="51.297" rx="8" ry="8" fill="#F1F1F1" style="stroke:#181818;stroke-width:0.5;"/><path d="M1085.001,59.297 L1085.001,86.297 M1072.001,67.297 L1098.001,67.297 M1085.001,86.297 L1072.001,101.297 M1085.001,86.297 L1098.001,101.297" style="stroke:#181818;stroke-width:0.5;" fill="none"/><text x="1050.64" y="115.792" fill="#000" font-size="14" textLength="68.722">Organizer</text></g><!--entity Broker--><g class="entity" data-qualified-name="Broker" id="ent0023" data-source-line="40"><path d="M193.052,538.265 C195.985,532.384 201.198,532.283 204.963,537.362 C208.538,530.092 213.552,530.508 218.679,535.647 C222.371,529.518 228.609,530.959 231.396,536.622 C233.902,530.142 239.651,530.629 243.056,535.716 C247.297,530.544 252.876,530.39 256.27,536.691 C259.226,531.223 263.886,530.931 267.849,535.532 C273.365,528.126 277.62,530.357 282.14,536.576 C285.63,532.365 290.402,531.706 293.131,537.419 C297.161,530.482 301.458,531.267 306.174,536.694 C310.384,531.731 315.693,531.746 319.195,537.55 C325.862,538.964 326.213,543.084 322.921,548.036 C330.803,548.918 331.414,555.039 327.421,560.284 C332.57,565.562 330.634,571.44 323.236,572.375 C327.711,577.556 325.318,583.054 319.165,584.735 C315.404,590.197 310.372,590.085 306.583,584.767 C303.98,592.28 298.482,592.945 293.854,586.632 C290.64,592.851 286.838,594.327 281.864,588.365 C278.772,594.39 274.477,595.466 269.704,590.169 C265.807,595.902 259.614,597.946 255.602,590.291 C251.972,595.863 247.49,595.475 244.222,589.922 C239.57,596.278 233.872,593.993 231.52,587.625 C226.788,593.221 219.943,592.811 217.25,585.39 C214.254,591.511 209.126,591.672 205.601,585.908 C200.646,591.18 195.581,589.971 192.424,583.833 C186.664,582.375 184.886,577.286 189.122,572.828 C181.381,571.551 179.842,566.671 184.302,560.589 C180.544,555.141 181.287,549.211 189.178,548.436 C185.671,543.378 186.709,539.571 193.052,538.265" style="stroke:#181818;stroke-width:0.5;" fill="#F1F1F1"/><text x="198.89" y="556.122" fill="#000" font-size="14" textLength="112.212">Message Broker</text><text x="198.89" y="572.419" fill="#000" font-size="14" textLength="50.299">(Kafka)</text></g><!--entity PG--><g class="entity" data-qualified-name="PG" id="ent0024" data-source-line="41"><path d="M696.468,536.897 C700.073,531.12 705.708,530.53 708.821,537.378 C712.624,531.829 717.23,531.654 721.22,537.168 C723.67,532.503 728.459,531.051 731.667,536.374 C736.021,531.217 739.989,531.129 743.683,537.088 C746.414,530.964 750.955,530.126 755.379,535.34 C759.933,529.705 764.689,530.235 768.296,536.377 C770.401,530.079 775.797,530.619 779.303,534.923 C784.342,529.582 788.322,529.434 791.911,536.407 C796.293,530.252 800.593,531.74 804.13,537.289 C806.975,531.252 812.682,532.288 815.772,537.024 C818.728,532.439 824.285,532.577 826.981,537.336 C829.632,532.105 834.86,531.164 838.264,536.535 C844.651,539.89 844.436,543.547 839.775,548.319 C846.549,551.786 845.829,555.578 840.85,560.116 C845.816,564.212 845.83,569.61 839.823,572.819 C846.306,575.792 846.164,581.23 840.266,584.666 C835.462,591.862 830.82,591.039 826.609,584.093 C824.303,590.458 818.732,589.699 815.356,585.201 C813.215,591.575 808.773,591.88 804.43,587.422 C800.835,595.205 795.992,595.57 790.913,588.799 C787.343,593.755 783.133,594.18 779.421,588.959 C776.183,595.283 772.361,595.217 767.735,590.416 C763.637,595.028 760.246,594.921 756.758,589.732 C752.519,594.49 746.778,594.654 744.241,587.884 C740.75,593.04 735.553,594.386 732.056,587.89 C726.802,592.169 723.526,590.594 720.91,584.932 C717.666,590.224 713.963,590.974 709.893,585.802 C704.291,591.662 699.127,590.155 696.427,582.836 C691.127,581.449 689.173,577.37 693.206,572.945 C687.053,569.071 686.833,564.743 692.348,560.09 C687.091,556.149 687.779,551.519 693.688,548.917 C689.31,544.161 690.377,539.231 696.468,536.897" style="stroke:#181818;stroke-width:0.5;" fill="#F1F1F1"/><text x="702.89" y="556.122" fill="#000" font-size="14" textLength="128.215">Payment Gateway</text><text x="702.89" y="572.419" fill="#000" font-size="14" textLength="69.022">(external)</text></g><!--entity MsgProvider--><g class="entity" data-qualified-name="MsgProvider" id="ent0025" data-source-line="42"><path d="M310.332,852.524 C314.462,846.958 318.221,845.47 323.123,851.685 C326.424,845.666 330.043,846.071 334.25,850.742 C337.424,844.391 344.065,843.679 348.116,849.765 C352.192,844.732 356.858,845.529 359.303,851.433 C362.352,843.807 368.963,843.04 373.374,850.13 C376.85,844.962 381.222,844.501 385.002,849.792 C389.01,843.237 394.465,843.159 397.943,850.293 C401.608,843.853 407.045,844.111 410.775,850.228 C414.926,844.094 419.407,844.491 422.887,850.877 C426.86,845.113 431.137,845.304 434.383,851.571 C437.979,844.71 443.251,844.081 447.952,850.437 C452.252,844.696 457.139,844.356 460.594,851.28 C467.58,853.282 468.387,857.415 463.765,862.654 C468.827,864.702 470.85,869.913 465.859,873.843 C472.597,878.722 469.807,884.987 463.417,887.522 C466.501,891.746 464.566,896.222 459.619,897.337 C457.065,903.963 451.582,905.124 447.264,899.055 C444.323,906.295 438.817,905.411 434.675,900.276 C431.256,906.588 427.518,906.934 423.257,901.064 C419.865,907.672 414.994,906.389 411.145,901.548 C406.619,907.872 401.996,907.625 397.967,901.04 C393.822,908.161 388.831,908.357 384.035,901.698 C380.127,906.944 375.86,905.392 373,900.55 C369.937,906.504 364.286,906.865 360.907,900.87 C356.565,906.174 352.316,906.674 348.046,900.786 C343.821,906.432 339.257,906.87 335.652,900.164 C331.783,906.81 325.659,905.596 322.15,899.774 C318.091,904.739 314.093,904.906 311.121,898.701 C303.79,895.816 302.497,890.963 308.884,885.716 C304.389,881.999 304.189,879.044 309.536,875.986 C303.949,872.34 304.281,867.535 309.915,864.251 C304.737,860.363 304.146,856.008 310.332,852.524" style="stroke:#181818;stroke-width:0.5;" fill="#F1F1F1"/><text x="315.97" y="870.512" fill="#000" font-size="14" textLength="136.056">Email/SMS Provider</text><text x="315.97" y="886.809" fill="#000" font-size="14" textLength="69.022">(external)</text></g><!--link Buyer to GW--><g class="link" data-entity-1="ent0001" data-entity-2="ent0004" id="lnk26" data-source-line="44" data-link-type="dependency"><path d="M137.7,521.087 C143.83,505.487 152.5,487.857 164,474.277 C238.65,386.107 271.6,369.627 380,329.687 C485.94,290.647 796.461,265.655 967.231,254.415" style="stroke:#181818;stroke-width:1;" fill="none" id="Buyer-to-GW"/><polygon points="972.22,254.087,962.977,250.687,967.231,254.415,963.502,258.669,972.22,254.087" fill="#181818" style="stroke:#181818;stroke-width:1;stroke-linejoin:miter;stroke-miterlimit:10;"/></g><!--link Organizer to GW--><g class="link" data-entity-1="ent0002" data-entity-2="ent0004" id="lnk27" data-source-line="45" data-link-type="dependency"><path d="M1085,119.437 C1085,150.167 1085,187.827 1085,214.767" style="stroke:#181818;stroke-width:1;" fill="none" id="Organizer-to-GW"/><polygon points="1085,219.767,1089,210.767,1085,214.767,1081,210.767,1085,219.767" fill="#181818" style="stroke:#181818;stroke-width:1;stroke-linejoin:miter;stroke-miterlimit:10;"/></g><!--link GW to Auth--><g class="link" data-entity-1="ent0004" data-entity-2="ent0006" id="lnk28" data-source-line="47" data-link-type="dependency"><path d="M1119.93,273.147 C1163.29,305.117 1232.755,356.34 1276.095,388.29" style="stroke:#181818;stroke-width:1;" fill="none" id="GW-to-Auth"/><polygon points="1280.12,391.257,1275.249,382.697,1276.095,388.29,1270.502,389.136,1280.12,391.257" fill="#181818" style="stroke:#181818;stroke-width:1;stroke-linejoin:miter;stroke-miterlimit:10;"/><text x="1180" y="317.754" fill="#000" font-size="13" textLength="93.146">validate token</text></g><!--link GW to Catalog--><g class="link" data-entity-1="ent0004" data-entity-2="ent0009" id="lnk29" data-source-line="48" data-link-type="dependency"><path d="M1197.76,266.187 C1262.23,279.267 1343.61,299.797 1412,329.687 C1449.02,345.867 1483.228,368.863 1509.338,388.283" style="stroke:#181818;stroke-width:1;" fill="none" id="GW-to-Catalog"/><polygon points="1513.35,391.267,1508.516,382.686,1509.338,388.283,1503.741,389.105,1513.35,391.267" fill="#181818" style="stroke:#181818;stroke-width:1;stroke-linejoin:miter;stroke-miterlimit:10;"/><text x="1387" y="317.754" fill="#000" font-size="13" textLength="103.067">search / browse</text></g><!--link GW to Waiting--><g class="link" data-entity-1="ent0004" data-entity-2="ent0013" id="lnk30" data-source-line="49" data-link-type="dependency"><path d="M1061.1,272.987 C1052.7,282.577 1043.49,293.797 1036,304.687 C1014.12,336.487 995.947,372.421 985.177,395.071" style="stroke:#181818;stroke-width:1;" fill="none" id="GW-to-Waiting"/><polygon points="983.03,399.587,990.507,393.177,985.177,395.071,983.282,389.741,983.03,399.587" fill="#181818" style="stroke:#181818;stroke-width:1;stroke-linejoin:miter;stroke-miterlimit:10;"/><text x="1037" y="317.754" fill="#000" font-size="13" textLength="68.275">join queue</text></g><!--link GW to Reservation--><g class="link" data-entity-1="ent0004" data-entity-2="ent0014" id="lnk31" data-source-line="50" data-link-type="dependency"><path d="M1098.93,273.167 C1103.4,282.777 1107.76,293.957 1110,304.687 C1123.25,368.197 1170.71,362.027 1079,491.277 C1066.52,508.867 1052.285,520.082 1033.485,530.282" style="stroke:#181818;stroke-width:1;" fill="none" id="GW-to-Reservation"/><polygon points="1029.09,532.667,1038.908,531.891,1033.485,530.282,1035.093,524.859,1029.09,532.667" fill="#181818" style="stroke:#181818;stroke-width:1;stroke-linejoin:miter;stroke-miterlimit:10;"/><text x="1135" y="422.554" fill="#000" font-size="13" textLength="64.981">lock seats</text></g><!--link GW to Checkout--><g class="link" data-entity-1="ent0004" data-entity-2="ent0018" id="lnk32" data-source-line="51" data-link-type="dependency"><path d="M992.2,273.147 C872.19,306.457 670.048,362.57 557.408,393.83" style="stroke:#181818;stroke-width:1;" fill="none" id="GW-to-Checkout"/><polygon points="552.59,395.167,562.332,396.614,557.408,393.83,560.193,388.906,552.59,395.167" fill="#181818" style="stroke:#181818;stroke-width:1;stroke-linejoin:miter;stroke-miterlimit:10;"/><text x="870" y="317.754" fill="#000" font-size="13" textLength="106.679">submit payment</text></g><!--link Auth to UserDB--><g class="link" data-entity-1="ent0006" data-entity-2="ent0007" id="lnk33" data-source-line="53" data-link-type="dependency"><path d="M1315,444.557 C1315,470.977 1315,506.757 1315,531.677" style="stroke:#181818;stroke-width:1;" fill="none" id="Auth-to-UserDB"/><polygon points="1315,536.677,1319,527.677,1315,531.677,1311,527.677,1315,536.677" fill="#181818" style="stroke:#181818;stroke-width:1;stroke-linejoin:miter;stroke-miterlimit:10;"/></g><!--link Catalog to CatalogDB--><g class="link" data-entity-1="ent0009" data-entity-2="ent0010" id="lnk34" data-source-line="54" data-link-type="dependency"><path d="M1542.15,444.557 C1538.17,470.977 1532.774,506.813 1529.024,531.733" style="stroke:#181818;stroke-width:1;" fill="none" id="Catalog-to-CatalogDB"/><polygon points="1528.28,536.677,1533.575,528.372,1529.024,531.733,1525.664,527.182,1528.28,536.677" fill="#181818" style="stroke:#181818;stroke-width:1;stroke-linejoin:miter;stroke-miterlimit:10;"/></g><!--link Catalog to SearchCache--><g class="link" data-entity-1="ent0009" data-entity-2="ent0011" id="lnk35" data-source-line="55" data-link-type="dependency"><path d="M1568.19,444.557 C1591.12,470.977 1623.233,507.98 1644.853,532.9" style="stroke:#181818;stroke-width:1;" fill="none" id="Catalog-to-SearchCache"/><polygon points="1648.13,536.677,1645.253,527.257,1644.853,532.9,1639.211,532.5,1648.13,536.677" fill="#181818" style="stroke:#181818;stroke-width:1;stroke-linejoin:miter;stroke-miterlimit:10;"/></g><!--link Waiting to Reservation--><g class="link" data-entity-1="ent0013" data-entity-2="ent0014" id="lnk36" data-source-line="57" data-link-type="dependency"><path d="M986.26,436.357 C994.3,450.897 1002.89,472.277 998,491.277 C994.22,505.977 989.1,516.644 981.66,528.674" style="stroke:#181818;stroke-width:1;" fill="none" id="Waiting-to-Reservation"/><polygon points="979.03,532.927,987.166,527.376,981.66,528.674,980.362,523.168,979.03,532.927" fill="#181818" style="stroke:#181818;stroke-width:1;stroke-linejoin:miter;stroke-miterlimit:10;"/><text x="1000" y="487.344" fill="#000" font-size="13" textLength="70.078">admit user</text></g><!--link Reservation to RedisLock--><g class="link" data-entity-1="ent0014" data-entity-2="ent0015" id="lnk37" data-source-line="58" data-link-type="dependency"><path d="M958.6,586.077 C955.72,616.967 951.345,663.809 948.285,696.589" style="stroke:#181818;stroke-width:1;" fill="none" id="Reservation-to-RedisLock"/><polygon points="947.82,701.567,952.639,692.978,948.285,696.589,944.674,692.234,947.82,701.567" fill="#181818" style="stroke:#181818;stroke-width:1;stroke-linejoin:miter;stroke-miterlimit:10;"/></g><!--link Reservation to ResDB--><g class="link" data-entity-1="ent0014" data-entity-2="ent0016" id="lnk38" data-source-line="59" data-link-type="dependency"><path d="M983.16,586.077 C1012.19,619.677 1059.341,674.243 1086.721,705.933" style="stroke:#181818;stroke-width:1;" fill="none" id="Reservation-to-ResDB"/><polygon points="1089.99,709.717,1087.133,700.292,1086.721,705.933,1081.079,705.522,1089.99,709.717" fill="#181818" style="stroke:#181818;stroke-width:1;stroke-linejoin:miter;stroke-miterlimit:10;"/></g><!--link Reservation to Broker--><g class="link" data-entity-1="ent0014" data-entity-2="ent0023" id="lnk39" data-source-line="60" data-link-type="dependency"><path d="M905.64,532.777 C866,515.287 810.77,494.137 759.5,485.637 C605.59,460.117 429.247,503.23 331.347,533.5" style="stroke:#181818;stroke-width:1;" fill="none" id="Reservation-to-Broker"/><polygon points="326.57,534.977,336.35,536.14,331.347,533.5,333.987,528.497,326.57,534.977" fill="#181818" style="stroke:#181818;stroke-width:1;stroke-linejoin:miter;stroke-miterlimit:10;"/><text x="585.5" y="487.344" fill="#000" font-size="13" textLength="173.063">publish reservation events</text></g><!--link Checkout to Reservation--><g class="link" data-entity-1="ent0018" data-entity-2="ent0014" id="lnk40" data-source-line="62" data-link-type="dependency"><path d="M552.78,422.717 C624.99,428.157 733.9,441.517 823,474.277 C861.32,488.367 896.593,510.718 923.413,529.898" style="stroke:#181818;stroke-width:1;" fill="none" id="Checkout-to-Reservation"/><polygon points="927.48,532.807,922.486,524.318,923.413,529.898,917.833,530.825,927.48,532.807" fill="#181818" style="stroke:#181818;stroke-width:1;stroke-linejoin:miter;stroke-miterlimit:10;"/><text x="860" y="487.344" fill="#000" font-size="13" textLength="109.872">confirm / release</text></g><!--link Checkout to BillingDB--><g class="link" data-entity-1="ent0018" data-entity-2="ent0019" id="lnk41" data-source-line="63" data-link-type="dependency"><path d="M474.18,444.557 C474.37,470.977 474.636,506.757 474.806,531.677" style="stroke:#181818;stroke-width:1;" fill="none" id="Checkout-to-BillingDB"/><polygon points="474.84,536.677,478.779,527.65,474.806,531.677,470.779,527.704,474.84,536.677" fill="#181818" style="stroke:#181818;stroke-width:1;stroke-linejoin:miter;stroke-miterlimit:10;"/></g><!--link Checkout to PG--><g class="link" data-entity-1="ent0018" data-entity-2="ent0024" id="lnk42" data-source-line="64" data-link-type="dependency"><path d="M552.74,423.607 C628.02,429.817 733.97,443.817 761,474.277 C773.64,488.517 775.479,505.021 773.739,522.711" style="stroke:#181818;stroke-width:1;" fill="none" id="Checkout-to-PG"/><polygon points="773.25,527.687,778.112,519.122,773.739,522.711,770.15,518.339,773.25,527.687" fill="#181818" style="stroke:#181818;stroke-width:1;stroke-linejoin:miter;stroke-miterlimit:10;"/><text x="770" y="487.344" fill="#000" font-size="13" textLength="44.948">charge</text></g><!--link Checkout to Broker--><g class="link" data-entity-1="ent0018" data-entity-2="ent0023" id="lnk43" data-source-line="65" data-link-type="dependency"><path d="M395.38,441.877 C373.49,450.197 350.41,460.927 331,474.277 C309.92,488.787 293.741,506.327 279.881,523.947" style="stroke:#181818;stroke-width:1;" fill="none" id="Checkout-to-Broker"/><polygon points="276.79,527.877,285.498,523.276,279.881,523.947,279.21,518.33,276.79,527.877" fill="#181818" style="stroke:#181818;stroke-width:1;stroke-linejoin:miter;stroke-miterlimit:10;"/><text x="332" y="487.344" fill="#000" font-size="13" textLength="133.936">publish order events</text></g><!--link Broker to Notif--><g class="link" data-entity-1="ent0023" data-entity-2="ent0021" id="lnk44" data-source-line="67" data-link-type="dependency"><path d="M245.4,590.987 C240.22,607.037 233.56,626.977 227,644.577 C217.92,668.967 208.211,692.086 200.661,709.586" style="stroke:#181818;stroke-width:1;" fill="none" id="Broker-to-Notif"/><polygon points="198.68,714.177,205.918,707.498,200.661,709.586,198.572,704.329,198.68,714.177" fill="#181818" style="stroke:#181818;stroke-width:1;stroke-linejoin:miter;stroke-miterlimit:10;"/><text x="233" y="640.644" fill="#000" font-size="13" textLength="106.945">consume events</text></g><!--link Notif to NotifDB--><g class="link" data-entity-1="ent0021" data-entity-2="ent0022" id="lnk45" data-source-line="68" data-link-type="dependency"><path d="M191,751.337 C191,776.637 191,818.217 191,845.767" style="stroke:#181818;stroke-width:1;" fill="none" id="Notif-to-NotifDB"/><polygon points="191,850.767,195,841.767,191,845.767,187,841.767,191,850.767" fill="#181818" style="stroke:#181818;stroke-width:1;stroke-linejoin:miter;stroke-miterlimit:10;"/></g><!--link Notif to MsgProvider--><g class="link" data-entity-1="ent0021" data-entity-2="ent0025" id="lnk46" data-source-line="69" data-link-type="dependency"><path d="M215.44,751.337 C247.09,774.147 298.704,811.343 337.364,839.213" style="stroke:#181818;stroke-width:1;" fill="none" id="Notif-to-MsgProvider"/><polygon points="341.42,842.137,336.458,833.629,337.364,839.213,331.78,840.119,341.42,842.137" fill="#181818" style="stroke:#181818;stroke-width:1;stroke-linejoin:miter;stroke-miterlimit:10;"/><text x="300" y="808.584" fill="#000" font-size="13" textLength="103.346">send email/SMS</text></g><!--link Notif to Buyer--><g class="link" data-entity-1="ent0021" data-entity-2="ent0001" id="lnk47" data-source-line="71" data-link-type="dependency"><path d="M166.37,714.177 C146.66,698.487 120.49,673.547 109,644.577 C103.12,629.747 103.739,617.42 108.059,602.5" style="stroke:#181818;stroke-width:1;stroke-dasharray:7,7;" fill="none" id="Notif-to-Buyer"/><polygon points="109.45,597.697,103.105,605.229,108.059,602.5,110.789,607.454,109.45,597.697" fill="#181818" style="stroke:#181818;stroke-width:1;stroke-linejoin:miter;stroke-miterlimit:10;"/><text x="110" y="640.644" fill="#000" font-size="13" textLength="108.716">WebSocket push</text></g><!--link Checkout to Buyer--><g class="link" data-entity-1="ent0018" data-entity-2="ent0001" id="lnk48" data-source-line="72" data-link-type="dependency"><path d="M395.14,420.097 C335.72,424.187 254.28,437.017 193,474.277 C174.17,485.727 161.276,500.358 149.806,517.278" style="stroke:#181818;stroke-width:1;stroke-dasharray:7,7;" fill="none" id="Checkout-to-Buyer"/><polygon points="147,521.417,155.361,516.212,149.806,517.278,148.739,511.723,147,521.417" fill="#181818" style="stroke:#181818;stroke-width:1;stroke-linejoin:miter;stroke-miterlimit:10;"/><text x="194" y="487.344" fill="#000" font-size="13" textLength="108.716">WebSocket push</text></g><?plantuml-src TLN1Rjim3BthAuWSYXPe6s3770eqIH5qQzSWxf33jeCYCuuMMyeaELqsxDz7IPPZkzXDVdmYdwX7sKbN8hnAiKUtB6iBDp3JrK4hL0xcaXU6Lt0vrRNACQUGSlZBsIl6x5wg0_THaVYPEr4kWy9nLPJ861TE6vZM9pJD-iKKNCdVzCqENEnvWJ2wNpx2WZjyuoTuuiGTmHy6yBM3VrENHjTEgk8QUErswXeCHQ2KbVJerNVW5XPhzhUJzp4dJTATu0BkXK1hOQuhBbLAJtaWGtEK0Yd_n_Nh-CLZ7wvXDRsVnPGU87BE7TzmIqc_M3GmduvyqA_dqrxDXwFlsupefIwey5nQeOzeJltQYN0kRv4RiRk6hImTclP83R4d8MrkL3IV9AHBoa8-2eeT1be4mdTFyGhf54Vkf5Rme0gfa6G_AdyEFPIzvg7RiDAwIjg3p2RWETrylUCvABNOjoVhy8R27JmH4p8IuFUkC9VsQXGtqT87Urkw9Pkc43IucQaiIw_z0cOx57joq-1A4deMdV62WwQkeNLaDssQEscOFGrBVggePUCuIKb6KtGWvRDsSYj557m1psHDNdXjFK4zLhVP8T0htgC-wMBKqc9bKUewXr4iX30rUe-63lY9R_SyTZPYYTcSfZD-DFLe52yZUxb8p0TIN8wpvmoMHXzb7lBsoS-sI376mcC0DpTtVbhRro01RB4Eop2R4pZoKkP-pXs9KocO_3-1E3GmXetHRnOJ8Tbq0Z-qLF2pnhgDTRqo2OxqMPnjaoSRKFPwGwyB768l60kYFAUP-wIZesc0TcUE9LNlLV3Srwa9Ojr092R3luzuXm_HU8sKyr1lIcbtz1gV2UY7sZBMdl6z5A7LLfgAMcgmH39NdtpsSmzUBlpM7JV5a3-Kemsve1NIX3qpk3KAi7M5YHBXba25pqZ7Ly4BAWTCRcGDx_RsBlv_YB76JQR3T1vgkpiB_J_d7m00?></g></svg>